<svg xmlns="http://www.w3.org/2000/svg" width="26" height="24" viewBox="0 0 26 24">
  <defs>
    <style>
      .cls-1 {
        fill: #323434;
      }
    </style>
  </defs>
  <g id="Gruppe_614" data-name="Gruppe 614" transform="translate(-214 -162)">
    <path id="Pfad_1256" data-name="Pfad 1256" class="cls-1" d="M26.5,6H24V7.5a.5.5,0,0,1-.5.5h-1a.5.5,0,0,1-.5-.5V6H10V7.5a.5.5,0,0,1-.5.5h-1A.5.5,0,0,1,8,7.5V6H5.5A2.507,2.507,0,0,0,3,8.5v17A2.507,2.507,0,0,0,5.5,28h21A2.507,2.507,0,0,0,29,25.5V8.5A2.507,2.507,0,0,0,26.5,6ZM27,24.75A1.254,1.254,0,0,1,25.75,26H6.25A1.254,1.254,0,0,1,5,24.75V13.5a.5.5,0,0,1,.5-.5h21a.5.5,0,0,1,.5.5Z" transform="translate(211 158)"/>
    <path id="Pfad_1257" data-name="Pfad 1257" class="cls-1" d="M10,4.5A.5.5,0,0,0,9.5,4h-1a.5.5,0,0,0-.5.5V6h2Z" transform="translate(211 158)"/>
    <path id="Pfad_1258" data-name="Pfad 1258" class="cls-1" d="M24,4.5a.5.5,0,0,0-.5-.5h-1a.5.5,0,0,0-.5.5V6h2Z" transform="translate(211 158)"/>
  </g>
</svg>
