<svg class="illustration" width="1155" height="700" viewBox="0 0 1155 700" fill="none" xmlns="http://www.w3.org/2000/svg">
<path fill-rule="evenodd" clip-rule="evenodd" d="M682.933 214.646C633.739 173.101 558.45 161.967 489.632 191.984C453.272 207.843 427.325 231.436 411.376 259.264C410.637 255.089 410.992 250.251 411.555 247.039C408.7 242.975 402.413 248.653 399.626 252C396.444 251.092 396.383 245.499 396.75 242.816C390.511 239.89 385.797 243.516 384.22 245.694C380.76 245.09 378.459 239.008 377.741 236.042C370.28 240.192 362.971 248.489 359.977 255.493C340.557 256.89 320.775 263.546 304.382 278.601C266.194 313.671 268.444 368.056 286.856 413.737C305.436 459.834 342.686 503.708 385.347 522.684C393.03 526.101 402.028 522.643 405.446 514.96C408.863 507.278 405.405 498.279 397.722 494.862C363.85 479.796 331.433 442.881 315.098 402.354C298.596 361.411 300.685 323.338 324.978 301.028C344.766 282.856 375.169 282.708 398.058 290.671C387.473 327.126 391.041 367.863 408.049 406.856C426.887 450.046 453.093 470.678 488.074 477.18L549.144 505.878C557.75 509.921 568.005 506.223 572.048 497.618C576.034 489.136 572.499 479.052 564.156 474.892C578.199 472.519 593.123 469.336 608.968 465.576C631.459 460.238 652.471 450.011 670.611 436.335L719.278 459.204C727.883 463.248 738.138 459.55 742.182 450.944C746.226 442.338 742.527 432.084 733.922 428.04L697.617 410.98C701.157 406.846 704.482 402.554 707.573 398.126C708.645 400.719 709.609 402.831 709.609 402.831C709.609 402.831 714.092 397.32 717.324 393.895L719.878 395.545C719.327 405.049 727.308 410.445 727.308 410.445C727.308 410.445 728.967 407.093 731.411 402.996L773.147 429.961C781.134 435.121 791.791 432.83 796.951 424.843C802.111 416.857 799.819 406.199 791.833 401.039L774.283 389.701C777.876 385.63 781.315 380.582 784.054 376.177C789.124 375.585 795.891 378.204 799.754 380.266C804.506 378.818 801.067 371.075 798.754 367.385C800.608 364.644 805.942 366.327 808.377 367.511C813.1 362.494 811.123 356.885 809.543 354.708C811.195 351.609 817.692 351.315 820.733 351.556C819.057 342.882 813.108 332.98 807.182 328.111C810.932 309.471 810.071 288.579 803.009 268.374C806.608 259.895 809.99 249.698 813.291 239.744C818.032 225.447 822.607 211.652 827.42 204.171C811.618 198.415 782.786 209.861 768.205 216.549C746.412 199.737 718.474 198.334 683.355 214.451L683.096 214.57L682.933 214.646Z" fill="#ffffff"/>
<path fill-rule="evenodd" clip-rule="evenodd" d="M879.702 365.679C880.262 365.894 880.891 365.615 881.107 365.055C881.323 364.494 881.044 363.865 880.483 363.649C861.23 356.233 839.985 357.456 821.324 361.934C802.656 366.413 786.46 374.177 777.224 379.987C776.716 380.307 776.563 380.979 776.883 381.487C776.996 381.666 777.152 381.802 777.33 381.887C776.135 382.356 775.024 382.821 774.006 383.275C773.457 383.519 773.211 384.162 773.455 384.711C773.7 385.259 774.343 385.506 774.891 385.261C782.926 381.68 797.015 377.341 813.05 376.031C829.086 374.721 846.974 376.447 862.689 384.889C863.218 385.174 863.877 384.975 864.161 384.446C864.446 383.917 864.247 383.258 863.718 382.973C847.511 374.267 829.163 372.533 812.873 373.864C799.91 374.923 788.19 377.927 779.787 380.963C789.032 375.379 804.329 368.249 821.831 364.049C840.258 359.627 861.013 358.48 879.702 365.679ZM637.939 420.798C638.416 421.163 639.098 421.073 639.464 420.597C652.772 403.239 673.376 393.088 692.934 387.496L692.336 385.405C672.553 391.062 651.445 401.395 637.738 419.273C637.372 419.75 637.462 420.432 637.939 420.798ZM659.092 424.797C658.746 425.288 658.067 425.405 657.576 425.058C657.086 424.711 656.969 424.033 657.316 423.542C669.34 406.522 687.818 396.277 704.765 390.454L705.472 392.511C688.761 398.253 670.755 408.289 659.092 424.797Z" fill="#22a6b3"/>
<path d="M610.34 313.761C625.555 323.333 670.625 335.081 691.258 339.758C691.272 316.615 687.037 269.938 669.984 268.374C652.932 266.81 623.116 297.98 610.34 313.761Z" fill="white" fill-opacity="0.12"/>
<path d="M766.654 409.399C769.447 405.267 779.81 407.393 783.942 410.186C788.074 412.979 789.159 418.593 786.366 422.725C783.572 426.857 777.959 427.942 773.827 425.148C769.695 422.355 763.861 413.531 766.654 409.399Z" fill="white" fill-opacity="0.27"/>
<path d="M720.001 371.665C724.163 378.177 735.829 380.849 740.717 375.059" stroke="black" stroke-width="4.34997" stroke-linejoin="bevel"/>
<path d="M771.761 362.175C780.633 363.155 788.177 355.709 787.774 348.377" stroke="black" stroke-width="4.34997"/>
<path d="M759.251 220.911C759.251 220.911 781.211 269.11 791.676 286.509C802.206 278.328 810.483 246.77 818.728 223.756C820.04 220.093 821.914 216.628 823.234 213.526C824.8 209.845 825.815 206.669 827.419 204.175C805.674 196.254 759.251 220.911 759.251 220.911Z" fill="white" fill-opacity="0.19"/>
<path fill-rule="evenodd" clip-rule="evenodd" d="M791.676 286.509C781.211 269.109 759.251 220.91 759.251 220.91C759.251 220.91 762.72 219.068 768.205 216.552C746.412 199.74 718.475 198.338 683.355 214.455C645.454 231.848 632.002 253.756 637.595 285.393C649.064 275.425 661.213 267.569 669.984 268.373C687.037 269.937 691.272 316.614 691.258 339.757C682.109 337.683 668.154 334.219 654.128 330.17C663.514 347.772 675.525 362.882 689.274 373.783C689.284 381.036 696.088 393.695 696.088 393.695C696.088 393.695 701.599 387.643 704.714 389.264C704.644 391.953 709.608 402.834 709.608 402.834C709.608 402.834 721.521 388.19 720.512 391.81C717.216 403.626 727.308 410.448 727.308 410.448C727.308 410.448 731.634 401.713 736.598 395.207C746.268 397.325 758.73 398.458 764.103 397.267C770.714 395.802 778.716 384.765 784.056 376.177C789.126 375.586 795.892 378.204 799.754 380.265C804.505 378.817 801.067 371.075 798.754 367.385C800.607 364.643 805.942 366.326 808.377 367.51C813.1 362.493 811.123 356.885 809.543 354.708C811.195 351.608 817.691 351.315 820.733 351.556C819.057 342.882 813.109 332.981 807.183 328.111C810.932 309.472 810.071 288.581 803.009 268.377C799.483 276.686 795.748 283.345 791.676 286.509Z" fill="white" fill-opacity="0.08"/>
<path d="M766.644 403.015C772.08 401.294 775.529 392.601 776.782 388.019C778.68 381.079 747.586 393.075 744.464 396.014C743.645 396.786 760.208 405.053 766.644 403.015Z" fill="#111111"/>
</svg>