<svg class="illustration" width="1155" height="700" viewBox="0 0 1155 700" fill="none" xmlns="http://www.w3.org/2000/svg">
<path d="M562.16 444.575L570.594 380.096H672.006L595.473 451.778L640.609 525.577L642.193 527.348C645.672 531.24 642.91 537.415 637.69 537.415C635.971 537.415 634.333 536.683 633.187 535.401L624.402 525.577L562.16 444.575Z" fill="#333333"/>
<path d="M356.513 459.257L394.951 375.816L484.901 395.281L383.63 465.126L411.997 529.493C414.298 535.052 409.408 540.908 403.527 539.636L398.963 538.648C393.616 537.491 390.219 532.218 391.377 526.871L391.757 525.113L356.513 459.257Z" fill="#333333"/>
<path fill-rule="evenodd" clip-rule="evenodd" d="M378.593 331.873C370.79 351.681 369.575 375.607 384.519 401.928L378.593 456.119L434.702 539.515C437.956 544.351 444.882 544.858 448.805 540.546C450.486 538.698 450.799 535.983 449.582 533.801L411.322 465.194C411.322 465.194 435.553 458.147 449.721 448.88C463.89 439.613 477.641 413.806 477.641 413.806C482.466 410.415 484.219 408.863 486.185 408.515C489.438 407.94 493.275 410.663 512.581 413.806C522.388 415.402 531.3 417.403 539.536 419.253C563.815 424.704 582.223 428.836 600.375 417.407C612.52 428.949 607.799 438.25 603.975 445.786C600.776 452.089 598.204 457.157 606.652 461.266L677.345 542.634L687.083 548.944C689.354 550.416 692.297 550.343 694.493 548.76C698.423 545.927 698.036 539.958 693.773 537.656L683.105 531.897L647.021 461.266C648.974 438.787 666.685 428.939 682.801 419.978C696.378 412.429 708.822 405.509 709.76 392.197C710.591 380.395 709.906 364.61 709.326 351.26C708.712 337.143 708.217 325.75 709.76 324.67C713.038 321.392 714.677 316.264 716.37 310.967C719.482 301.232 722.777 290.923 736.771 290.456C762.44 289.601 809.259 259.844 814.661 243.638L720.123 196.819C712.892 184.029 712.533 176.39 712.146 168.176C711.907 163.091 711.657 157.786 709.76 150.9L697.155 188.716L673.745 150V188.716C673.745 203.121 667.758 233.415 656.237 256.993C639.06 292.148 621.882 297.708 604.359 303.38C603.033 303.81 601.705 304.239 600.375 304.683C579.244 311.726 428.459 304.683 428.459 304.683C428.459 304.683 406.61 300.361 388.412 318.731C386.779 316.79 384.89 314.699 382.839 312.428C371.373 299.729 354.856 281.437 349.644 252.781C334.456 283.156 340.358 332.333 381.374 327.374C380.423 328.787 379.494 330.285 378.593 331.873Z" fill="#ffffff"/>
<path d="M650.222 266.142C655.985 275.506 700.189 303.912 720.897 307.514C720.897 319.211 716.01 324.692 714.51 329.493C705.506 329.493 629.522 289.363 637.217 280.074C649.464 265.291 646.921 271.845 650.222 266.142Z" fill="#22a6b3"/>
</svg>