<svg id="Gruppe_391" data-name="Gruppe 391" xmlns="http://www.w3.org/2000/svg" width="174.639" height="286.062" viewBox="0 0 174.639 286.062">
  <defs>
    <style>
      .cls-1 {
        fill: #f6693b;
      }

      .cls-2 {
        fill: #fc8b59;
      }

      .cls-3 {
        fill: #43200c;
      }

      .cls-4 {
        fill: #fff;
      }

      .cls-5 {
        fill: #85c0c5;
      }

      .cls-6 {
        fill: #61adaf;
      }

      .cls-7 {
        fill: #8e6c8f;
      }

      .cls-8 {
        fill: #7a5d7b;
      }

      .cls-9 {
        fill: #fcf9eb;
      }

      .cls-10 {
        fill: #f8f0e2;
      }

      .cls-11 {
        fill: #2d2d2d;
      }

      .cls-12 {
        fill: #3f3b3c;
      }
    </style>
  </defs>
  <g id="Gruppe_373" data-name="Gruppe 373" transform="translate(63.075)">
    <path id="Pfad_891" data-name="Pfad 891" class="cls-1" d="M1264.337,304.6h-30.929l.121-23.273h30.685Z" transform="translate(-1228.302 -240.157)"/>
    <g id="Gruppe_372" data-name="Gruppe 372">
      <g id="Gruppe_371" data-name="Gruppe 371" transform="translate(1.488 10.16)">
        <path id="Pfad_892" data-name="Pfad 892" class="cls-1" d="M1287.228,264.593c5.374-4.909,3.685,5.085,2.427,7.683-.462.956-1.48,2.833-2.659,3.054Z" transform="translate(-1252.034 -242.815)"/>
        <path id="Pfad_893" data-name="Pfad 893" class="cls-1" d="M1230.933,264.593c-5.373-4.909-3.69,5.085-2.43,7.683.464.956,1.479,2.833,2.66,3.054Z" transform="translate(-1227.223 -242.815)"/>
        <path id="Pfad_894" data-name="Pfad 894" class="cls-2" d="M1265.007,253.728c-.487-6.2.955-16.089-1.723-20.2-3.112-4.785-9.036-5.222-14.126-5.222s-11.018.438-14.135,5.222c-2.674,4.108-1.231,14-1.722,20.2-.623,7.918,1.568,13.357,7.608,18.261,1.785,1.445,5.912,2.32,8.249,2.356,2.327-.036,6.458-.911,8.241-2.356C1263.44,267.085,1265.631,261.646,1265.007,253.728Z" transform="translate(-1229.704 -228.309)"/>
      </g>
      <path id="Pfad_895" data-name="Pfad 895" class="cls-3" d="M1267.159,224.9c-.288-1.029-4.144-3.372-5.6-4.595-1.383-1.154-.113-5.141-3.7-7.024-4.452-2.339-4.1,1.439-12.867-1.9-5.033-1.923-8.841,3.005-8.841,3.005s-5.674,1.541-6.416,2.119c-2.446,1.916-3.6,4.7-4.893,10.57-.775,3.539,1.452,11.906,2.5,14.477,0,0,1.864,1.418,2.535,1.322-.123-2.7,1.081-6.453,1.081-8.423.531-1.689,4.578-8.291,6.467-8.941,2.005-2.006,5.74.407,7.657.455,1.052.025,7.132-.6,9.407-.017,4.934,1.267,5.73,9.478,5.73,9.478a33.572,33.572,0,0,1,1.142,7.448c2.1-1.917,3.048-1.081,3.048-1.081C1264.68,238.705,1268.6,230.054,1267.159,224.9Z" transform="translate(-1224.679 -210.94)"/>
    </g>
    <path id="Pfad_896" data-name="Pfad 896" class="cls-4" d="M1264.119,272.91c0,3.318-5.448,7.831-9.885,7.831s-9.614-3.992-9.614-7.309,5.008,1.442,9.443,1.442S1264.119,269.593,1264.119,272.91Z" transform="translate(-1232.956 -236.208)"/>
  </g>
  <g id="Gruppe_374" data-name="Gruppe 374" transform="translate(29.792 221.783)">
    <path id="Pfad_897" data-name="Pfad 897" class="cls-5" d="M1171.9,654.386h107.486c-2.01-33.841-3.9-64.279-3.9-64.279H1167.777l1.007,43.965Z" transform="translate(-1167.777 -590.107)"/>
    <path id="Pfad_898" data-name="Pfad 898" class="cls-6" d="M1239.424,679.741l-7.661-16.716-16.393-11.516,19.44-.316Z" transform="translate(-1187.532 -615.463)"/>
  </g>
  <g id="Gruppe_376" data-name="Gruppe 376" transform="translate(0 57.309)">
    <path id="Pfad_899" data-name="Pfad 899" class="cls-7" d="M1260.675,326.865c-4.93-8.864-29.513-17.948-29.513-17.948l-30.672,3.25-30.673-3.25S1145.233,318,1140.3,326.865c0,0-28.292,45.06-22.736,60.143,2.838,7.705,28.131,15.833,29.519,16.273.136,24.476.234,63.463-.45,70.109,7.97,4.7,34.1,10.13,53.854,10.213,19.756-.083,45.884-5.512,53.854-10.213-.686-6.646-.586-45.633-.452-70.109,1.389-.44,34.168,11.684,37.005,3.979C1296.454,392.177,1260.675,326.865,1260.675,326.865Z" transform="translate(-1116.844 -308.917)"/>
    <g id="Gruppe_375" data-name="Gruppe 375" transform="translate(48.107 35.835)">
      <path id="Pfad_900" data-name="Pfad 900" class="cls-8" d="M1268.208,379.929c-5.631,3.417-6.6-1.106-13.186-1.106s-6.587-.748-13.174-.748-6.584,1.45-13.172,1.45-6.587-.677-13.175-.677-8.475,6.011-14.107,2.6c-3.417-2.074-2.864-8.084.552-10.157,5.631-3.417,6.967,2.174,13.553,2.174s6.587.344,13.173.344,6.587-.224,13.173-.224,6.587-1.557,13.175-1.557,7.038-2.513,13.24-.293C1272.412,373.217,1271.624,377.857,1268.208,379.929Z" transform="translate(-1199.09 -370.181)"/>
      <path id="Pfad_901" data-name="Pfad 901" class="cls-8" d="M1268.037,410.527c-5.63,3.417-5.866.253-12.452.253s-6.587-.942-13.174-.942-6.584,2.084-13.172,2.084-6.587-1.744-13.175-1.744-7.1,4.217-12.728.8c-3.416-2.074-4.03-5.458-.614-7.533,5.631-3.416,6.754-1.61,13.34-1.61s6.587,1.968,13.173,1.968,6.587-1.542,13.173-1.542,6.587,2.028,13.175,2.028,7.126-3.329,13.438-1.447C1272.662,403.926,1271.454,408.454,1268.037,410.527Z" transform="translate(-1199.652 -383.122)"/>
      <path id="Pfad_902" data-name="Pfad 902" class="cls-8" d="M1269.675,445.635c-5.631,3.416-7.41-2.283-14-2.283s-6.587,2.426-13.174,2.426-6.584-.862-13.172-.862-6.587.241-13.175.241-7.441,2.368-13.074-1.049c-3.416-2.072-3.1-5.07.312-7.144,5.631-3.415,6.173.54,12.759.54s6.587-.859,13.173-.859,6.587-.9,13.173-.9,6.587-1.392,13.175-1.392,6.6.572,12.681,3.112C1273.071,439.436,1273.091,443.56,1269.675,445.635Z" transform="translate(-1199.746 -396.818)"/>
    </g>
  </g>
  <path id="Pfad_903" data-name="Pfad 903" class="cls-2" d="M1122.167,448.591c-5.228,17.82,6.574,47.21,19.365,56.843,16.657,13.286,46.844,21.848,64.145,18.791,7.715-1.364,27.424-10.932,27.424-10.932l-21.667-3.373-49.95-24.072-12.714-24.607S1125.226,447.737,1122.167,448.591Z" transform="translate(-1118.527 -309.568)"/>
  <g id="Gruppe_377" data-name="Gruppe 377" transform="translate(43.149 135.058)">
    <path id="Pfad_904" data-name="Pfad 904" class="cls-9" d="M1319.809,520.72c3.115-1.348,7.357-1.487,10.723-1.165-.673.331-1.808,1.28-2.705,1.641a11.89,11.89,0,0,1,4-.018c-.18.248-.591.649-.777.94,1.095-.04,2.4.564,3.428.57-.163.288-.494.522-.674.819,2.911.271,4.68,1.458,7.514,1.652-.156.2-.566.323-.721.531a25.2,25.2,0,0,1,3.8.71c0,.074-.525.5-.633.695a22.566,22.566,0,0,1,2.87,1.1c-.224.244-.744.3-1.056.486.615.185,1.565.921,2.364,1.167-.142.392-.7.446-.994.777.52.23,1.539.966,2.138,1.248a8.758,8.758,0,0,1-1.295.463c.731.256,1.723,1.177,2.391,1.458-.139.185-1.007.312-1.261.467.276.573,1,.571,1.281,1.169-.02.006-1.293.59-1.318.623.685.309,1.618,1.277,2.237,1.544.071.28-.66.267-.663.737.38.5,1.137.93,1.538,1.422-.38.256-.921.143-1.257.4a12.154,12.154,0,0,1,2.117.839c-.3.164-1.062.807-1.48,1.129.78.3,1.768,1.589,2.453,1.934a12.935,12.935,0,0,1-1.643,1.313c.415.151,1.086.536,1.488.72-.812.381-2.029,1.724-2.754,2.086.532.094,1.05.27,1.58.363a.734.734,0,0,1,.118.408c-.823.326-1.39,1.251-1.934,1.576.436.148.986.356,1.444.5a19.789,19.789,0,0,1-2.333,1.217c.516.322,1.054,1.26,1.568,1.607-1.027.321-2.426,1.613-3.253,1.941.357.2.919.573,1.242.757-.97.16-2.23,1.069-3.186,1.255.231.325.5.473.691.78-2.086.539-3.961,1.245-5.761.486-.194.486-.4,1.125-.548,1.611a5.939,5.939,0,0,0-1.231-1.005c-.333.3-2.079,2.047-1.861,1.659-.142.3-.391,1.1-.509,1.38a7.244,7.244,0,0,1-1.781-1.454,3.147,3.147,0,0,0,.516,1.06,7.033,7.033,0,0,0-3.312-2.257c.039.216.2,1.8.109,1.182a20.911,20.911,0,0,0-1-2.442c-.319.4-1.237.818-1.6,1.5-.077-.795-.9-1.95-1.033-2.788-.467.4-1.98.66-2.495,1.134-.483-1.891-1.536-2.629-3.164-1.913a5.2,5.2,0,0,0-2.178-.763c-.143-.433-.03-.962-.168-1.407-.4-.153-.99.291-1.338.142-1.324-.945-.543-.857-2.295-.931-1.583-1.575-3.857-1.163-4.128-3.833-2.326.111-5.849-4.879-6.8-6.956-2.021-4.417-.664-8.6-1.511-13.123Z" transform="translate(-1237.999 -474.037)"/>
    <path id="Pfad_905" data-name="Pfad 905" class="cls-10" d="M1279.256,441.839c1.283,1.263,2.8,2.451,4.034,3.861a10.12,10.12,0,0,1-1.322-.44c.7.676,1.724,2.2,2.5,2.923.015.067-.607.041-.661.118.382.633.913,1.219,1.244,1.832-.321-.124-.77-.334-1.124-.442,1.616,1.637,1.984,3.8,2.525,5.849-.143-.074-.282-.152-.425-.228a35.589,35.589,0,0,0,2.123,4.547,25.581,25.581,0,0,0,.531,3.057c-.008.194-.635-.685-.534-.626.377.877.534,2,.931,2.841a4.735,4.735,0,0,1-1.074-1.038c.012.625.264,1.289.323,1.91a11.765,11.765,0,0,1-1.172-.57c-.206.408.4,1.043.178,1.429-.3-.042-.626-.416-.924-.389a18.382,18.382,0,0,1,1.511,3.7c0,.046-.378-.1-.446.058a24.488,24.488,0,0,1,1.794,4.909c-.3-.315-.787-.691-1.084-.982a30.837,30.837,0,0,1,2.067,10.447c-.331-.515-1.289-1.4-1.714-2.116.311,1.516.571,3.062.783,4.582-.4-.776-1.1-1.582-1.536-2.419a44.122,44.122,0,0,1,.754,4.361,13.387,13.387,0,0,1-1.152-1.537,46.8,46.8,0,0,1,.244,5.135c-.266-.3-1.007-.81-1.309-1.116a15.742,15.742,0,0,1-.271,4.107c-.026.112-.663.176-.788.26a21.941,21.941,0,0,1-.008,2.705c-.255-.317-.454-.7-.7-1.056a10.259,10.259,0,0,1-.155,3.661c-.264-.491-.521-.98-.825-1.438a8.282,8.282,0,0,1-.338,4.2,9.971,9.971,0,0,0-.861-.957,40.061,40.061,0,0,1,.605,4.823c-.485-.1-.227-.274-.685-.48.13,1.29-.069,2.833-.021,4-.194-.382-.69-1.039-.88-1.379a12.718,12.718,0,0,1-.018,4.321c-.49.036-.408-.707-.623-.947a13.679,13.679,0,0,1-.2,2.519c-.3-.5-.884-1.224-1.219-1.824a33.426,33.426,0,0,1-.161,3.382,17.837,17.837,0,0,0-.911-1.589c.2,1.249-.244,2.435-.255,3.634-.2.236-.353-.336-.33-.365-.257.763-1.132,2.089-1.446,2.956a5.35,5.35,0,0,1-.392-1.018,21.033,21.033,0,0,1-.383,2.281c-.109,0-.766-.248-.683-.338a13.27,13.27,0,0,0-2.605,3.447c-.218.229-.212-.418-.506-.33a12.09,12.09,0,0,1-1.416,2.659,8.925,8.925,0,0,0-1.527,1.294.759.759,0,0,1-.416.02c-.345-.177-1.87-.842-2.013-.944-.12.45.008.729-.231,1.135a2.334,2.334,0,0,0-1.519-.881,7.1,7.1,0,0,1-1.221-1.1c-.667-.23-.422.43-.707.535-.5-.387-.69-.911-1.259-1.277-1.565.558-1.722.684-2.242-1.248-.578-.064-1.151.264-1.723.25a18.851,18.851,0,0,0-.417-1.94,7.944,7.944,0,0,0-1.2,1.775c-.22-.091-.66-.987-.948-1.163-.152.412-.05.979-.383,1.348-.362-.784-1.223-1.564-1.562-2.332-.1.466-.324,1.014-.443,1.385a25.926,25.926,0,0,0-1.137-3.2c-.213-.029-.094.6-.245.484-.464-1.248-1.293-2.455-1.812-3.647.044.483.058,1.12.051,1.444-.641-2.333-2.494-4.355-3.85-6.146.046.409.12.867.13,1.271-.336-.74-.994-1.678-1.289-2.379-.172-.15-.1.777-.266.662a22,22,0,0,0-1.448-2.239c-.328.047.157.834-.237.76-.6-.617-1.344-1.326-1.962-1.964-.424-.215-.249.641-.582.539-.54-.422-.838-1.024-1.4-1.388-.356.171,0,.687-.261.972a1.217,1.217,0,0,1-.463.133c-.568-.175-.526-.965-.925-1.208-.431.4-.68.967-1.05,1.3a4.969,4.969,0,0,0-.754-1.437c-.79,1.728-1.921,2.4-3.292,1.069a6.328,6.328,0,0,0-3.848,2.225c-.256-.079.02-.7-.4-.786-.431.421-1.418,1.189-1.968,1.668-.071-.025-.143-.628-.176-.6-1.832.564-3.136.725-4.986,1.286.291-.283.534-.8.873-1.087a5,5,0,0,1-4.248,2.38c-.213-.729-.935-1.348-1.153-2.043-2.108,3.226-10.891.523-14.8,3.517-.111-1.892-1.248-2.664-3.1-2.161.523-.569.523-1.1.831-1.541-1-.1-2.405-.673-3.481-.521a5.132,5.132,0,0,1,1.24-.249c-.442-.368-1.3-.586-1.731-.979.188-.167.954-.006.852-.418a7.39,7.39,0,0,0-4.934-.759,7.889,7.889,0,0,1,.409-2.4,1.052,1.052,0,0,1-.291.261,25.684,25.684,0,0,1,2.075-1.932c.144-.417-.694-.212-.682-.507.624-.421,1.285-1.022,1.913-1.528-.012-.009-.133-.835-.149-.805-.115.158-.588,0-.65-.087a27.276,27.276,0,0,0,1.672-2.192c0-.328-.7-.231-.849-.525,1.786-1.451,1.162-1.323,1.032-2.523,1.545-1.313,1.55-1.7,1.42-3.352a12.514,12.514,0,0,0,1.612-2.121,18.31,18.31,0,0,1,2.165-.68c.185-.11-.232-.635-.048-.837.842-.14,1.71-.407,2.553-.522-.251-.777-.355-.349-.788-.8.673-.193,1.558-.607,2.318-.852-.1-.323-.617-.707-.605-1.012.766-.028,1.9-.71,2.8-.743-.237-.4-.413-1.062-.668-1.456,1.054-.059,2.3-.774,3.5-.64-.121-.394-.273-.832-.4-1.238,1.205-.016,2.511-.745,3.709-.728.059-.173-.483-.81-.546-.976.774-.143,1.578-.3,2.326-.489.146-.218-.352-.568-.336-.582.757-.316,1.683-.848,2.538-1.173a7.044,7.044,0,0,1,2.386-1.972c.2-.37-.439-.558-.321-.836.667-.2,1.432-.288,2.1-.449.111-.094-.592-.407-.459-.571a25.2,25.2,0,0,0,2.557-.712c-.336-.6-.247-1.72-.582-2.332,1.9-.3,3.581-1.156,3.132-2.841.822-.071,1.574-.587,2.387-.729-.225-.346-.27-1.266-.781-1.833,2.091-.616,1.289-.975,1.952-1.782,3.655-.221,1.3-13.453,2.787-15.086Z" transform="translate(-1190.612 -441.839)"/>
  </g>
  <path id="Pfad_906" data-name="Pfad 906" class="cls-2" d="M1323.883,466.647l-4.274,7.829L1315.2,472.3l-16.643-7.527-2.79-4.631s-4.947,3.118-.577,9.56a35.47,35.47,0,0,0,4.431,3.876l-16.422,3.774c-1.322.563-1.831,2.361-1.135,4.012a3.13,3.13,0,0,0,3.145,2.125,3.352,3.352,0,0,0-.556,4.15,3.536,3.536,0,0,0,2.99,2.081c-1.243.778-1.519,2.78-.609,4.587.949,1.877,2.828,2.828,4.2,2.123l.76-.391a3.119,3.119,0,0,0,.116,2.753,2.964,2.964,0,0,0,2.461,1.739v.006l12.244,2.389,10.626-2.31,2.4-.753c21.485,1.663,40.125-23.757,39.506-31.5C1350.759,446.538,1323.883,459.065,1323.883,466.647Z" transform="translate(-1185.292 -312.714)"/>
  <g id="Gruppe_390" data-name="Gruppe 390" transform="translate(73.793 97.594)">
    <g id="Gruppe_387" data-name="Gruppe 387" transform="translate(5.875)">
      <g id="Gruppe_381" data-name="Gruppe 381">
        <g id="Gruppe_380" data-name="Gruppe 380" transform="translate(21.162)">
          <g id="Gruppe_378" data-name="Gruppe 378" transform="translate(22.432 9.333)">
            <path id="Pfad_907" data-name="Pfad 907" class="cls-9" d="M1328.224,398.148a6.688,6.688,0,0,0,12.517,4.664c1.221-3.281,1.375-7.085-2.082-8.373S1329.448,394.866,1328.224,398.148Z" transform="translate(-1327.687 -393.855)"/>
            <path id="Pfad_908" data-name="Pfad 908" class="cls-9" d="M1337.293,406.36a7,7,0,0,1-5.191.091h0a6.989,6.989,0,0,1-3.86-3.465h0a6.307,6.307,0,0,1-.275-5h0c.639-1.707,2.424-2.969,4.476-3.659h0a9.688,9.688,0,0,1,6.158-.136h0a4.293,4.293,0,0,1,2.893,3.559h0a10.265,10.265,0,0,1-.72,5.009h0a6.3,6.3,0,0,1-3.481,3.6Zm1.2-11.886c-.005,0-.005,0-.005,0h0a9.391,9.391,0,0,0-5.948.143h0c-1.995.669-3.7,1.9-4.286,3.476h0a6.01,6.01,0,0,0,.268,4.761h0a6.67,6.67,0,0,0,3.691,3.312h0a6.689,6.689,0,0,0,4.958-.087h0a6.006,6.006,0,0,0,3.317-3.428h0a10.027,10.027,0,0,0,.7-4.857h0a3.991,3.991,0,0,0-2.7-3.318Z" transform="translate(-1327.576 -393.746)"/>
          </g>
          <g id="Gruppe_379" data-name="Gruppe 379">
            <path id="Pfad_909" data-name="Pfad 909" class="cls-9" d="M1302.387,387.994a6.687,6.687,0,0,1-12.513-4.667c1.22-3.28,3.6-6.253,7.052-4.965S1303.609,384.712,1302.387,387.994Z" transform="translate(-1289.335 -377.9)"/>
            <path id="Pfad_910" data-name="Pfad 910" class="cls-9" d="M1298.941,391.542a7,7,0,0,1-5.188.091h0a6.988,6.988,0,0,1-3.862-3.467h0a6.291,6.291,0,0,1-.272-5h0a10.269,10.269,0,0,1,2.732-4.262h0a4.3,4.3,0,0,1,4.518-.8h0a9.672,9.672,0,0,1,4.564,4.134h0c1.1,1.863,1.623,3.986.989,5.7h0a6.316,6.316,0,0,1-3.481,3.605Zm-.122-.284a6,6,0,0,0,3.313-3.428h0c.588-1.57.111-3.619-.963-5.432h0a9.383,9.383,0,0,0-4.406-4.006h0a4.014,4.014,0,0,0-4.219.745h0a10.005,10.005,0,0,0-2.64,4.133h0a6.016,6.016,0,0,0,.261,4.764h0a6.7,6.7,0,0,0,3.692,3.309h0a6.689,6.689,0,0,0,4.96-.087Z" transform="translate(-1289.225 -377.79)"/>
          </g>
        </g>
        <path id="Pfad_911" data-name="Pfad 911" class="cls-10" d="M1309.442,401.2a3.439,3.439,0,0,0,.789.273A1.76,1.76,0,0,0,1309.442,401.2Zm-35.614-13.27a1.759,1.759,0,0,0-.775-.312A3.47,3.47,0,0,0,1273.829,387.93Zm-18.611,17.841a16.1,16.1,0,0,0-1.585,1.775,15.163,15.163,0,0,1,1.438-.629,18.7,18.7,0,0,1-1.219,1.533c.278-.14.746-.223,1.069-.4-.6,1.166-1.631,2.174-1.873,3.474a10.611,10.611,0,0,1,1.9-1.723,6.1,6.1,0,0,0-1.38,4.379,4.383,4.383,0,0,1,1.057-1.3,16.441,16.441,0,0,0-.628,2.558c.111-.181.407-.482.542-.694a2.419,2.419,0,0,0,.116,1.843,9.032,9.032,0,0,1,.622-.666,9.428,9.428,0,0,0-.118,2.664c.1-.192.317-.452.422-.644a14.091,14.091,0,0,0,.214,2.177c.107-.283.4-.617.488-.82a8.256,8.256,0,0,0,.164,2.162c.125-.241.5-.552.653-.828a8.353,8.353,0,0,1,.33,1.913c.128-.339.456-.724.57-.977a8.048,8.048,0,0,0,.533,2.579c.091-.346.33-.683.419-1.03a6.692,6.692,0,0,0,.511,1.826c.091-.353.349-.707.423-1.065.049.289.3.727.352.993.089-.177.224-.346.315-.535a12.77,12.77,0,0,0-.034,1.8c.109-.259.292-.478.406-.729a6.389,6.389,0,0,0,.771,2.649,8.016,8.016,0,0,0,.332-1.129,9.84,9.84,0,0,0,.51,2.464c.054-.121.248-.411.327-.6a12.706,12.706,0,0,0,.883,2.107c.054-.329.26-.684.3-1.025.022.018.171.486.185.539.019-.078.142-.377.2-.516a2.286,2.286,0,0,0,.473,1.45c.079-.227.215-.459.29-.691a3.63,3.63,0,0,0,.683,1.866c1.007-.746,1.408,1,1.638,1.812.1-.366.446-.824.535-1.241.066.452.335.873.433,1.3.21-.635.382-1.293.646-1.916.029-.041.178.091.23.07a3.186,3.186,0,0,1,.266-.7c.035,1.148.324,2.269.437,3.409.1-.4.338-.781.449-1.178.218.691.266,1.635.5,2.37.107-.361.344-.714.436-1.079a10.054,10.054,0,0,0,.3,1.465c.071-.307.508-.829.606-1.162a3.513,3.513,0,0,1,.838,1.651c.125-.437.529-.911.678-1.357a8.092,8.092,0,0,1,.172,1.974,5.785,5.785,0,0,1,.624-1.128c.487.827-.323,1.659.25,2.47.053-.064.12-.039.12.044.967-.235.9-1.394,1.807-1.705a5.443,5.443,0,0,1-.274,1.263,8.175,8.175,0,0,1,1.426-1.38c-.18.433-.184,1.057-.371,1.472a3.42,3.42,0,0,1,1.71-.7c-.143.316-.157.994-.3,1.275a10.527,10.527,0,0,0,1.184-.915c-.17.336-.22.76-.377,1.1.655-.4,1.307-1.09,1.924-1.466-.177.37-.241.814-.43,1.186.833-.788,1.783-1.452,2.562-2.292a3.487,3.487,0,0,1-.253.7c.023.05.222.046.218.1-.2.641-.507,1.257-.764,1.872.354-.261.831-.4,1.174-.7-.2.375-.246.941-.405,1.287.707-.468,2.151-1.519,2.426-.3a3.692,3.692,0,0,0,1.739-.963c-.1.221-.146.487-.233.709a2.277,2.277,0,0,0,1.307-.787c-.053.139-.153.449-.194.519a4.847,4.847,0,0,1,.5-.283c-.2.283-.272.684-.448.965a12.845,12.845,0,0,0,2.045-1.014c-.064.2-.109.542-.149.666a9.564,9.564,0,0,0,2-1.528,8.945,8.945,0,0,0-.485,1.069,6.332,6.332,0,0,0,2.314-1.5c-.074.27-.077.552-.17.82a12.669,12.669,0,0,0,1.161-1.386c-.057.2-.067.418-.116.611.212-.17.691-.335.912-.519-.171.32-.209.753-.372,1.08a6.833,6.833,0,0,0,1.578-1.045c-.159.32-.2.729-.358,1.049a8.045,8.045,0,0,0,2.093-1.6c-.078.268-.085.774-.206,1.115a8.148,8.148,0,0,1,1.5-1.23c-.071.3.014.788-.053,1.052a8.251,8.251,0,0,0,1.546-1.526c-.064.213-.069.654-.168.938a14.276,14.276,0,0,0,1.584-1.5c-.047.209-.054.546-.1.758a9.316,9.316,0,0,0,1.65-2.091,8.442,8.442,0,0,1,.037.914,2.423,2.423,0,0,0,1.291-1.322c-.036.251-.007.672-.039.881a17.351,17.351,0,0,0,1.2-2.341,4.516,4.516,0,0,1-.055,1.671,6.108,6.108,0,0,0,1.822-4.211,10.6,10.6,0,0,1,.312,2.546c.669-1.142.543-2.581.855-3.855.129.346.432.716.549,1a17.655,17.655,0,0,1,.085-1.955,14.8,14.8,0,0,1,.672,1.413,15.819,15.819,0,0,0-.037-2.377,4,4,0,0,1,.7,1.914c.55-.9.2-2.313.419-3.375a4.342,4.342,0,0,1,.29.425c.223-.925-.263-1.881-.354-2.828a8.211,8.211,0,0,1,.891,1.387,5.882,5.882,0,0,0-.173-2.83c.137.065.259.192.383.258-.227-1.364-1.177-2.554-1.52-3.92a10.959,10.959,0,0,0,1.241.618c-.243-1.293-1.507-2.567-1.371-3.856a4.32,4.32,0,0,1,.491.159c-.155-.3-.077-.8-.155-1.052a5.326,5.326,0,0,1,1.165.242,3.61,3.61,0,0,1-.8-1.726c.218.129.532.212.753.343a5.128,5.128,0,0,1-.838-1.654c.3.188.695.262,1,.436-.764-1.929-2.146-2.51-3.6-3.587a29.083,29.083,0,0,1,2.822.738,8.932,8.932,0,0,0-3.367-3.236,9.06,9.06,0,0,1,.985-.283,7.766,7.766,0,0,1-1.265-.548,2.68,2.68,0,0,1,1.2-.29c-.717-.46-1.525-.862-1.81-1.677.305.033.452-.111.889.064-.911-.556-1.027-1.412-.37-1.4a1.965,1.965,0,0,1-.807-.69c.977-.175,2.181.565,3.172.891-.758-1.242-4.55-3.025-4.6-3.8.215.012.5-.016.724-.02-.394-.251-.694-.763-1.082-1.045a5.321,5.321,0,0,1,1.372-.222c-.574-.5-1.362-.876-1.835-1.386.267-.036.6-.209.925-.23-.753-.459-1.64-.785-2.451-1.177.831-.3,2.17.14,3.124.363a29.11,29.11,0,0,0-3.285-2.4c.423-.116.831-.44,1.271-.524-.4-.078-.8-.381-1.2-.472.2-.106.51-.482.764-.6a2.649,2.649,0,0,0-1.854-.281,4.528,4.528,0,0,1,.487-.416,9.71,9.71,0,0,0-1.318.109c.29-.2.485-.542.807-.754-.319.021-.817-.12-1.148-.087a4.663,4.663,0,0,1,3.317-1.4,6.068,6.068,0,0,0-4.275-.34,5.5,5.5,0,0,1,2.195-1.075,4.433,4.433,0,0,0-3.392.529c.04-.063.231-.476.238-.488a2,2,0,0,0-.286.149c.258-.313.487-.769.728-1.077-.23.194-.515.364-.75.581.285-.414.564-.951.863-1.377a2.049,2.049,0,0,0-1.482,1.235,22.018,22.018,0,0,0,.619-2.984c-.992.519-1.433,1.873-1.927,2.955.024-.253.032-.519.068-.765-.03-.051-.206.118-.232-.015-.083-.212-.028-.477-.126-.662-.078.142-.233.329-.326.5a4.775,4.775,0,0,0-.2-.877c-.213.325-1.3-.459-1.607-.3-.12-.314-1.465-.438-1.411-.822a4.722,4.722,0,0,0-.727.529c.04-.19.043-.431.081-.592-.2.078-.327.314-.529.419-.1.085-.129-.158-.182-.139-.134.208-.3.416-.45.624.332-1.144.885-2.454.477-3.494a21.514,21.514,0,0,0-1.486,2.662,2.049,2.049,0,0,0-.311-1.907c-.05.519-.195,1.1-.249,1.606-.04-.32-.138-.632-.189-.929-.016.392-.146.885-.153,1.292a1.629,1.629,0,0,0-.122-.3c0,.012-.129.447-.136.519a4.432,4.432,0,0,0-2.219-2.616,5.456,5.456,0,0,1,.955,2.247,6.076,6.076,0,0,0-3.452-2.539,4.656,4.656,0,0,1,1.588,3.228c-.231-.243-.7-.464-.924-.685.1.368.033.754.116,1.1a9.633,9.633,0,0,0-.926-.948,4.692,4.692,0,0,1,.1.634,2.66,2.66,0,0,0-1.587-1c.116.256.1.741.188.956-.361-.192-.862-.225-1.211-.428.276.354.372.865.616,1.228a28.923,28.923,0,0,0-4.057-.331c.866.458,2.171,1,2.6,1.769-.87-.233-1.754-.567-2.622-.716.234.228.371.581.549.783-.693.074-1.534-.157-2.292-.153.426.285.606.766.888,1.062-.477-.04-1.039.15-1.5.082.165.154.361.361.532.49-.546.547-4.582-.584-5.965-.143.959.4,2.358.631,2.98,1.4a1.991,1.991,0,0,1-1.062,0c.5.419-.142.991-1.2.815.446.153.466.357.715.534a3.825,3.825,0,0,1-2.469.082c.469.341.506.684.722,1a7.718,7.718,0,0,1-1.317-.41,8.609,8.609,0,0,1,.56.859,8.868,8.868,0,0,0-4.665.243,28.749,28.749,0,0,1,2.616,1.287c-1.805-.139-3.229-.605-5.065.358.34.064.69.27,1.035.321a5.051,5.051,0,0,1-1.713.7c.252.046.545.191.8.237a3.692,3.692,0,0,1-1.738.779c.427.1.713.44,1.038.581-.217.136-.487.563-.8.7.147.076.332.106.471.2-.742,1.067-2.527,1.2-3.559,2.022a10.425,10.425,0,0,0,1.347.344c-1.151.812-2.654,1.089-3.718,1.97.139.029.314.014.459.054a5.882,5.882,0,0,0-1.981,2.031,7.766,7.766,0,0,1,1.58-.468c-.692.653-1.681,1.058-2.117,1.905.149-.025.333-.118.491-.134-.521.952-1.716,1.79-1.886,2.828A4.027,4.027,0,0,1,1255.218,405.771Z" transform="translate(-1253.047 -378.529)"/>
        <path id="Pfad_912" data-name="Pfad 912" class="cls-9" d="M1311.459,402.368a2.926,2.926,0,0,0,.663.229A1.467,1.467,0,0,0,1311.459,402.368Zm-29.947-11.158a1.517,1.517,0,0,0-.647-.263A3.02,3.02,0,0,0,1281.512,391.21Zm-15.482,14.556a12.9,12.9,0,0,0-1.318,1.451,12.47,12.47,0,0,1,1.2-.508,15.191,15.191,0,0,1-1.009,1.252c.232-.114.622-.176.893-.319-.492.956-1.353,1.777-1.547,2.844a8.691,8.691,0,0,1,1.58-1.4,4.9,4.9,0,0,0-1.126,3.594,3.587,3.587,0,0,1,.874-1.061,13.886,13.886,0,0,0-.508,2.1c.09-.145.341-.388.453-.564a1.936,1.936,0,0,0,.109,1.517,6.88,6.88,0,0,1,.518-.545,7.585,7.585,0,0,0-.084,2.19c.086-.156.266-.369.353-.526a11.2,11.2,0,0,0,.19,1.791c.091-.229.332-.5.4-.67a6.554,6.554,0,0,0,.154,1.782c.1-.2.419-.452.539-.679a6.862,6.862,0,0,1,.29,1.576c.107-.274.377-.593.474-.8a6.566,6.566,0,0,0,.467,2.129c.071-.285.27-.562.338-.846a5.73,5.73,0,0,0,.443,1.506c.073-.289.287-.578.349-.873.04.236.254.6.3.82.072-.146.183-.287.257-.439a10.5,10.5,0,0,0-.013,1.484c.087-.212.239-.391.332-.6a5.324,5.324,0,0,0,.666,2.184,6.224,6.224,0,0,0,.271-.927,7.956,7.956,0,0,0,.445,2.032c.043-.1.2-.336.268-.492a10.765,10.765,0,0,0,.753,1.738c.04-.267.214-.56.239-.843a4.612,4.612,0,0,1,.166.447c.01-.064.114-.309.157-.423a1.873,1.873,0,0,0,.409,1.195c.067-.185.179-.376.236-.567a3,3,0,0,0,.587,1.541c.84-.607,1.192.83,1.39,1.5.085-.3.365-.673.436-1.017.057.371.286.721.371,1.073.173-.519.312-1.063.528-1.57.028-.036.151.073.194.056a2.685,2.685,0,0,1,.221-.57c.04.945.284,1.871.388,2.809.081-.335.279-.644.368-.969.191.57.23,1.35.432,1.952.087-.294.285-.583.357-.884a8.079,8.079,0,0,0,.258,1.208c.058-.25.419-.677.5-.951a2.928,2.928,0,0,1,.711,1.362c.1-.357.439-.745.562-1.111a6.351,6.351,0,0,1,.155,1.625,4.712,4.712,0,0,1,.519-.926c.411.684-.263,1.367.223,2.034.05-.051.1-.029.1.041.808-.19.742-1.146,1.5-1.393a4.506,4.506,0,0,1-.215,1.038,6.769,6.769,0,0,1,1.18-1.127c-.141.356-.141.867-.3,1.209a2.881,2.881,0,0,1,1.429-.566c-.119.257-.124.816-.244,1.049a8.4,8.4,0,0,0,.983-.747c-.141.276-.18.624-.309.9.551-.322,1.089-.884,1.6-1.191-.146.3-.2.667-.355.972.69-.644,1.49-1.18,2.133-1.869a2.853,2.853,0,0,1-.206.574c.021.042.189.039.184.083-.168.525-.417,1.031-.63,1.535.3-.212.7-.324.98-.57-.167.307-.2.773-.33,1.059.587-.381,1.792-1.237,2.031-.228a3.037,3.037,0,0,0,1.455-.782c-.085.181-.124.4-.195.581a1.866,1.866,0,0,0,1.091-.637c-.043.116-.127.369-.161.428a3.815,3.815,0,0,1,.417-.23c-.16.23-.226.56-.365.791a10.639,10.639,0,0,0,1.7-.821c-.055.162-.085.441-.117.546a7.911,7.911,0,0,0,1.667-1.241,5.664,5.664,0,0,0-.4.876,5.2,5.2,0,0,0,1.928-1.217c-.06.218-.063.453-.135.672a10.651,10.651,0,0,0,.961-1.135c-.047.164-.053.345-.091.5.176-.137.575-.268.765-.422-.146.265-.176.624-.308.887a5.509,5.509,0,0,0,1.317-.848c-.13.262-.162.6-.3.865a6.75,6.75,0,0,0,1.747-1.306c-.067.22-.067.638-.167.915a6.7,6.7,0,0,1,1.253-1c-.058.25.016.649-.035.867a7.09,7.09,0,0,0,1.281-1.248c-.053.176-.053.537-.133.771a11.38,11.38,0,0,0,1.315-1.227c-.034.173-.041.453-.077.626a7.778,7.778,0,0,0,1.37-1.709,7.013,7.013,0,0,1,.032.75,1.946,1.946,0,0,0,1.077-1.078c-.03.206,0,.554-.028.724a13.622,13.622,0,0,0,.987-1.92,3.576,3.576,0,0,1-.034,1.376,4.864,4.864,0,0,0,1.5-3.456,8.747,8.747,0,0,1,.277,2.1c.554-.936.442-2.12.691-3.164.114.285.367.588.468.826a15,15,0,0,1,.058-1.607,11.972,11.972,0,0,1,.576,1.169,12.954,12.954,0,0,0-.049-1.957,3.272,3.272,0,0,1,.6,1.58c.452-.733.15-1.9.329-2.774.095.1.162.253.246.35a7.237,7.237,0,0,0-.316-2.33,6.892,6.892,0,0,1,.753,1.15,4.717,4.717,0,0,0-.164-2.331c.115.055.222.157.322.215-.2-1.122-1.006-2.111-1.3-3.236a8.351,8.351,0,0,0,1.045.515c-.212-1.062-1.282-2.122-1.174-3.182a4.181,4.181,0,0,1,.409.135c-.128-.252-.069-.662-.134-.866a4.765,4.765,0,0,1,.981.208,3.027,3.027,0,0,1-.684-1.428c.181.111.45.182.635.29a4.227,4.227,0,0,1-.714-1.366c.249.156.583.22.843.364-.656-1.594-1.819-2.079-3.044-2.974.813.1,1.573.445,2.369.628a7.542,7.542,0,0,0-2.845-2.688,6.714,6.714,0,0,1,.823-.223,7.259,7.259,0,0,1-1.063-.463,2.275,2.275,0,0,1,1.008-.229c-.608-.383-1.286-.72-1.534-1.392.26.026.379-.089.749.059-.769-.463-.872-1.167-.321-1.153a1.666,1.666,0,0,1-.68-.573c.815-.137,1.833.482,2.664.754-.642-1.025-3.833-2.517-3.882-3.156.176.012.414-.007.6-.012-.33-.209-.588-.631-.911-.866a4.572,4.572,0,0,1,1.143-.173c-.482-.416-1.143-.728-1.541-1.152.217-.029.5-.169.772-.185-.635-.383-1.382-.656-2.061-.985a5.671,5.671,0,0,1,2.618.319,25.055,25.055,0,0,0-2.77-2c.354-.091.693-.359,1.064-.423-.335-.065-.671-.318-1.009-.4.174-.087.429-.393.643-.488a2.309,2.309,0,0,0-1.558-.243,4.01,4.01,0,0,1,.4-.34,8.608,8.608,0,0,0-1.1.084c.239-.167.4-.443.672-.617-.267.016-.687-.1-.964-.08a3.865,3.865,0,0,1,2.772-1.128,5.209,5.209,0,0,0-3.587-.309,4.558,4.558,0,0,1,1.83-.869,3.738,3.738,0,0,0-2.834.412c.032-.049.187-.391.191-.4a1.429,1.429,0,0,0-.236.119c.214-.253.4-.628.6-.88-.2.157-.429.3-.627.473.24-.338.465-.78.713-1.127a1.666,1.666,0,0,0-1.234,1.006,18.088,18.088,0,0,0,.5-2.45c-.828.421-1.19,1.531-1.594,2.416.015-.2.022-.426.052-.629-.028-.041-.173.1-.2-.01-.071-.176-.026-.395-.114-.549-.064.119-.189.273-.269.408a3.269,3.269,0,0,0-.174-.721c-.175.264-1.1-.387-1.349-.259-.108-.26-1.232-.371-1.187-.687a3.75,3.75,0,0,0-.611.43c.034-.154.037-.353.064-.486-.163.063-.269.256-.438.343-.088.069-.11-.133-.157-.118-.109.172-.249.342-.37.511.267-.938.723-2.013.374-2.873a17.493,17.493,0,0,0-1.229,2.179,1.669,1.669,0,0,0-.275-1.57c-.042.428-.157.908-.2,1.321-.033-.263-.119-.523-.161-.767-.014.321-.118.729-.122,1.061a1.33,1.33,0,0,0-.1-.247c0,.012-.111.367-.112.427a3.759,3.759,0,0,0-1.879-2.165,4.57,4.57,0,0,1,.819,1.855,5.2,5.2,0,0,0-2.917-2.114,3.872,3.872,0,0,1,1.358,2.666c-.195-.2-.59-.384-.783-.57.09.307.034.62.109.907a8.223,8.223,0,0,0-.783-.787,4.393,4.393,0,0,1,.086.523,2.287,2.287,0,0,0-1.337-.838c.1.212.091.612.167.788-.3-.159-.727-.185-1.023-.356.237.29.316.715.526,1.012a25.375,25.375,0,0,0-3.4-.3c.728.384,1.824.836,2.19,1.475-.728-.195-1.476-.48-2.2-.607.2.19.319.481.468.648-.581.057-1.288-.14-1.926-.14.362.235.514.633.754.88-.4-.036-.87.115-1.255.056.137.126.308.3.446.408-.456.447-3.844-.514-5-.157.806.336,1.981.533,2.506,1.172a1.694,1.694,0,0,1-.892-.012c.428.349-.11.814-1,.662.376.129.395.3.6.443a3.2,3.2,0,0,1-2.068.053c.394.284.425.567.611.834a6.865,6.865,0,0,1-1.1-.35,7.237,7.237,0,0,1,.472.709,7.559,7.559,0,0,0-3.908.17c.719.382,1.523.625,2.2,1.076-1.515-.128-2.712-.518-4.247.26.289.058.582.229.873.272a4.2,4.2,0,0,1-1.435.566c.214.041.459.161.672.2a3,3,0,0,1-1.452.631c.36.084.6.367.876.487-.184.109-.407.459-.669.568a3.626,3.626,0,0,1,.4.165c-.609.872-2.109.972-2.968,1.638a10,10,0,0,0,1.126.294c-.956.657-2.213.875-3.1,1.6.119.024.269.015.39.048a4.779,4.779,0,0,0-1.649,1.654,6.761,6.761,0,0,1,1.323-.371c-.574.532-1.406.858-1.762,1.551.124-.019.276-.1.41-.105-.431.78-1.427,1.461-1.566,2.313A3.355,3.355,0,0,1,1266.03,405.766Z" transform="translate(-1257.698 -380.551)"/>
      </g>
      <g id="Gruppe_386" data-name="Gruppe 386" transform="translate(15.994 14.391)">
        <path id="Pfad_913" data-name="Pfad 913" class="cls-9" d="M1288.444,411.94c-2.788.256-4.7-3.312-8.053-3a25.421,25.421,0,0,1,7.284,4.8Z" transform="translate(-1280.391 -405.102)"/>
        <path id="Pfad_914" data-name="Pfad 914" class="cls-9" d="M1296.127,414.172c1.051-.4,2.039-.436,2.936-1.277-.091-.119-.293-.075-.4-.185.109-.238.4-.483.453-.738-.01-.067-.2-.07-.2-.018.849-1.533,1.583-2.626,1.523-4.354-.066.358-.178.663-.273,1.023-.019.068-.022.071,0,.005a4.451,4.451,0,0,0-.259-2.6c-.089.2-.043.365-.112.54-.08-.363-.249-.751-.319-1.095.018.343-.061.831-.046,1.17a15.094,15.094,0,0,0-.56-1.428c.039.295,0,.651.025.921a6.825,6.825,0,0,0-2.828-3.74,3.585,3.585,0,0,1,1.167,1.983,3.929,3.929,0,0,0-1.689-1.425,8.747,8.747,0,0,1,.491,1.084,9.109,9.109,0,0,0-2.441-1.5c.112.126.308.392.419.528a3.178,3.178,0,0,0-1.9-.391,6.447,6.447,0,0,1,.784.523,2.29,2.29,0,0,0-1.964.076c.384.131,1.045.45,1.284.493a6.654,6.654,0,0,0-2.561.2c.468.166.938.4,1.411.519a3.014,3.014,0,0,0-3.111.7,6.449,6.449,0,0,0,1.489.073,1.61,1.61,0,0,0-1.659.382,11.178,11.178,0,0,0,1.652.418,7.1,7.1,0,0,1-.685.256c.126.143.52.088.6.255a6.39,6.39,0,0,0-.831.386c.331.05.666.23,1,.283-.245.041-.577.152-.826.2a4.379,4.379,0,0,1,.787.309,5.182,5.182,0,0,0-1.06.314,7,7,0,0,0,1.109.235,1.391,1.391,0,0,1-.5.121c1.593.383,1.89,1.281,2.2,2.685Z" transform="translate(-1283.463 -402.393)"/>
        <path id="Pfad_915" data-name="Pfad 915" class="cls-9" d="M1318.121,422.192c-.529-1-1.257-1.665-1.384-2.89.148-.027.27.136.425.123.071-.249.014-.624.137-.852.051-.046.2.075.158.111.365-1.714.522-3.019,1.7-4.288-.18.314-.3.617-.46.95-.025.069-.03.07-.006.005a4.458,4.458,0,0,1,1.9-1.8c-.065.21-.21.305-.27.48.294-.222.676-.4.952-.618-.232.246-.494.669-.731.916.433-.3.937-.473,1.362-.714-.223.2-.428.49-.618.681a6.813,6.813,0,0,1,4.586-.976,3.563,3.563,0,0,0-2.182.735,3.924,3.924,0,0,1,2.209.027,8.771,8.771,0,0,0-1.082.5,9.079,9.079,0,0,1,2.826.464c-.169.022-.488.1-.662.126a3.2,3.2,0,0,1,1.7.946,6.805,6.805,0,0,0-.939-.113,2.308,2.308,0,0,1,1.441,1.339c-.377-.152-1.084-.342-1.294-.467a6.741,6.741,0,0,1,1.8,1.83c-.459-.18-.965-.313-1.4-.533a3.023,3.023,0,0,1,1.893,2.567,6.557,6.557,0,0,1-1.173-.921,1.613,1.613,0,0,1,1,1.376,11.433,11.433,0,0,1-1.521-.766c.028.105.3.552.349.641-.187.025-.449-.27-.617-.2a6.308,6.308,0,0,1,.375.836c-.283-.178-.653-.26-.945-.443.159.195.338.5.5.69a4.548,4.548,0,0,0-.8-.281,5.086,5.086,0,0,1,.6.934,7.241,7.241,0,0,1-.995-.55,1.475,1.475,0,0,0,.3.416c-1.451-.752-2.262-.265-3.415.595Z" transform="translate(-1295.477 -406.885)"/>
        <g id="Gruppe_382" data-name="Gruppe 382" transform="translate(8.403 6.634)">
          <path id="Pfad_916" data-name="Pfad 916" class="cls-11" d="M1294.861,414.8a1.639,1.639,0,1,0,2.111-.964A1.639,1.639,0,0,0,1294.861,414.8Z" transform="translate(-1294.758 -413.735)"/>
        </g>
        <path id="Pfad_917" data-name="Pfad 917" class="cls-9" d="M1329.672,427.47c1.939,2.023,5.715.569,8.052,3a25.362,25.362,0,0,0-8.642-1.141Z" transform="translate(-1300.602 -412.802)"/>
        <g id="Gruppe_383" data-name="Gruppe 383" transform="translate(23.538 12.273)">
          <path id="Pfad_918" data-name="Pfad 918" class="cls-11" d="M1323.81,425.589a1.64,1.64,0,1,1-.964-2.112A1.64,1.64,0,0,1,1323.81,425.589Z" transform="translate(-1320.632 -423.375)"/>
        </g>
        <g id="Gruppe_385" data-name="Gruppe 385" transform="translate(12.251 15.565)">
          <g id="Gruppe_384" data-name="Gruppe 384">
            <path id="Pfad_919" data-name="Pfad 919" class="cls-12" d="M1301.448,430.252c-.449,1.207.481,3.493,2.409,4.212s4.124-.4,4.576-1.611-.749-2.772-2.676-3.491S1301.9,429.04,1301.448,430.252Z" transform="translate(-1301.336 -429.004)"/>
            <path id="Pfad_920" data-name="Pfad 920" class="cls-11" d="M1308.547,434.709a1.149,1.149,0,1,0,1.486-.695A1.159,1.159,0,0,0,1308.547,434.709Z" transform="translate(-1304.298 -431.054)"/>
            <path id="Pfad_921" data-name="Pfad 921" class="cls-11" d="M1303.846,432.958a1.15,1.15,0,1,1-.671-1.5A1.161,1.161,0,0,1,1303.846,432.958Z" transform="translate(-1301.452 -429.993)"/>
          </g>
        </g>
      </g>
    </g>
    <path id="Pfad_922" data-name="Pfad 922" class="cls-9" d="M1329.657,466.477c-1.577-.379-3.72-1.711-5.353-2.223a28.854,28.854,0,0,0-6.418-1.667c-4.577-.339-6.186,3.976-7.7,7.5-1.056,2.464-6.832,14.23-2.681,15.612.056,2.271,2.071,5.5,4.131,3.907-.053.387.161.483.354.842,1,1.9,4.737,2.294,6.47.533.818,1.9,4.029.7,4.88-.634.907-1.419.745-5.2,1-6.893.594-3.9,3.7-8.809,5.722-8.781,1.378.014,1.965-4.4,2.169-5.133C1332.651,468.029,1329.657,466.477,1329.657,466.477Z" transform="translate(-1269.163 -412.98)"/>
    <g id="Gruppe_388" data-name="Gruppe 388" transform="translate(0 46.076)">
      <path id="Pfad_923" data-name="Pfad 923" class="cls-9" d="M1264.859,467.416c-.287-3.206-2.372-8.368-5.364-9.957-4.31-2.287-8.4.1-10.722,3.783a51.823,51.823,0,0,0-5.443,11.178c-.452,1.423-.893,9.606,2.028,8.192a3.587,3.587,0,0,0,2.128,3.112c2.075.731,2.321-.205,3.163-1.236.267,1.586,2.3,1.239,3.724.516,1.241-.63,1.4-1.706,1.508-3.071,4.146.528,4.028-2.746,4.847-5.935.478-1.852,1.536-7.221,3.7-7.14Z" transform="translate(-1243.003 -456.563)"/>
    </g>
    <g id="Gruppe_389" data-name="Gruppe 389" transform="translate(1.756 65.729)">
      <path id="Pfad_924" data-name="Pfad 924" class="cls-4" d="M1326.865,509.181a4.2,4.2,0,0,1,.361-2.929c.027-.023.027-.021,0,0a3.616,3.616,0,0,0-.928,3.286Z" transform="translate(-1279.286 -496.834)"/>
      <path id="Pfad_925" data-name="Pfad 925" class="cls-4" d="M1314.878,506.641a8.492,8.492,0,0,1,.938-3.06c-1,.915-2.756,2.659-1.613,3.406C1314.361,507.089,1314.878,506.641,1314.878,506.641Z" transform="translate(-1274.159 -495.732)"/>
      <path id="Pfad_926" data-name="Pfad 926" class="cls-4" d="M1308.1,500.483a3.058,3.058,0,0,1,1.156-2.293c-.746.323-2.082,1.235-1.754,1.969C1307.571,500.314,1308.1,500.483,1308.1,500.483Z" transform="translate(-1271.51 -493.494)"/>
      <path id="Pfad_927" data-name="Pfad 927" class="cls-4" d="M1264.2,493.867a5.016,5.016,0,0,1-.3-3.706,3.664,3.664,0,0,0,.184,4.59Z" transform="translate(-1253.134 -490.162)"/>
      <path id="Pfad_928" data-name="Pfad 928" class="cls-4" d="M1255.509,498.431a4,4,0,0,1-.5-2.529c-.471.929-.823,2.734-.214,3.559Z" transform="translate(-1249.519 -492.545)"/>
      <path id="Pfad_929" data-name="Pfad 929" class="cls-4" d="M1246.758,495.674c.124-.94-.023-1.675.607-2.391a3.5,3.5,0,0,0-1.358,2.677Z" transform="translate(-1246.006 -491.457)"/>
    </g>
  </g>
</svg>
