<svg id="Gruppe_370" data-name="Gruppe 370" xmlns="http://www.w3.org/2000/svg" width="173.299" height="282.91" viewBox="0 0 173.299 282.91">
  <defs>
    <style>
      .cls-1 {
        fill: #8d2e2a;
      }

      .cls-2 {
        fill: #f8f0e2;
      }

      .cls-3 {
        fill: #feb38a;
      }

      .cls-4 {
        fill: #f98653;
      }

      .cls-5 {
        fill: #fcf9eb;
      }

      .cls-6 {
        fill: #43200c;
      }

      .cls-7 {
        fill: #ff9a83;
      }

      .cls-8 {
        fill: #ffaa90;
      }

      .cls-9 {
        fill: #fe764a;
      }

      .cls-10 {
        fill: #fff;
      }

      .cls-11 {
        fill: #ab1638;
      }
    </style>
  </defs>
  <g id="Gruppe_357" data-name="Gruppe 357" transform="translate(112.982)">
    <g id="Gruppe_347" data-name="Gruppe 347" transform="translate(0 37.926)">
      <path id="Pfad_854" data-name="Pfad 854" class="cls-1" d="M1651.552,292.977c-1.12,1.069-2.177,2.567-3.551,3.273-1.2.618-2.779,1.58-3.153,2.339-.217.438.053,2.2,2.192,1.044,1.672,1.252,2.353-1.07,2.179-2.275.968-.774,3.388-1.238,4.5-1.554Z" transform="translate(-1644.786 -286.07)"/>
      <path id="Pfad_855" data-name="Pfad 855" class="cls-2" d="M1658.506,290.9s-2.487-2.044-2.171-2.827a43.63,43.63,0,0,1,2.863-6.61c1.715-1.543,3.278,3.322,3.982,5.519A5.259,5.259,0,0,1,1658.506,290.9Z" transform="translate(-1649.568 -281.168)"/>
    </g>
    <g id="Gruppe_348" data-name="Gruppe 348" transform="translate(31.797)">
      <path id="Pfad_856" data-name="Pfad 856" class="cls-3" d="M1704.341,272.165c9.486-2.81,20.167-10.554,18.806-21.481-1.514-12.145-16.909-16.163-21.294-21.291-4.993-5.84-2.616-10.66,3.385-13.065-13.252,9.749,4.835,15.037,11.734,19.752,10.7,7.314,14.983,23.254,5.261,33.355-4.1,4.266-10.257,7.2-15.853,8.4Z" transform="translate(-1699.147 -216.328)"/>
      <path id="Pfad_857" data-name="Pfad 857" class="cls-4" d="M1714.329,309.107c1.661.385,2.384,4.309,2.2,5.639a13.351,13.351,0,0,0,2.416-.859c-.355-2.082-.927-4.372-2.642-5.65Z" transform="translate(-1705.449 -254.477)"/>
      <path id="Pfad_858" data-name="Pfad 858" class="cls-4" d="M1720,306.338c1.8.624,3.445,3.924,2.808,5.689.689-.363,1.6-.824,1.957-1.053-.465-1.818-.864-5.075-3.159-5.6Z" transform="translate(-1707.802 -253.291)"/>
      <path id="Pfad_859" data-name="Pfad 859" class="cls-4" d="M1740.507,277.956c1.363-1.446,3.42-.564,4.17.956-.055-1.394-.132-2.553-1.428-3.046-.844-.32-2.761-.218-2.736.952Z" transform="translate(-1716.315 -240.976)"/>
    </g>
    <g id="Gruppe_351" data-name="Gruppe 351" transform="translate(9.326 23.487)">
      <g id="Gruppe_349" data-name="Gruppe 349" transform="translate(6.203 32.734)">
        <path id="Pfad_860" data-name="Pfad 860" class="cls-2" d="M1682.522,313.85a7.033,7.033,0,1,1-9.509,1.276A6.792,6.792,0,0,1,1682.522,313.85Z" transform="translate(-1671.336 -312.445)"/>
      </g>
      <path id="Pfad_861" data-name="Pfad 861" class="cls-5" d="M1668.261,256.482c4.7,6.564,4.159,12.449,11.185,16.477,4.476,2.568,15.127,7.49,12.6,16.282-.855,2.969-2.692,9.965-14.153,10.525-8.588.419-13.347-9.964-14.989-14.951-2.234-6.792-1.775-15.5-2.112-22.66-.03-.634-.05-1.272-.058-1.906Z" transform="translate(-1660.731 -256.482)"/>
      <path id="Pfad_862" data-name="Pfad 862" class="cls-2" d="M1671.626,271.678c.415,2.051-1.312,4.13-3.858,4.645s-4.944-.729-5.358-2.78,1.311-4.13,3.856-4.645S1671.21,269.627,1671.626,271.678Z" transform="translate(-1661.403 -261.587)"/>
      <g id="Gruppe_350" data-name="Gruppe 350" transform="translate(14.896 31.083)">
        <path id="Pfad_863" data-name="Pfad 863" class="cls-5" d="M1700.071,319.636c-2.291,3.921-5.218,7.087-8.954,6.055s-5.781-5.416-4.571-9.793,5.22-7.088,8.955-6.056S1702.646,315.23,1700.071,319.636Z" transform="translate(-1686.198 -309.622)"/>
      </g>
    </g>
    <g id="Gruppe_356" data-name="Gruppe 356" transform="translate(1.567 20.063)">
      <g id="Gruppe_352" data-name="Gruppe 352" transform="translate(0 13.18)">
        <path id="Pfad_864" data-name="Pfad 864" class="cls-2" d="M1648.175,273.168a19.268,19.268,0,0,0,3.662,1.49,9.612,9.612,0,0,0-1.792-.84A9.756,9.756,0,0,0,1648.175,273.168Z" transform="translate(-1647.76 -273.162)"/>
        <path id="Pfad_865" data-name="Pfad 865" class="cls-2" d="M1647.466,274.831a19.369,19.369,0,0,0,3.884.731,19.213,19.213,0,0,0-3.884-.731Z" transform="translate(-1647.466 -273.849)"/>
      </g>
      <g id="Gruppe_353" data-name="Gruppe 353" transform="translate(2.617 2.509)">
        <path id="Pfad_866" data-name="Pfad 866" class="cls-5" d="M1669.041,256.553c2.024,2.024,2.9,7.3-4.025,10.72-6.525,3.226-8.626-3.139-8.563-2.956,0,0-.728-6.06,4.326-8.429C1664.634,254.082,1667.574,255.088,1669.041,256.553Z" transform="translate(-1653.798 -254.918)"/>
        <path id="Pfad_867" data-name="Pfad 867" class="cls-5" d="M1662.612,266.451l-.267,1.721-3.163,2.912a4.368,4.368,0,0,1-1.679,1.242c-1.417.4-4.891.925-5.347-.475-.573-1.75-.194-6.056,3.379-9.145C1657.095,261.359,1662.612,266.451,1662.612,266.451Z" transform="translate(-1651.939 -258.057)"/>
      </g>
      <path id="Pfad_868" data-name="Pfad 868" class="cls-3" d="M1652.371,275.79c.3-.691.688-1.083,1.548-.442.4.3.839,1.375-.043,1.638-.721.217-1.122.876-1.531.584S1651.974,276.707,1652.371,275.79Z" transform="translate(-1649.371 -260.754)"/>
      <g id="Gruppe_354" data-name="Gruppe 354" transform="translate(13.484)">
        <path id="Pfad_869" data-name="Pfad 869" class="cls-2" d="M1670.518,254.288c.074-1.944,2.418-3.118,4.054-3.481a2.013,2.013,0,0,1,1.225-.113c-.755.816-.893,2.182-1.4,3.164a9.126,9.126,0,0,1-1.944,2.471Z" transform="translate(-1670.518 -250.629)"/>
        <path id="Pfad_870" data-name="Pfad 870" class="cls-3" d="M1677.956,256.61c1.855-2.729.8-5.717-1.066-5.884a3.953,3.953,0,0,0-3.566,2.476c.36.282-.113,2.043-.014,2.422a5.774,5.774,0,0,0,2.114,3.007C1676.652,258.043,1677.93,258.145,1677.956,256.61Z" transform="translate(-1671.671 -250.665)"/>
      </g>
      <g id="Gruppe_355" data-name="Gruppe 355" transform="translate(8.199 8.217)">
        <path id="Pfad_871" data-name="Pfad 871" class="cls-6" d="M1662.464,265.11a.492.492,0,1,1-.549-.429A.493.493,0,0,1,1662.464,265.11Z" transform="translate(-1661.483 -264.677)"/>
      </g>
    </g>
    <path id="Pfad_872" data-name="Pfad 872" class="cls-2" d="M1673.913,290.885c-3.93.69-2.1-.478-2.126-2.811-1.259-2.429-5.195-5.131-7.125-3.848-2.28,1.908-2.451,1.728-3.644,5.191-.867,2.519,1.679,6.479,1.927,6.777C1665.611,296.25,1673.913,290.885,1673.913,290.885Z" transform="translate(-1651.449 -244.374)"/>
  </g>
  <g id="Gruppe_359" data-name="Gruppe 359" transform="translate(99.925 47.149)">
    <path id="Pfad_873" data-name="Pfad 873" class="cls-7" d="M1624.49,345.338c6.01,1.351,33.926,4.685,39.844,5.284-4.691-5.478-7.929-14.3-14.125-18.206-14.735-9.3,2.493-13.429,8.808-7.8,7.558,6.741,18.971,15.281,25.27,23.364,3.09,3.968,11.339,16.368,10.063,20.764-.665,2.3-7.385,3.586-9.895,4.578-3.786,1.5-24.713-2.792-32.569-4.592C1651,368.532,1613.463,342.861,1624.49,345.338Z" transform="translate(-1622.464 -307.363)"/>
    <g id="Gruppe_358" data-name="Gruppe 358" transform="translate(10.744)">
      <path id="Pfad_874" data-name="Pfad 874" class="cls-7" d="M1640.832,310.489s1.213-3.674,5.818-1.654c.736.322,3.855-4.118,3.855-4.118l3.838,1.237,10.232-3.5,4.249,9.62,1.774,8.092-9.044,6.542-10.414-5.035-7.047-9.961Z" transform="translate(-1640.832 -299.225)"/>
      <path id="Pfad_875" data-name="Pfad 875" class="cls-8" d="M1663.093,297.206a2.189,2.189,0,0,1,1.252,2.687l-3.42,7.79a1.952,1.952,0,0,1-2.74.7h0a2.188,2.188,0,0,1-1.25-2.688l3.418-7.791a1.951,1.951,0,0,1,2.74-.7Z" transform="translate(-1647.46 -296.935)"/>
      <path id="Pfad_876" data-name="Pfad 876" class="cls-8" d="M1655,299.721c1.431-.51,2.523-.767,2.12-.014l-4.331,8.177a2.325,2.325,0,0,1-2.62.831h0c-1.04-.3-1.561-1.143-1.155-1.895l3.363-6.266a2.327,2.327,0,0,1,2.623-.833Z" transform="translate(-1644.173 -297.89)"/>
      <path id="Pfad_877" data-name="Pfad 877" class="cls-8" d="M1650.63,301.354l-3.211,4.29a2.121,2.121,0,0,1-2.381.669h0c-.939-.284-1.388-1.049-1.01-1.7,0,0,.7-2.664,2.77-3.406C1648.483,300.6,1651.011,300.7,1650.63,301.354Z" transform="translate(-1642.103 -298.54)"/>
      <path id="Pfad_878" data-name="Pfad 878" class="cls-8" d="M1670.141,298.86c.911.477,4.7,1.079,4.339,1.856l-6.353,6.874a1.634,1.634,0,0,1-2.308.534h0a1.831,1.831,0,0,1-1-2.271l2.588-7.169c.362-.778,1.816-.306,2.73.176Z" transform="translate(-1650.738 -297.489)"/>
    </g>
  </g>
  <g id="Gruppe_366" data-name="Gruppe 366" transform="translate(18.573 16.203)">
    <g id="Gruppe_360" data-name="Gruppe 360">
      <path id="Pfad_879" data-name="Pfad 879" class="cls-9" d="M1559.349,324.763c-.977,4.468-7.136,7.576-8.38,11.881-1.334,4.583,2.165,10.583.637,14.639-1.658,4.428-8.22,6.5-10.2,10.465-2.231,4.473-.2,11.362-2.673,14.848-2.919,4.138-9.631,3.617-13.023,6.118-3.971,2.912-6.679,9.88-11.052,9.92-4.405.038-7.072-7.135-10.83-10.476-3.232-2.862-10-2.716-12.534-7.712-2.16-4.28.811-11.882-.468-17.345-1.142-4.864-7.063-8.83-7.434-14.587-.334-5.306,4.938-11.153,5.41-16.767.437-5.277-3.907-11.424-2.675-17.045s7.752-9.382,9.565-14.357c1.921-5.294-.419-12.813,2.1-17.492,2.747-5.074,9.783-6.2,12.858-10.136,3.451-4.427,3.932-12.575,7.685-15.558,4.394-3.477,10.478-.513,14.612-1.757,4.812-1.461,10.237-6.859,14.221-4.979,3.953,1.867,3.5,9.329,5.882,13.634,2.033,3.689,8.35,6.026,9.267,11.007.788,4.2-3.943,9.605-3.787,14.6.133,4.428,5.226,9.053,4.881,13.771-.316,4.32-6,8.308-6.713,13.026C1556.039,314.9,1560.332,320.3,1559.349,324.763Z" transform="translate(-1483.382 -244.03)"/>
    </g>
    <g id="Gruppe_361" data-name="Gruppe 361" transform="translate(45.019 36.427)">
      <path id="Pfad_880" data-name="Pfad 880" class="cls-7" d="M1596.318,308.911c-3.434,18.275,6.478,18.5,6.478,18.5,0,23.958-42.014,8.25-42.448.567,9.8-1.228,13.836-7.4,16.152-17.417C1575.17,302.071,1596.318,308.911,1596.318,308.911Z" transform="translate(-1560.347 -306.307)"/>
    </g>
    <g id="Gruppe_365" data-name="Gruppe 365" transform="translate(49.01 0.649)">
      <g id="Gruppe_364" data-name="Gruppe 364">
        <g id="Gruppe_362" data-name="Gruppe 362" transform="translate(11.009 5.036)">
          <path id="Pfad_881" data-name="Pfad 881" class="cls-8" d="M1589.263,279.889c-1.123-5.568-3.19-14.35-1.72-18.48,1.7-4.8,6.514-6.179,10.719-7.027s9.177-1.443,12.611,2.323c2.95,3.238,4.032,11.1,4.806,16.722.986,7.18,1.589,11.9-3.563,18.877-1.184,1.61-2.293,5.581-11.543.988C1594.5,290.274,1590.694,286.981,1589.263,279.889Z" transform="translate(-1586.424 -253.749)"/>
          <path id="Pfad_882" data-name="Pfad 882" class="cls-8" d="M1589.2,293.806c-5.68-3.231-2.409,4.969-.819,6.954.585.733,2.192,2.078,3.288,2.06Z" transform="translate(-1585.992 -270.067)"/>
        </g>
        <g id="Gruppe_363" data-name="Gruppe 363">
          <path id="Pfad_883" data-name="Pfad 883" class="cls-9" d="M1581.021,273.988c-1.165-.327,5.425,8.677-2.016,13.068-7.1-4.714-8.85-8.177-9.97-10.877-4.23-10.2.063-22.249.063-22.249s2.692-6.356,12.732-8.38c4.561-.922,13.917-.374,18.263,2.514,3.653,2.425,6.692,7.512,4.9,9.539-1.209-1.346-7.266-3.849-8.662-1.752C1583.731,253.749,1590.871,269.584,1581.021,273.988Z" transform="translate(-1567.171 -245.14)"/>
        </g>
      </g>
      <path id="Pfad_884" data-name="Pfad 884" class="cls-10" d="M1612.171,299.965c.183,1.952,4,5.551,8.24,5.153,5.981-.56,2.581-3.078,5.355-6.428.556-.672-1.081.856-5.326,1.254S1612.077,298.968,1612.171,299.965Z" transform="translate(-1585.849 -267.297)"/>
    </g>
  </g>
  <g id="Gruppe_368" data-name="Gruppe 368" transform="translate(34.608 69.319)">
    <path id="Pfad_885" data-name="Pfad 885" class="cls-5" d="M1540.775,614.428H1588.1l3.593-15.165c-.181,4.8-.34,9.914-.484,15.165h46.135c2.311-25.208,1.9-49.589-3.533-69.9-2.528-15.9-7.353-32.8-15.126-46.287-15.075-10.05-69.037-.226-70.406,3.4-5.118,13.55-4.951,70.273-4.951,93.262C1542.347,601.488,1541.5,608.066,1540.775,614.428Z" transform="translate(-1523.239 -400.837)"/>
    <g id="Gruppe_367" data-name="Gruppe 367">
      <path id="Pfad_886" data-name="Pfad 886" class="cls-11" d="M1511.489,369.959c12.9-33.133,35-33.343,35-33.343s19.059,11.276,25.134,10.953,6.141-12.626,6.141-12.626,17.878-2.492,37.187,16.817c-3.5,9.979,6.979,104.464,4.99,118.894-5.656,4.271-4.333-47.728-48.684-31.865,2.367,37.117-42.775,55.054-41.688,47.635C1534.186,447.8,1506.085,382.613,1511.489,369.959Z" transform="translate(-1510.795 -334.839)"/>
    </g>
  </g>
  <path id="Pfad_887" data-name="Pfad 887" class="cls-8" d="M1515.007,473.12c-.6-5.619.661-10.88-3.4-14.433-7.173-2.408-29.134-19.044-34.361-23.138,9.918-11.495,17.328-26.27,29.066-29.447,7.944-2.15-8.133-33.471-15.533-25.494-7.436,8.017-32.8,42.063-36.318,53.45-1.107,3.587-4.406,10.133-1.931,13.467,1.073,1.446,26.476,12.881,36.628,14.707,7.285,1.31,13.615,3,13.538,10.957-.074,7.65-2.627,12.171,2.595,19.226q-.148-.929-.277-1.9c.354-3.173.907-14.628,2.3-17.549,2.925,4.361,6.771,15.591,13.838,15.422C1521.629,482.665,1515.626,478.93,1515.007,473.12Z" transform="translate(-1451.629 -283.978)"/>
  <g id="Gruppe_369" data-name="Gruppe 369" transform="translate(113.336 37.409)">
    <path id="Pfad_888" data-name="Pfad 888" class="cls-1" d="M1656.159,298.117c-1.208,1.056-1.819,2.126-3.277,2.8-1.276.585-.106,2.027.661,1.637,1.039-.758,3.566-1.131,4.739-1.406Z" transform="translate(-1648.265 -287.686)"/>
    <path id="Pfad_889" data-name="Pfad 889" class="cls-5" d="M1660.984,293.742s-2.484-2.232-2.123-3.027a24.605,24.605,0,0,1,6.278-9.225c4-3.5,6.337,1.511,6.012,3.731C1670.19,291.788,1660.984,293.742,1660.984,293.742Z" transform="translate(-1650.967 -280.284)"/>
    <path id="Pfad_890" data-name="Pfad 890" class="cls-1" d="M1650.669,304.63a5.034,5.034,0,0,1-1.132,1.865c-.361.288-1.036,1.886-1.193,1.886-.215,0-.3-.142-.2-.341.121-.521.316-.659.193-.926-.378.14-1.059,1.252-1.234,1.293a.309.309,0,0,1-.322-.236c-.006-.191.252-.45.312-.571.207-.408.542-.888.537-.891-.291.2-1.294,1.309-1.524,1.341a.281.281,0,0,1-.235-.484,9.274,9.274,0,0,0,1.012-1.514c-.224-.171-.375.15-.718.284-.278.108-.632.4-.777-.032-.048-.146,2.562-1.84,2.618-2.106-.284-.161-1.543.137-1.455-.273a5.1,5.1,0,0,1,3.133-.724Z" transform="translate(-1645.391 -289.766)"/>
  </g>
</svg>
