<svg id="Gruppe_450" data-name="Gruppe 450" xmlns="http://www.w3.org/2000/svg" width="155.293" height="274.847" viewBox="0 0 155.293 274.847">
  <defs>
    <style>
      .cls-1 {
        fill: #7a2222;
      }

      .cls-2 {
        fill: #ffaa90;
      }

      .cls-3 {
        fill: #ff8a5f;
      }

      .cls-4 {
        fill: #fe764a;
      }

      .cls-5 {
        fill: #43200c;
      }

      .cls-6 {
        fill: #8d2e2a;
      }

      .cls-7 {
        fill: #fff;
      }

      .cls-8 {
        fill: #fdbb45;
      }

      .cls-9 {
        fill: #ffac27;
      }

      .cls-10 {
        fill: #fcf9eb;
      }
    </style>
  </defs>
  <path id="Pfad_1085" data-name="Pfad 1085" class="cls-1" d="M250.49,300.32c1.425-1.741,3.317-4.781,6.758-4.982,3.445.04,10.788,8.5,12.294,10.171-4.139,11.588,1.587,17.98,1.587,17.98s.291,8.786-7.073,8.959-23.244-9.195-23.244-9.195S253.493,312.1,250.49,300.32Z" transform="translate(-204.284 -257.187)"/>
  <g id="Gruppe_435" data-name="Gruppe 435" transform="translate(0 59.976)">
    <path id="Pfad_1086" data-name="Pfad 1086" class="cls-2" d="M279.035,613.027c17.762-2.912,31.854-7.079,33.549-13.015,5.521-19.319-9.492-78.465-37.109-106.082-15.459-9.162-64.433,2.444-67.151,5.164-34.4,34.405-20.17,93.505-13.045,113.933Z" transform="translate(-181.626 -398.156)"/>
    <g id="Gruppe_434" data-name="Gruppe 434">
      <path id="Pfad_1087" data-name="Pfad 1087" class="cls-3" d="M179.144,367.834c12.789-32.862,34.711-33.069,34.711-33.069s18.9,11.184,24.927,10.863,6.091-12.522,6.091-12.522,26.343-6.535,37.476,29.863c-1.968,5.619-6.031,44.822-8.747,64.536-12.9,9.743-74.407,13.9-72.5.887C197.617,414.373,173.785,380.382,179.144,367.834Z" transform="translate(-178.363 -332.65)"/>
    </g>
    <path id="Pfad_1088" data-name="Pfad 1088" class="cls-4" d="M192.382,428.231c12.3,9.766,27.566,20.06,43.465,21.515,4.433.405,9.258-.736,13.324.7-12.879,4.513-29.754-.146-41.967,6.171a80.318,80.318,0,0,0-11.109-18.73Z" transform="translate(-184.182 -372.324)"/>
  </g>
  <g id="Gruppe_441" data-name="Gruppe 441" transform="translate(6.455)">
    <g id="Gruppe_436" data-name="Gruppe 436">
      <path id="Pfad_1089" data-name="Pfad 1089" class="cls-5" d="M229.712,270c-1.273.9-4.662-.776-6.032-.037-1.456.783-.97,4.009-2.416,4.556-1.577.6-4.962-1.545-6.6-1.213-1.848.374-2.2,3.246-3.971,3.229-2.1-.014-5.072-2.985-7.085-3.674-2.353-.813-4.885.091-6.889-1.731-2.02-1.837-1.909-5.057-3.012-7.613-.946-2.2-4.067-4.991-4.3-7.52-.193-2.16,2.572-3.139,3-5.275.376-1.9-1.6-5.55-.7-7.392.828-1.694,4.321-1.195,5.577-2.64,1.173-1.363.327-4.988,1.928-6.116s5.284.506,7.035-.191c1.856-.746,2.178-3.929,4.2-4.241,2.194-.334,5.62,2.289,7.753,2.427,2.4.15,4.127-2.034,6.394-1.334,2.652.826,4.885,4.248,7,5.618,2.47,1.591,5.949,2.287,7.42,4.509,1.463,2.206-.128,4.2.166,6.462.246,1.934,2.7,5.269,2.2,7.114-.418,1.559-3.581,1.158-4.434,2.687-.759,1.354.714,4.844-.318,6.082-.943,1.132-4.282-.085-5.479,1C230.025,265.723,230.989,269.105,229.712,270Z" transform="translate(-189.398 -230.114)"/>
    </g>
    <g id="Gruppe_440" data-name="Gruppe 440" transform="translate(26.101 10.044)">
      <g id="Gruppe_439" data-name="Gruppe 439">
        <g id="Gruppe_437" data-name="Gruppe 437" transform="translate(11.369 4.214)">
          <path id="Pfad_1090" data-name="Pfad 1090" class="cls-6" d="M257.747,282.926c-1.852-5.5-5.074-14.139-4.113-18.513,1.11-5.088,5.813-7.1,9.965-8.5s9.117-2.64,13.081.738c3.406,2.9,5.509,10.729,7.013,16.334,1.924,7.151,3.137,11.856-1.192,19.593-.995,1.785-1.608,5.95-11.575,2.482C264.384,292.781,260.106,289.932,257.747,282.926Z" transform="translate(-253.459 -254.49)"/>
          <path id="Pfad_1091" data-name="Pfad 1091" class="cls-6" d="M258.643,298.509c-6.173-2.547-1.8,5.344.06,7.154.687.667,2.488,1.826,3.6,1.665Z" transform="translate(-254.288 -272.553)"/>
        </g>
        <g id="Gruppe_438" data-name="Gruppe 438">
          <path id="Pfad_1092" data-name="Pfad 1092" class="cls-5" d="M249.383,277.576c-1.221-.184,6.612,8.1-.368,13.506-7.8-3.871-10.018-7.155-11.5-9.75-5.6-9.8-2.788-22.561-2.788-22.561s1.914-6.787,11.83-10.127c4.507-1.518,14.063-2.163,18.835.206,4.013,1.992,7.746,6.758,6.19,9.044-1.4-1.212-7.858-2.971-9-.667C249.539,256.712,258.8,271.85,249.383,277.576Z" transform="translate(-234.022 -247.285)"/>
        </g>
      </g>
    </g>
    <path id="Pfad_1093" data-name="Pfad 1093" class="cls-7" d="M282.214,301.244c.633,1.855,5.178,4.469,9.214,3.093,5.687-1.938,1.793-3.594,3.712-7.5.384-.782-.852,1.084-4.888,2.46S281.891,300.3,282.214,301.244Z" transform="translate(-227.917 -257.733)"/>
  </g>
  <g id="Gruppe_449" data-name="Gruppe 449" transform="translate(59.015 21.687)">
    <path id="Pfad_1094" data-name="Pfad 1094" class="cls-1" d="M370.26,314.389l-.4,5.656-.408-4.77s-2.892-2.23-3.848,3.955c-.588,3.8-1.376,16.515-1.376,16.515a24.737,24.737,0,0,0-2.585-3.229c-4.414-3.211-6.806.308-6.806.308l3.186,2.056,4.738,12.046,2.817,1.758C362.3,354.95,350.8,379.34,346.9,384.3c10.729,32.529,30.172-11.153,33.4-34.547l3.611-14.622c.08-.207.439-14.139-.766-14.342a2.114,2.114,0,0,0-2.41,2.01s-.523-9.432-2.105-9.782c-1.517-.337-2.778,1.656-3,3.478-.3-1.368-1.411-4.806-2.5-5.048C371.675,311.128,370.4,312.441,370.26,314.389Z" transform="translate(-307.333 -285.541)"/>
    <g id="Gruppe_448" data-name="Gruppe 448" transform="translate(20.565)">
      <g id="Gruppe_442" data-name="Gruppe 442" transform="translate(4.331 37.476)">
        <path id="Pfad_1095" data-name="Pfad 1095" class="cls-8" d="M342.169,331.65c-4.23-.19-6.21-1.33-11.618,1.469a63.241,63.241,0,0,0-8.13,5.356c-1.308.98-.426,3.476,2.1,4,4.2.863,5.45-3.953,8.989-4.942,1.841-.515,7.931,2.615,9.794,2.923Z" transform="translate(-321.82 -331.261)"/>
      </g>
      <g id="Gruppe_443" data-name="Gruppe 443" transform="translate(24.266 56.782)">
        <path id="Pfad_1096" data-name="Pfad 1096" class="cls-9" d="M362.026,364.267c-1.008,3.938,9.221,29.787,1.81,38.924-5.87,7.237-1.28,18.774-4.118,19.089-6.629,1.07-3.672,5.189,1.676,7.468,2.356,1.074,8.345-3.265,12.331-9.63,4.189-6.189,6.376-14.4,5.8-17.026-.672-4.206,5.5-24.271,5.622-28.654C380.512,369.875,367.336,367.134,362.026,364.267Z" transform="translate(-355.902 -364.267)"/>
      </g>
      <g id="Gruppe_444" data-name="Gruppe 444" transform="translate(22.56 11.067)">
        <path id="Pfad_1097" data-name="Pfad 1097" class="cls-8" d="M353.022,305.309c1.559,11.141,2.246,19.665,6.806,25.629,1.969,2.54,21.006,11.744,20.421,14.65-12.387,3.52-10.5,19.679-3.326,29.278-8.621.892-8.262,16.6-11.894,18.711-5.75,3.577-6.271,9.734,3.316,7.09,4.268-1.19,14.7-9.406,22.606-19.978,8.158-10.3,13.8-22.955,14.276-26.7,1.017-5.533,2.055-19.526-2.089-32.632-3.808-13.091-23.375-35.015-42.2-35.249C362.742,292.709,352.3,298.752,353.022,305.309Z" transform="translate(-352.986 -286.112)"/>
      </g>
      <path id="Pfad_1098" data-name="Pfad 1098" class="cls-8" d="M345.148,339.154c-3.2.96-4.4,5-8.69,7.527-4.893,2.889-11.83,3.218-13.241,4.682-3.078,3.194-11.637,9.01-7.852,11.328,2.725,1.669,11.064-3.142,11.334-5.665,4.511-1.354,8.15-2.757,12.228-2.7,4.866.065,9.776-1.015,11.749-2.755C354.52,347.648,345.148,339.154,345.148,339.154Z" transform="translate(-314.416 -297.061)"/>
      <path id="Pfad_1099" data-name="Pfad 1099" class="cls-10" d="M329.457,356.509c-2.926.756-5.45,1.221-6.24,2.04-3.078,3.194-11.637,9.01-7.852,11.328,2.725,1.669,11.064-3.142,11.334-5.665,2.6-.78,4.916-1.578,7.191-2.1C335.556,361.724,331.756,355.914,329.457,356.509Z" transform="translate(-314.416 -304.247)"/>
      <path id="Pfad_1100" data-name="Pfad 1100" class="cls-8" d="M415.534,426.6c-3.707,14.6-14.441,35.574,1.943,41.438,5.611,2.009,11.673-.852,10.3-7.255-18.1-1.514,6.2-40.174-.9-50.573C426.884,410.209,416.462,422.947,415.534,426.6Z" transform="translate(-353.529 -326.555)"/>
      <g id="Gruppe_447" data-name="Gruppe 447" transform="translate(1.443)">
        <g id="Gruppe_445" data-name="Gruppe 445" transform="translate(1.703 9.581)">
          <path id="Pfad_1101" data-name="Pfad 1101" class="cls-9" d="M319.794,283.757l12.334-.185-2.81,5.266Z" transform="translate(-319.794 -283.572)"/>
          <path id="Pfad_1102" data-name="Pfad 1102" class="cls-4" d="M319.794,283.888l9.525,5.082-3.236,1.206Z" transform="translate(-319.794 -283.703)"/>
        </g>
        <path id="Pfad_1103" data-name="Pfad 1103" class="cls-9" d="M321.2,314.859s5.736,1.318,14.27-2.262c4.1-1.72-14.548-10.226-14.548-10.226s.032,2.222-4.037,6.78C316.986,310.937,321.2,314.859,321.2,314.859Z" transform="translate(-316.885 -281.794)"/>
        <path id="Pfad_1104" data-name="Pfad 1104" class="cls-8" d="M324.083,293.547c1.993,6.6,9.489,10.166,16.739,7.975s11.516-9.315,9.523-15.91-9.49-10.167-16.739-7.977S322.092,286.952,324.083,293.547Z" transform="translate(-319.669 -271.259)"/>
        <g id="Gruppe_446" data-name="Gruppe 446" transform="translate(11.057)">
          <path id="Pfad_1105" data-name="Pfad 1105" class="cls-9" d="M335.817,267.191l10.593,10.32-6.85,2.069Z" transform="translate(-335.8 -267.191)"/>
          <path id="Pfad_1106" data-name="Pfad 1106" class="cls-4" d="M335.8,267.191l3.743,12.388-3.761-1.731Z" transform="translate(-335.787 -267.191)"/>
        </g>
        <path id="Pfad_1107" data-name="Pfad 1107" class="cls-5" d="M328.184,300.876a1.065,1.065,0,1,0,.711-1.328A1.061,1.061,0,0,0,328.184,300.876Z" transform="translate(-321.555 -280.603)"/>
        <path id="Pfad_1108" data-name="Pfad 1108" class="cls-10" d="M318.546,312.922c.62,2.05,3.3,3.053,5.977,2.243s4.357-3.129,3.738-5.178-3.3-3.053-5.977-2.244S317.927,310.873,318.546,312.922Z" transform="translate(-317.52 -283.908)"/>
        <path id="Pfad_1109" data-name="Pfad 1109" class="cls-4" d="M317.666,315.114a2.137,2.137,0,0,1-.781-1.743l.718-.833Z" transform="translate(-316.883 -286.014)"/>
      </g>
    </g>
    <path id="Pfad_1110" data-name="Pfad 1110" class="cls-6" d="M354.186,338.2l-3.842,4.169L353,338.385s-.869-3.548-5.475.691c-2.833,2.606-11.379,12.046-11.379,12.046a24.769,24.769,0,0,0-.005-4.137c-1.446-5.263-5.511-4-5.511-4l1.208,3.594-3.814,12.37,1.1,3.131c-6.47,2.853-42.491,26.82-48.639,28.261-5.456,14.712,8.24,22.549,20.626,17.552,14.651-5.911,29.57-26.979,38.845-35.8l11.944-9.173c.192-.112,9.165-10.775,8.35-11.686a2.114,2.114,0,0,0-3.137.067s5.477-7.7,4.458-8.958c-.975-1.211-3.2-.439-4.515.846.62-1.255,1.9-4.637,1.194-5.506C357.327,336.532,355.509,336.76,354.186,338.2Z" transform="translate(-279.257 -296.147)"/>
  </g>
</svg>
