<svg id="Gruppe_411" data-name="Gruppe 411" xmlns="http://www.w3.org/2000/svg" width="135.328" height="267.905" viewBox="0 0 135.328 267.905">
  <defs>
    <style>
      .cls-1 {
        fill: #7a2222;
      }

      .cls-2 {
        fill: #fcf9eb;
      }

      .cls-3 {
        fill: #fdbb45;
      }

      .cls-4 {
        fill: #fc8b59;
      }

      .cls-5 {
        fill: #f6693b;
      }

      .cls-6 {
        fill: #fff;
      }

      .cls-7 {
        fill: #7a5d7b;
      }

      .cls-8 {
        fill: #8e6c8f;
      }

      .cls-9 {
        fill: #703e13;
      }

      .cls-10 {
        fill: #f8f0e2;
      }

      .cls-11 {
        fill: #43200c;
      }

      .cls-12 {
        fill: #423b41;
      }

      .cls-13 {
        fill: #ff6d00;
      }

      .cls-14 {
        fill: #b1dddc;
      }

      .cls-15 {
        fill: #ff8a5f;
      }

      .cls-16 {
        fill: #fe764a;
      }

      .cls-17 {
        fill: #ffaa90;
      }
    </style>
  </defs>
  <path id="Pfad_930" data-name="Pfad 930" class="cls-1" d="M949.651,278.684c0,17.7-9.638,32.044-21.53,32.044s-21.532-14.348-21.532-32.044,9.64-32.047,21.532-32.047S949.651,260.985,949.651,278.684Z" transform="translate(-862.606 -243.914)"/>
  <path id="Pfad_931" data-name="Pfad 931" class="cls-2" d="M947.458,616.433c4.207-39.489,3.217-78.992-11.395-102.206-15.891-18.967-57.951-20.993-75.094-3.85-17.22,17.219-19.991,63.045-18.216,106.056Z" transform="translate(-835.917 -348.528)"/>
  <path id="Pfad_932" data-name="Pfad 932" class="cls-3" d="M962.164,350c-17.273-37.335-42.815-35.987-42.815-35.987l-.128.158-3.587-1.241-1.918-12.1-24.556-7.329-1.922,19.433-4.107,1.421-.019-.023s-25.6-5.374-42.219,32.258c4.757,11.273,12.279,63.22,15.613,79.739,7.784,5.151,29.323,7.847,48.716,7.437,19.8-.417,58.1,65.849,35.764-11.66C944.029,405.525,957.6,361.355,962.164,350Z" transform="translate(-835.337 -263.364)"/>
  <g id="Gruppe_393" data-name="Gruppe 393" transform="translate(0 89.279)">
    <path id="Pfad_933" data-name="Pfad 933" class="cls-4" d="M1044.56,467.46l-21.7-.617s-5.38-32.3-3.222-42.951c1.3-6.455,10.485-18.793,14.06-22.369C1038.5,410.26,1044.56,467.46,1044.56,467.46Z" transform="translate(-909.319 -397.483)"/>
    <g id="Gruppe_392" data-name="Gruppe 392">
      <path id="Pfad_934" data-name="Pfad 934" class="cls-4" d="M838.869,394.616l15.073,40.547-.129,29.351,32.431,32.915a21.082,21.082,0,0,1,3.42.011l7.3,1.69,13.625,3.663,4.081-1.572s1.194,4.564-4.762,6.5a27.172,27.172,0,0,1-4.623.236l7.476,10.881a2.693,2.693,0,0,1-1.484,3.19,2.322,2.322,0,0,1-2.946-.239,3.039,3.039,0,0,1-1.893,2.978,2.6,2.6,0,0,1-2.833-.187c.3,1.143-.6,2.588-2.091,3.293-1.553.727-3.145.378-3.561-.781l-.226-.649a2.841,2.841,0,0,1-1.539,1.73,2.2,2.2,0,0,1-2.351-.138v0l-8.347-4.741-4.9-6.95-2.377-4.131c-5.368-3.761-41.147-29.216-45.918-43.185C828.31,457.368,838.869,394.616,838.869,394.616Z" transform="translate(-831.394 -394.616)"/>
      <path id="Pfad_935" data-name="Pfad 935" class="cls-4" d="M988.709,510.688,965.371,540.7a20.975,20.975,0,0,0-3.417.012l-7.3,1.689-13.624,3.665-4.083-1.575s-1.2,4.564,4.764,6.5a27.173,27.173,0,0,0,4.621.235l-7.475,10.883a2.7,2.7,0,0,0,1.486,3.187,2.323,2.323,0,0,0,2.946-.237,3.037,3.037,0,0,0,1.893,2.977,2.609,2.609,0,0,0,2.831-.186c-.3,1.139.6,2.587,2.094,3.294,1.551.724,3.143.377,3.56-.781l.227-.65a2.83,2.83,0,0,0,1.536,1.73,2.2,2.2,0,0,0,2.353-.137v0l8.346-4.74,4.907-6.951,2.375-4.132c5.368-3.76,39.024-29.561,37-44.181C1009.163,502.339,988.709,510.688,988.709,510.688Z" transform="translate(-875.165 -441.328)"/>
    </g>
  </g>
  <g id="Gruppe_395" data-name="Gruppe 395" transform="translate(33.519)">
    <g id="Gruppe_394" data-name="Gruppe 394">
      <path id="Pfad_936" data-name="Pfad 936" class="cls-1" d="M966.36,263.672c3.258,7.279,9.824,10.036,7.664,18.738-1.023,4.123-.85,6.068,1.366,9.688,1.51,2.468,3.3,5.149,1.682,8.646-2.019,4.356-12.017,5.853-13.69,3.8C957.181,296.922,966.36,263.672,966.36,263.672Z" transform="translate(-918.805 -250.985)"/>
      <path id="Pfad_937" data-name="Pfad 937" class="cls-5" d="M966.637,283.366c4.789-4.164,3.243,4.271,2.115,6.467-.415.808-1.328,2.4-2.375,2.588Z" transform="translate(-920.942 -258.687)"/>
      <path id="Pfad_938" data-name="Pfad 938" class="cls-5" d="M917.767,283.366c-4.789-4.164-3.241,4.271-2.113,6.467.413.808,1.486,2.556,2.531,2.747Z" transform="translate(-899.403 -258.687)"/>
      <path id="Pfad_939" data-name="Pfad 939" class="cls-4" d="M947.581,271.954c0-5.517.305-14.277-2.072-17.925-2.763-4.247-8.019-4.634-12.54-4.634s-9.776.387-12.538,4.634c-2.377,3.648-2.445,12.42-2.072,17.925.475,7.027,2.837,11.852,8.2,16.206a10.183,10.183,0,0,0,12.824,0C944.744,283.807,947.581,278.982,947.581,271.954Z" transform="translate(-900.94 -245.059)"/>
      <path id="Pfad_940" data-name="Pfad 940" class="cls-1" d="M933.339,245.494c-3.642-3.641-8.187-2.7-12.747-3.284-15.014-1.912-19.625,8.766-21.05,11.953-3.563,3.945-8.255,7.585-7.05,12.851.75,3.277,3.045,5.5,2.42,9.112-.581,3.349-3.327,5.536-4.774,8.445-1.254,2.517-2.022,6-.883,8.717,1.251,2.983,3.99,3.26,6.241,5.176,2.078,1.77,2.34,5.224,4.389,6.69,2.266,1.618,6.926.269,8.694-1.665.5-.553,1.292-1.685,1.079-1.907.446-1.689-.249-3.383-.054-5.458.244-2.586,1.923-4.655,2.309-7.182.061-.4-5.65-9.492-7.1-12.1a62.314,62.314,0,0,1,2.115-9.98c1.242-4.175,4.121-1.974,7.2-5.2,2.445-2.565,3.894-7.654,7.249-8.826,4.4-1.54,3.906-1.315,8.723,1.535,3.776,2.235,5.911,7.126,4.386,12.5,1.063-.545,1.755-1.311,2.849-.844C940.219,254.445,935.753,247.907,933.339,245.494Z" transform="translate(-888.699 -241.982)"/>
    </g>
    <path id="Pfad_941" data-name="Pfad 941" class="cls-6" d="M946.8,296.962c0,2.1-3.886,6.329-8.68,6.329s-8.679-4.225-8.679-6.329c0-.934,3.311.924,8.1.924S946.8,295.886,946.8,296.962Z" transform="translate(-905.609 -264.671)"/>
  </g>
  <g id="Gruppe_404" data-name="Gruppe 404" transform="translate(34.208 102.794)">
    <g id="Gruppe_396" data-name="Gruppe 396" transform="translate(27.106)">
      <path id="Pfad_942" data-name="Pfad 942" class="cls-7" d="M989.945,494.93c-.843,1.776-5.561,3.914-7.285,2.968-4.1-2.241-7.043-17.3-7.043-17.3l9.047-2.9S991.877,490.86,989.945,494.93Z" transform="translate(-952.572 -442.617)"/>
      <path id="Pfad_943" data-name="Pfad 943" class="cls-8" d="M948.124,422.351c3.534,4.1,4.5,9.059,2.162,11.073s-7.1.322-10.631-3.779-4.5-9.059-2.162-11.074S944.592,418.249,948.124,422.351Z" transform="translate(-936.218 -417.721)"/>
    </g>
    <path id="Pfad_944" data-name="Pfad 944" class="cls-9" d="M956.468,491.772c-3.768,0-3.768.642-7.536.642s-3.767,1.99-7.534,1.99-3.768-1.067-7.535-1.067-3.767.666-7.534.666-3.768-.368-7.534-.368-3.768-.422-7.535-.422c-3.441,0-3.741.066-6.635.077q.725,1.079,1.528,2.1c1.63.021,2.386.058,5.109.058,3.767,0,3.767.459,7.534.459s3.768.628,7.535.628,3.768.881,7.535.881,3.767-1.692,7.534-1.692,3.768.279,7.535.279,3.767.249,7.534.249c.547,0,1.013.023,1.424.061a33.646,33.646,0,0,0,2.488-3.327A6.57,6.57,0,0,0,956.468,491.772Z" transform="translate(-895.998 -448.458)"/>
    <g id="Gruppe_397" data-name="Gruppe 397" transform="translate(26.12 9.847)">
      <path id="Pfad_945" data-name="Pfad 945" class="cls-10" d="M963.434,458.691c5.353,3.57,8.012,8.984,5.938,12.093s-8.092,2.73-13.445-.839-8.012-8.986-5.939-12.094S958.08,455.12,963.434,458.691Z" transform="translate(-940.655 -443.351)"/>
      <path id="Pfad_946" data-name="Pfad 946" class="cls-11" d="M962.506,480.081c.563,2.279-.078,4.4-1.432,4.733s-2.909-1.242-3.472-3.52a13.509,13.509,0,0,1-.038-3.53C961.173,479.318,961.7,480.081,962.506,480.081Z" transform="translate(-944.051 -452.49)"/>
      <path id="Pfad_947" data-name="Pfad 947" class="cls-12" d="M981.515,475.083c.563,2.279-.078,4.4-1.432,4.731s-2.909-1.241-3.472-3.519.078-4.4,1.432-4.733S980.952,472.8,981.515,475.083Z" transform="translate(-951.913 -449.898)"/>
      <path id="Pfad_948" data-name="Pfad 948" class="cls-10" d="M953.065,445.04a7.776,7.776,0,0,1-7.762,7.791c-4.286,0-10.771-10.892-10.771-15.2,3.811-7.125,7.33.459,10.771-.385A7.776,7.776,0,0,1,953.065,445.04Z" transform="translate(-934.532 -434.555)"/>
    </g>
    <path id="Pfad_949" data-name="Pfad 949" class="cls-13" d="M944.392,424.078a10.3,10.3,0,0,0-3.3-3.37c-.928-.55-3.582-1.714-4.546.23a17,17,0,0,0-.881,4.633Z" transform="translate(-908.883 -418.608)"/>
    <g id="Gruppe_398" data-name="Gruppe 398" transform="translate(28.551 3.039)">
      <path id="Pfad_950" data-name="Pfad 950" class="cls-14" d="M941.45,424.3a1.381,1.381,0,1,1-1.382-1.382A1.381,1.381,0,0,1,941.45,424.3Z" transform="translate(-938.688 -422.917)"/>
      <path id="Pfad_951" data-name="Pfad 951" class="cls-11" d="M940.829,424.567a.85.85,0,1,1-.849-.851A.849.849,0,0,1,940.829,424.567Z" transform="translate(-938.871 -423.249)"/>
    </g>
    <path id="Pfad_952" data-name="Pfad 952" class="cls-8" d="M973.107,448.923c4.939,6.742,7.217,13.469,5.088,15.029s-7.856-2.642-12.794-9.383-7.217-13.469-5.088-15.028S968.17,442.182,973.107,448.923Z" transform="translate(-918.782 -426.643)"/>
    <g id="Gruppe_401" data-name="Gruppe 401" transform="translate(34.249 36.947)">
      <g id="Gruppe_399" data-name="Gruppe 399" transform="translate(0 3.489)">
        <path id="Pfad_953" data-name="Pfad 953" class="cls-11" d="M958.169,489.8l-1.716-.249,2.927-2.694.929,1.069Z" transform="translate(-951.76 -486.853)"/>
        <path id="Pfad_954" data-name="Pfad 954" class="cls-11" d="M958.005,492.124a1.474,1.474,0,1,1-1.452-1.22A1.352,1.352,0,0,1,958.005,492.124Z" transform="translate(-951.2 -488.534)"/>
        <path id="Pfad_955" data-name="Pfad 955" class="cls-11" d="M957.955,493.906l-4.17-.916-4.332.916-1.022.418h10.592Z" transform="translate(-948.431 -489.4)"/>
      </g>
      <g id="Gruppe_400" data-name="Gruppe 400" transform="translate(13.694)">
        <path id="Pfad_956" data-name="Pfad 956" class="cls-11" d="M982.354,486.382l-1.463.6.054-4.66,1.744-1.438Z" transform="translate(-975.599 -480.888)"/>
        <path id="Pfad_957" data-name="Pfad 957" class="cls-11" d="M982.953,491.166a1.474,1.474,0,1,1-1.452-1.218A1.351,1.351,0,0,1,982.953,491.166Z" transform="translate(-975.249 -484.648)"/>
        <path id="Pfad_958" data-name="Pfad 958" class="cls-11" d="M981.366,493.868l-4.17-.917-4.332.917-1.022.418h10.592Z" transform="translate(-971.843 -485.895)"/>
      </g>
    </g>
    <g id="Gruppe_403" data-name="Gruppe 403" transform="translate(0 1.051)">
      <path id="Pfad_959" data-name="Pfad 959" class="cls-15" d="M916.185,435.942a72.117,72.117,0,0,0-25.854,8.453c.5-.545,4.143-9.668,29.168-13.921a3.313,3.313,0,0,0-.331,2.983Z" transform="translate(-890.066 -424.066)"/>
      <path id="Pfad_960" data-name="Pfad 960" class="cls-16" d="M917.6,419.518s-19.06,0-27.457,15.357c-.6,1.091,0,4.972,0,4.972s6.574-9.723,29.168-13.921C916.991,422.059,917.6,419.518,917.6,419.518Z" transform="translate(-889.877 -419.518)"/>
      <g id="Gruppe_402" data-name="Gruppe 402">
        <path id="Pfad_961" data-name="Pfad 961" class="cls-11" d="M890.975,440.8q-.431.685-.832,1.418c-.6,1.091,0,4.972,0,4.972s2.032-3,7.719-6.4C902.4,438.09,896.793,434.313,890.975,440.8Z" transform="translate(-889.877 -426.864)"/>
        <path id="Pfad_962" data-name="Pfad 962" class="cls-11" d="M933.262,419.671l2.993,6.459c.351-.069.705-.137,1.064-.2-2.32-3.868-1.711-6.409-1.711-6.409S934.727,419.518,933.262,419.671Z" transform="translate(-907.885 -419.518)"/>
        <path id="Pfad_963" data-name="Pfad 963" class="cls-11" d="M937.373,430.475c-.589.1-.5.1-1.064.2l-2.918,5.343c.432-.056.667-.078.667-.078l2.983-2.485A3.313,3.313,0,0,1,937.373,430.475Z" transform="translate(-907.939 -424.066)"/>
      </g>
    </g>
  </g>
  <g id="Gruppe_410" data-name="Gruppe 410" transform="translate(18.007 68.147)">
    <rect id="Rechteck_50" data-name="Rechteck 50" class="cls-17" width="92.213" height="17.011" transform="translate(3.066 120.888)"/>
    <g id="Gruppe_409" data-name="Gruppe 409">
      <g id="Gruppe_405" data-name="Gruppe 405">
        <path id="Pfad_964" data-name="Pfad 964" class="cls-10" d="M864.5,480.254l-.119-.736a174.188,174.188,0,0,1-2.2-27.855h0c0-25.611,5.355-48.8,14.064-65.666h0c8.7-16.838,20.825-27.487,34.495-27.508h0c13.669.021,25.8,10.67,34.494,27.508h0c8.709,16.864,14.062,40.056,14.064,65.666h0a174.332,174.332,0,0,1-2.2,27.855h0l-.121.736Zm91.732-.877v0Zm-.749-.879a172.849,172.849,0,0,0,2.059-26.836h0c0-25.364-5.319-48.319-13.867-64.86h0c-8.559-16.569-20.272-26.579-32.935-26.558h0c-12.664-.021-24.377,9.989-32.936,26.558h0c-8.549,16.54-13.87,39.5-13.868,64.86h0a172.773,172.773,0,0,0,2.059,26.836h89.488Z" transform="translate(-862.179 -358.489)"/>
      </g>
      <g id="Gruppe_406" data-name="Gruppe 406" transform="translate(18.561)">
        <path id="Pfad_965" data-name="Pfad 965" class="cls-10" d="M895.321,480.254l-.077-.792c-.865-8.778-1.333-18.114-1.333-27.8h0c.023-38.358,7.246-71.208,17.844-85.565h0c3.538-4.778,7.563-7.6,11.967-7.608h0c4.4.009,8.429,2.83,11.967,7.608h0c3.549,4.793,6.689,11.628,9.328,20.04h0c5.271,16.821,8.514,39.962,8.515,65.525h0c0,9.685-.467,19.022-1.332,27.8h0l-.078.792Zm56.007-.877v0Zm-.8-.879c.81-8.488,1.248-17.5,1.246-26.836h0c.023-38.1-7.326-70.855-17.5-84.52h0c-3.384-4.564-6.971-6.906-10.556-6.9h0c-3.587-.008-7.173,2.334-10.557,6.9h0c-3.373,4.547-6.468,11.229-9.065,19.519h0c-5.2,16.584-8.436,39.59-8.435,65h0c0,9.337.436,18.347,1.248,26.836h53.617Z" transform="translate(-893.912 -358.489)"/>
      </g>
      <g id="Gruppe_407" data-name="Gruppe 407" transform="translate(35.659 0.327)">
        <path id="Pfad_966" data-name="Pfad 966" class="cls-10" d="M923.63,480.813l-.029-.848c-.3-8.76-.458-18.078-.458-27.743h0c0-35.886,2.2-66.958,5.443-82.379h0c1.12-5.164,2.2-8.529,3.772-10.079h0a2.376,2.376,0,0,1,1.62-.715h0a2.372,2.372,0,0,1,1.62.715h0a6.175,6.175,0,0,1,1.164,1.628h0a26.608,26.608,0,0,1,1.943,5.57h0a151.958,151.958,0,0,1,3.187,19.9h0c1.807,16.747,2.921,39.843,2.921,65.357h0c0,9.665-.159,18.984-.456,27.743h0l-.03.848Zm19.848-.878v0Zm-.848-.877c.278-8.492.429-17.5.428-26.836h0c0-35.8-2.208-66.862-5.405-82.018h0c-1.027-5.029-2.317-8.351-3.257-9.163h0c-.237-.218-.36-.237-.417-.237h0c-.057,0-.18.019-.416.237h0a4.518,4.518,0,0,0-.815,1.17h0a25.009,25.009,0,0,0-1.794,5.185h0a150.616,150.616,0,0,0-3.142,19.658h0c-1.8,16.655-2.912,39.707-2.912,65.168h0c0,9.335.15,18.344.428,26.836h17.3Z" transform="translate(-923.143 -359.048)"/>
      </g>
      <g id="Gruppe_408" data-name="Gruppe 408" transform="translate(1.092 83.527)">
        <path id="Pfad_967" data-name="Pfad 967" class="cls-10" d="M864.046,503.045V501.29h95.036v1.755Z" transform="translate(-864.046 -501.29)"/>
      </g>
    </g>
  </g>
</svg>
