<svg id="Gruppe_433" data-name="Gruppe 433" xmlns="http://www.w3.org/2000/svg" width="170.783" height="292.006" viewBox="0 0 170.783 292.006">
  <defs>
    <style>
      .cls-1 {
        fill: #fcf9eb;
      }

      .cls-2 {
        fill: #ab1638;
      }

      .cls-3 {
        fill: #931330;
      }

      .cls-4 {
        fill: #ff9a83;
      }

      .cls-5 {
        fill: #ffaa90;
      }

      .cls-6 {
        fill: #fe764a;
      }

      .cls-7 {
        fill: #fff;
      }

      .cls-8 {
        fill: #f8f0e2;
      }

      .cls-9 {
        fill: #8e6c8f;
      }

      .cls-10 {
        fill: #85c0c5;
      }

      .cls-11 {
        fill: #61adaf;
      }

      .cls-12 {
        fill: #b3d8db;
      }

      .cls-13 {
        fill: #ffac27;
      }

      .cls-14 {
        fill: #7a5d7b;
      }

      .cls-15 {
        fill: #fcc543;
      }
    </style>
  </defs>
  <path id="Pfad_968" data-name="Pfad 968" class="cls-1" d="M606.672,301.5c0,9.775-35.951,26.671-44.78,26.671s-26.583-12.8-26.583-22.576,17.754-12.823,26.583-12.823S606.672,291.721,606.672,301.5Z" transform="translate(-508.57 -238.948)"/>
  <g id="Gruppe_412" data-name="Gruppe 412" transform="translate(22.718 204.744)">
    <path id="Pfad_969" data-name="Pfad 969" class="cls-2" d="M584.074,638.076l-4.348-13.124-1.686,13.124H530.284c-.94-41.719-1.85-82.772-1.85-82.772l56.532,10.15c16.225-10.345,36.72-20.868,39.526-10.15,6.654,25.414,9.035,57.241,9.819,82.772Z" transform="translate(-528.434 -550.813)"/>
    <path id="Pfad_970" data-name="Pfad 970" class="cls-3" d="M615.344,649.911l11.5-25.1,14.62-10.272-20.91-.282Z" transform="translate(-564.509 -577.149)"/>
  </g>
  <g id="Gruppe_418" data-name="Gruppe 418" transform="translate(35.043 0)">
    <g id="Gruppe_413" data-name="Gruppe 413" transform="translate(17.089 43.662)">
      <path id="Pfad_971" data-name="Pfad 971" class="cls-4" d="M578.721,298.076l13.85,7.942,16.379-6.527-1.243-17.829-28.829-6.24Z" transform="translate(-578.721 -275.423)"/>
    </g>
    <g id="Gruppe_417" data-name="Gruppe 417">
      <g id="Gruppe_414" data-name="Gruppe 414" transform="translate(11.996 11.458)">
        <path id="Pfad_972" data-name="Pfad 972" class="cls-5" d="M575.037,250.574c-1.526-5.941-5.952-14.753-4.846-19.411,1.282-5.42,6.463-7.629,11.033-9.179s10.031-2.936,14.341.593c3.7,3.03,5.54,12.719,7.94,18.363a25.03,25.03,0,0,1,.352,19.34,8.638,8.638,0,0,1-4.9,3.651c-1.962,1.093-10.924.844-12.986.035C579,261.212,576.98,258.171,575.037,250.574Z" transform="translate(-570.015 -220.366)"/>
      </g>
      <g id="Gruppe_416" data-name="Gruppe 416">
        <g id="Gruppe_415" data-name="Gruppe 415">
          <path id="Pfad_973" data-name="Pfad 973" class="cls-6" d="M550.14,226.377c-2.738-5.7,4.2-10.535,5.517-12.822,4.793-8.3,13.7-6.153,16.005-8.257,9.658-8.836,14.526-2.322,14.468-.436a18.493,18.493,0,0,1-.449,2.767c5.046.067,7.779,1.9,6.528,3.227-.618.653,5.107,7.427-.862,11.352,0,0-5.6-7.7-7.571-7.7-2.511-1.242-5.116,2.205-5.116,2.205s-6.4,2.213-6.813,2.585c-.746.68-3.32-.145-3.32-.145-6.966,6.056-3.081,19.311-3.081,19.311a128.593,128.593,0,0,1,3.127,18.854c-1.554-2.525-9.639-8.179-12.532-11.993C550.9,238.533,553.092,232.51,550.14,226.377Z" transform="translate(-549.506 -200.778)"/>
        </g>
      </g>
      <path id="Pfad_974" data-name="Pfad 974" class="cls-5" d="M573.867,264.753c-7.26-3.229-3,6.871-1,8.9a6.889,6.889,0,0,0,4.321,1.209Z" transform="translate(-557.928 -227.07)"/>
    </g>
    <path id="Pfad_975" data-name="Pfad 975" class="cls-7" d="M597.995,269.182c.9,2.435,6.992,5.749,12.289,3.8,7.462-2.744,2.258-4.81,4.674-10.038.485-1.046-1.04,1.6-6.338,3.545S597.538,267.936,597.995,269.182Z" transform="translate(-569.622 -226.483)"/>
  </g>
  <path id="Pfad_976" data-name="Pfad 976" class="cls-8" d="M695.756,388.162c-5.1-14-15.545-48.26-16.95-53.082-7.052,6.345-16.446,36.905-20.521,45.028,1.62,9.916,7.1,26.989,13.72,27.107C684.363,421.25,695.756,388.162,695.756,388.162Z" transform="translate(-559.614 -256.524)"/>
  <path id="Pfad_977" data-name="Pfad 977" class="cls-4" d="M735.5,403.628l3.524-2.248s2.427,4.08-2.815,7.027a26.522,26.522,0,0,1-4.421,1.089s12.376,6.81,15.917,9.2c5.759,3.891,2.2,5.765,2.2,5.765l-4.965-1.844,5.481,3.079c1.89,1.059,2.619,2.971,1.635,4.283-.743.993-4.7.492-6.2.145,1.719,1.086,3.137,3.3,2.1,4.681-1.074,1.435-10.764-2.5-10.764-2.5a2.392,2.392,0,0,1,.91,3.39c-.757,1.123-14.118-5.531-14.118-5.531a2.7,2.7,0,0,1-.6-.478l-6.534-2.016-5.33-4.215.825-14.84,8.919-5.894Z" transform="translate(-581.71 -284.043)"/>
  <g id="Gruppe_422" data-name="Gruppe 422" transform="translate(8.099 62.549)">
    <g id="Gruppe_420" data-name="Gruppe 420">
      <g id="Gruppe_419" data-name="Gruppe 419">
        <path id="Pfad_978" data-name="Pfad 978" class="cls-1" d="M518.342,374.006s-14.886-44.371-14.9-50.285c4.4-10.672,34.539-16.007,34.539-16.007l28.109,2.9,27.354-2.9s16.691,8.1,21.089,16.007c-.013,5.914-.7,50.285-.7,50.285s10.937,63.341.938,82.993c-7.107,4.192-24.433,8.678-42.051,8.752-17.618-.074-47.557-7.159-54.665-11.352C501.988,449.632,518.342,374.006,518.342,374.006Z" transform="translate(-503.442 -307.714)"/>
      </g>
      <path id="Pfad_979" data-name="Pfad 979" class="cls-8" d="M528.35,342.255c11.9,7.64,47.064,43.41,50.02,61.362,1.212,7.358,42.491,17.261,41.9,24.764-10.545,10.544-42.366,17.466-59.3,17.83-21.187.456-37.922-11.029-39.385-25.7Z" transform="translate(-510.974 -322.051)"/>
    </g>
    <g id="Gruppe_421" data-name="Gruppe 421" transform="translate(52.01 8.353)">
      <rect id="Rechteck_51" data-name="Rechteck 51" class="cls-9" width="2.847" height="28.943" transform="translate(23.248)"/>
      <rect id="Rechteck_52" data-name="Rechteck 52" class="cls-9" width="2.847" height="28.943" transform="translate(0 1.66)"/>
    </g>
  </g>
  <g id="Gruppe_431" data-name="Gruppe 431" transform="translate(45.701 65.381)">
    <g id="Gruppe_424" data-name="Gruppe 424">
      <path id="Pfad_980" data-name="Pfad 980" class="cls-8" d="M664.84,312.555H588.356a58.871,58.871,0,1,0,76.484,0Z" transform="translate(-567.726 -312.555)"/>
      <g id="Gruppe_423" data-name="Gruppe 423" transform="translate(4.341 29.327)">
        <path id="Pfad_981" data-name="Pfad 981" class="cls-10" d="M711.3,472.278q-1.111.563-2.249,1.075Q710.192,472.839,711.3,472.278Z" transform="translate(-630.729 -408.18)"/>
        <path id="Pfad_982" data-name="Pfad 982" class="cls-10" d="M604.87,364.045a8.131,8.131,0,0,1,.029,1.582,4.261,4.261,0,0,1-.3,1.287l.057.1a6.907,6.907,0,0,1,.478,1.12,7.919,7.919,0,0,1,.357,1.641,5.79,5.79,0,0,1-.028,1.582,3.566,3.566,0,0,1-.463,1.287c.025.033.051.067.078.105a5.545,5.545,0,0,1,.612,1.12,6.066,6.066,0,0,1,.421,1.641,4.633,4.633,0,0,1-.085,1.58,3.292,3.292,0,0,1-.626,1.288c.033.033.066.068.1.1a5.162,5.162,0,0,1,.75,1.121,5.073,5.073,0,0,1,.394,1.213c.012-.9.021-1.947.021-3.3,0-6.256-1.232-6.256-1.232-12.514,0-.887.029-1.638.077-2.31h-.869A12.4,12.4,0,0,1,604.87,364.045Z" transform="translate(-587.372 -362.694)"/>
        <path id="Pfad_983" data-name="Pfad 983" class="cls-10" d="M606.657,398.347c.038.033.077.069.116.1a5.273,5.273,0,0,1,.625.741c.019-.769.042-1.458.06-2.216-.008.026-.008.057-.016.082A3.245,3.245,0,0,1,606.657,398.347Z" transform="translate(-588.227 -376.924)"/>
        <path id="Pfad_984" data-name="Pfad 984" class="cls-10" d="M607.344,408.929c.044.034.09.068.135.106s.1.095.147.136c0-.021,0-.037,0-.058,0-.163,0-.3,0-.456C607.534,408.756,607.438,408.847,607.344,408.929Z" transform="translate(-588.512 -381.772)"/>
        <path id="Pfad_985" data-name="Pfad 985" class="cls-10" d="M609.18,460.36c.161.135.321.27.482.4-.065-.054-.126-.112-.192-.167C609.374,460.516,609.276,460.44,609.18,460.36Z" transform="translate(-589.274 -403.233)"/>
        <path id="Pfad_986" data-name="Pfad 986" class="cls-10" d="M586.661,409.581a3.8,3.8,0,0,1-.918-.888,2.353,2.353,0,0,1-.443-1.642,3.029,3.029,0,0,1,.711-1.581,5.692,5.692,0,0,1,1.6-1.287c-.056-.033-.111-.069-.168-.1a3.845,3.845,0,0,1-1.142-1.12,2.533,2.533,0,0,1-.38-1.64,3.265,3.265,0,0,1,.653-1.582,5.353,5.353,0,0,1,1.439-1.287c-.049-.034-.1-.07-.149-.107a3.53,3.53,0,0,1-1.005-1.118,2.753,2.753,0,0,1-.317-1.641,3.553,3.553,0,0,1,.595-1.582,5.13,5.13,0,0,1,1.279-1.287c-.043-.034-.087-.068-.13-.1a3.358,3.358,0,0,1-.87-1.119,3.085,3.085,0,0,1-.254-1.642,3.99,3.99,0,0,1,.538-1.582,4.943,4.943,0,0,1,1.117-1.286l-.11-.106a3.247,3.247,0,0,1-.733-1.118,3.517,3.517,0,0,1-.192-1.642,4.551,4.551,0,0,1,.479-1.58,5.007,5.007,0,0,1,.958-1.287c-.03-.035-.061-.069-.091-.106a3.225,3.225,0,0,1-.6-1.12,4.182,4.182,0,0,1-.131-1.641,5.417,5.417,0,0,1,.424-1.58,5.2,5.2,0,0,1,.8-1.289c-.024-.033-.049-.068-.073-.1a3.361,3.361,0,0,1-.459-1.118,5.111,5.111,0,0,1-.07-1.642,7.017,7.017,0,0,1,.366-1.58,5.926,5.926,0,0,1,.638-1.287l-.054-.108a3.9,3.9,0,0,1-.323-1.118,6.738,6.738,0,0,1-.006-1.642,9.8,9.8,0,0,1,.308-1.58,8.342,8.342,0,0,1,.476-1.288c-.012-.034-.022-.069-.033-.106a4.841,4.841,0,0,1-.186-1.12c0-.037,0-.084,0-.124H577.083a55.545,55.545,0,0,0,9.143,47.821q.107-.079.215-.151A6.411,6.411,0,0,1,586.661,409.581Z" transform="translate(-575.148 -362.694)"/>
        <path id="Pfad_987" data-name="Pfad 987" class="cls-10" d="M651.7,480.679c-.441-.081-.884-.161-1.322-.254C650.818,480.517,651.261,480.6,651.7,480.679Z" transform="translate(-606.375 -411.562)"/>
        <path id="Pfad_988" data-name="Pfad 988" class="cls-10" d="M759.605,418.01c-.181.533-.361,1.067-.557,1.593C759.245,419.077,759.425,418.543,759.605,418.01Z" transform="translate(-651.481 -385.654)"/>
        <path id="Pfad_989" data-name="Pfad 989" class="cls-10" d="M756.157,426.523c-.228.505-.455,1.012-.7,1.509C755.7,427.535,755.929,427.028,756.157,426.523Z" transform="translate(-649.992 -389.188)"/>
        <path id="Pfad_990" data-name="Pfad 990" class="cls-10" d="M757.979,422.319c-.2.518-.406,1.038-.626,1.548C757.573,423.357,757.775,422.837,757.979,422.319Z" transform="translate(-650.777 -387.443)"/>
        <path id="Pfad_991" data-name="Pfad 991" class="cls-10" d="M602.821,454.521c-.219-.216-.431-.439-.645-.66C602.39,454.082,602.6,454.3,602.821,454.521Z" transform="translate(-586.367 -400.535)"/>
        <path id="Pfad_992" data-name="Pfad 992" class="cls-10" d="M606.7,458.2c-.227-.2-.457-.4-.68-.6C606.242,457.8,606.472,458,606.7,458.2Z" transform="translate(-587.962 -402.088)"/>
        <path id="Pfad_993" data-name="Pfad 993" class="cls-10" d="M599.916,451.47q-.322-.349-.639-.7Q599.594,451.12,599.916,451.47Z" transform="translate(-585.163 -399.251)"/>
        <path id="Pfad_994" data-name="Pfad 994" class="cls-10" d="M597.1,448.246c-.174-.208-.352-.413-.522-.622C596.752,447.833,596.929,448.038,597.1,448.246Z" transform="translate(-584.044 -397.947)"/>
        <path id="Pfad_995" data-name="Pfad 995" class="cls-10" d="M686.654,372.948c.731,6.215,2.339,6.026,3.069,12.241s.145,6.286.87,12.472a9.9,9.9,0,0,1,.546-2.315,8.584,8.584,0,0,1,1.279-2.309c-.044-.06-.088-.123-.13-.188a6.8,6.8,0,0,1-.869-2.007,9.533,9.533,0,0,1-.254-2.942,11.265,11.265,0,0,1,.538-2.834,9.249,9.249,0,0,1,1.117-2.306c-.037-.06-.073-.123-.11-.188a7.264,7.264,0,0,1-.733-2.007,11.019,11.019,0,0,1-.192-2.942,13.425,13.425,0,0,1,.48-2.834,10.3,10.3,0,0,1,.958-2.308c-.03-.061-.061-.123-.092-.189a8.013,8.013,0,0,1-.6-2.007,13.2,13.2,0,0,1-.131-2.941,16.348,16.348,0,0,1,.423-2.834,13.188,13.188,0,0,1,.584-1.819h-7.252C686.481,366.781,686.023,367.6,686.654,372.948Z" transform="translate(-621.225 -362.694)"/>
        <path id="Pfad_996" data-name="Pfad 996" class="cls-10" d="M647.27,479.7c-.4-.094-.8-.181-1.188-.283C646.474,479.522,646.873,479.609,647.27,479.7Z" transform="translate(-604.591 -411.144)"/>
        <path id="Pfad_997" data-name="Pfad 997" class="cls-10" d="M613.3,463.614c-.3-.224-.6-.452-.9-.681C612.7,463.162,613,463.39,613.3,463.614Z" transform="translate(-590.611 -404.301)"/>
        <path id="Pfad_998" data-name="Pfad 998" class="cls-10" d="M610.433,461.387c.04.032.081.063.12.1-.016-.015-.032-.027-.049-.041S610.457,461.406,610.433,461.387Z" transform="translate(-589.794 -403.659)"/>
        <path id="Pfad_999" data-name="Pfad 999" class="cls-10" d="M633.342,475.1c-.225-.093-.45-.185-.673-.282C632.892,474.912,633.117,475,633.342,475.1Z" transform="translate(-599.024 -409.233)"/>
        <path id="Pfad_1000" data-name="Pfad 1000" class="cls-10" d="M695.491,430.97c-.049-.061-.1-.124-.151-.19a6.443,6.443,0,0,1-.812-1.467c.106.963.191,1.75.277,2.555A8.03,8.03,0,0,1,695.491,430.97Z" transform="translate(-624.7 -390.346)"/>
        <path id="Pfad_1001" data-name="Pfad 1001" class="cls-10" d="M697.371,478.134c.525-.157,1.043-.325,1.561-.5-.206.069-.421.124-.63.191C697.99,477.927,697.684,478.041,697.371,478.134Z" transform="translate(-625.88 -410.404)"/>
        <path id="Pfad_1002" data-name="Pfad 1002" class="cls-10" d="M691.827,479.692c.511-.122,1.024-.238,1.53-.373-.28.074-.568.126-.848.2C692.28,479.572,692.056,479.638,691.827,479.692Z" transform="translate(-623.579 -411.102)"/>
        <path id="Pfad_1003" data-name="Pfad 1003" class="cls-10" d="M695.38,478.973l.4-.113c-.058.017-.118.029-.177.046S695.455,478.952,695.38,478.973Z" transform="translate(-625.054 -410.912)"/>
        <path id="Pfad_1004" data-name="Pfad 1004" class="cls-10" d="M688.624,480.44c.463-.092.92-.2,1.379-.3a.172.172,0,0,0-.005-.018C689.539,480.225,689.088,480.347,688.624,480.44Z" transform="translate(-622.249 -411.435)"/>
        <path id="Pfad_1005" data-name="Pfad 1005" class="cls-10" d="M675.319,423.125c-.733-6.214-2.206-6.042-2.937-12.256s.163-6.32-.57-12.535-.219-6.274-.95-12.49-.557-6.235-1.289-12.451c-.662-5.627-1.727-6.056-2.465-10.7H654.087l.087,6.284.395,12.516.973,12.515-.347,12.515-1.148,12.517v12.517l.057.411a55.333,55.333,0,0,0,20.047-.25C674.283,429.239,675.809,427.3,675.319,423.125Zm-12.138,3.294a2.553,2.553,0,1,1,2.555-2.553A2.553,2.553,0,0,1,663.181,426.418Z" transform="translate(-607.897 -362.694)"/>
        <path id="Pfad_1006" data-name="Pfad 1006" class="cls-10" d="M700.807,476.25c1.4-.477,2.77-1,4.112-1.586-1.342.583-2.72,1.1-4.116,1.576Z" transform="translate(-627.305 -409.17)"/>
        <path id="Pfad_1007" data-name="Pfad 1007" class="cls-10" d="M761.024,413.637c-.155.542-.31,1.084-.48,1.618C760.714,414.72,760.869,414.179,761.024,413.637Z" transform="translate(-652.102 -383.839)"/>
        <path id="Pfad_1008" data-name="Pfad 1008" class="cls-10" d="M733.566,398.821c0-.058,0-.155.006-.28a5.34,5.34,0,0,1,.39-1.8,4.046,4.046,0,0,1,1.117-1.524c.457-.4.914-.69,1.239-.953-.221-.2-.516-.447-.824-.694a4.516,4.516,0,0,1-.955-1.1,5.039,5.039,0,0,1-.65-2.582c0-.08,0-.192.009-.335a5.2,5.2,0,0,1,.825-2.677,10.443,10.443,0,0,1,1.41-1.5.629.629,0,0,0,.059-.06c-.166-.21-.467-.52-.816-.914a4.509,4.509,0,0,1-.736-1.177,5.8,5.8,0,0,1-.429-2.259c0-.088,0-.2.009-.338a6.213,6.213,0,0,1,.608-2.5,10.043,10.043,0,0,1,1.061-1.534,1.513,1.513,0,0,0,.1-.161.466.466,0,0,0-.043-.167,12.188,12.188,0,0,0-.633-1.051,5.387,5.387,0,0,1-.523-1.221,6.856,6.856,0,0,1-.259-1.919c0-.113,0-.251.01-.4a8.127,8.127,0,0,1,.375-2.155,11.734,11.734,0,0,1,.68-1.537c.1-.267.061-.1.078-.323,0-.019,0-.061,0-.124a3.128,3.128,0,0,0-.263-1.169,8.3,8.3,0,0,1-.559-3.086c0-.178,0-.374.014-.582H705.732a14.264,14.264,0,0,1-.1,2.347,8.447,8.447,0,0,1-.625,2.307c.031.059.064.124.1.19a11.32,11.32,0,0,1,.75,2.007,14.574,14.574,0,0,1,.481,2.942,12.053,12.053,0,0,1-.143,2.831,7.483,7.483,0,0,1-.784,2.309c.038.061.077.125.115.19a9.7,9.7,0,0,1,.887,2.007,12.191,12.191,0,0,1,.543,2.942,10.321,10.321,0,0,1-.2,2.833,6.938,6.938,0,0,1-.946,2.306c.046.061.089.124.137.188a9.021,9.021,0,0,1,1.022,2.009,10.526,10.526,0,0,1,.6,2.94,8.943,8.943,0,0,1-.256,2.834,6.594,6.594,0,0,1-1.106,2.307c.05.061.1.123.156.191a8.394,8.394,0,0,1,1.159,2.006,9.378,9.378,0,0,1,.668,2.941,8.08,8.08,0,0,1-.315,2.833,6.412,6.412,0,0,1-1.267,2.307c.059.06.116.123.174.189a8.128,8.128,0,0,1,1.3,2.006,8.351,8.351,0,0,1,.73,2.941,7.242,7.242,0,0,1-.371,2.835,6.468,6.468,0,0,1-.86,1.635,15.166,15.166,0,0,1,2.487,8.5,55.75,55.75,0,0,0,24.392-24.913,3.889,3.889,0,0,1-.336-.5A4.8,4.8,0,0,1,733.566,398.821Z" transform="translate(-629.048 -362.694)"/>
        <path id="Pfad_1009" data-name="Pfad 1009" class="cls-10" d="M759.238,363.066c0,.084-.006.146-.006.21a1.759,1.759,0,0,0,.186.822,9.607,9.607,0,0,1,.629,3.091v.027c0,.132.009.275.009.439a7.334,7.334,0,0,1-.311,2.189,10.658,10.658,0,0,1-.679,1.555,1.393,1.393,0,0,0-.152.624l0,.033v.027c.022.094.253.421.6.993a6.561,6.561,0,0,1,.852,3.071v.027h0c0,.1.007.209.007.338a5.941,5.941,0,0,1-.543,2.582,9.494,9.494,0,0,1-1.059,1.546,1.889,1.889,0,0,0-.135.212c.157.215.507.545.905,1.022a4.766,4.766,0,0,1,.7,1.159,6.083,6.083,0,0,1,.445,2.068v.015l0,.032c0,.057,0,.147,0,.269a5.114,5.114,0,0,1-.763,2.822,9.853,9.853,0,0,1-1.408,1.5c-.011.013-.024.025-.035.038.214.2.521.46.845.717a4.744,4.744,0,0,1,.965,1.094c.028.043.057.092.084.141a55.572,55.572,0,0,0-.01-29.041h-1.112C759.256,362.806,759.246,362.917,759.238,363.066Z" transform="translate(-651.251 -362.694)"/>
        <path id="Pfad_1010" data-name="Pfad 1010" class="cls-10" d="M633.563,406.527l-.176-12.517.408-12.514-1.131-12.516.055-6.287H615.333V365c0,6.258-.744,6.258-.744,12.517s1.617,6.258,1.617,12.516-.592,6.258-.592,12.514-.064,6.258-.064,12.518a29.562,29.562,0,0,1-.861,7.283,55.494,55.494,0,0,0,10.294,5.849c.08-.036.158-.07.227-.106l.03-.015c-.184-.1-.429-.211-.674-.357a1.653,1.653,0,0,1-.616-.6,1.473,1.473,0,0,1-.186-.725c0-.039,0-.07,0-.1v-.015a1.547,1.547,0,0,1,.4-.947,2.279,2.279,0,0,1,.538-.42c.18-.1.352-.2.471-.274a.082.082,0,0,1-.02-.015,4.859,4.859,0,0,1-.785-.576,1.535,1.535,0,0,1-.425-1.081c0-.047,0-.081,0-.1v-.019a1.738,1.738,0,0,1,.249-.793,1.9,1.9,0,0,1,.391-.444c.223-.184.418-.31.505-.392a.916.916,0,0,0-.075-.083,3.961,3.961,0,0,1-.591-.591,1.709,1.709,0,0,1-.3-.99c0-.05,0-.093,0-.13v-.011a1.987,1.987,0,0,1,.475-1.178,4.567,4.567,0,0,0,.337-.381v0c0-.008,0-.006,0-.006v-.015a.429.429,0,0,0-.085-.239,3.6,3.6,0,0,1-.38-.6,2,2,0,0,1-.172-.838c0-.063,0-.118,0-.168v-.011a2.732,2.732,0,0,1,.352-1.185c.107-.218.091-.153.1-.315,0-.025,0-.049,0-.082a1.974,1.974,0,0,0-.117-.569,2.981,2.981,0,0,1-.164-.986c0-.1,0-.193.011-.3.024-.354.056-.594.077-.762a2.888,2.888,0,0,0,.029-.409c0-.1,0-.229-.016-.409a.747.747,0,0,1,.551-.843l.054,0a.69.69,0,0,1,.605.706c.016.215.022.391.022.549a4.754,4.754,0,0,1-.045.653c-.023.182-.046.35-.066.649-.005.069-.006.125-.006.168a1,1,0,0,0,.074.4,3.829,3.829,0,0,1,.2,1.018c.005.079.009.153.009.222a2.346,2.346,0,0,1-.313,1.183.908.908,0,0,0-.146.448c0,.025,0,.04,0,.047.009.082-.012.022.045.124a4.244,4.244,0,0,1,.379.588,2.253,2.253,0,0,1,.208.827c0,.059.006.112.006.156a1.867,1.867,0,0,1-.144.735,1.816,1.816,0,0,1-.291.468,4.934,4.934,0,0,0-.354.4.144.144,0,0,0-.025.064.722.722,0,0,0,.057.062,4.231,4.231,0,0,1,.59.588,1.828,1.828,0,0,1,.342.958c0,.051,0,.1,0,.13a1.632,1.632,0,0,1-.238.866,1.8,1.8,0,0,1-.411.45c-.194.153-.364.27-.456.351l.033.023a5.228,5.228,0,0,1,.786.574,1.622,1.622,0,0,1,.461,1.027c0,.055,0,.1,0,.129a1.49,1.49,0,0,1-.363.99,2.16,2.16,0,0,1-.532.42c-.173.1-.337.191-.46.267.182.1.436.214.691.366a1.78,1.78,0,0,1,.622.584,1.5,1.5,0,0,1,.217.691.949.949,0,0,1,.005.108,1.445,1.445,0,0,1-.19.714,54.939,54.939,0,0,0,6.434,2.128l.721-11.907Z" transform="translate(-591.519 -362.694)"/>
        <path id="Pfad_1011" data-name="Pfad 1011" class="cls-11" d="M610.255,461.247c-.083-.067-.168-.13-.251-.2C610.087,461.116,610.172,461.179,610.255,461.247Z" transform="translate(-589.616 -403.519)"/>
        <path id="Pfad_1012" data-name="Pfad 1012" class="cls-11" d="M614.436,464.452c.064.046.124.1.188.143a.09.09,0,0,0,0-.013l-.189-.136Z" transform="translate(-591.456 -404.929)"/>
        <path id="Pfad_1013" data-name="Pfad 1013" class="cls-11" d="M605.644,457.252c.028.027.058.05.086.075l-.087-.082Z" transform="translate(-587.806 -401.94)"/>
        <path id="Pfad_1014" data-name="Pfad 1014" class="cls-11" d="M609.676,460.764c.066.054.127.113.192.167.083.067.168.13.251.2.024.019.05.036.072.055C610.019,461.045,609.847,460.9,609.676,460.764Z" transform="translate(-589.48 -403.401)"/>
        <path id="Pfad_1015" data-name="Pfad 1015" class="cls-11" d="M612.058,402.546c0-6.257.592-6.257.592-12.514s-1.617-6.258-1.617-12.516.744-6.259.744-12.517v-2.305H606.1c-.047.672-.077,1.423-.077,2.31,0,6.258,1.232,6.258,1.232,12.514,0,1.356-.009,2.407-.021,3.3.029.143.072.286.087.429a3.837,3.837,0,0,1-.126,1.5c-.018.758-.04,1.448-.06,2.216a3.955,3.955,0,0,1,.261.38,4.2,4.2,0,0,1,.543,1.642,3.263,3.263,0,0,1-.2,1.579,3.2,3.2,0,0,1-.659,1.015c0,.153,0,.294,0,.456,0,.02,0,.037,0,.058a4.7,4.7,0,0,1,.877.983,3.764,3.764,0,0,1,.6,1.64,2.915,2.915,0,0,1-.257,1.583,3.508,3.508,0,0,1-1.106,1.287c.052.033.1.068.157.106a5.078,5.078,0,0,1,1.159,1.119,3.407,3.407,0,0,1,.667,1.64,2.635,2.635,0,0,1-.314,1.58,3.78,3.78,0,0,1-1.266,1.289c.057.032.115.068.173.1a5.384,5.384,0,0,1,1.3,1.12,3.16,3.16,0,0,1,.729,1.641,2.425,2.425,0,0,1-.371,1.579,3.628,3.628,0,0,1-.86.914,6.241,6.241,0,0,1,2.5,5.026v9.282a6.36,6.36,0,0,1-.118,1.226l.189.136a29.562,29.562,0,0,0,.861-7.283C611.995,408.8,612.058,408.8,612.058,402.546Z" transform="translate(-587.963 -362.694)"/>
        <path id="Pfad_1016" data-name="Pfad 1016" class="cls-11" d="M694.991,479.054c-.184.051-.364.107-.549.155C694.627,479.161,694.807,479.1,694.991,479.054Z" transform="translate(-624.664 -410.992)"/>
        <path id="Pfad_1017" data-name="Pfad 1017" class="cls-11" d="M700.5,477.389l-.006-.014q-.225.078-.451.153C700.19,477.478,700.347,477.439,700.5,477.389Z" transform="translate(-626.988 -410.296)"/>
        <path id="Pfad_1018" data-name="Pfad 1018" class="cls-11" d="M688.414,480.693c.042-.008.082-.02.123-.027l-.122.02Z" transform="translate(-622.162 -411.662)"/>
        <path id="Pfad_1019" data-name="Pfad 1019" class="cls-11" d="M692.992,479.358c.28-.07.569-.123.848-.2.185-.048.365-.1.549-.155.075-.021.146-.046.219-.067C694.074,479.088,693.533,479.223,692.992,479.358Z" transform="translate(-624.063 -410.945)"/>
        <path id="Pfad_1020" data-name="Pfad 1020" class="cls-11" d="M684.626,429.014a7.337,7.337,0,0,1,.767-2.833,8.049,8.049,0,0,1,.994-1.506q.084-.721.219-1.406a6.261,6.261,0,0,1-.919-1.592,6.89,6.89,0,0,1-.442-2.941,7.987,7.987,0,0,1,2.309-5.14c-.056-.061-.112-.124-.167-.19a6.373,6.373,0,0,1-1.142-2.008,7.552,7.552,0,0,1-.38-2.941,8.869,8.869,0,0,1,.653-2.833,8.636,8.636,0,0,1,.754-1.409c-.086-.805-.171-1.592-.277-2.555-.068-.17-.135-.348-.192-.539a8.421,8.421,0,0,1-.318-2.943c.009-.171.031-.345.05-.518-.725-6.187-.14-6.266-.87-12.472s-2.339-6.025-3.069-12.241c-.63-5.35-.173-6.167-.5-10.254h-5.72c.738,4.642,1.8,5.071,2.465,10.7.732,6.215.557,6.235,1.289,12.451s.219,6.275.95,12.49-.161,6.321.57,12.535,2.2,6.042,2.937,12.256c.49,4.172-1.036,6.114-1.169,8.594l.122-.02c.464-.092.915-.215,1.374-.319A6.461,6.461,0,0,1,684.626,429.014Z" transform="translate(-617.166 -362.694)"/>
        <path id="Pfad_1021" data-name="Pfad 1021" class="cls-11" d="M698.962,477.712c.209-.067.424-.122.63-.191q.226-.075.451-.153l0-.01Q699.5,477.541,698.962,477.712Z" transform="translate(-626.54 -410.288)"/>
        <path id="Pfad_1022" data-name="Pfad 1022" class="cls-11" d="M649.439,480.208c-.445-.093-.885-.2-1.326-.305C648.554,480.007,648.994,480.115,649.439,480.208Z" transform="translate(-605.434 -411.345)"/>
        <path id="Pfad_1023" data-name="Pfad 1023" class="cls-11" d="M645.965,479.389l.068.017-.068-.02Z" transform="translate(-604.543 -411.13)"/>
        <path id="Pfad_1024" data-name="Pfad 1024" class="cls-11" d="M653.521,481.028l0-.012c-.294-.05-.587-.1-.879-.157C652.935,480.913,653.225,480.978,653.521,481.028Z" transform="translate(-607.313 -411.742)"/>
        <path id="Pfad_1025" data-name="Pfad 1025" class="cls-11" d="M650.495,419.041l1.148-12.517.347-12.515-.973-12.515-.395-12.516-.087-6.284h-4.991l-.055,6.287,1.131,12.516-.408,12.514.176,12.517.1,12.516-.721,11.907.068.02c.392.1.791.189,1.188.283.441.1.881.212,1.326.305s.881.173,1.322.254c.292.054.585.108.879.157l-.057-.411Z" transform="translate(-604.345 -362.694)"/>
        <path id="Pfad_1026" data-name="Pfad 1026" class="cls-12" d="M690.985,480.083c.166-.038.325-.088.491-.126l-.494.114Z" transform="translate(-623.228 -411.367)"/>
        <path id="Pfad_1027" data-name="Pfad 1027" class="cls-12" d="M713.344,471.9a.055.055,0,0,0,0-.015l-.445.227C713.045,472.043,713.2,471.98,713.344,471.9Z" transform="translate(-632.325 -408.019)"/>
        <path id="Pfad_1028" data-name="Pfad 1028" class="cls-12" d="M708.549,474.115c-.237.107-.471.218-.709.321C708.079,474.333,708.313,474.222,708.549,474.115Z" transform="translate(-630.226 -408.942)"/>
        <path id="Pfad_1029" data-name="Pfad 1029" class="cls-12" d="M696.826,478.486c-.254.077-.512.146-.769.219C696.313,478.632,696.571,478.563,696.826,478.486Z" transform="translate(-625.335 -410.757)"/>
        <path id="Pfad_1030" data-name="Pfad 1030" class="cls-12" d="M695.755,478.534c.059-.017.118-.029.177-.046.256-.073.514-.142.769-.219.314-.093.62-.206.931-.306C697.01,478.162,696.386,478.358,695.755,478.534Z" transform="translate(-625.209 -410.54)"/>
        <path id="Pfad_1031" data-name="Pfad 1031" class="cls-12" d="M703.765,416.431a7.242,7.242,0,0,0,.371-2.835,8.351,8.351,0,0,0-.73-2.941,8.127,8.127,0,0,0-1.3-2.006c-.057-.065-.115-.129-.174-.189a6.411,6.411,0,0,0,1.267-2.307,8.08,8.08,0,0,0,.315-2.833,9.379,9.379,0,0,0-.668-2.941,8.4,8.4,0,0,0-1.159-2.006c-.053-.067-.105-.13-.156-.191a6.594,6.594,0,0,0,1.106-2.307,8.943,8.943,0,0,0,.256-2.834,10.523,10.523,0,0,0-.6-2.94,9.019,9.019,0,0,0-1.022-2.009c-.048-.064-.091-.128-.137-.188a6.936,6.936,0,0,0,.946-2.306,10.331,10.331,0,0,0,.2-2.833,12.194,12.194,0,0,0-.543-2.942,9.689,9.689,0,0,0-.887-2.007c-.039-.064-.077-.129-.115-.19a7.478,7.478,0,0,0,.784-2.309,12.05,12.05,0,0,0,.143-2.831,14.569,14.569,0,0,0-.481-2.942,11.335,11.335,0,0,0-.75-2.007c-.033-.066-.067-.13-.1-.19a8.449,8.449,0,0,0,.625-2.307,14.271,14.271,0,0,0,.1-2.347h-4.5a13.172,13.172,0,0,0-.584,1.819,16.342,16.342,0,0,0-.423,2.834,13.2,13.2,0,0,0,.131,2.941,8.013,8.013,0,0,0,.6,2.007c.03.066.061.128.092.189a10.3,10.3,0,0,0-.958,2.308,13.417,13.417,0,0,0-.48,2.834,11.017,11.017,0,0,0,.192,2.942,7.262,7.262,0,0,0,.733,2.007c.037.065.073.128.11.188a9.252,9.252,0,0,0-1.117,2.306,11.268,11.268,0,0,0-.538,2.834,9.533,9.533,0,0,0,.254,2.942,6.8,6.8,0,0,0,.869,2.007c.043.066.086.128.13.188a8.584,8.584,0,0,0-1.279,2.309,9.9,9.9,0,0,0-.546,2.315c0,.009,0,.016,0,.027.2,1.711.342,2.943.457,3.972a6.44,6.44,0,0,0,.812,1.467c.05.066.1.129.151.19a8.03,8.03,0,0,0-.686.9c.156,1.459.325,3.007.666,5.911.731,6.215-.568,6.367.165,12.584.428,3.638,1.819,5.186,2.562,7.052,1.4-.477,2.774-.993,4.116-1.576.239-.1.473-.214.709-.321q1.139-.513,2.249-1.074l.445-.227a15.167,15.167,0,0,0-2.487-8.5A6.47,6.47,0,0,0,703.765,416.431Z" transform="translate(-624.374 -362.694)"/>
        <path id="Pfad_1032" data-name="Pfad 1032" class="cls-12" d="M690.973,479.928a.161.161,0,0,1,.005.018l.494-.114c.229-.054.453-.12.681-.177C691.762,479.752,691.368,479.839,690.973,479.928Z" transform="translate(-623.224 -411.242)"/>
        <path id="Pfad_1033" data-name="Pfad 1033" class="cls-12" d="M693.961,425.935c.057.191.123.369.192.539-.115-1.029-.255-2.261-.457-3.972,0-.011,0-.018,0-.027-.019.173-.041.346-.05.518A8.424,8.424,0,0,0,693.961,425.935Z" transform="translate(-624.325 -387.508)"/>
        <path id="Pfad_1034" data-name="Pfad 1034" class="cls-12" d="M691.708,437.923a7.553,7.553,0,0,0,.38,2.941,6.372,6.372,0,0,0,1.142,2.008c.055.066.112.128.167.19a7.987,7.987,0,0,0-2.309,5.14,6.89,6.89,0,0,0,.442,2.941,6.261,6.261,0,0,0,.919,1.592q-.133.683-.219,1.406a8.055,8.055,0,0,0-.994,1.506,7.337,7.337,0,0,0-.767,2.833,6.461,6.461,0,0,0,.288,2.365c.395-.089.789-.176,1.181-.273.541-.135,1.082-.27,1.616-.419.631-.176,1.255-.372,1.876-.571q.542-.171,1.077-.354c-.743-1.867-2.134-3.414-2.562-7.052-.733-6.217.566-6.369-.165-12.584-.342-2.9-.51-4.452-.666-5.911a8.641,8.641,0,0,0-.754,1.409A8.869,8.869,0,0,0,691.708,437.923Z" transform="translate(-623.01 -392.159)"/>
        <path id="Pfad_1035" data-name="Pfad 1035" class="cls-12" d="M758.789,420.734c-.115.312-.244.618-.366.927C758.545,421.351,758.673,421.046,758.789,420.734Z" transform="translate(-651.221 -386.785)"/>
        <path id="Pfad_1036" data-name="Pfad 1036" class="cls-12" d="M760.319,416.4c-.1.316-.212.628-.318.94C760.107,417.031,760.218,416.719,760.319,416.4Z" transform="translate(-651.876 -384.987)"/>
        <path id="Pfad_1037" data-name="Pfad 1037" class="cls-12" d="M757.062,424.966c-.132.306-.275.607-.411.911C756.787,425.573,756.93,425.272,757.062,424.966Z" transform="translate(-650.486 -388.542)"/>
        <path id="Pfad_1038" data-name="Pfad 1038" class="cls-12" d="M755.363,429.221c.021-.039.036-.08.056-.118-.019.039-.04.075-.059.114Z" transform="translate(-649.95 -390.259)"/>
        <path id="Pfad_1039" data-name="Pfad 1039" class="cls-12" d="M761.585,412.353l-.006-.01c-.068.254-.143.5-.214.757C761.436,412.85,761.518,412.606,761.585,412.353Z" transform="translate(-652.443 -383.302)"/>
        <path id="Pfad_1040" data-name="Pfad 1040" class="cls-12" d="M757.4,390.5c-.323-.257-.631-.518-.845-.717.011-.013.024-.025.035-.038a9.856,9.856,0,0,0,1.408-1.5,5.115,5.115,0,0,0,.763-2.822c0-.122,0-.212,0-.269l0-.032v-.015a6.08,6.08,0,0,0-.445-2.068,4.764,4.764,0,0,0-.7-1.159c-.4-.478-.748-.808-.906-1.022a1.889,1.889,0,0,1,.135-.212A9.493,9.493,0,0,0,757.9,379.1a5.94,5.94,0,0,0,.543-2.582c0-.129,0-.24-.007-.338h0v-.027a6.562,6.562,0,0,0-.852-3.071c-.351-.571-.582-.9-.6-.993v-.027l0-.033a1.393,1.393,0,0,1,.152-.624,10.66,10.66,0,0,0,.679-1.555,7.329,7.329,0,0,0,.311-2.189c0-.164-.005-.307-.009-.439v-.027a9.6,9.6,0,0,0-.629-3.091,1.76,1.76,0,0,1-.186-.822c0-.064,0-.126.006-.21.008-.149.018-.26.027-.372h-2.2c-.01.208-.014.4-.014.582a8.3,8.3,0,0,0,.559,3.086,3.129,3.129,0,0,1,.263,1.169c0,.063,0,.1,0,.124-.017.218.021.056-.078.323a11.749,11.749,0,0,0-.68,1.537,8.125,8.125,0,0,0-.375,2.155c-.008.154-.01.291-.011.4a6.856,6.856,0,0,0,.259,1.919,5.387,5.387,0,0,0,.523,1.221,12.2,12.2,0,0,1,.633,1.051.468.468,0,0,1,.043.167,1.5,1.5,0,0,1-.1.161,10.049,10.049,0,0,0-1.061,1.534,6.211,6.211,0,0,0-.608,2.5c-.009.134-.009.25-.009.338a5.793,5.793,0,0,0,.429,2.259,4.509,4.509,0,0,0,.736,1.177c.349.394.65.7.816.914a.636.636,0,0,1-.059.06,10.443,10.443,0,0,0-1.41,1.5,5.2,5.2,0,0,0-.825,2.677c-.009.143-.009.256-.009.335a5.039,5.039,0,0,0,.65,2.582,4.514,4.514,0,0,0,.955,1.1c.307.247.6.492.824.694-.325.263-.782.556-1.239.953a4.046,4.046,0,0,0-1.117,1.524,5.338,5.338,0,0,0-.39,1.8c-.006.125-.006.222-.006.28a4.8,4.8,0,0,0,.557,2.334,3.889,3.889,0,0,0,.336.5c.019-.039.04-.075.059-.114.241-.5.468-1,.7-1.509.136-.3.279-.6.411-.911.22-.51.422-1.03.626-1.548.122-.309.25-.615.366-.927.2-.526.377-1.06.557-1.593.106-.312.217-.624.318-.94.17-.534.325-1.076.48-1.618.071-.253.146-.5.214-.757-.027-.049-.056-.1-.084-.141A4.746,4.746,0,0,0,757.4,390.5Z" transform="translate(-649.317 -362.694)"/>
        <path id="Pfad_1041" data-name="Pfad 1041" class="cls-12" d="M634.484,475.575l.006-.014c-.224-.088-.449-.172-.67-.264C634.041,475.389,634.26,475.485,634.484,475.575Z" transform="translate(-599.501 -409.433)"/>
        <path id="Pfad_1042" data-name="Pfad 1042" class="cls-12" d="M632.348,474.681c.062.027.125.051.188.077-.061-.025-.12-.054-.181-.081Z" transform="translate(-598.891 -409.176)"/>
        <path id="Pfad_1043" data-name="Pfad 1043" class="cls-12" d="M633.2,461.654a1.5,1.5,0,0,0-.217-.691,1.779,1.779,0,0,0-.622-.584c-.255-.151-.509-.264-.691-.366.123-.075.287-.17.46-.267a2.158,2.158,0,0,0,.532-.42,1.49,1.49,0,0,0,.363-.99c0-.03,0-.074,0-.129a1.622,1.622,0,0,0-.461-1.027,5.232,5.232,0,0,0-.786-.574l-.033-.023c.091-.081.261-.2.456-.351a1.8,1.8,0,0,0,.411-.45,1.632,1.632,0,0,0,.238-.866c0-.033,0-.078,0-.13a1.828,1.828,0,0,0-.342-.958,4.232,4.232,0,0,0-.59-.588.693.693,0,0,1-.057-.062.143.143,0,0,1,.025-.064,4.932,4.932,0,0,1,.354-.4,1.817,1.817,0,0,0,.291-.468,1.867,1.867,0,0,0,.144-.735c0-.044,0-.1-.006-.156a2.253,2.253,0,0,0-.208-.827,4.241,4.241,0,0,0-.379-.588c-.057-.1-.036-.042-.045-.124,0-.008,0-.023,0-.047a.909.909,0,0,1,.146-.448,2.345,2.345,0,0,0,.313-1.183c0-.069,0-.143-.009-.222a3.829,3.829,0,0,0-.2-1.018,1,1,0,0,1-.074-.4c0-.043,0-.1.006-.168.021-.3.043-.467.066-.649a4.773,4.773,0,0,0,.045-.653c0-.158-.006-.333-.022-.549a.69.69,0,0,0-.605-.706l-.054,0a.747.747,0,0,0-.551.843c.012.18.016.31.016.409a2.887,2.887,0,0,1-.029.409c-.021.168-.053.407-.077.762-.007.106-.011.2-.011.3a2.979,2.979,0,0,0,.164.986,1.972,1.972,0,0,1,.117.569c0,.033,0,.057,0,.082-.012.161,0,.1-.1.315a2.731,2.731,0,0,0-.352,1.185v.011c0,.05,0,.105,0,.168a2,2,0,0,0,.172.838,3.6,3.6,0,0,0,.38.6.429.429,0,0,1,.085.239v.015s0,0,0,.006v0a4.564,4.564,0,0,1-.337.381,1.986,1.986,0,0,0-.475,1.178v.011c0,.037,0,.08,0,.13a1.709,1.709,0,0,0,.3.99,3.961,3.961,0,0,0,.591.591.916.916,0,0,1,.075.083c-.088.082-.283.208-.505.392a1.9,1.9,0,0,0-.391.444,1.737,1.737,0,0,0-.249.793v.019c0,.022,0,.056,0,.1a1.535,1.535,0,0,0,.425,1.081,4.863,4.863,0,0,0,.785.576.08.08,0,0,0,.02.015c-.12.076-.291.176-.471.274a2.279,2.279,0,0,0-.538.42,1.547,1.547,0,0,0-.4.947v.015c0,.025,0,.056,0,.1a1.473,1.473,0,0,0,.186.725,1.654,1.654,0,0,0,.616.6c.245.147.49.256.674.357l-.03.015c-.07.036-.148.07-.228.106.061.026.12.056.181.081.223.1.448.189.673.282s.447.176.67.264a1.445,1.445,0,0,0,.19-.714A.948.948,0,0,0,633.2,461.654Z" transform="translate(-598.031 -396.349)"/>
        <path id="Pfad_1044" data-name="Pfad 1044" class="cls-12" d="M608.35,459.641c-.4-.33-.783-.671-1.169-1.012C607.567,458.971,607.955,459.311,608.35,459.641Z" transform="translate(-588.444 -402.515)"/>
        <path id="Pfad_1045" data-name="Pfad 1045" class="cls-12" d="M603.278,454.989q.68.672,1.383,1.32v0Q603.959,455.659,603.278,454.989Z" transform="translate(-586.824 -401.004)"/>
        <path id="Pfad_1046" data-name="Pfad 1046" class="cls-12" d="M611.67,462.359c-.346-.265-.69-.536-1.031-.808C610.98,461.824,611.324,462.094,611.67,462.359Z" transform="translate(-589.88 -403.727)"/>
        <path id="Pfad_1047" data-name="Pfad 1047" class="cls-12" d="M613.945,464.1c.1.07.19.145.287.216v-.005c-.035-.026-.069-.055-.1-.082C614.067,464.182,614,464.141,613.945,464.1Z" transform="translate(-591.252 -404.784)"/>
        <path id="Pfad_1048" data-name="Pfad 1048" class="cls-12" d="M605.792,457.386l.133.126c-.041-.038-.082-.079-.122-.118A.033.033,0,0,1,605.792,457.386Z" transform="translate(-587.868 -401.999)"/>
        <path id="Pfad_1049" data-name="Pfad 1049" class="cls-12" d="M601.426,453.076q-.535-.546-1.056-1.107Q600.89,452.53,601.426,453.076Z" transform="translate(-585.617 -399.75)"/>
        <path id="Pfad_1050" data-name="Pfad 1050" class="cls-12" d="M594.086,444.452c.473.631.96,1.246,1.459,1.855q-.748-.913-1.458-1.856Z" transform="translate(-583.009 -396.63)"/>
        <path id="Pfad_1051" data-name="Pfad 1051" class="cls-12" d="M598.529,449.9c-.357-.4-.708-.807-1.055-1.216C597.82,449.1,598.171,449.5,598.529,449.9Z" transform="translate(-584.415 -398.388)"/>
        <path id="Pfad_1052" data-name="Pfad 1052" class="cls-12" d="M605.81,457.4c.04.039.081.08.122.118.223.2.453.4.68.6.386.342.774.682,1.169,1.012.1.08.194.156.29.236Q606.915,458.414,605.81,457.4Z" transform="translate(-587.875 -402.004)"/>
        <path id="Pfad_1053" data-name="Pfad 1053" class="cls-12" d="M610.556,461.481c.017.013.033.026.049.041.341.273.685.543,1.031.808.3.229.6.457.9.681.06.044.122.085.182.128Q611.617,462.337,610.556,461.481Z" transform="translate(-589.845 -403.698)"/>
        <path id="Pfad_1054" data-name="Pfad 1054" class="cls-12" d="M600.043,415.066c0-6.259.9-6.259.9-12.516,0-6.237.511-6.262.514-12.458-.048-.041-.1-.1-.147-.136s-.091-.071-.135-.106c.094-.082.19-.173.285-.273,0-2.082.026-3.453.054-4.616a5.279,5.279,0,0,0-.625-.741c-.039-.036-.078-.071-.116-.1a3.246,3.246,0,0,0,.784-1.289c.008-.025.009-.056.016-.082.015-.575.029-1.2.039-1.926a5.067,5.067,0,0,0-.394-1.213,5.162,5.162,0,0,0-.75-1.121c-.034-.036-.067-.071-.1-.1a3.292,3.292,0,0,0,.626-1.288,4.635,4.635,0,0,0,.085-1.58,6.066,6.066,0,0,0-.421-1.641,5.545,5.545,0,0,0-.612-1.12c-.027-.038-.054-.072-.078-.105a3.566,3.566,0,0,0,.463-1.287,5.79,5.79,0,0,0,.028-1.582,7.923,7.923,0,0,0-.357-1.641,6.913,6.913,0,0,0-.478-1.12l-.057-.1a4.261,4.261,0,0,0,.3-1.287,8.126,8.126,0,0,0-.029-1.582,12.4,12.4,0,0,0-.232-1.351h-2.214c0,.04,0,.087,0,.124a4.837,4.837,0,0,0,.186,1.12c.011.037.022.073.033.106a8.342,8.342,0,0,0-.476,1.288,9.8,9.8,0,0,0-.308,1.58,6.735,6.735,0,0,0,.006,1.642,3.9,3.9,0,0,0,.323,1.118c.019.038.036.071.054.108a5.923,5.923,0,0,0-.638,1.287,7.011,7.011,0,0,0-.366,1.58,5.111,5.111,0,0,0,.07,1.642,3.362,3.362,0,0,0,.459,1.118c.024.036.048.071.073.1a5.2,5.2,0,0,0-.8,1.289,5.417,5.417,0,0,0-.424,1.58,4.182,4.182,0,0,0,.131,1.641,3.225,3.225,0,0,0,.6,1.12c.03.037.061.072.091.106a5.006,5.006,0,0,0-.958,1.287,4.55,4.55,0,0,0-.479,1.58,3.517,3.517,0,0,0,.192,1.642,3.248,3.248,0,0,0,.733,1.118l.11.106a4.943,4.943,0,0,0-1.117,1.286,3.99,3.99,0,0,0-.538,1.582,3.084,3.084,0,0,0,.254,1.642,3.357,3.357,0,0,0,.87,1.119c.043.036.087.071.13.1A5.131,5.131,0,0,0,594.327,394a3.554,3.554,0,0,0-.595,1.582,2.753,2.753,0,0,0,.317,1.641,3.529,3.529,0,0,0,1.005,1.118c.049.037.1.073.149.107a5.353,5.353,0,0,0-1.439,1.287,3.265,3.265,0,0,0-.653,1.582,2.534,2.534,0,0,0,.38,1.64,3.844,3.844,0,0,0,1.142,1.12c.057.036.112.071.168.1a5.692,5.692,0,0,0-1.6,1.287,3.028,3.028,0,0,0-.711,1.581,2.353,2.353,0,0,0,.443,1.642,3.8,3.8,0,0,0,.918.888,6.4,6.4,0,0,0-.219.783c-.072.049-.144.1-.215.151q.708.945,1.458,1.856c.171.209.348.414.522.622.346.409.7.816,1.055,1.216q.317.354.639.7.52.561,1.056,1.107c.214.221.426.443.645.66q.679.671,1.383,1.318A28.347,28.347,0,0,1,600.043,415.066Z" transform="translate(-582.341 -362.694)"/>
        <path id="Pfad_1055" data-name="Pfad 1055" class="cls-12" d="M614.257,464.316c.036.027.07.056.1.082v-.006C614.327,464.367,614.292,464.342,614.257,464.316Z" transform="translate(-591.381 -404.875)"/>
        <path id="Pfad_1056" data-name="Pfad 1056" class="cls-12" d="M605.643,457.242v0l.087.082a.033.033,0,0,0,.011.008C605.707,457.305,605.676,457.273,605.643,457.242Z" transform="translate(-587.806 -401.939)"/>
        <path id="Pfad_1057" data-name="Pfad 1057" class="cls-12" d="M608.49,404.366a3.264,3.264,0,0,0,.2-1.579,4.2,4.2,0,0,0-.543-1.642,3.949,3.949,0,0,0-.261-.38c-.028,1.163-.053,2.534-.054,4.616A3.2,3.2,0,0,0,608.49,404.366Z" transform="translate(-588.714 -378.496)"/>
        <path id="Pfad_1058" data-name="Pfad 1058" class="cls-12" d="M605.412,434.509a28.331,28.331,0,0,0,.135,2.931c.033.031.064.063.1.092q1.1,1.016,2.261,1.968c.171.14.343.281.515.419q1.062.855,2.165,1.658c.034.026.07.051.106.076a6.354,6.354,0,0,0,.118-1.226v-9.282a6.241,6.241,0,0,0-2.5-5.026,3.63,3.63,0,0,0,.86-.914,2.425,2.425,0,0,0,.371-1.579,3.16,3.16,0,0,0-.729-1.641,5.386,5.386,0,0,0-1.3-1.12c-.058-.036-.116-.073-.173-.1a3.779,3.779,0,0,0,1.266-1.289,2.635,2.635,0,0,0,.314-1.58,3.408,3.408,0,0,0-.667-1.64,5.08,5.08,0,0,0-1.159-1.119c-.053-.037-.105-.073-.157-.106a3.508,3.508,0,0,0,1.106-1.287,2.915,2.915,0,0,0,.257-1.583,3.764,3.764,0,0,0-.6-1.64,4.7,4.7,0,0,0-.877-.983c0,6.2-.514,6.221-.514,12.458C606.31,428.25,605.412,428.25,605.412,434.509Z" transform="translate(-587.71 -382.137)"/>
        <path id="Pfad_1059" data-name="Pfad 1059" class="cls-12" d="M608.152,394.113c-.015-.143-.057-.285-.087-.429-.01.725-.025,1.351-.039,1.926A3.836,3.836,0,0,0,608.152,394.113Z" transform="translate(-588.795 -375.557)"/>
        <path id="Pfad_1060" data-name="Pfad 1060" class="cls-12" d="M667.853,462.908a2.553,2.553,0,1,0,2.555,2.554A2.553,2.553,0,0,0,667.853,462.908Z" transform="translate(-612.568 -404.291)"/>
      </g>
    </g>
    <g id="Gruppe_430" data-name="Gruppe 430" transform="translate(38.197 43.801)">
      <g id="Gruppe_425" data-name="Gruppe 425" transform="translate(19.363 12.393)">
        <path id="Pfad_1061" data-name="Pfad 1061" class="cls-9" d="M675.757,410.434l-.347-.674-.663-.029-.49-.56-.645.113-.552-.477-.617.214-.6-.394-.576.315-.254-.113a7.323,7.323,0,0,1-1.735,2.544,6.959,6.959,0,0,1-2.971,1.805l.073.481-.25.689.509.332.281.589.556-.108.459.438.5-.27.512.345.457-.349.539.28.421-.4.554.223.384-.448.672.119.43-.549.673.03.378-.6.669-.039.324-.641.655-.118.248-.689.618-.248.058-.751.314-.641Z" transform="translate(-666.133 -408.627)"/>
        <path id="Pfad_1062" data-name="Pfad 1062" class="cls-13" d="M674.715,409.659l-.087-.1-.272.047.033.039Zm1.413,1.162-.347-.674-.495-.022.115.222.585.415-.314.641-.059.752-.618.248-.247.688-.655.118-.325.642-.667.038-.378.6-.674-.03-.429.55-.673-.118-.383.447-.555-.223-.42.4-.539-.28-.457.349-.513-.345-.5.27-.459-.438-.1.02.268.562.556-.108.459.438.5-.27.512.344.457-.349.539.28.421-.4.554.223.384-.448.672.119.43-.549.673.03.378-.6.669-.039.324-.641.655-.118.248-.689.618-.248.059-.751.314-.641Z" transform="translate(-666.503 -409.013)"/>
      </g>
      <path id="Pfad_1063" data-name="Pfad 1063" class="cls-13" d="M656.564,419.3c1.534,1,3.849,3.814,5.928,4.01-2.148.639-3.077-2.091-5.248-1.682-1.7.319-2.9.4-3.765-.084-.439-.242-1.727-1.049-1.727-1.049l2.948-1.829A11.107,11.107,0,0,1,656.564,419.3Z" transform="translate(-640.801 -400.4)"/>
      <g id="Gruppe_426" data-name="Gruppe 426" transform="translate(25.798 2.644)">
        <path id="Pfad_1064" data-name="Pfad 1064" class="cls-9" d="M683.208,395.322l.056,1.132.47,1.037-.2,1.083.284,1.109-.38,1,.078,1.132-.628.8-.507.907-.906-.349-.925-.017-.707-.765-.915-.3-.556-.909-1.237-5.248.092-1.051.676-.667.253-1,.8-.468.581-.781.637.25.623-.179.422.624.642.233.185.744.579.423.057.759Z" transform="translate(-677.134 -391.96)"/>
        <path id="Pfad_1065" data-name="Pfad 1065" class="cls-13" d="M684.726,395.322l-.529-.508-.057-.759-.579-.423-.185-.744-.642-.233-.422-.624-.623.179-.637-.25-.26.35.243.1.623-.178.422.623.642.232.185.745.579.422.057.76.529.508.057,1.132.47,1.037-.2,1.084.284,1.108-.38,1,.077,1.132-.627.8-.3.539.449.174.507-.907.628-.8-.078-1.132.38-1-.284-1.109.2-1.083-.47-1.037Z" transform="translate(-678.652 -391.96)"/>
      </g>
      <path id="Pfad_1066" data-name="Pfad 1066" class="cls-9" d="M658.588,397.058a1.962,1.962,0,0,1-2.277.2c-2.184-2.64-6.732-3.674-11.7-2.195-6.113,1.82-10.726,7.247-11.534,12.44,1.221,4.1,9.841,4.222,15.954,2.4a13.069,13.069,0,0,0,7.538-5.291c.553-.8,2.05-2.62,3.821-1.964C662.331,401.89,661.273,396.259,658.588,397.058Z" transform="translate(-633.049 -390.323)"/>
      <g id="Gruppe_427" data-name="Gruppe 427" transform="translate(6.159)">
        <path id="Pfad_1067" data-name="Pfad 1067" class="cls-9" d="M663.514,389.079l-.8-.38-.629-.683-.826.06-.752-.489-.79.228-.794-.376-.757.326-.814-.3-.727.4-.826-.229-.7.456-.832-.168-.665.508-.835-.108-.632.559-.834-.044-.441.539-.676-.069-.419.56-.675-.036-.394.584-.673,0-.362.613-.666.052-.323.643-.657.111-.271.678-.64.18-.208.712-.614.26-.133.742-.594.414.707.388c1.549-1.29,4.523-2.233,7.97-2.366,4.066-.157,7.565.861,8.875,2.415l.081-.209.6-.149.156-.683.567-.255.06-.711.519-.356-.038-.722.454-.453-.147-.715.356-.558-.3-.658Z" transform="translate(-643.558 -387.439)"/>
        <path id="Pfad_1068" data-name="Pfad 1068" class="cls-13" d="M662.441,394l.075-.033.041-.478-.136.136Zm1.073-4.922-.8-.38-.629-.683-.826.06-.752-.489-.79.228-.794-.376-.757.326-.814-.3-.727.4-.826-.229-.7.456-.832-.168-.665.508-.835-.108-.632.559-.834-.044-.441.539-.676-.069-.419.56-.675-.036-.394.584-.673,0-.362.613-.666.052-.323.643-.657.111-.271.678-.64.18-.208.712-.614.26-.133.742-.594.414.339.187.364-.156.208-.711.64-.18.271-.678.657-.11.322-.645.667-.052.362-.613.673,0,.395-.586.674.037.42-.561.676.07.44-.539.835.044.632-.559.835.106.666-.507.832.167.7-.454.826.229.726-.4.814.3.757-.326.794.377.79-.229.753.489.825-.06.629.683.8.381-.1.716.3.659-.356.558.126.609.242-.167-.038-.722.454-.453-.147-.715.356-.558-.3-.658Z" transform="translate(-643.558 -387.439)"/>
      </g>
      <path id="Pfad_1069" data-name="Pfad 1069" class="cls-14" d="M633.346,415.534l2.349,1.813-.026.159-2.441-.773-.2-.392.084-.383.013-.359Z" transform="translate(-633.029 -399.101)"/>
      <path id="Pfad_1070" data-name="Pfad 1070" class="cls-14" d="M645.32,399.329c5.943-1.77,11.776-1.621,16.146.048-.336-1.448-1.285-2.729-2.662-2.319a1.962,1.962,0,0,1-2.277.2c-2.184-2.64-6.732-3.674-11.7-2.195A16.959,16.959,0,0,0,633.6,406.118,27.366,27.366,0,0,1,645.32,399.329Z" transform="translate(-633.265 -390.323)"/>
      <g id="Gruppe_428" data-name="Gruppe 428" transform="translate(1.692 14.164)">
        <path id="Pfad_1071" data-name="Pfad 1071" class="cls-13" d="M635.922,412.924a1.411,1.411,0,0,0,1.211,1.409,1.13,1.13,0,0,0,1.127-1.266,1.412,1.412,0,0,0-1.21-1.41A1.131,1.131,0,0,0,635.922,412.924Z" transform="translate(-635.922 -411.655)"/>
        <path id="Pfad_1072" data-name="Pfad 1072" class="cls-15" d="M636.031,412.977a1.152,1.152,0,0,0,.988,1.151.922.922,0,0,0,.92-1.034,1.153,1.153,0,0,0-.988-1.151A.924.924,0,0,0,636.031,412.977Z" transform="translate(-635.967 -411.774)"/>
        <path id="Pfad_1073" data-name="Pfad 1073" class="cls-8" d="M636.224,412.807a.874.874,0,0,0,.75.873.7.7,0,0,0,.7-.784.874.874,0,0,0-.75-.873A.7.7,0,0,0,636.224,412.807Z" transform="translate(-636.047 -411.807)"/>
        <path id="Pfad_1074" data-name="Pfad 1074" class="cls-7" d="M637.224,412.186a.3.3,0,0,0,.256.3.24.24,0,0,0,.238-.268.3.3,0,0,0-.256-.3A.239.239,0,0,0,637.224,412.186Z" transform="translate(-636.462 -411.764)"/>
        <path id="Pfad_1075" data-name="Pfad 1075" class="cls-7" d="M639.081,414.058l.022-.415-.8.015-.013.045Z" transform="translate(-636.905 -412.48)"/>
      </g>
      <g id="Gruppe_429" data-name="Gruppe 429" transform="translate(4.599 4.065)">
        <path id="Pfad_1076" data-name="Pfad 1076" class="cls-14" d="M669.791,401.125q-.046-.512-.109-1.069-.3-.733-.585-1.424c-.046-.379-.1-.772-.153-1.182-.071-.37-.144-.749-.221-1.135a8.7,8.7,0,0,0-2.193-1.035c.062.226.125.452.187.679q.205.455.428.949c.009.3.013.593.009.87l.453,1.01q.085.453.164.892c.149.348.3.71.459,1.08l.251.953a3.181,3.181,0,0,1-.242.527q.319.618.657,1.293l.254.946q.256.543.523,1.12c.064.078.129.156.193.236a8.927,8.927,0,0,0,.59-.85,7.456,7.456,0,0,1,.621-.778q-.275-.742-.545-1.458Q670.154,401.9,669.791,401.125Z" transform="translate(-651.533 -394.759)"/>
        <path id="Pfad_1077" data-name="Pfad 1077" class="cls-14" d="M675.167,400.916l-.28-1.709a2.016,2.016,0,0,1-2.1.054.147.147,0,0,0-.015-.018l.013.075.9,2.04.36,2.2.625,1.413a2.568,2.568,0,0,1,1.652-.447l-.257-1.569Z" transform="translate(-654.125 -396.389)"/>
        <path id="Pfad_1078" data-name="Pfad 1078" class="cls-14" d="M644.93,408.973q-.11-.611-.254-1.2c-.2-.349-.4-.706-.611-1.066q-.134-.593-.306-1.152-.223-.552-.476-1.084-.269-.532-.566-1.049-.389-.523-.8-1.05c-.155-.213-.314-.425-.474-.639-.187.168-.371.339-.55.512.156.349.3.706.437,1.076q.388.6.757,1.2.271.6.515,1.221.191.626.349,1.285.234.635.44,1.279.118.679.2,1.393c.155.42.3.837.443,1.247q.05.724.063,1.481.082.7.132,1.415c.012.077.022.155.034.233.6.008,1.211-.008,1.827-.044.02-.228.037-.453.051-.676q-.034-.6-.1-1.184c-.055-.38-.12-.76-.2-1.138-.128-.336-.263-.68-.406-1.029Q645.194,409.5,644.93,408.973Z" transform="translate(-640.892 -397.438)"/>
        <path id="Pfad_1079" data-name="Pfad 1079" class="cls-14" d="M654.113,395.848l-.149-.9q-.692.143-1.4.353c-.108.032-.216.066-.323.1l.394.893.36,2.2.9,2.039.36,2.2.9,2.039.36,2.2.9,2.039.2,1.231c.12-.034.239-.068.359-.1.481-.143.946-.305,1.394-.482l-.476-1.08-.361-2.207-.9-2.04-.36-2.2-.9-2.04-.36-2.2Z" transform="translate(-645.603 -394.619)"/>
        <path id="Pfad_1080" data-name="Pfad 1080" class="cls-14" d="M658.746,394.891q.082.632.157,1.238.357.379.71.8.2.524.391,1.052c.075.385.149.764.219,1.141q.217.508.427,1.029c.058.38.115.753.169,1.124q.282.5.554,1.015.075.561.142,1.11.152.537.3,1.079.207.538.405,1.089.078.546.151,1.083.089.54.174,1.074.184.4.363.8a13.9,13.9,0,0,0,1.348-.862q-.089-.4-.182-.789-.011-.6-.03-1.219-.1-.623-.2-1.252-.123-.628-.253-1.259-.224-.621-.457-1.227-.269-.6-.548-1.176-.076-.639-.159-1.293-.291-.572-.591-1.121-.038-.676-.083-1.383-.123-.659-.254-1.331c-.088-.374-.179-.752-.271-1.129a13.474,13.474,0,0,0-2.668-.051C658.621,394.586,658.684,394.737,658.746,394.891Z" transform="translate(-648.225 -394.389)"/>
        <path id="Pfad_1081" data-name="Pfad 1081" class="cls-14" d="M651.982,409.792q-.291-.528-.56-1.066-.289-.532-.553-1.071-.325-.523-.621-1.053-.112-.584-.222-1.17c-.166-.363-.325-.729-.479-1.095q-.1-.588-.2-1.179-.116-.583-.221-1.171-.162-.57-.312-1.142t-.311-1.14q-.2-.553-.4-1.108-.1-.583-.2-1.168c-.013-.117-.025-.235-.037-.353q-.684.326-1.331.709c0,.02,0,.04,0,.061q.185.561.367,1.121c.128.371.256.743.384,1.115q.111.584.227,1.165.154.569.309,1.138.208.554.417,1.107.086.591.17,1.182.21.554.425,1.105.135.576.268,1.152.211.554.43,1.105.16.568.321,1.137.034.6.043,1.214c.178.359.362.715.556,1.069l.124.43c.651-.09,1.3-.2,1.931-.334-.08-.207-.16-.415-.239-.623Q652.136,410.36,651.982,409.792Z" transform="translate(-643.238 -395.504)"/>
      </g>
    </g>
  </g>
  <g id="Gruppe_432" data-name="Gruppe 432" transform="translate(0 77.956)">
    <path id="Pfad_1082" data-name="Pfad 1082" class="cls-1" d="M523.646,431.734l13.11-24.315c5.574-19.766-8.97-50.632-8.97-50.632s-15.385-27.065-30.092-22.133C479.114,345.132,494.486,400.587,523.646,431.734Z" transform="translate(-489.595 -334.053)"/>
    <path id="Pfad_1083" data-name="Pfad 1083" class="cls-1" d="M616.828,487.723,605.4,464.43c-17.036-.144-22.707-2.173-22.707-2.173s-37.618-16.638-34.978,21.178C549.647,487.637,605.324,494.269,616.828,487.723Z" transform="translate(-513.665 -385.755)"/>
    <path id="Pfad_1084" data-name="Pfad 1084" class="cls-5" d="M662.644,442.677l1.342-4.29s4.82,1.677,2.548,7.729a28.37,28.37,0,0,1-2.883,3.957s14.894-2.966,19.463-3.449c7.432-.786,5.8,3.221,5.8,3.221l-5.361,1.92,6.639-1.262c2.288-.436,4.211.631,4.31,2.391.075,1.332-3.522,3.655-5,4.411,2.168-.3,4.87.547,4.972,2.393.108,1.925-10.588,5.395-10.588,5.395a2.57,2.57,0,0,1,3.1,2.159c.154,1.448-15.441,5.223-15.441,5.223a2.93,2.93,0,0,1-.827.026l-6.769,2.865-7.3.223-8.274-17.246,1.936-6.554Z" transform="translate(-555.498 -377.36)"/>
  </g>
</svg>
