<svg id="Ebene_1" data-name="Ebene 1" xmlns="http://www.w3.org/2000/svg" width="414" height="896.46447" viewBox="0 0 414 896.46447"><defs><style>.cls-1{fill:#20ab62;}.cls-2{opacity:0.1;}.cls-3{fill:#dfffef;}</style></defs><rect id="Rechteck_37" data-name="Rechteck 37" class="cls-1" y="0.46447" width="414" height="896"/><g class="cls-2"><ellipse id="Ellipse_1" data-name="Ellipse 1" class="cls-3" cx="166.09167" cy="108.54246" rx="50.0132" ry="71.495" transform="translate(-20.96118 174.71753) rotate(-52.64762)"/><ellipse id="Ellipse_2" data-name="Ellipse 2" class="cls-3" cx="119.3924" cy="225.51586" rx="50.002" ry="71.479" transform="translate(-119.53182 315.11032) rotate(-82.658)"/><path class="cls-3" d="M413.68357,139.17041a69.23339,69.23339,0,0,0-27.45758-.76c-12.28937.8017-35.85657,1.50537-53.012-3.0426-21.49579-9.53424-45.38751-9.23853-64.58679,3.06756-17.51386,11.22492-27.57447,30.17438-29.44739,51.26441l-.01215-.007c-.00708.14026-.02435.28613-.0329.429-.01379.1618-.02966.32928-.03881.48913-1.51538,19.67871-15.45227,46.6601-21.42554,57.4281-.93268,1.49958-1.81238,3.03321-2.624,4.60492l-.06647.11524.00952.00549c-12.36206,24.03967-10.6601,56.50177,6.96271,84.00024,24.7597,38.62684,71.53338,52.82258,104.47558,31.709a63.16726,63.16726,0,0,0,25.0691-31.59894s18.66735-24.71912,62.1867-40.04108Z"/><path class="cls-3" d="M313.87309,0H228.85947C223.901,14.07617,222.854,31.42487,226.867,49.293c8.65058,38.51727,37.50586,64.83606,64.45,58.78473S333.091,65.8963,324.44041,27.379A97.85753,97.85753,0,0,0,313.87309,0Z"/><path class="cls-3" d="M371.3737,0a97.66378,97.66378,0,0,0-13.11261,26.91724c-11.77753,37.69006.0484,74.92279,26.41388,83.16156,9.449,2.95263,19.48022,1.762,29.0086-2.69245V0Z"/></g></svg>