<svg xmlns="http://www.w3.org/2000/svg" width="58.985" height="59.784" viewBox="0 0 58.985 59.784">
  <defs>
    <style>
      .cls-1 {
        fill: #323434;
      }
    </style>
  </defs>
  <g id="Gruppe_613" data-name="Gruppe 613" transform="translate(18.648 61.72) rotate(-120)">
    <ellipse id="Ellipse_1" data-name="Ellipse 1" class="cls-1" cx="8.909" cy="6.232" rx="8.909" ry="6.232" transform="translate(29.76 33.372) rotate(82.658)"/>
    <ellipse id="Ellipse_2" data-name="Ellipse 2" class="cls-1" cx="6.232" cy="8.909" rx="6.232" ry="8.909" transform="matrix(0.923, 0.385, -0.385, 0.923, 6.864, 30.134)"/>
    <ellipse id="Ellipse_3" data-name="Ellipse 3" class="cls-1" cx="8.909" cy="6.232" rx="8.909" ry="6.232" transform="matrix(0.735, 0.678, -0.678, 0.735, 36.798, 24.934)"/>
    <ellipse id="Ellipse_4" data-name="Ellipse 4" class="cls-1" cx="8.909" cy="6.232" rx="8.909" ry="6.232" transform="translate(39.543 13.236) rotate(12.658)"/>
    <path id="Pfad_94" data-name="Pfad 94" class="cls-1" d="M32.98,17.382A23.137,23.137,0,0,0,30,23.294a8.434,8.434,0,0,1-4.356,6.781,8.29,8.29,0,0,1-7.369-.016h0l-.048-.023-.055-.026c-2.219-1.063-6-1.24-7.534-1.266-.22.007-.44.007-.661,0H9.964A10.64,10.64,0,0,1,1.33,22.753C-1.3,17.673.087,11.739,4.419,9.5a7.873,7.873,0,0,1,4.973-.737h0s3.87-.478,8.264-4.273h0A7.875,7.875,0,0,1,21.132.857c4.332-2.24,9.973.062,12.6,5.141C35.8,10.006,35.379,14.544,32.98,17.382Z" transform="translate(2.235 0)"/>
  </g>
</svg>
