<svg xmlns="http://www.w3.org/2000/svg" xmlns:xlink="http://www.w3.org/1999/xlink" width="342" height="342" viewBox="0 0 342 342">
  <defs>
    <style>
      .cls-1, .cls-2 {
        fill: #fff;
      }

      .cls-2 {
        stroke: #707070;
      }

      .cls-3 {
        fill: #fdbb45;
      }

      .cls-4 {
        opacity: 0.197;
        clip-path: url(#clip-path);
      }

      .cls-5 {
        clip-path: url(#clip-path-2);
      }

      .cls-6 {
        fill: #f6693b;
      }

      .cls-7 {
        fill: #fc8b59;
      }

      .cls-8 {
        fill: #43200c;
      }

      .cls-9 {
        fill: #85c0c5;
      }

      .cls-10 {
        fill: #61adaf;
      }

      .cls-11 {
        fill: #8e6c8f;
      }

      .cls-12 {
        fill: #7a5d7b;
      }

      .cls-13 {
        fill: #fcf9eb;
      }

      .cls-14 {
        fill: #f8f0e2;
      }

      .cls-15 {
        fill: #2d2d2d;
      }

      .cls-16 {
        fill: #3f3b3c;
      }
    </style>
    <clipPath id="clip-path">
      <circle id="Ellipse_38" data-name="Ellipse 38" class="cls-1" cx="171" cy="171" r="171"/>
    </clipPath>
    <clipPath id="clip-path-2">
      <circle id="Ellipse_37" data-name="Ellipse 37" class="cls-2" cx="171" cy="171" r="171"/>
    </clipPath>
  </defs>
  <g id="Gruppe_121" data-name="Gruppe 121" transform="translate(-20 -113)">
    <circle id="Ellipse_36" data-name="Ellipse 36" class="cls-3" cx="171" cy="171" r="171" transform="translate(20 113)"/>
    <g id="Gruppe_maskieren_4" data-name="Gruppe maskieren 4" class="cls-4" transform="translate(20 113)">
      <g id="Gruppe_120" data-name="Gruppe 120" transform="translate(-16.945 251.096) rotate(-60)">
        <ellipse id="Ellipse_1" data-name="Ellipse 1" class="cls-1" cx="62.056" cy="43.41" rx="62.056" ry="43.41" transform="matrix(0.128, -0.992, 0.992, 0.128, 121.177, 123.094)"/>
        <ellipse id="Ellipse_2" data-name="Ellipse 2" class="cls-1" cx="43.41" cy="62.056" rx="43.41" ry="62.056" transform="translate(0 42.213) rotate(-22.658)"/>
        <ellipse id="Ellipse_3" data-name="Ellipse 3" class="cls-1" cx="62.056" cy="43.41" rx="62.056" ry="43.41" transform="translate(197.474 129.116) rotate(-42.658)"/>
        <ellipse id="Ellipse_4" data-name="Ellipse 4" class="cls-1" cx="62.056" cy="43.41" rx="62.056" ry="43.41" transform="matrix(0.976, -0.219, 0.219, 0.976, 256.404, 189.732)"/>
        <path id="Pfad_94" data-name="Pfad 94" class="cls-1" d="M229.714,94.37c-5.937-8.892-16.7-26.305-20.724-41.178-2.163-20.3-12.756-38.135-30.342-47.229-16.042-8.3-34.656-7.634-51.326.113v-.01c-.108.055-.226.106-.337.161-.127.06-.257.12-.385.183-15.455,7.4-41.789,8.637-52.478,8.82-1.532-.051-3.067-.046-4.6.026l-.116,0,0,.01C45.958,16.4,22.292,31.775,9.266,56.961-9.027,92.344.6,133.673,30.777,149.275a54.839,54.839,0,0,0,34.639,5.132v0s26.957,3.33,57.562,29.762h0a54.847,54.847,0,0,0,24.212,25.3c30.174,15.6,69.466-.431,87.76-35.811C249.385,145.743,246.423,114.133,229.714,94.37Z" transform="translate(15.568 151.195)"/>
      </g>
    </g>
    <g id="Gruppe_maskieren_3" data-name="Gruppe maskieren 3" class="cls-5" transform="translate(20 113)">
      <g id="Gruppe_68" data-name="Gruppe 68" transform="translate(71.981 45.681)">
        <g id="Gruppe_50" data-name="Gruppe 50" transform="translate(71.587)">
          <path id="Pfad_269" data-name="Pfad 269" class="cls-6" d="M1268.511,307.742h-35.1l.137-26.414h34.826Z" transform="translate(-1227.613 -234.6)"/>
          <g id="Gruppe_49" data-name="Gruppe 49">
            <g id="Gruppe_48" data-name="Gruppe 48" transform="translate(1.689 11.531)">
              <path id="Pfad_270" data-name="Pfad 270" class="cls-6" d="M1287.259,264.773c6.1-5.572,4.182,5.772,2.755,8.72-.525,1.085-1.68,3.216-3.018,3.466Z" transform="translate(-1247.315 -240.056)"/>
              <path id="Pfad_271" data-name="Pfad 271" class="cls-6" d="M1231.434,264.773c-6.1-5.572-4.188,5.772-2.758,8.72.526,1.085,1.679,3.216,3.019,3.466Z" transform="translate(-1227.223 -240.056)"/>
              <path id="Pfad_272" data-name="Pfad 272" class="cls-7" d="M1269.3,257.158c-.553-7.036,1.084-18.26-1.956-22.922-3.532-5.43-10.255-5.927-16.032-5.927s-12.505.5-16.042,5.927c-3.035,4.662-1.4,15.887-1.954,22.922-.707,8.987,1.78,15.16,8.635,20.726,2.025,1.64,6.71,2.633,9.362,2.674,2.641-.04,7.329-1.034,9.353-2.674C1267.521,272.318,1270.008,266.145,1269.3,257.158Z" transform="translate(-1229.232 -228.309)"/>
            </g>
            <path id="Pfad_273" data-name="Pfad 273" class="cls-8" d="M1272.891,226.789c-.327-1.168-4.7-3.827-6.359-5.215-1.569-1.31-.128-5.835-4.2-7.972-5.053-2.655-4.656,1.633-14.6-2.158-5.713-2.182-10.034,3.411-10.034,3.411s-6.439,1.749-7.282,2.4c-2.776,2.175-4.087,5.333-5.553,12-.88,4.016,1.648,13.512,2.841,16.43,0,0,2.116,1.61,2.877,1.5-.14-3.065,1.227-7.324,1.227-9.56.6-1.917,5.2-9.41,7.34-10.148,2.276-2.276,6.515.461,8.691.516,1.194.029,8.094-.682,10.677-.019,5.6,1.438,6.5,10.757,6.5,10.757s1.431,5.388,1.3,8.453c2.378-2.175,3.459-1.227,3.459-1.227C1270.078,242.452,1274.528,232.634,1272.891,226.789Z" transform="translate(-1224.678 -210.94)"/>
          </g>
          <path id="Pfad_274" data-name="Pfad 274" class="cls-1" d="M1266.75,273.057c0,3.765-6.183,8.888-11.218,8.888s-10.912-4.531-10.912-8.295,5.684,1.637,10.718,1.637S1266.75,269.293,1266.75,273.057Z" transform="translate(-1231.382 -231.403)"/>
        </g>
        <g id="Gruppe_51" data-name="Gruppe 51" transform="translate(33.812 251.713)">
          <path id="Pfad_275" data-name="Pfad 275" class="cls-9" d="M1172.456,663.06h121.992c-2.281-38.408-4.428-72.953-4.428-72.953H1167.777l1.142,49.9Z" transform="translate(-1167.777 -590.107)"/>
          <path id="Pfad_276" data-name="Pfad 276" class="cls-10" d="M1242.67,683.594l-8.694-18.972-18.6-13.07,22.063-.359Z" transform="translate(-1183.775 -610.641)"/>
        </g>
        <g id="Gruppe_53" data-name="Gruppe 53" transform="translate(0 65.043)">
          <path id="Pfad_277" data-name="Pfad 277" class="cls-11" d="M1280.085,329.287c-5.595-10.06-33.5-20.37-33.5-20.37l-34.812,3.688-34.812-3.688s-27.9,10.31-33.5,20.37c0,0-32.11,51.141-25.8,68.26,3.221,8.745,31.928,17.969,33.5,18.469.155,27.779.266,72.028-.511,79.571,9.046,5.335,38.7,11.5,61.121,11.592,22.422-.094,52.076-6.256,61.121-11.592-.778-7.543-.665-51.792-.512-79.571,1.577-.5,38.779,13.261,42,4.516C1320.692,403.413,1280.085,329.287,1280.085,329.287Z" transform="translate(-1116.844 -308.917)"/>
          <g id="Gruppe_52" data-name="Gruppe 52" transform="translate(54.6 40.671)">
            <path id="Pfad_278" data-name="Pfad 278" class="cls-12" d="M1277.535,381.244c-6.391,3.878-7.49-1.255-14.965-1.255s-7.476-.848-14.952-.848-7.473,1.646-14.95,1.646-7.476-.768-14.953-.768-9.619,6.823-16.011,2.946c-3.878-2.354-3.25-9.175.627-11.528,6.391-3.878,7.907,2.468,15.382,2.468s7.476.391,14.951.391,7.476-.254,14.951-.254,7.476-1.767,14.953-1.767,7.988-2.852,15.027-.333C1282.307,373.627,1281.412,378.892,1277.535,381.244Z" transform="translate(-1199.09 -370.181)"/>
            <path id="Pfad_279" data-name="Pfad 279" class="cls-12" d="M1277.158,411.764c-6.39,3.878-6.658.287-14.133.287s-7.476-1.07-14.952-1.07-7.473,2.365-14.95,2.365-7.476-1.98-14.953-1.98-8.053,4.786-14.445.908c-3.877-2.354-4.574-6.2-.7-8.549,6.391-3.877,7.665-1.828,15.14-1.828s7.476,2.233,14.951,2.233,7.476-1.75,14.951-1.75,7.476,2.3,14.953,2.3,8.087-3.779,15.251-1.642C1282.407,404.273,1281.037,409.412,1277.158,411.764Z" transform="translate(-1199.545 -380.661)"/>
            <path id="Pfad_280" data-name="Pfad 280" class="cls-12" d="M1278.986,447.157c-6.391,3.877-8.41-2.591-15.885-2.591s-7.476,2.753-14.952,2.753-7.473-.979-14.95-.979-7.476.273-14.953.273-8.446,2.688-14.838-1.19c-3.877-2.352-3.522-5.754.354-8.108,6.391-3.876,7.006.613,14.481.613s7.476-.975,14.951-.975,7.476-1.02,14.951-1.02,7.476-1.58,14.953-1.58,7.493.649,14.392,3.532C1282.841,440.122,1282.864,444.8,1278.986,447.157Z" transform="translate(-1199.622 -391.752)"/>
          </g>
        </g>
        <path id="Pfad_281" data-name="Pfad 281" class="cls-7" d="M1122.338,448.6c-5.934,20.224,7.462,53.581,21.978,64.514,18.9,15.079,53.166,24.8,72.8,21.326,8.756-1.547,31.125-12.407,31.125-12.407l-24.591-3.829-56.691-27.32-14.43-27.928S1125.81,447.627,1122.338,448.6Z" transform="translate(-1118.206 -290.811)"/>
        <g id="Gruppe_54" data-name="Gruppe 54" transform="translate(48.972 153.284)">
          <path id="Pfad_282" data-name="Pfad 282" class="cls-13" d="M1321.837,520.9c3.536-1.53,8.35-1.688,12.17-1.322-.764.375-2.052,1.452-3.07,1.863a13.493,13.493,0,0,1,4.54-.021c-.2.281-.671.736-.882,1.067,1.243-.045,2.721.64,3.89.647-.184.327-.561.593-.765.929,3.3.307,5.311,1.655,8.528,1.875-.177.227-.642.367-.818.6a28.6,28.6,0,0,1,4.318.805c0,.084-.6.57-.718.789a25.62,25.62,0,0,1,3.257,1.245c-.255.277-.844.339-1.2.552.7.21,1.776,1.045,2.683,1.325-.161.445-.79.507-1.128.882.59.262,1.746,1.1,2.426,1.416a9.964,9.964,0,0,1-1.47.526c.829.29,1.955,1.336,2.714,1.655-.158.211-1.143.355-1.431.53.313.651,1.138.648,1.454,1.327-.022.007-1.468.67-1.5.708.778.351,1.836,1.449,2.539,1.752.08.317-.749.3-.753.836.431.57,1.29,1.056,1.746,1.614-.432.29-1.046.162-1.427.455a13.778,13.778,0,0,1,2.4.953c-.344.187-1.2.915-1.68,1.281.885.341,2.007,1.8,2.784,2.2a14.694,14.694,0,0,1-1.865,1.49c.471.171,1.232.608,1.688.817-.921.432-2.3,1.956-3.125,2.367.6.106,1.192.306,1.793.412a.835.835,0,0,1,.134.463c-.935.37-1.578,1.42-2.195,1.788.5.168,1.119.4,1.639.563-.623.2-1.689,1.157-2.648,1.382.586.365,1.2,1.431,1.779,1.824-1.165.364-2.754,1.831-3.692,2.2.406.222,1.043.65,1.409.86-1.1.181-2.531,1.214-3.616,1.424.262.369.57.537.785.886-2.368.611-4.495,1.413-6.539.552-.22.552-.453,1.277-.622,1.829a6.74,6.74,0,0,0-1.4-1.141c-.379.336-2.36,2.323-2.112,1.883-.161.337-.444,1.247-.578,1.566a8.223,8.223,0,0,1-2.021-1.65,3.576,3.576,0,0,0,.586,1.2,7.984,7.984,0,0,0-3.759-2.561c.045.245.231,2.037.123,1.341a23.734,23.734,0,0,0-1.136-2.772c-.363.45-1.4.928-1.815,1.7-.088-.9-1.024-2.213-1.172-3.164-.53.45-2.247.749-2.831,1.287-.548-2.146-1.743-2.984-3.591-2.172a5.9,5.9,0,0,0-2.472-.866c-.162-.492-.035-1.091-.191-1.6-.449-.174-1.123.33-1.518.161-1.5-1.072-.616-.973-2.6-1.057-1.8-1.788-4.377-1.32-4.685-4.35-2.64.125-6.639-5.537-7.715-7.9-2.294-5.013-.754-9.761-1.715-14.894Z" transform="translate(-1228.987 -467.914)"/>
          <path id="Pfad_283" data-name="Pfad 283" class="cls-14" d="M1291.219,441.839c1.456,1.433,3.174,2.782,4.578,4.382a11.492,11.492,0,0,1-1.5-.5c.8.767,1.957,2.491,2.837,3.318.017.076-.689.046-.751.134.433.718,1.036,1.383,1.411,2.079-.364-.141-.874-.379-1.275-.5,1.834,1.857,2.251,4.31,2.866,6.639-.162-.084-.321-.173-.483-.259a40.373,40.373,0,0,0,2.41,5.16,29.023,29.023,0,0,0,.6,3.469c-.009.22-.721-.777-.606-.71.428,1,.606,2.271,1.057,3.224a5.372,5.372,0,0,1-1.219-1.178c.014.709.3,1.462.367,2.168a13.293,13.293,0,0,1-1.33-.647c-.234.463.455,1.184.2,1.622-.346-.048-.711-.472-1.048-.441.871,1.235,1.17,2.891,1.715,4.2,0,.052-.429-.117-.506.066a27.8,27.8,0,0,1,2.036,5.572c-.337-.358-.893-.784-1.23-1.115a34.992,34.992,0,0,1,2.346,11.857c-.376-.584-1.463-1.586-1.946-2.4.353,1.721.648,3.475.888,5.2-.451-.881-1.253-1.8-1.744-2.745a50.027,50.027,0,0,1,.856,4.95,15.187,15.187,0,0,1-1.307-1.744,53.123,53.123,0,0,1,.277,5.828c-.3-.337-1.142-.919-1.486-1.267a17.874,17.874,0,0,1-.308,4.661c-.029.127-.752.2-.895.3a24.905,24.905,0,0,1-.009,3.07c-.289-.36-.516-.8-.8-1.2a11.645,11.645,0,0,1-.176,4.155c-.3-.558-.592-1.112-.937-1.632a9.4,9.4,0,0,1-.384,4.769,11.359,11.359,0,0,0-.977-1.086,45.469,45.469,0,0,1,.687,5.473c-.551-.11-.258-.311-.777-.544.147,1.464-.078,3.216-.023,4.535-.22-.433-.783-1.18-1-1.565a14.435,14.435,0,0,1-.02,4.9c-.556.041-.463-.8-.707-1.075a15.518,15.518,0,0,1-.224,2.859c-.343-.571-1-1.389-1.383-2.07a38.059,38.059,0,0,1-.183,3.838,20.257,20.257,0,0,0-1.034-1.8c.222,1.418-.277,2.764-.289,4.125-.229.268-.4-.381-.375-.414-.291.866-1.285,2.371-1.641,3.355a6.073,6.073,0,0,1-.445-1.155,23.851,23.851,0,0,1-.435,2.588c-.124,0-.87-.281-.775-.384a15.053,15.053,0,0,0-2.957,3.912c-.248.26-.241-.475-.574-.374a13.721,13.721,0,0,1-1.607,3.018,10.132,10.132,0,0,0-1.733,1.469.861.861,0,0,1-.472.023c-.392-.2-2.123-.956-2.284-1.072-.136.511.009.827-.262,1.288a2.65,2.65,0,0,0-1.724-1,8.05,8.05,0,0,1-1.386-1.245c-.757-.262-.479.489-.8.607-.565-.439-.783-1.034-1.429-1.449-1.776.633-1.955.776-2.545-1.416-.656-.072-1.306.3-1.955.284a21.4,21.4,0,0,0-.473-2.2,9.017,9.017,0,0,0-1.36,2.014c-.25-.1-.749-1.12-1.075-1.32-.172.467-.057,1.111-.435,1.529-.411-.89-1.388-1.775-1.773-2.647-.114.529-.368,1.15-.5,1.572a29.417,29.417,0,0,0-1.291-3.631c-.242-.033-.106.682-.278.55-.527-1.416-1.467-2.786-2.057-4.139.05.548.066,1.271.058,1.638-.727-2.648-2.831-4.942-4.37-6.975.052.465.137.984.148,1.443-.382-.84-1.128-1.9-1.463-2.7-.2-.171-.108.882-.3.751a25.009,25.009,0,0,0-1.644-2.541c-.372.053.178.947-.27.862-.685-.7-1.526-1.505-2.227-2.229-.481-.244-.282.727-.661.611-.613-.479-.951-1.162-1.591-1.575-.4.194,0,.779-.3,1.1a1.378,1.378,0,0,1-.526.151c-.645-.2-.6-1.1-1.05-1.372-.489.455-.772,1.1-1.192,1.47a5.638,5.638,0,0,0-.856-1.631c-.9,1.962-2.181,2.725-3.736,1.213a7.182,7.182,0,0,0-4.367,2.525c-.291-.09.023-.8-.449-.892-.489.477-1.609,1.349-2.234,1.893-.081-.028-.163-.713-.2-.685-2.079.641-3.559.823-5.659,1.46.33-.321.606-.9.991-1.233a5.675,5.675,0,0,1-4.822,2.7c-.242-.828-1.061-1.53-1.308-2.318-2.392,3.661-12.36.594-16.8,3.991-.125-2.147-1.416-3.024-3.515-2.453.594-.646.594-1.254.943-1.749-1.132-.115-2.73-.763-3.951-.591a5.825,5.825,0,0,1,1.407-.283c-.5-.418-1.473-.665-1.965-1.111.213-.189,1.083-.007.967-.475a8.388,8.388,0,0,0-5.6-.861,8.958,8.958,0,0,1,.465-2.719,1.191,1.191,0,0,1-.331.3,29.175,29.175,0,0,1,2.355-2.193c.163-.473-.787-.241-.773-.575.708-.477,1.458-1.16,2.171-1.734-.014-.011-.151-.947-.169-.914-.131.179-.668,0-.738-.1a30.959,30.959,0,0,0,1.9-2.488c0-.372-.8-.262-.964-.6,2.027-1.647,1.318-1.5,1.172-2.863,1.754-1.49,1.759-1.931,1.611-3.8a14.208,14.208,0,0,0,1.83-2.408,20.764,20.764,0,0,1,2.458-.772c.21-.125-.263-.72-.054-.95.956-.159,1.941-.462,2.9-.593-.285-.882-.4-.4-.894-.9.763-.219,1.769-.688,2.631-.967-.108-.366-.7-.8-.687-1.148.87-.031,2.159-.806,3.174-.843-.27-.458-.469-1.2-.758-1.652,1.2-.067,2.613-.878,3.972-.726-.137-.447-.309-.944-.454-1.4,1.368-.019,2.85-.846,4.209-.826.067-.2-.548-.919-.62-1.108.878-.162,1.79-.341,2.64-.555.165-.248-.4-.645-.382-.66.859-.359,1.911-.962,2.88-1.332a8,8,0,0,1,2.709-2.238c.232-.42-.5-.633-.364-.949.757-.231,1.625-.327,2.386-.509.126-.107-.672-.462-.521-.648a28.62,28.62,0,0,0,2.9-.808c-.382-.677-.281-1.952-.661-2.647,2.157-.338,4.065-1.312,3.555-3.224.933-.08,1.787-.666,2.709-.828-.255-.392-.307-1.437-.886-2.081,2.373-.7,1.463-1.107,2.215-2.023,4.148-.251,1.48-15.269,3.163-17.122Z" transform="translate(-1190.612 -441.839)"/>
        </g>
        <path id="Pfad_284" data-name="Pfad 284" class="cls-7" d="M1329.569,468.067l-4.851,8.886-5.009-2.466-18.889-8.543-3.166-5.256s-5.615,3.539-.655,10.85c.789,1.171,5.029,4.4,5.029,4.4l-18.638,4.283c-1.5.639-2.078,2.679-1.288,4.553a3.552,3.552,0,0,0,3.57,2.412,3.8,3.8,0,0,0-.631,4.71,4.013,4.013,0,0,0,3.393,2.361c-1.411.883-1.724,3.155-.692,5.206,1.077,2.13,3.209,3.21,4.766,2.409l.862-.443a3.541,3.541,0,0,0,.131,3.125,3.365,3.365,0,0,0,2.793,1.974v.007l13.9,2.711,12.06-2.622,2.729-.855c24.384,1.887,45.54-26.963,44.838-35.752C1360.072,445.244,1329.569,459.46,1329.569,468.067Z" transform="translate(-1172.276 -293.359)"/>
        <g id="Gruppe_67" data-name="Gruppe 67" transform="translate(83.752 110.765)">
          <g id="Gruppe_64" data-name="Gruppe 64" transform="translate(6.668)">
            <g id="Gruppe_58" data-name="Gruppe 58">
              <g id="Gruppe_57" data-name="Gruppe 57" transform="translate(24.017)">
                <g id="Gruppe_55" data-name="Gruppe 55" transform="translate(25.459 10.592)">
                  <path id="Pfad_285" data-name="Pfad 285" class="cls-13" d="M1328.276,398.706A7.59,7.59,0,0,0,1342.482,404c1.386-3.724,1.56-8.041-2.364-9.5S1329.664,394.982,1328.276,398.706Z" transform="translate(-1327.666 -393.834)"/>
                  <path id="Pfad_286" data-name="Pfad 286" class="cls-13" d="M1338.6,408.062a7.942,7.942,0,0,1-5.891.1h0a7.932,7.932,0,0,1-4.381-3.933h0a7.158,7.158,0,0,1-.313-5.68h0c.725-1.937,2.751-3.37,5.08-4.153h0a11,11,0,0,1,6.989-.154h0a4.873,4.873,0,0,1,3.283,4.04h0a11.658,11.658,0,0,1-.817,5.685h0a7.155,7.155,0,0,1-3.951,4.091Zm1.361-13.49c-.006,0-.006,0-.006,0h0a10.659,10.659,0,0,0-6.75.163h0c-2.264.759-4.2,2.16-4.865,3.945h0a6.822,6.822,0,0,0,.3,5.4h0a7.571,7.571,0,0,0,4.19,3.759h0a7.592,7.592,0,0,0,5.627-.1h0a6.816,6.816,0,0,0,3.764-3.89h0a11.379,11.379,0,0,0,.8-5.512h0a4.53,4.53,0,0,0-3.063-3.766Z" transform="translate(-1327.576 -393.746)"/>
                </g>
                <g id="Gruppe_56" data-name="Gruppe 56">
                  <path id="Pfad_287" data-name="Pfad 287" class="cls-13" d="M1304.127,389.335a7.589,7.589,0,0,1-14.2-5.3c1.385-3.722,4.081-7.1,8-5.635S1305.515,385.611,1304.127,389.335Z" transform="translate(-1289.314 -377.879)"/>
                  <path id="Pfad_288" data-name="Pfad 288" class="cls-13" d="M1300.252,393.4a7.945,7.945,0,0,1-5.888.1h0a7.932,7.932,0,0,1-4.383-3.935h0a7.141,7.141,0,0,1-.309-5.676h0a11.654,11.654,0,0,1,3.1-4.838h0a4.886,4.886,0,0,1,5.128-.9h0a10.977,10.977,0,0,1,5.18,4.692h0c1.246,2.114,1.842,4.524,1.123,6.464h0a7.169,7.169,0,0,1-3.951,4.092Zm-.139-.322a6.809,6.809,0,0,0,3.761-3.89h0c.668-1.782.126-4.108-1.093-6.165h0a10.649,10.649,0,0,0-5-4.546h0a4.556,4.556,0,0,0-4.788.846h0a11.355,11.355,0,0,0-3,4.691h0a6.828,6.828,0,0,0,.3,5.407h0a7.6,7.6,0,0,0,4.19,3.755h0a7.591,7.591,0,0,0,5.629-.1Z" transform="translate(-1289.225 -377.79)"/>
                </g>
              </g>
              <path id="Pfad_289" data-name="Pfad 289" class="cls-14" d="M1317.053,404.119a3.906,3.906,0,0,0,.9.309A2,2,0,0,0,1317.053,404.119Zm-40.42-15.06a2,2,0,0,0-.88-.354A3.939,3.939,0,0,0,1276.633,389.058Zm-21.123,20.249a18.288,18.288,0,0,0-1.8,2.014,17.24,17.24,0,0,1,1.632-.714,21.193,21.193,0,0,1-1.383,1.74c.315-.159.846-.254,1.213-.451-.678,1.323-1.851,2.467-2.126,3.943a12.047,12.047,0,0,1,2.158-1.955,6.922,6.922,0,0,0-1.566,4.97,4.978,4.978,0,0,1,1.2-1.476,18.64,18.64,0,0,0-.713,2.9c.126-.205.462-.547.615-.787a2.745,2.745,0,0,0,.131,2.091,10.267,10.267,0,0,1,.706-.756,10.693,10.693,0,0,0-.134,3.023c.116-.218.36-.513.479-.731a16.011,16.011,0,0,0,.243,2.471c.122-.321.451-.7.554-.931a9.373,9.373,0,0,0,.187,2.454c.142-.274.572-.627.742-.94a9.491,9.491,0,0,1,.375,2.171c.145-.384.518-.822.647-1.109a9.134,9.134,0,0,0,.6,2.927c.1-.393.374-.775.476-1.169a7.6,7.6,0,0,0,.579,2.073c.1-.4.4-.8.48-1.209.056.328.344.825.4,1.127.1-.2.254-.392.357-.607a14.462,14.462,0,0,0-.039,2.047c.124-.294.331-.543.461-.828a7.253,7.253,0,0,0,.875,3.007,9.105,9.105,0,0,0,.377-1.281,11.165,11.165,0,0,0,.579,2.8c.061-.137.281-.467.37-.683a14.443,14.443,0,0,0,1,2.392c.061-.374.3-.776.339-1.163a6.416,6.416,0,0,1,.211.612c.021-.088.161-.428.222-.586a2.6,2.6,0,0,0,.536,1.646c.089-.258.244-.52.329-.785a4.122,4.122,0,0,0,.775,2.118c1.143-.846,1.6,1.131,1.859,2.056.119-.415.506-.935.607-1.408.074.512.38.99.491,1.476.238-.72.433-1.468.734-2.175.033-.046.2.1.262.08a3.618,3.618,0,0,1,.3-.791c.04,1.3.367,2.576.5,3.869.112-.459.384-.887.51-1.337.247.785.3,1.856.562,2.689.122-.41.39-.81.5-1.224a11.429,11.429,0,0,0,.335,1.663c.081-.348.577-.941.688-1.318a3.986,3.986,0,0,1,.951,1.873c.142-.5.6-1.034.769-1.54a9.19,9.19,0,0,1,.2,2.24,6.565,6.565,0,0,1,.708-1.28c.552.939-.366,1.883.283,2.8.06-.073.137-.044.137.05,1.1-.267,1.018-1.583,2.051-1.935a6.17,6.17,0,0,1-.311,1.433,9.285,9.285,0,0,1,1.619-1.566c-.2.492-.208,1.2-.422,1.67a3.88,3.88,0,0,1,1.941-.8c-.163.359-.179,1.129-.344,1.447a11.917,11.917,0,0,0,1.344-1.039c-.192.382-.25.862-.428,1.249.744-.456,1.483-1.237,2.183-1.664-.2.42-.273.923-.488,1.346.945-.894,2.023-1.648,2.907-2.6a3.952,3.952,0,0,1-.287.794c.026.057.252.052.248.113-.232.727-.576,1.427-.868,2.124.4-.3.943-.458,1.333-.8-.232.426-.28,1.067-.46,1.461.8-.531,2.442-1.724,2.754-.335a4.191,4.191,0,0,0,1.974-1.093c-.11.25-.166.553-.265.8a2.585,2.585,0,0,0,1.483-.893c-.06.158-.173.509-.22.589a5.512,5.512,0,0,1,.566-.321c-.224.321-.309.776-.508,1.1a14.586,14.586,0,0,0,2.321-1.151c-.072.223-.124.615-.169.756a10.857,10.857,0,0,0,2.268-1.735,10.158,10.158,0,0,0-.551,1.214,7.187,7.187,0,0,0,2.626-1.7c-.084.307-.087.626-.193.931a14.413,14.413,0,0,0,1.318-1.573c-.064.23-.076.475-.131.693.24-.193.785-.38,1.035-.589-.194.363-.238.854-.422,1.226a7.759,7.759,0,0,0,1.791-1.186c-.181.363-.224.827-.406,1.19a9.13,9.13,0,0,0,2.375-1.816c-.089.3-.1.879-.234,1.265a9.26,9.26,0,0,1,1.7-1.4c-.08.344.016.895-.06,1.194a9.367,9.367,0,0,0,1.755-1.732c-.072.242-.078.743-.19,1.065a16.219,16.219,0,0,0,1.8-1.7c-.053.238-.061.619-.115.86a10.575,10.575,0,0,0,1.873-2.373,9.579,9.579,0,0,1,.043,1.038,2.749,2.749,0,0,0,1.465-1.5c-.041.285-.008.762-.044,1A19.713,19.713,0,0,0,1315,439.8a5.124,5.124,0,0,1-.062,1.9,6.932,6.932,0,0,0,2.068-4.78,12.03,12.03,0,0,1,.354,2.889c.759-1.3.616-2.93.971-4.375.147.392.491.813.623,1.137a20.028,20.028,0,0,1,.1-2.219,16.811,16.811,0,0,1,.763,1.6,17.928,17.928,0,0,0-.043-2.7,4.536,4.536,0,0,1,.791,2.173c.625-1.018.224-2.625.476-3.83a4.927,4.927,0,0,1,.329.483c.253-1.05-.3-2.135-.4-3.209a9.314,9.314,0,0,1,1.011,1.574,6.675,6.675,0,0,0-.2-3.212c.155.074.293.218.435.293-.258-1.548-1.336-2.9-1.725-4.449a12.431,12.431,0,0,0,1.409.7c-.276-1.467-1.71-2.914-1.556-4.376a4.94,4.94,0,0,1,.558.181c-.176-.345-.087-.913-.176-1.194a6.048,6.048,0,0,1,1.322.275,4.1,4.1,0,0,1-.906-1.959c.248.147.6.241.855.389a5.82,5.82,0,0,1-.951-1.877c.339.214.789.3,1.135.5-.867-2.189-2.435-2.849-4.087-4.071a33.028,33.028,0,0,1,3.2.838,10.137,10.137,0,0,0-3.822-3.673,10.27,10.27,0,0,1,1.118-.321,8.809,8.809,0,0,1-1.436-.622,3.041,3.041,0,0,1,1.363-.329c-.814-.522-1.731-.979-2.054-1.9.347.038.513-.125,1.009.073-1.034-.631-1.166-1.6-.42-1.587a2.23,2.23,0,0,1-.916-.783c1.109-.2,2.476.641,3.6,1.011-.86-1.409-5.163-3.433-5.226-4.308.244.013.564-.019.821-.023-.447-.285-.787-.866-1.228-1.186a6.038,6.038,0,0,1,1.557-.252c-.651-.567-1.545-.994-2.083-1.573.3-.04.683-.237,1.05-.262-.855-.521-1.861-.891-2.782-1.336.943-.345,2.463.159,3.546.412a33.06,33.06,0,0,0-3.728-2.728c.48-.132.943-.5,1.443-.595-.451-.089-.909-.433-1.357-.536.229-.121.579-.547.868-.678a3.007,3.007,0,0,0-2.1-.319,5.128,5.128,0,0,1,.553-.472,11.018,11.018,0,0,0-1.5.124c.329-.232.55-.615.915-.856-.362.023-.927-.137-1.3-.1a5.293,5.293,0,0,1,3.764-1.589,6.887,6.887,0,0,0-4.851-.386,6.237,6.237,0,0,1,2.491-1.22c-1.19-.2-2.924-.214-3.85.6.046-.072.262-.54.269-.554a2.268,2.268,0,0,0-.325.169c.293-.355.553-.873.826-1.223-.261.22-.584.413-.852.66.323-.47.64-1.079.979-1.563a2.326,2.326,0,0,0-1.682,1.4,25,25,0,0,0,.7-3.386c-1.126.59-1.626,2.126-2.187,3.354.027-.287.036-.589.078-.868-.035-.058-.234.134-.264-.017-.095-.241-.032-.542-.143-.751-.089.161-.264.374-.37.565a5.411,5.411,0,0,0-.232-1c-.241.369-1.479-.521-1.824-.343-.137-.356-1.662-.5-1.6-.933a5.357,5.357,0,0,0-.825.6c.046-.215.049-.489.092-.672-.222.088-.371.356-.6.476-.119.1-.147-.179-.207-.158-.152.236-.346.472-.511.708.376-1.3,1-2.785.541-3.966a24.392,24.392,0,0,0-1.686,3.021,2.325,2.325,0,0,0-.353-2.165c-.057.589-.221,1.254-.283,1.822-.045-.363-.157-.718-.214-1.054-.019.445-.166,1-.173,1.466a1.849,1.849,0,0,0-.139-.34c0,.013-.147.508-.154.589-.167-1.221-1.485-2.341-2.519-2.969a6.189,6.189,0,0,1,1.084,2.55,6.9,6.9,0,0,0-3.918-2.881,5.284,5.284,0,0,1,1.8,3.663c-.262-.276-.792-.526-1.049-.777.116.418.037.856.132,1.248a10.935,10.935,0,0,0-1.051-1.076,5.306,5.306,0,0,1,.112.72,3.018,3.018,0,0,0-1.8-1.137c.132.291.113.84.213,1.085-.41-.218-.978-.256-1.375-.485.313.4.422.981.7,1.393a32.817,32.817,0,0,0-4.6-.376c.983.52,2.464,1.131,2.948,2.008-.987-.264-1.991-.643-2.976-.813.266.258.422.66.623.889-.786.084-1.741-.179-2.6-.173.483.323.688.87,1.008,1.2-.542-.045-1.179.171-1.7.093.187.175.41.41.6.556-.62.621-5.2-.663-6.77-.163,1.089.454,2.676.716,3.382,1.591a2.259,2.259,0,0,1-1.206-.005c.571.476-.161,1.125-1.356.925.506.174.529.406.812.606a4.34,4.34,0,0,1-2.8.094c.532.387.574.777.819,1.138a8.761,8.761,0,0,1-1.495-.465,9.749,9.749,0,0,1,.636.975,10.064,10.064,0,0,0-5.294.276,32.639,32.639,0,0,1,2.969,1.46c-2.049-.158-3.665-.687-5.749.406.386.072.783.306,1.174.364a5.733,5.733,0,0,1-1.944.8c.286.052.619.216.906.27a4.189,4.189,0,0,1-1.973.884c.484.108.809.5,1.178.659-.246.154-.553.639-.909.789.167.086.377.121.535.222-.843,1.211-2.869,1.368-4.04,2.295a11.831,11.831,0,0,0,1.529.391c-1.306.921-3.012,1.235-4.22,2.236.158.033.356.016.521.061a6.677,6.677,0,0,0-2.248,2.3,8.812,8.812,0,0,1,1.794-.531c-.785.741-1.907,1.2-2.4,2.162.169-.028.379-.134.557-.152-.591,1.081-1.947,2.031-2.141,3.21A4.572,4.572,0,0,1,1255.51,409.307Z" transform="translate(-1253.047 -378.389)"/>
              <path id="Pfad_290" data-name="Pfad 290" class="cls-13" d="M1317.83,404.787a3.329,3.329,0,0,0,.753.26A1.665,1.665,0,0,0,1317.83,404.787Zm-33.989-12.664a1.723,1.723,0,0,0-.734-.3A3.426,3.426,0,0,0,1283.841,392.123Zm-17.571,16.521a14.639,14.639,0,0,0-1.5,1.647,14.153,14.153,0,0,1,1.364-.576,17.221,17.221,0,0,1-1.145,1.421c.264-.129.706-.2,1.014-.362-.558,1.085-1.536,2.017-1.755,3.228a9.861,9.861,0,0,1,1.793-1.592,5.556,5.556,0,0,0-1.279,4.079,4.072,4.072,0,0,1,.993-1.2,15.721,15.721,0,0,0-.576,2.378c.1-.165.387-.44.514-.64a2.2,2.2,0,0,0,.123,1.722,7.814,7.814,0,0,1,.587-.619,8.6,8.6,0,0,0-.1,2.486c.1-.177.3-.419.4-.6a12.7,12.7,0,0,0,.216,2.033c.1-.26.377-.57.459-.761a7.443,7.443,0,0,0,.175,2.023c.117-.228.476-.512.612-.77a7.8,7.8,0,0,1,.329,1.788c.121-.311.428-.672.538-.909a7.452,7.452,0,0,0,.53,2.416c.081-.323.306-.637.384-.961a6.5,6.5,0,0,0,.5,1.709c.082-.328.325-.656.4-.991.046.268.289.68.342.931.082-.166.208-.325.292-.5a11.9,11.9,0,0,0-.014,1.684c.1-.241.271-.443.376-.678a6.043,6.043,0,0,0,.755,2.479,7.048,7.048,0,0,0,.307-1.052,9.031,9.031,0,0,0,.505,2.306c.049-.116.232-.382.3-.558a12.221,12.221,0,0,0,.855,1.973c.045-.3.242-.635.271-.957a5.205,5.205,0,0,1,.188.507c.011-.072.129-.351.178-.48a2.125,2.125,0,0,0,.464,1.356c.076-.21.2-.427.268-.643a3.405,3.405,0,0,0,.666,1.749c.953-.688,1.352.942,1.577,1.7.1-.341.414-.763.495-1.154.065.421.324.819.422,1.218.2-.59.354-1.207.6-1.783.032-.04.171.082.22.063a3.05,3.05,0,0,1,.251-.647c.045,1.072.323,2.123.441,3.189.092-.38.317-.731.417-1.1.217.647.261,1.532.491,2.216.1-.333.323-.661.406-1a9.167,9.167,0,0,0,.293,1.371c.066-.284.475-.769.568-1.079a3.322,3.322,0,0,1,.807,1.545c.115-.406.5-.845.638-1.261a7.207,7.207,0,0,1,.175,1.845,5.365,5.365,0,0,1,.589-1.051c.466.777-.3,1.551.253,2.309.057-.058.116-.033.114.046.917-.215.842-1.3,1.7-1.581a5.1,5.1,0,0,1-.244,1.178,7.671,7.671,0,0,1,1.34-1.279c-.161.4-.161.984-.337,1.372a3.269,3.269,0,0,1,1.622-.642c-.135.292-.141.926-.277,1.19a9.539,9.539,0,0,0,1.115-.848c-.16.313-.2.708-.351,1.022.625-.366,1.235-1,1.821-1.352-.166.342-.223.757-.4,1.1.783-.731,1.691-1.339,2.421-2.121a3.241,3.241,0,0,1-.234.652c.024.047.214.044.209.094-.19.6-.473,1.17-.714,1.743.337-.24.791-.368,1.113-.647-.189.349-.228.877-.375,1.2.667-.433,2.034-1.4,2.3-.259a3.445,3.445,0,0,0,1.652-.888c-.1.205-.14.455-.221.659a2.117,2.117,0,0,0,1.238-.723c-.049.131-.144.418-.182.485a4.334,4.334,0,0,1,.473-.262c-.182.262-.256.636-.415.9a12.08,12.08,0,0,0,1.935-.931c-.062.184-.1.5-.133.619a8.983,8.983,0,0,0,1.892-1.409,6.464,6.464,0,0,0-.459.994,5.906,5.906,0,0,0,2.189-1.381c-.068.248-.071.514-.154.763a12.063,12.063,0,0,0,1.091-1.288c-.053.187-.06.392-.1.57.2-.155.653-.3.868-.479-.166.3-.2.708-.35,1.006a6.252,6.252,0,0,0,1.494-.963c-.148.3-.184.68-.335.981a7.662,7.662,0,0,0,1.983-1.482c-.076.25-.076.724-.19,1.038a7.6,7.6,0,0,1,1.422-1.136c-.066.283.018.737-.04.984a8.046,8.046,0,0,0,1.453-1.417c-.06.2-.06.609-.151.875a12.924,12.924,0,0,0,1.492-1.393c-.038.2-.046.514-.087.71a8.825,8.825,0,0,0,1.555-1.939,7.947,7.947,0,0,1,.036.851,2.209,2.209,0,0,0,1.223-1.224c-.034.234,0,.629-.031.822a15.472,15.472,0,0,0,1.12-2.179,4.056,4.056,0,0,1-.038,1.562,5.521,5.521,0,0,0,1.7-3.923,9.929,9.929,0,0,1,.314,2.382c.629-1.062.5-2.406.784-3.591.129.324.416.668.531.937a17.033,17.033,0,0,1,.066-1.824,13.711,13.711,0,0,1,.654,1.326,14.735,14.735,0,0,0-.055-2.221,3.716,3.716,0,0,1,.678,1.793c.513-.832.17-2.156.373-3.148.107.109.184.287.279.4.2-.864-.266-1.757-.359-2.644a7.813,7.813,0,0,1,.855,1.305,5.354,5.354,0,0,0-.186-2.645c.13.062.251.179.366.244-.223-1.274-1.141-2.4-1.474-3.672a9.464,9.464,0,0,0,1.186.585c-.24-1.2-1.455-2.408-1.332-3.611a4.739,4.739,0,0,1,.464.153c-.145-.286-.078-.751-.152-.983a5.409,5.409,0,0,1,1.113.236,3.434,3.434,0,0,1-.777-1.621c.206.126.511.206.721.329a4.8,4.8,0,0,1-.81-1.551c.283.177.662.25.957.414-.744-1.809-2.065-2.36-3.455-3.376.923.119,1.785.505,2.689.713a8.563,8.563,0,0,0-3.229-3.05,7.616,7.616,0,0,1,.934-.254,8.25,8.25,0,0,1-1.207-.526,2.581,2.581,0,0,1,1.144-.26c-.69-.434-1.46-.817-1.74-1.58.295.03.43-.1.85.066-.872-.526-.989-1.324-.364-1.308a1.892,1.892,0,0,1-.772-.651c.926-.155,2.081.547,3.023.856-.729-1.164-4.35-2.857-4.406-3.582.2.013.47-.008.683-.013-.375-.238-.668-.716-1.034-.983a5.191,5.191,0,0,1,1.3-.2c-.547-.473-1.3-.826-1.749-1.307.246-.033.567-.192.876-.21-.72-.435-1.569-.744-2.339-1.118.784-.277,2.063.151,2.971.362a28.451,28.451,0,0,0-3.144-2.27c.4-.1.787-.408,1.208-.481-.38-.074-.761-.361-1.145-.449.2-.1.487-.446.73-.554a2.621,2.621,0,0,0-1.768-.275,4.5,4.5,0,0,1,.459-.386,9.77,9.77,0,0,0-1.254.095c.271-.189.458-.5.763-.7-.3.019-.779-.117-1.094-.09a4.386,4.386,0,0,1,3.147-1.28,5.913,5.913,0,0,0-4.071-.351,5.175,5.175,0,0,1,2.077-.987,4.243,4.243,0,0,0-3.217.468c.036-.056.212-.444.217-.453a1.621,1.621,0,0,0-.268.135c.242-.287.453-.713.684-1-.222.179-.487.335-.712.537.272-.384.528-.885.809-1.279a1.891,1.891,0,0,0-1.4,1.142,20.533,20.533,0,0,0,.567-2.781c-.94.478-1.35,1.738-1.81,2.742.017-.232.025-.483.059-.714-.031-.046-.2.112-.222-.012-.08-.2-.03-.448-.129-.623-.073.135-.215.31-.305.463a3.718,3.718,0,0,0-.2-.818c-.2.3-1.246-.44-1.531-.294-.122-.295-1.4-.422-1.347-.779a4.264,4.264,0,0,0-.693.488c.039-.175.042-.4.073-.552-.185.072-.305.291-.5.389-.1.078-.125-.151-.178-.133-.124.2-.283.388-.419.58.3-1.065.82-2.284.425-3.26a19.806,19.806,0,0,0-1.395,2.473,1.9,1.9,0,0,0-.312-1.783c-.047.485-.178,1.031-.225,1.5-.038-.3-.135-.594-.183-.87-.016.364-.134.828-.139,1.2a1.494,1.494,0,0,0-.114-.28c0,.013-.125.416-.127.485a4.267,4.267,0,0,0-2.132-2.458,5.185,5.185,0,0,1,.929,2.106,5.9,5.9,0,0,0-3.311-2.4,4.394,4.394,0,0,1,1.541,3.026c-.221-.227-.67-.436-.889-.647.1.348.039.7.124,1.03a9.372,9.372,0,0,0-.889-.894,5,5,0,0,1,.1.594,2.6,2.6,0,0,0-1.518-.951c.114.241.1.694.19.894-.346-.18-.825-.21-1.161-.4.269.329.359.811.6,1.148a28.8,28.8,0,0,0-3.864-.34c.826.436,2.07.949,2.485,1.674-.827-.221-1.675-.545-2.5-.689.222.216.362.546.531.736-.66.065-1.462-.159-2.185-.159.411.266.584.718.856,1-.452-.041-.987.131-1.424.063.156.143.35.339.507.463-.517.508-4.362-.584-5.675-.179.915.382,2.248.605,2.845,1.33a1.922,1.922,0,0,1-1.012-.013c.485.4-.125.924-1.13.751.427.147.448.34.687.5a3.635,3.635,0,0,1-2.348.06c.447.322.482.643.693.947a7.789,7.789,0,0,1-1.253-.4,8.2,8.2,0,0,1,.536.8,8.58,8.58,0,0,0-4.435.193c.816.434,1.728.709,2.5,1.222-1.72-.145-3.078-.588-4.82.295.328.066.66.26.991.309a4.766,4.766,0,0,1-1.628.643c.243.046.521.183.762.225a3.4,3.4,0,0,1-1.648.716c.408.095.683.417.995.552-.209.123-.462.521-.76.645a4.14,4.14,0,0,1,.45.187c-.691.989-2.394,1.1-3.368,1.86a11.367,11.367,0,0,0,1.278.333c-1.085.746-2.512.993-3.521,1.811.135.027.3.017.443.054a5.421,5.421,0,0,0-1.871,1.877,7.673,7.673,0,0,1,1.5-.421c-.652.6-1.6.974-2,1.761.14-.022.313-.11.465-.119-.489.886-1.619,1.658-1.778,2.626A3.808,3.808,0,0,1,1266.27,408.644Z" transform="translate(-1256.813 -380.026)"/>
            </g>
            <g id="Gruppe_63" data-name="Gruppe 63" transform="translate(18.153 16.333)">
              <path id="Pfad_291" data-name="Pfad 291" class="cls-13" d="M1289.53,412.348c-3.164.29-5.332-3.759-9.139-3.407a28.852,28.852,0,0,1,8.267,5.445Z" transform="translate(-1280.391 -404.587)"/>
              <path id="Pfad_292" data-name="Pfad 292" class="cls-13" d="M1297.251,415.761c1.192-.458,2.314-.5,3.333-1.449-.1-.135-.333-.086-.455-.21.124-.27.45-.548.514-.837-.011-.076-.224-.08-.222-.02.964-1.74,1.8-2.981,1.729-4.942-.075.406-.2.753-.31,1.161-.021.078-.024.08,0,.006a5.053,5.053,0,0,0-.294-2.955c-.1.226-.048.414-.127.613-.091-.412-.283-.852-.362-1.243.021.389-.07.943-.052,1.328a17.112,17.112,0,0,0-.636-1.62c.044.335.005.739.028,1.045a7.746,7.746,0,0,0-3.21-4.245,4.068,4.068,0,0,1,1.324,2.251,4.459,4.459,0,0,0-1.917-1.618,9.967,9.967,0,0,1,.557,1.23,10.338,10.338,0,0,0-2.771-1.7c.127.143.349.445.476.6a3.606,3.606,0,0,0-2.161-.444,7.33,7.33,0,0,1,.89.593,2.6,2.6,0,0,0-2.229.086c.435.149,1.186.511,1.458.56a7.553,7.553,0,0,0-2.907.23c.531.188,1.064.453,1.6.589a3.421,3.421,0,0,0-3.531.794,7.323,7.323,0,0,0,1.69.083,1.827,1.827,0,0,0-1.883.433,12.685,12.685,0,0,0,1.875.474,8.027,8.027,0,0,1-.777.29c.143.162.59.1.676.289a7.249,7.249,0,0,0-.943.438c.376.056.756.262,1.14.321-.278.047-.655.173-.937.226a4.965,4.965,0,0,1,.893.351,5.877,5.877,0,0,0-1.2.356,7.953,7.953,0,0,0,1.259.266,1.582,1.582,0,0,1-.564.137c1.808.434,2.145,1.454,2.492,3.048Z" transform="translate(-1282.879 -402.393)"/>
              <path id="Pfad_293" data-name="Pfad 293" class="cls-13" d="M1318.308,423.4c-.6-1.13-1.427-1.889-1.571-3.28.168-.031.306.154.483.139.081-.283.015-.708.156-.967.058-.052.224.086.179.126.414-1.945.592-3.427,1.927-4.867-.2.356-.337.7-.522,1.078-.028.078-.034.08-.007.006a5.062,5.062,0,0,1,2.158-2.043c-.074.238-.238.347-.306.545.333-.252.767-.458,1.081-.7-.264.279-.56.759-.83,1.04.492-.338,1.064-.536,1.546-.811-.254.227-.486.556-.7.773a7.733,7.733,0,0,1,5.2-1.108,4.044,4.044,0,0,0-2.476.834,4.453,4.453,0,0,1,2.507.031,9.944,9.944,0,0,0-1.227.566,10.3,10.3,0,0,1,3.208.527c-.192.025-.554.11-.751.143a3.63,3.63,0,0,1,1.927,1.074,7.735,7.735,0,0,0-1.065-.128,2.62,2.62,0,0,1,1.635,1.52c-.427-.173-1.231-.388-1.469-.53a7.65,7.65,0,0,1,2.041,2.077c-.521-.2-1.1-.355-1.592-.605a3.431,3.431,0,0,1,2.148,2.914,7.45,7.45,0,0,1-1.331-1.045,1.831,1.831,0,0,1,1.139,1.562,12.972,12.972,0,0,1-1.727-.87c.032.12.345.626.4.728-.212.029-.509-.307-.7-.223a7.167,7.167,0,0,1,.426.949c-.321-.2-.742-.295-1.072-.5.181.221.383.562.562.783a5.168,5.168,0,0,0-.906-.319,5.777,5.777,0,0,1,.678,1.06,8.215,8.215,0,0,1-1.129-.625,1.672,1.672,0,0,0,.335.473c-1.646-.854-2.567-.3-3.876.675Z" transform="translate(-1292.608 -406.031)"/>
              <g id="Gruppe_59" data-name="Gruppe 59" transform="translate(9.538 7.53)">
                <path id="Pfad_294" data-name="Pfad 294" class="cls-15" d="M1294.875,414.947a1.86,1.86,0,1,0,2.4-1.094A1.861,1.861,0,0,0,1294.875,414.947Z" transform="translate(-1294.758 -413.735)"/>
              </g>
              <path id="Pfad_295" data-name="Pfad 295" class="cls-13" d="M1329.752,427.47c2.2,2.3,6.487.646,9.139,3.409a28.785,28.785,0,0,0-9.809-1.3Z" transform="translate(-1296.758 -410.822)"/>
              <g id="Gruppe_60" data-name="Gruppe 60" transform="translate(26.715 13.929)">
                <path id="Pfad_296" data-name="Pfad 296" class="cls-15" d="M1324.238,425.888a1.861,1.861,0,1,1-1.094-2.4A1.861,1.861,0,0,1,1324.238,425.888Z" transform="translate(-1320.633 -423.375)"/>
              </g>
              <g id="Gruppe_62" data-name="Gruppe 62" transform="translate(13.905 17.666)">
                <g id="Gruppe_61" data-name="Gruppe 61">
                  <path id="Pfad_297" data-name="Pfad 297" class="cls-16" d="M1301.463,430.421c-.51,1.37.546,3.964,2.734,4.78s4.681-.457,5.194-1.829-.85-3.146-3.036-3.963S1301.977,429.045,1301.463,430.421Z" transform="translate(-1301.336 -429.004)"/>
                  <path id="Pfad_298" data-name="Pfad 298" class="cls-15" d="M1308.557,434.813a1.3,1.3,0,1,0,1.686-.789A1.315,1.315,0,0,0,1308.557,434.813Z" transform="translate(-1303.735 -430.664)"/>
                  <path id="Pfad_299" data-name="Pfad 299" class="cls-15" d="M1304.147,433.17a1.305,1.305,0,1,1-.762-1.7A1.318,1.318,0,0,1,1304.147,433.17Z" transform="translate(-1301.43 -429.805)"/>
                </g>
              </g>
            </g>
          </g>
          <path id="Pfad_300" data-name="Pfad 300" class="cls-13" d="M1332.846,467c-1.79-.43-4.221-1.942-6.075-2.523a32.751,32.751,0,0,0-7.285-1.892c-5.195-.385-7.02,4.512-8.735,8.51-1.2,2.8-7.754,16.15-3.043,17.719.064,2.577,2.351,6.238,4.688,4.434-.06.44.182.548.4.956,1.136,2.154,5.376,2.6,7.343.6.928,2.152,4.573.8,5.538-.72,1.03-1.611.846-5.9,1.139-7.823.674-4.43,4.2-10,6.494-9.966,1.564.016,2.23-5,2.462-5.826C1336.244,468.765,1332.846,467,1332.846,467Z" transform="translate(-1264.188 -406.288)"/>
          <g id="Gruppe_65" data-name="Gruppe 65" transform="translate(0 52.294)">
            <path id="Pfad_301" data-name="Pfad 301" class="cls-13" d="M1267.809,468.881c-.326-3.639-2.692-9.5-6.088-11.3-4.892-2.6-9.536.115-12.168,4.293a58.81,58.81,0,0,0-6.178,12.687c-.513,1.615-1.013,10.9,2.3,9.3a4.07,4.07,0,0,0,2.416,3.532c2.355.83,2.634-.233,3.59-1.4.3,1.8,2.61,1.406,4.227.586,1.409-.715,1.589-1.936,1.711-3.486,4.706.6,4.572-3.117,5.5-6.736.543-2.1,1.743-8.2,4.2-8.1Z" transform="translate(-1243.003 -456.563)"/>
          </g>
          <g id="Gruppe_66" data-name="Gruppe 66" transform="translate(1.993 74.599)">
            <path id="Pfad_302" data-name="Pfad 302" class="cls-1" d="M1326.957,509.578a4.771,4.771,0,0,1,.41-3.324c.031-.027.031-.024,0,0a4.1,4.1,0,0,0-1.053,3.73Z" transform="translate(-1272.957 -495.565)"/>
            <path id="Pfad_303" data-name="Pfad 303" class="cls-1" d="M1315.02,507.054a9.636,9.636,0,0,1,1.064-3.473c-1.131,1.039-3.127,3.018-1.83,3.866C1314.433,507.563,1315.02,507.054,1315.02,507.054Z" transform="translate(-1268.805 -494.673)"/>
            <path id="Pfad_304" data-name="Pfad 304" class="cls-1" d="M1308.187,500.793a3.471,3.471,0,0,1,1.312-2.6c-.846.367-2.363,1.4-1.991,2.235C1307.587,500.6,1308.187,500.793,1308.187,500.793Z" transform="translate(-1266.66 -492.861)"/>
            <path id="Pfad_305" data-name="Pfad 305" class="cls-1" d="M1264.333,494.367a5.693,5.693,0,0,1-.342-4.206,4.158,4.158,0,0,0,.208,5.209Z" transform="translate(-1251.778 -490.162)"/>
            <path id="Pfad_306" data-name="Pfad 306" class="cls-1" d="M1255.649,498.772a4.536,4.536,0,0,1-.569-2.87c-.535,1.055-.935,3.1-.243,4.039Z" transform="translate(-1248.851 -492.091)"/>
            <path id="Pfad_307" data-name="Pfad 307" class="cls-1" d="M1246.859,496c.14-1.067-.027-1.9.688-2.714a3.97,3.97,0,0,0-1.542,3.038Z" transform="translate(-1246.006 -491.211)"/>
          </g>
        </g>
      </g>
    </g>
  </g>
</svg>
