<svg xmlns="http://www.w3.org/2000/svg" xmlns:xlink="http://www.w3.org/1999/xlink" width="342" height="342" viewBox="0 0 342 342">
  <defs>
    <style>
      .cls-1, .cls-2 {
        fill: #fff;
      }

      .cls-2 {
        stroke: #707070;
      }

      .cls-3 {
        fill: #20ab62;
      }

      .cls-4 {
        opacity: 0.197;
        clip-path: url(#clip-path);
      }

      .cls-5 {
        clip-path: url(#clip-path-2);
      }

      .cls-6 {
        fill: #7a2222;
      }

      .cls-7 {
        fill: #fcf9eb;
      }

      .cls-8 {
        fill: #f77161;
      }

      .cls-9 {
        fill: #fc8b59;
      }

      .cls-10 {
        fill: #f6693b;
      }

      .cls-11 {
        fill: #7a5d7b;
      }

      .cls-12 {
        fill: #8e6c8f;
      }

      .cls-13 {
        fill: #703e13;
      }

      .cls-14 {
        fill: #f8f0e2;
      }

      .cls-15 {
        fill: #43200c;
      }

      .cls-16 {
        fill: #423b41;
      }

      .cls-17 {
        fill: #ff6d00;
      }

      .cls-18 {
        fill: #b1dddc;
      }

      .cls-19 {
        fill: #ff8a5f;
      }

      .cls-20 {
        fill: #fe764a;
      }

      .cls-21 {
        fill: #ffaa90;
      }
    </style>
    <clipPath id="clip-path">
      <circle id="Ellipse_38" data-name="Ellipse 38" class="cls-1" cx="171" cy="171" r="171" transform="translate(11368 -611)"/>
    </clipPath>
    <clipPath id="clip-path-2">
      <circle id="Ellipse_37" data-name="Ellipse 37" class="cls-2" cx="171" cy="171" r="171" transform="translate(10704 -534)"/>
    </clipPath>
  </defs>
  <g id="Gruppe_463" data-name="Gruppe 463" transform="translate(-36 -150)">
    <circle id="Ellipse_36" data-name="Ellipse 36" class="cls-3" cx="171" cy="171" r="171" transform="translate(36 150)"/>
    <g id="Gruppe_maskieren_4" data-name="Gruppe maskieren 4" class="cls-4" transform="translate(-11332 761)">
      <g id="Gruppe_120" data-name="Gruppe 120" transform="translate(11333.47 -352.41) rotate(-60)">
        <ellipse id="Ellipse_1" data-name="Ellipse 1" class="cls-1" cx="67.862" cy="47.472" rx="67.862" ry="47.472" transform="matrix(0.128, -0.992, 0.992, 0.128, 132.515, 134.611)"/>
        <ellipse id="Ellipse_2" data-name="Ellipse 2" class="cls-1" cx="47.472" cy="67.862" rx="47.472" ry="67.862" transform="translate(0 46.163) rotate(-22.658)"/>
        <ellipse id="Ellipse_3" data-name="Ellipse 3" class="cls-1" cx="67.862" cy="47.472" rx="67.862" ry="47.472" transform="translate(215.952 141.197) rotate(-42.658)"/>
        <ellipse id="Ellipse_4" data-name="Ellipse 4" class="cls-1" cx="67.862" cy="47.472" rx="67.862" ry="47.472" transform="matrix(0.976, -0.219, 0.219, 0.976, 280.395, 207.485)"/>
        <path id="Pfad_94" data-name="Pfad 94" class="cls-1" d="M-44.721,196.714c-6.493-9.724-18.259-28.767-22.663-45.031-2.365-22.2-13.949-41.7-33.181-51.648-17.543-9.071-37.9-8.348-56.128.124v-.011c-.118.061-.247.116-.368.176-.139.066-.281.132-.421.2-16.9,8.1-45.7,9.445-57.388,9.645-1.676-.055-3.354-.05-5.036.029l-.126,0,0,.011c-25.636,1.247-51.516,18.056-65.76,45.6C-305.8,194.5-295.27,239.7-262.273,256.757a59.97,59.97,0,0,0,37.88,5.612v0s29.48,3.641,62.948,32.547h0a59.979,59.979,0,0,0,26.478,27.664c33,17.064,75.965-.471,95.971-39.161C-23.211,252.895-26.45,218.327-44.721,196.714Z" transform="translate(312.955 71.827)"/>
      </g>
    </g>
    <g id="Gruppe_maskieren_3" data-name="Gruppe maskieren 3" class="cls-5" transform="translate(-10668 684)">
      <g id="Gruppe_88" data-name="Gruppe 88" transform="translate(10787.658 -501.815)">
        <path id="Pfad_308" data-name="Pfad 308" class="cls-6" d="M962.174,288c0,22.842-12.441,41.363-27.792,41.363S906.589,310.847,906.589,288s12.444-41.367,27.793-41.367S962.174,265.157,962.174,288Z" transform="translate(-849.815 -243.122)"/>
        <path id="Pfad_309" data-name="Pfad 309" class="cls-7" d="M978.042,650.68c5.431-50.973,4.153-101.965-14.709-131.929-20.513-24.483-74.8-27.1-96.932-4.97-22.228,22.227-25.805,81.38-23.513,136.9Z" transform="translate(-834.063 -304.865)"/>
        <path id="Pfad_310" data-name="Pfad 310" class="cls-8" d="M997.431,366.43c-22.3-48.192-55.266-46.453-55.266-46.453l-.165.2-4.631-1.6-2.476-15.624-31.7-9.46-2.481,25.085-5.3,1.834-.025-.029s-33.047-6.936-54.5,41.64c6.14,14.552,15.85,81.605,20.153,102.928,10.047,6.65,37.851,10.129,62.884,9.6,25.558-.538,74.994,85,46.164-15.051C974.022,438.1,991.541,381.089,997.431,366.43Z" transform="translate(-833.721 -254.601)"/>
        <g id="Gruppe_70" data-name="Gruppe 70" transform="translate(0 115.242)">
          <path id="Pfad_311" data-name="Pfad 311" class="cls-9" d="M1051.955,486.635l-28.006-.8s-6.945-41.7-4.159-55.442c1.684-8.332,13.535-24.258,18.149-28.874C1044.138,412.8,1051.955,486.635,1051.955,486.635Z" transform="translate(-877.385 -396.308)"/>
          <g id="Gruppe_69" data-name="Gruppe 69">
            <path id="Pfad_312" data-name="Pfad 312" class="cls-9" d="M841.043,394.616,860.5,446.954l-.167,37.887L902.2,527.328a27.211,27.211,0,0,1,4.415.014l9.425,2.181,17.588,4.729,5.268-2.029s1.542,5.891-6.147,8.394c-1.228.395-5.968.305-5.968.305l9.651,14.045c.6,1.352-.255,3.193-1.916,4.117a3,3,0,0,1-3.8-.309,3.923,3.923,0,0,1-2.443,3.844,3.357,3.357,0,0,1-3.657-.241c.392,1.476-.78,3.341-2.7,4.251-2,.938-4.06.489-4.6-1.009l-.292-.837a3.667,3.667,0,0,1-1.986,2.233,2.839,2.839,0,0,1-3.035-.178v0l-10.775-6.12-6.331-8.971-3.068-5.332c-6.929-4.855-53.114-37.712-59.272-55.743C827.413,475.617,841.043,394.616,841.043,394.616Z" transform="translate(-831.394 -394.616)"/>
            <path id="Pfad_313" data-name="Pfad 313" class="cls-9" d="M1003.791,511.716l-30.125,38.739a27.064,27.064,0,0,0-4.411.015l-9.426,2.18-17.586,4.731-5.27-2.033s-1.543,5.891,6.149,8.4c1.228.394,5.965.3,5.965.3l-9.649,14.048c-.6,1.351.258,3.19,1.918,4.114a3,3,0,0,0,3.8-.306,3.921,3.921,0,0,0,2.443,3.843,3.367,3.367,0,0,0,3.654-.24c-.39,1.471.781,3.339,2.7,4.252,2,.935,4.057.486,4.6-1.009l.293-.839a3.654,3.654,0,0,0,1.984,2.233,2.834,2.834,0,0,0,3.037-.177v0l10.774-6.118,6.334-8.973,3.065-5.334c6.93-4.853,50.373-38.158,47.757-57.029C1030.193,500.939,1003.791,511.716,1003.791,511.716Z" transform="translate(-857.227 -422.185)"/>
          </g>
        </g>
        <g id="Gruppe_72" data-name="Gruppe 72" transform="translate(43.267)">
          <g id="Gruppe_71" data-name="Gruppe 71">
            <path id="Pfad_314" data-name="Pfad 314" class="cls-6" d="M967.852,263.672c4.205,9.4,12.681,12.955,9.892,24.187-1.32,5.321-1.1,7.833,1.763,12.505,1.95,3.186,4.261,6.646,2.171,11.161-2.606,5.623-15.511,7.556-17.671,4.9C956,306.592,967.852,263.672,967.852,263.672Z" transform="translate(-906.468 -247.296)"/>
            <path id="Pfad_315" data-name="Pfad 315" class="cls-10" d="M966.713,283.7c6.182-5.375,4.187,5.512,2.729,8.348-.536,1.043-1.715,3.093-3.065,3.341Z" transform="translate(-907.729 -251.841)"/>
            <path id="Pfad_316" data-name="Pfad 316" class="cls-10" d="M918.721,283.7c-6.181-5.375-4.184,5.512-2.727,8.348.534,1.043,1.919,3.3,3.267,3.546Z" transform="translate(-895.017 -251.841)"/>
            <path id="Pfad_317" data-name="Pfad 317" class="cls-9" d="M956.129,278.515c0-7.121.394-18.429-2.675-23.138-3.567-5.482-10.351-5.982-16.187-5.982s-12.62.5-16.185,5.982c-3.068,4.708-3.157,16.032-2.675,23.138.613,9.071,3.663,15.3,10.585,20.919a13.145,13.145,0,0,0,16.554,0C952.467,293.814,956.129,287.586,956.129,278.515Z" transform="translate(-895.924 -243.798)"/>
            <path id="Pfad_318" data-name="Pfad 318" class="cls-6" d="M946.32,246.515c-4.7-4.7-10.568-3.489-16.453-4.239-19.381-2.468-25.333,11.316-27.171,15.43-4.6,5.092-10.656,9.791-9.1,16.588.968,4.23,3.93,7.1,3.124,11.763-.75,4.323-4.294,7.146-6.163,10.9-1.619,3.249-2.61,7.739-1.139,11.251,1.614,3.851,5.151,4.208,8.056,6.681,2.683,2.285,3.02,6.743,5.666,8.635,2.925,2.089,8.94.347,11.223-2.15.651-.714,1.668-2.174,1.393-2.462.576-2.181-.322-4.366-.069-7.045.315-3.338,2.482-6.009,2.981-9.27.079-.513-7.293-12.252-9.171-15.618a80.439,80.439,0,0,1,2.73-12.882c1.6-5.389,5.319-2.547,9.292-6.717,3.156-3.311,5.026-9.879,9.357-11.393,5.676-1.988,5.041-1.7,11.26,1.982,4.874,2.885,7.63,9.2,5.662,16.132,1.373-.7,2.265-1.692,3.678-1.09C955.2,258.069,949.437,249.63,946.32,246.515Z" transform="translate(-888.699 -241.982)"/>
          </g>
          <path id="Pfad_319" data-name="Pfad 319" class="cls-1" d="M951.844,297.055c0,2.715-5.016,8.169-11.2,8.169s-11.2-5.454-11.2-8.169c0-1.206,4.273,1.193,10.459,1.193S951.844,295.666,951.844,297.055Z" transform="translate(-898.679 -255.373)"/>
        </g>
        <g id="Gruppe_81" data-name="Gruppe 81" transform="translate(44.156 132.688)">
          <g id="Gruppe_73" data-name="Gruppe 73" transform="translate(34.989)">
            <path id="Pfad_320" data-name="Pfad 320" class="cls-11" d="M994.112,499.941c-1.088,2.293-7.178,5.052-9.4,3.831-5.287-2.893-9.091-22.327-9.091-22.327l11.678-3.746S996.606,494.687,994.112,499.941Z" transform="translate(-945.87 -432.414)"/>
            <path id="Pfad_321" data-name="Pfad 321" class="cls-12" d="M951.587,423.7c4.561,5.294,5.811,11.694,2.791,14.293s-9.161.416-13.723-4.878-5.81-11.694-2.791-14.294S947.028,418.4,951.587,423.7Z" transform="translate(-936.218 -417.721)"/>
          </g>
          <path id="Pfad_322" data-name="Pfad 322" class="cls-13" d="M971.545,491.772c-4.864,0-4.864.828-9.727.828s-4.862,2.569-9.726,2.569-4.863-1.377-9.726-1.377-4.863.86-9.725.86-4.863-.475-9.725-.475-4.864-.545-9.726-.545c-4.441,0-4.828.085-8.565.1q.935,1.393,1.973,2.708c2.1.027,3.08.075,6.594.075,4.862,0,4.862.593,9.725.593s4.863.811,9.726.811,4.864,1.137,9.726,1.137,4.862-2.184,9.725-2.184,4.863.36,9.726.36,4.862.321,9.726.321c.706,0,1.308.029,1.838.079a43.432,43.432,0,0,0,3.212-4.295A8.481,8.481,0,0,0,971.545,491.772Z" transform="translate(-893.49 -435.862)"/>
          <g id="Gruppe_74" data-name="Gruppe 74" transform="translate(33.715 12.71)">
            <path id="Pfad_323" data-name="Pfad 323" class="cls-14" d="M967.549,459.547c6.909,4.609,10.342,11.6,7.665,15.609s-10.446,3.524-17.355-1.083-10.342-11.6-7.666-15.611S960.639,454.938,967.549,459.547Z" transform="translate(-938.146 -439.746)"/>
            <path id="Pfad_324" data-name="Pfad 324" class="cls-15" d="M963.972,480.755c.727,2.942-.1,5.676-1.849,6.109s-3.755-1.6-4.482-4.544a17.435,17.435,0,0,1-.049-4.557C962.251,479.77,962.93,480.755,963.972,480.755Z" transform="translate(-940.15 -445.14)"/>
            <path id="Pfad_325" data-name="Pfad 325" class="cls-16" d="M983,476.12c.727,2.942-.1,5.677-1.849,6.107s-3.755-1.6-4.481-4.542.1-5.677,1.849-6.11S982.274,473.178,983,476.12Z" transform="translate(-944.79 -443.61)"/>
            <path id="Pfad_326" data-name="Pfad 326" class="cls-14" d="M958.455,448.09a10.038,10.038,0,0,1-10.019,10.057c-5.533,0-13.9-14.06-13.9-19.615,4.92-9.2,9.462.592,13.9-.5A10.037,10.037,0,0,1,958.455,448.09Z" transform="translate(-934.532 -434.555)"/>
          </g>
          <path id="Pfad_327" data-name="Pfad 327" class="cls-17" d="M946.93,425.305a13.293,13.293,0,0,0-4.26-4.35c-1.2-.71-4.624-2.212-5.868.3a21.947,21.947,0,0,0-1.137,5.98Z" transform="translate(-901.094 -418.245)"/>
          <g id="Gruppe_75" data-name="Gruppe 75" transform="translate(36.853 3.923)">
            <path id="Pfad_328" data-name="Pfad 328" class="cls-18" d="M942.253,424.7a1.783,1.783,0,1,1-1.783-1.783A1.783,1.783,0,0,1,942.253,424.7Z" transform="translate(-938.688 -422.917)"/>
            <path id="Pfad_329" data-name="Pfad 329" class="cls-15" d="M941.324,424.815a1.1,1.1,0,1,1-1.1-1.1A1.1,1.1,0,0,1,941.324,424.815Z" transform="translate(-938.796 -423.113)"/>
          </g>
          <path id="Pfad_330" data-name="Pfad 330" class="cls-12" d="M977.06,451.746c6.375,8.7,9.316,17.386,6.568,19.4s-10.141-3.41-16.515-12.111-9.315-17.386-6.568-19.4S970.686,443.045,977.06,451.746Z" transform="translate(-906.937 -422.987)"/>
          <g id="Gruppe_78" data-name="Gruppe 78" transform="translate(44.209 47.692)">
            <g id="Gruppe_76" data-name="Gruppe 76" transform="translate(0 4.504)">
              <path id="Pfad_331" data-name="Pfad 331" class="cls-15" d="M958.668,490.652l-2.216-.322,3.778-3.478,1.2,1.38Z" transform="translate(-950.396 -486.853)"/>
              <path id="Pfad_332" data-name="Pfad 332" class="cls-15" d="M958.85,492.479a1.9,1.9,0,1,1-1.874-1.575A1.745,1.745,0,0,1,958.85,492.479Z" transform="translate(-950.065 -487.845)"/>
              <path id="Pfad_333" data-name="Pfad 333" class="cls-15" d="M960.725,494.173l-5.383-1.183-5.591,1.183-1.32.54H962.1Z" transform="translate(-948.431 -488.356)"/>
            </g>
            <g id="Gruppe_77" data-name="Gruppe 77" transform="translate(17.677)">
              <path id="Pfad_334" data-name="Pfad 334" class="cls-15" d="M982.78,487.98l-1.889.779.069-6.015,2.252-1.856Z" transform="translate(-974.059 -480.888)"/>
              <path id="Pfad_335" data-name="Pfad 335" class="cls-15" d="M983.8,491.521a1.9,1.9,0,1,1-1.874-1.573A1.744,1.744,0,0,1,983.8,491.521Z" transform="translate(-973.853 -483.107)"/>
              <path id="Pfad_336" data-name="Pfad 336" class="cls-15" d="M984.136,494.135l-5.382-1.183-5.592,1.183-1.319.539h13.673Z" transform="translate(-971.843 -483.843)"/>
            </g>
          </g>
          <g id="Gruppe_80" data-name="Gruppe 80" transform="translate(0 1.356)">
            <path id="Pfad_337" data-name="Pfad 337" class="cls-19" d="M923.7,437.532a93.089,93.089,0,0,0-33.373,10.912c.652-.7,5.348-12.48,37.651-17.969a4.276,4.276,0,0,0-.427,3.85Z" transform="translate(-889.988 -422.202)"/>
            <path id="Pfad_338" data-name="Pfad 338" class="cls-20" d="M925.661,419.518s-24.6,0-35.442,19.823c-.771,1.409,0,6.418,0,6.418s8.486-12.551,37.651-17.969C924.876,422.8,925.661,419.518,925.661,419.518Z" transform="translate(-889.877 -419.518)"/>
            <g id="Gruppe_79" data-name="Gruppe 79">
              <path id="Pfad_339" data-name="Pfad 339" class="cls-15" d="M891.294,441.846q-.556.885-1.074,1.831c-.771,1.409,0,6.418,0,6.418s2.623-3.879,9.964-8.256C906.047,438.344,898.8,433.469,891.294,441.846Z" transform="translate(-889.877 -423.854)"/>
              <path id="Pfad_340" data-name="Pfad 340" class="cls-15" d="M933.262,419.715l3.863,8.337c.453-.089.911-.177,1.373-.261-2.994-4.993-2.209-8.273-2.209-8.273S935.153,419.518,933.262,419.715Z" transform="translate(-900.505 -419.518)"/>
              <path id="Pfad_341" data-name="Pfad 341" class="cls-15" d="M938.53,430.475c-.76.129-.642.126-1.373.261l-3.766,6.9c.558-.072.862-.1.862-.1l3.851-3.207A4.276,4.276,0,0,1,938.53,430.475Z" transform="translate(-900.537 -422.202)"/>
            </g>
          </g>
        </g>
        <g id="Gruppe_87" data-name="Gruppe 87" transform="translate(23.244 87.966)">
          <rect id="Rechteck_24" data-name="Rechteck 24" class="cls-21" width="119.029" height="21.958" transform="translate(3.958 156.043)"/>
          <g id="Gruppe_86" data-name="Gruppe 86">
            <g id="Gruppe_82" data-name="Gruppe 82">
              <path id="Pfad_342" data-name="Pfad 342" class="cls-14" d="M865.173,515.665l-.153-.951a224.848,224.848,0,0,1-2.84-35.956h0c0-33.059,6.912-62.994,18.154-84.762h0c11.227-21.734,26.881-35.48,44.526-35.507h0c17.644.027,33.3,13.773,44.525,35.507h0c11.242,21.768,18.151,51.7,18.154,84.762h0a225.028,225.028,0,0,1-2.839,35.956h0l-.156.951Zm118.408-1.133v0Zm-.966-1.134a223.109,223.109,0,0,0,2.658-34.64h0c0-32.74-6.866-62.371-17.9-83.722h0c-11.048-21.388-26.167-34.309-42.513-34.282h0c-16.347-.027-31.466,12.894-42.514,34.282h0c-11.035,21.351-17.9,50.982-17.9,83.722h0A223.017,223.017,0,0,0,867.1,513.4H982.615Z" transform="translate(-862.179 -358.489)"/>
            </g>
            <g id="Gruppe_83" data-name="Gruppe 83" transform="translate(23.959)">
              <path id="Pfad_343" data-name="Pfad 343" class="cls-14" d="M895.731,515.665l-.1-1.022c-1.117-11.331-1.72-23.382-1.72-35.884h0c.03-49.513,9.353-91.916,23.034-110.449h0c4.567-6.167,9.763-9.809,15.447-9.821h0c5.685.012,10.88,3.654,15.447,9.821h0c4.582,6.187,8.634,15.009,12.041,25.868h0c6.8,21.713,10.989,51.584,10.991,84.581h0c0,12.5-.6,24.553-1.719,35.884h0l-.1,1.022Zm72.3-1.133v0ZM967,513.4c1.046-10.957,1.61-22.587,1.609-34.64h0c.03-49.183-9.457-91.46-22.587-109.1h0c-4.369-5.891-9-8.915-13.626-8.9h0c-4.63-.011-9.26,3.013-13.627,8.9h0c-4.354,5.87-8.348,14.495-11.7,25.2h0c-6.714,21.407-10.889,51.1-10.887,83.9h0c0,12.052.563,23.683,1.61,34.64H967Z" transform="translate(-893.912 -358.489)"/>
            </g>
            <g id="Gruppe_84" data-name="Gruppe 84" transform="translate(46.029 0.422)">
              <path id="Pfad_344" data-name="Pfad 344" class="cls-14" d="M923.771,516.224l-.037-1.095c-.384-11.307-.591-23.336-.591-35.812h0c0-46.322,2.839-86.431,7.026-106.336h0c1.445-6.666,2.842-11.009,4.868-13.01h0a3.066,3.066,0,0,1,2.091-.923h0a3.062,3.062,0,0,1,2.091.923h0a7.97,7.97,0,0,1,1.5,2.1h0a34.343,34.343,0,0,1,2.507,7.19h0a196.158,196.158,0,0,1,4.114,25.691h0c2.332,21.618,3.771,51.43,3.771,84.363h0c0,12.476-.205,24.5-.589,35.812h0l-.039,1.095Zm25.62-1.133v0Zm-1.095-1.133c.359-10.961.553-22.59.552-34.641h0c0-46.205-2.85-86.306-6.977-105.87h0c-1.326-6.491-2.991-10.78-4.2-11.828h0c-.306-.282-.465-.306-.538-.306h0c-.073,0-.233.024-.537.306h0a5.829,5.829,0,0,0-1.052,1.51h0a32.282,32.282,0,0,0-2.316,6.693h0a194.431,194.431,0,0,0-4.056,25.375h0c-2.322,21.5-3.759,51.254-3.759,84.12h0c0,12.049.193,23.679.553,34.641H948.3Z" transform="translate(-923.143 -359.048)"/>
            </g>
            <g id="Gruppe_85" data-name="Gruppe 85" transform="translate(1.41 107.818)">
              <path id="Pfad_345" data-name="Pfad 345" class="cls-14" d="M864.046,503.556V501.29H986.72v2.266Z" transform="translate(-864.046 -501.29)"/>
            </g>
          </g>
        </g>
      </g>
    </g>
  </g>
</svg>
