<svg id="Ebene_1" data-name="Ebene 1" xmlns="http://www.w3.org/2000/svg" width="317.31037" height="521.30635" viewBox="0 0 317.31037 521.30635"><defs><style>.cls-1{fill:#7a5d7b;}.cls-2{fill:#8e6c8f;}.cls-3{fill:#7a2222;}.cls-4{fill:#8d2e2a;}.cls-5{fill:#43200c;}.cls-6{fill:#fe764a;}.cls-7{fill:#ff8a5f;}.cls-8{fill:#fff;}.cls-9{fill:#ffac27;}.cls-10{fill:#fdbb45;}.cls-11{fill:#5a392b;}.cls-12{fill:#ec1c24;}.cls-13{fill:#fd5e59;}.cls-14{fill:#2d2d2d;}</style></defs><path class="cls-1" d="M107.10383,521.30635c-8.4785-55.4629-11.7461-107.043-3.3731-139.96969,25.3243-7.25,83.3594,53.22649,83.3594,53.22649s5.5547,41.6123,8.4512,86.7432Z"/><path class="cls-2" d="M240.79723,521.30635h-87.3145c1.1582-29.126,3.625-62.0781,8.6699-92.8252-23.0742-15.18069-38.1426-39.82519-37.6601-40.31049,2.83-2.8291,130.4843-56.2432,134.0644-50.7754,17.9571,27.4336,18.1934,83.06729,11.3379,96.09469Z"/><polygon class="cls-3" points="235.715 152.345 212.608 165.596 185.282 154.707 187.354 124.962 236.659 120.8 235.715 152.345"/><path class="cls-4" d="M235.83233,111.21946c2.5469-9.91211,9.9297-24.6143,8.0859-32.3858-2.1386-9.0439-10.7832-12.7275-18.4082-15.3134-7.6308-2.5782-16.7343-4.8994-23.9277.9882-6.1738,5.0567-9.2422,21.2198-13.2461,30.6368a41.761,41.761,0,0,0-.5879,32.2675c1.9063,3.1641,4.6934,4.85259,8.1699,6.0899,3.2735,1.8242,18.2266,1.4092,21.6661.0586C229.22883,128.96846,232.59013,123.89526,235.83233,111.21946Z"/><path class="cls-5" d="M263.16633,84.41476c4.5703-9.5156-7-17.5772-9.2031-21.3926-7.9981-13.84281-22.8633-10.2656-26.7051-13.7773-16.1113-14.7412-24.2344-3.8731-24.1367-.7266.1035,2.9766.6465,3.0449.75,4.6172-8.4199.1113-12.9785,3.1758-10.8926,5.3838,1.0312,1.0889-8.5195,12.3916,1.4394,18.9404,0,0,9.3458-12.8398,12.6309-12.8535,4.1895-2.0723,8.5352,3.6797,8.5352,3.6797s10.6816,3.6914,11.3672,4.31249c1.246,1.13481,5.539-.24219,5.539-.24219,11.6231,10.1035,5.1406,32.2188,5.1406,32.2188s-.8671,16.0459-2.0293,31.457c2.5918-4.2119,12.8946-13.6465,17.7227-20.0088C261.90463,104.696,258.24253,94.64716,263.16633,84.41476Z"/><path class="cls-4" d="M237.63113,104.575c12.1133-5.3887,5.002,11.4628,1.6661,14.8515-1.2188,1.2481-5.2481,2.29689-7.209,2.0176Z"/><path class="cls-6" d="M93.58623,252.42256c8.7217-23.9404,27.5996-52.5068,30.0039-60.75,12.0547,10.8477,6.7881,49.4443.919,63.332C121.73863,271.95676,93.58623,252.42256,93.58623,252.42256Z"/><path class="cls-7" d="M278.17223,258.39326s30.705-57.9424,31.6855-67.8105c-5.6152-18.5308-53.7422-46.045-53.7422-46.045l-47.3984.2862s-35.3047-1.55861-46.2871,1.9668c-16.8594,5.4092-33.6485,30.626-38.8399,44.8818-3.3926,9.3203-4.8496,51.25979-4.8496,51.25979s-12.0859,123.93851-15.0098,138.40431c11.1895,8.1494,39.3887,18.4433,68.793,21.4189,29.4297,2.7295,88.584-4.25,101.1289-10.0986C273.56283,377.89816,278.17223,258.39326,278.17223,258.39326Z"/><path class="cls-4" d="M303.74253,274.92456c-.6846,21.1875-12.5996,46.25879-28.9444,68.7041-6.289,9.1611-14.9814,11.46969-24.0625,10.21869-21.1132-2.90819-14.7373-41.873-14.7373-41.873l16.0274-35.33689S298.23373,275.05535,303.74253,274.92456Z"/><path class="cls-6" d="M262.45933,248.51046l-10.4336,28.127s45.2509,20.1572,55.7177,9.1855c16.378-17.1719,2.1143-95.2402,2.1143-95.2402Z"/><path class="cls-8" d="M212.77183,111.55635c-1.2422,3.375-9.6914,7.96871-17.0332,5.26761-10.3438-3.8032-3.1309-6.668-6.4786-13.9141-.6718-1.4502,1.4415,2.2134,8.7852,4.9141C205.389,110.52416,213.40463,109.82926,212.77183,111.55635Z"/><path class="cls-9" d="M96.26493,341.48506c7.791,12.2549,11.3418,26.8447,19.8203,38.5547,17.7969-.0352,35.1504,4.1895,43.0215,9.3037,7.0899,8.707,18.6289,16.0098,13.2237,31.27339-7.0166,1.209-23.2959-4.94919-29.0782-17.44229-11.2158-2.91021-33.3134,1.5595-45.6777,7.4931-6.1396-16.5146-17.834-25.8984-26.832-34.1074Z"/><path class="cls-10" d="M90.19073,322.09156c9.3584,11.1054,14.8252,25.09079,24.79,35.5625,17.6338-2.4082,35.3965-.5401,43.8809,3.4794,8.1895,7.6827,20.5986,13.378,17.2793,29.2276-6.7939,2.1348-23.748-1.7949-31.1455-13.4063-11.5049-1.3857-32.8076,5.9942-44.2695,13.5245-8.2881-15.54591-21.1319-23.2842-31.1455-30.2217Z"/><path class="cls-9" d="M57.512,358.21456c.9346,32.1133-28.5996,44.0772-39.7354,70.25389,2.2881-1.1533,6.5098-1.6172,8.9805-2.7685a202.41885,202.41885,0,0,0-4.8721,71.1923c27.9961-1.6435,48.3692-5.6093,61.5538-32.0547,10.8046-21.6708,16.2089-49.54289,17.8066-73.51169.8437-12.6523.5527-27.0293-8.0039-37.1943Z"/><path class="cls-10" d="M87.21413,86.96166c-40.6982,29.3178-80.8662,109.2363-86.164,135.291-5.5752,27.415,11.5508,87.1973,39.456,93.80369,12.6553,2.99611,6.6358,19.36911,8.3506,31.85351,1.2774-1.7344,3.9766-2.8027,5.0635-3.999,2.8897,6.8447,4.2754,12.9111.0459,19.6123,4.7402-1.8955,9.9111-3.5527,14.4912-5.3477-1.1045,1.75389-1.0937,4.50589-2.2266,6.4317,20.9043,1.8408,40.3292,2.6387,55.127-12.9102,15.3506-16.1328,14.6055-33.2392,12.7529-54.18361a84.55924,84.55924,0,0,1,3.0723-32.26749c1.0801,1.663,41.167-123.8389,41.9023-127.3052Z"/><path class="cls-9" d="M79.66243,93.47926c2.4365,34.4526,80.5898,92.3027,105.1709,113.2255,4.7217-18.9941,9.7158-29.10541,5.3476-49.02,1.6778,2.43459,4.8155,4.9404,6.7598,7.9028.8135-17.8881-11.7207-42.5371-21.1016-57.6567,2.5215,1.7583,6.2286,3.1148,9.0176,5.46049-4.6513-12.03469-17.4121-32.11329-29.8984-47.16309C146.721,56.304,79.04233,84.67546,79.66243,93.47926Z"/><path class="cls-9" d="M177.87333,32.67156l-9.042-22.5c-5.0293,2.61578-11.3994,6.3535-15.0781,9.65578,4.3076,3.38522,10.9961,15.042,14.5596,19.29541Z"/><path class="cls-10" d="M168.83133,10.17157c-2.8964,7.4654-1.1386,15.70849-2.0332,23.56989,5.8057.0224,10.0879-1.2525,16.3076-1.8726-.7324-9.30569-3.7197-15.81589-10.6054-20.002C171.638,11.34057,168.83133,10.17157,168.83133,10.17157Z"/><path class="cls-9" d="M118.722,13.99977,139.04423.76927c2.6153,5.0278,5.6846,11.74608,6.8018,16.5615-5.4756.2974-17.6397,6.0034-22.9971,7.44Z"/><path class="cls-10" d="M139.04423.76927c-1.917,7.7739-8.084,13.51508-11.8681,20.4658-4.7637-3.3154-7.542-6.8188-12.2764-10.896,5.9414-7.1982,12.125-10.814,20.1699-10.289C136.07553.11547,139.04423.76927,139.04423.76927Z"/><path class="cls-10" d="M104.75713,38.70186c-1.9004.7046-4.1719.7871-6.1103,1.4819,4.2392-9.1503,28.0263-21.65619,38.2568-21.18159L123.45053,103.384l37.4287-76.8125c8.6474,5.48389,20.9433,29.37889,19.164,39.3062-1.1923-1.6836-2.999-3.0537-4.1533-4.7217,8.1787,16.0693,3.5469,30.4541-3.6718,45.81839,1.6416-3.92869,1.5419-8.66019-1.3877-11.79009-1.8164,9.145-10.8291,12.9532-16.1924,19.68309a27.10187,27.10187,0,0,0,2.7051-8.86669c-5.5684,4.1822-12.4893,9.503-18.9239,11.3286.9551-1.25291,1.334-2.98191,2.1621-4.3886-6.1572,2.8862-14.7978,4.1186-21.6894,5.833-.0166.1348-.042.2641-.0488.3994-.0909-.105-.1846-.2139-.2784-.3193-.1357.0322-.2734.0693-.4072.1025a6.54865,6.54865,0,0,1-.125-.7187c-4.6289-5.2676-10.7891-11.1016-14.0957-16.8643-.1309,1.626-.8135,3.2598-.75,4.8335-4.2197-5.187-6.832-13.5171-8.9922-20.1392a27.129,27.129,0,0,0-2.874,8.812c-.5264-8.5878-5.7188-16.8798-1.958-25.4126-4.1953.8819-6.9961,4.6978-7.9024,8.858C84.36843,61.60076,88.83333,47.16235,104.75713,38.70186Z"/><path class="cls-9" d="M110.26593,46.009c-6.3896,20.2442-3.6602,55.2271,11.8467,60.1221,15.5068,4.8945,37.916-22.1528,44.3056-42.3975,6.3917-20.2431-.998-40.62349-16.5068-45.52049C134.40753,13.32007,116.65653,25.76486,110.26593,46.009Z"/><path class="cls-9" d="M110.26593,46.009c-6.3896,20.2442-3.6602,55.2271,11.8467,60.1221,15.5068,4.8945,37.916-22.1528,44.3056-42.3975,6.3917-20.2431-5.0869-44.21769-19.2412-36.8554C144.63993,13.303,116.65653,25.76486,110.26593,46.009Z"/><path class="cls-9" d="M161.69173,44.87226c17.6006,5.8775,23.4053,25.9746,15.5918,41.4942,2.457-15.6993-3.3584-26.51711-14.9365-36.1114Z"/><path class="cls-9" d="M124.96813,33.27806c-17.7862-5.2905-34.0791,7.8305-36.5889,25.0239,7-14.2642,17.9726-19.7837,32.9599-20.9922Z"/><path class="cls-11" d="M148.22983,44.45186a2.94774,2.94774,0,0,0,1.9209,3.7002c1.5556.4907,6.0449-1.1855,6.0449-1.1855s-3.7432-.6875-5.2979-1.1788C149.346,45.29856,148.719,42.90056,148.22983,44.45186Z"/><path class="cls-11" d="M138.49153,41.37766a2.9514,2.9514,0,0,1-3.7012,1.9253c-1.5537-.4898-4.2666-4.4404-4.2666-4.4404s3.459,1.5864,5.0147,2.0771C137.08723,41.429,138.98073,39.82635,138.49153,41.37766Z"/><path class="cls-9" d="M124.93783,66.17456a11.74241,11.74241,0,0,0,13.5693,9.5713c-5.9834,2.7402-14.9599-.0059-18.1816-8.7759Q122.62968,66.57291,124.93783,66.17456Z"/><path class="cls-10" d="M153.48763,176.89226c-7.0625,7.7842-32.5801,33.709-32.5801,33.709,17.9902,1.5332,39.5566,13.666,53.0469,24.71-.9033-6.0703-1.6895-12.4404.1484-18.29591.1778-.37989.1651-.38669-.0371-.01659.2158,2.93459,1.6104,5.8818,2.1055,8.6318,10.4892-20.3515,32.4756-32.458,50.4697-45.3408a290.80621,290.80621,0,0,1,29.2627-18.7192c14.3438-7.9253,14.5303-8.3926,28.5615-2.9468,10.8838,4.227,36.5948.4414,32.3838-11.522-17.9599-51.019-132.1924-7.3271-144.5586-5.52541C172.29033,141.57635,174.56383,153.64326,153.48763,176.89226Z"/><path class="cls-4" d="M111.29623,56.72335c-1.8262-1.07329-3.5235.41061-3.4375,2.37451.0713,1.64749,5.8594,5.7256,6.7353,7.0444,1.958,2.9439,2.8985,4.31109,3.7022,7.771.6855,2.9556.0508,5.76909,2.4267,8.1368,2.2578,2.2509,3.9639,4.2031,7.0899,5.142l5.3838-16.3872Z"/><path class="cls-4" d="M159.18093,72.45576c2.1075.2188,2.5938,2.4199,1.3584,3.9502-1.0341,1.2837-8.1132,1.1348-9.6005,1.6768-3.3223,1.209-4.8907,1.7519-7.5899,4.062-2.3037,1.97259-3.4619,4.6142-6.7793,5.1113-3.1523.4736-5.6836,1.0337-8.7568-.064l5.3838-16.3872Z"/><path class="cls-12" d="M120.96813,60.81806c1.9589,2.9434-1.792,16.3438.583,18.7114,2.2588,2.251,3.9638,4.2027,7.0898,5.1421l5.3838-16.3877S120.09213,59.49876,120.96813,60.81806Z"/><path class="cls-12" d="M148.96513,70.01586c-3.3242,1.208-8.25,14.2226-11.5674,14.7192-3.1523.4736-5.6836,1.0337-8.7568-.0635l5.3838-16.3877S150.45243,69.47335,148.96513,70.01586Z"/><path class="cls-13" d="M125.07253,72.69846c2.9874-.6909,7.3809-1.3237,7.379,3.8511,10.9638-9.5855,8.2519,21.4287-2.5342,26.6826-3.8047,1.8515-11.293-.2305-12.3203-5.6133-1.545-8.0771,3.9863-21.1978,7.4755-24.9204Z"/><path class="cls-10" d="M133.04523,71.26535s-22.1846-5.86569-24.2783-14.418c2.1406-4.61329,17.6621-5.42629,26.0996-9.69039,1.293-.6533,6.334-.7129,6.334-.7129Z"/><path class="cls-10" d="M133.04523,71.26535s21.3389,8.43361,28.0986,2.78951c1.0127-4.9834-11.0029-14.8427-15.2675-23.2812-.6543-1.293-4.6758-4.3296-4.6758-4.3296Z"/><path class="cls-4" d="M143.59893,65.12476c-.8691,2.6499-5.5146,5.249-9.7353,3.8623-4.2198-1.3863-6.419-6.2344-5.5479-8.8833.8692-2.649,4.9981-3.67241,9.2178-2.2857S144.47,62.47626,143.59893,65.12476Z"/><path class="cls-14" d="M133.37823,63.614a2.4828,2.4828,0,1,1-1.5693-3.1733A2.50388,2.50388,0,0,1,133.37823,63.614Z"/><path class="cls-14" d="M137.44173,64.949a2.48218,2.48218,0,1,0,3.1465-1.624A2.50285,2.50285,0,0,0,137.44173,64.949Z"/><path class="cls-10" d="M133.50223,48.38346c-3.372,3.5914-3.9961,8.1788-5.8965,12.3326-2.9355-.8111-2.3681-5.0269-1.2158-7.0118,1.4883-2.56491,3.7198-3.7875,6.3242-5.0078Z"/><path class="cls-10" d="M146.24643,52.57056c.5859,4.8916-1.6328,8.955-2.5655,13.4267,2.8438,1.0879,4.8877-2.643,5.1377-4.9243.3213-2.9482-.75-5.2559-2.123-7.7827Z"/><path class="cls-4" d="M154.82453,247.77216l-19.2217,19.6826s69.4717,76.26659,110.0791,84.7823c27.8692-9.208,15.9024-54.7871,15.9024-54.7871Z"/><path class="cls-4" d="M147.11753,216.66186l1.2929-6.7139s-7.5605-1.26761-8.8828,8.4756c-.2021,1.5625.9834,7.3906.9834,7.3906s-17.5273-14.8096-23.2168-18.79c-9.2431-6.461-9.9424.082-9.9424.082l5.6973,6.4795-7.8594-6.52931c-2.708-2.248-6.0078-2.22069-7.3935.06051-1.0449,1.7168,2.0469,7.4512,3.4531,9.545-2.6494-1.98251-6.8135-2.8223-8.2656-.4248-1.5186,2.4941,10.1133,14.9257,10.1133,14.9257a3.81044,3.81044,0,0,0-5.6182.6329c-1.2402,1.8242,16.6387,18.2402,16.6387,18.2402a4.65133,4.65133,0,0,0,1.0781.6318l6.8838,8.76369,13.5234,8.02341,19.2217-19.6826,2.0723-9.9326Z"/><path class="cls-4" d="M85.15653,328.77606l6.9278-3.4092,26.1201-11.8134,4.3769-7.2686s7.7647,4.89449.9073,15.0049c-1.0928,1.6182-6.9551,6.083-6.9551,6.083l25.7734,5.9229c2.0742.88369,2.8731,3.706,1.7803,6.2978-.9473,2.2793-3.043,3.6338-4.9365,3.334,1.6933,1.3174,2.1103,4.0723.873,6.5137a5.549,5.549,0,0,1-4.6924,3.2646c1.9512,1.2217,2.3858,4.3652.9571,7.2002-1.4893,2.9463-4.4375,4.4385-6.5899,3.3311l-1.1924-.6123a4.89807,4.89807,0,0,1-.1816,4.3212,4.65459,4.65459,0,0,1-3.8623,2.7286v.0097l-19.2158,3.74909-16.6768-3.626-3.7744-1.18169c-33.7187,2.6094-45.2598-40.416-44.2891-52.56931C51.62433,316.05635,85.15653,328.77606,85.15653,328.77606Z"/></svg>