<svg id="Ebene_1" data-name="Ebene 1" xmlns="http://www.w3.org/2000/svg" width="298.56842" height="489.06029" viewBox="0 0 298.56842 489.06029"><defs><style>.cls-1{fill:#f6693b;}.cls-2{fill:#fc8b59;}.cls-3{fill:#43200c;}.cls-4{fill:#fff;}.cls-5{fill:#85c0c5;}.cls-6{fill:#61adaf;}.cls-7{fill:#8e6c8f;}.cls-8{fill:#7a5d7b;}.cls-9{fill:#fcf9eb;}.cls-10{fill:#f8f0e2;}.cls-11{fill:#2d2d2d;}.cls-12{fill:#3f3b3c;}</style></defs><polygon class="cls-1" points="169.441 110.177 116.563 110.177 116.77 70.388 169.23 70.388 169.441 110.177"/><path class="cls-1" d="M170.54864,54.60229c9.1885-8.39258,6.3008,8.69382,4.14942,13.13522-.79,1.63478-2.53132,4.8433-4.54592,5.2212Z"/><path class="cls-1" d="M116.72244,54.60229c-9.1855-8.39258-6.3081,8.69382-4.1543,13.13522.793,1.63478,2.5293,4.8433,4.54692,5.2212Z"/><path class="cls-2" d="M170.73514,60.82591c-.833-10.5981,1.6328-27.5053-2.9463-34.5288-5.3203-8.1802-15.4473-8.9282-24.1494-8.9282-8.7139,0-18.8369.748-24.165,8.9282-4.5723,7.0235-2.1055,23.9307-2.94438,34.5288-1.06542,13.5371,2.68068,22.836,13.00688,31.2207,3.0507,2.4698,10.1084,3.9668,14.1025,4.0279,3.9785-.0611,11.04-1.5581,14.0889-4.0279C168.05644,83.66191,171.80254,74.363,170.73514,60.82591Z"/><path class="cls-3" d="M180.45974,23.87429c-.4922-1.75878-7.0849-5.76518-9.5791-7.855-2.3633-1.97318-.1924-8.79008-6.3242-12.00828-7.6123-3.9986-7.0137,2.4599-21.9981-3.25-8.6054-3.2871-15.1152,5.1387-15.1152,5.1387s-9.7002,2.6333-10.9687,3.622c-4.1817,3.2754-6.1563,8.0323-8.3653,18.0694-1.3247,6.0503,2.4824,20.354,4.2798,24.75,0,0,3.187,2.4248,4.3335,2.26118-.2109-4.61668,1.8477-11.03168,1.8477-14.39988.9082-2.8872,7.8271-14.1753,11.0556-15.28612,3.4287-3.42918,9.8145.69532,13.0918.77782,1.7979.0434,12.1924-1.02782,16.0821-.0293,8.4355,2.16648,9.7968,16.2041,9.7968,16.2041s2.1543,8.1167,1.9522,12.73338c3.582-3.27738,5.2109-1.84768,5.2109-1.84768C176.22244,47.46851,182.92464,32.67851,180.45974,23.87429Z"/><path class="cls-4" d="M161.11214,62.74629c0,5.67192-9.3145,13.38772-16.8995,13.38772-7.583,0-16.4365-6.82472-16.4365-12.4951s8.5615,2.4668,16.1445,2.4668C151.50564,66.10571,161.11214,57.07591,161.11214,62.74629Z"/><path class="cls-5" d="M57.98074,489.06029h183.7622c-3.4355-57.85639-6.66988-109.89259-6.66988-109.89259H50.93334l1.7212,75.1621Z"/><polygon class="cls-6" points="139.649 489.06 126.553 460.482 98.527 440.794 131.762 440.254 139.649 489.06"/><path class="cls-7" d="M245.89824,128.66241c-8.4277-15.1543-50.457-30.6856-50.457-30.6856l-52.4385,5.5562-52.439-5.5562s-42.0293,15.5313-50.4575,30.6856c0,0-48.3696,77.03559-38.8701,102.82269,4.8511,13.1729,48.0937,27.0684,50.4673,27.8213.2324,41.8447.3999,108.499-.7701,119.8613,13.626,8.0362,58.2935,17.3184,92.0694,17.461,33.7754-.1426,78.44532-9.4248,92.07032-17.461-1.17192-11.3623-1.002-78.0166-.77152-119.8613,2.375-.7529,58.4141,19.9746,63.2647,6.8018C307.06624,240.321,245.89824,128.66241,245.89824,128.66241Z"/><path class="cls-8" d="M200.41194,175.906c-9.627,5.8418-11.2832-1.8906-22.543-1.8906-11.2617,0-11.2617-1.2783-22.5225-1.2783-11.2578,0-11.2578,2.4794-22.5205,2.4794-11.2617,0-11.2617-1.15721-22.52488-1.15721-11.26222,0-14.48922,10.27741-24.11772,4.43751-5.8418-3.5459-4.8964-13.8193.9434-17.3642,9.6274-5.8418,11.9102,3.7168,23.1704,3.7168,11.2612,0,11.2612.5888,22.521.5888,11.2608,0,11.2608-.3828,22.5205-.3828,11.2627,0,11.2627-2.66211,22.52442-2.66211,11.26368,0,12.03318-4.29589,22.63578-.501C207.59944,164.4314,206.25174,172.363,200.41194,175.906Z"/><path class="cls-8" d="M199.15806,206.0945c-9.626,5.84179-10.02932.4316-21.28912.4316-11.2617,0-11.2617-1.6113-22.5225-1.6113-11.2578,0-11.2578,3.56349-22.5205,3.56349-11.2617,0-11.2617-2.98249-22.52488-2.98249-11.26222,0-12.13042,7.209-21.76022,1.3672-5.8399-3.5459-6.8897-9.332-1.04978-12.8779,9.62688-5.83981,11.54588-2.7529,22.80608-2.7529,11.2612,0,11.2612,3.3642,22.521,3.3642,11.2608,0,11.2608-2.6357,22.5205-2.6357,11.2627,0,11.2627,3.4668,22.52442,3.4668,11.26368,0,12.18168-5.6924,22.97268-2.4746C207.06524,194.81029,204.99984,202.5515,199.15806,206.0945Z"/><path class="cls-8" d="M201.79664,242.6999c-9.6269,5.8399-12.6679-3.9023-23.9277-3.9023-11.2617,0-11.2617,4.1465-22.5225,4.1465-11.2578,0-11.2578-1.4736-22.5205-1.4736-11.2617,0-11.2617.4121-22.52488.4121-11.26222,0-12.72172,4.0488-22.35112-1.793-5.8398-3.543-5.3061-8.668.5342-12.2129,9.627-5.8398,10.5528.9238,21.813.9238,11.2612,0,11.2612-1.4697,22.521-1.4697,11.2608,0,11.2608-1.5361,22.5205-1.5361,11.2627,0,11.2627-2.3809,22.52442-2.3809,11.26368,0,11.28708.97849,21.67868,5.3213C207.60334,232.10329,207.63844,239.1521,201.79664,242.6999Z"/><path class="cls-2" d="M6.22294,237.6794c-8.9375,30.46489,11.2402,80.712,33.1074,97.1807,28.4766,22.7148,80.086,37.3525,109.6636,32.125,13.1894-2.3311,46.8848-18.6885,46.8848-18.6885l-37.043-5.7676-85.396-41.1542-21.7363-42.0684S11.45344,236.2185,6.22294,237.6794Z"/><path class="cls-9" d="M213.63164,310.7107c5.3262-2.3047,12.5781-2.543,18.332-1.9912-1.1504.5644-3.0908,2.1875-4.625,2.8056,2.3906-.6123,4.6299-.1914,6.8399-.0312-.3086.4248-1.0118,1.10939-1.3282,1.60739,1.8721-.06829,4.09872.96391,5.8594.97461-.2773.4922-.84468.8936-1.1514,1.40039,4.9756.46291,8.001,2.49321,12.84572,2.82521-.26662.34179-.96672.5527-1.23242.9072,2.252-.0156,4.3282.8965,6.5059,1.2129,0,.127-.89748.8584-1.082,1.1875,1.6416.2285,3.3418,1.4209,4.9062,1.875-.3838.417-1.2715.5098-1.80468.8311,1.05178.3174,2.67478,1.5742,4.041,1.99609-.24312.66991-1.19042.76271-1.70022,1.32811.8897.3936,2.6309,1.6514,3.6553,2.1328a14.955,14.955,0,0,1-2.2139.792c1.2491.4375,2.9444,2.0117,4.0879,2.4932-.2382.3164-1.7216.5341-2.1562.7978.4717.9805,1.7139.9756,2.1904,1.999-.0342.0108-2.2109,1.0088-2.2529,1.0665,1.1709.5283,2.76562,2.18259,3.8242,2.63859.1211.47761-1.1289.45711-1.1338,1.25981.6494.8594,1.9443,1.5898,2.6299,2.4316-.6494.43659-1.5742.2432-2.1484.68559,1.4062.17871,2.5341,1.12111,3.6201,1.43451-.5186.2813-1.8155,1.3799-2.5303,1.9307,1.333.5127,3.0234,2.71579,4.1943,3.3067a22.18626,22.18626,0,0,1-2.8095,2.24509c.7099.25781,1.8564.916,2.5429,1.23141-1.3877.6504-3.4687,2.9463-4.708,3.5654.91022.16019,1.795.461,2.70122.6211a1.26019,1.26019,0,0,1,.20208.6983c-1.4082.5576-2.3769,2.1387-3.3056,2.6933.7451.2539,1.68552.6084,2.4687.8487-.9394.29779-2.5439,1.7431-3.98918,2.081.88278.54979,1.80168,2.1543,2.67968,2.7481-1.7549.5488-4.1475,2.7578-5.5606,3.3183.6113.334,1.5713.9795,2.1231,1.295-1.65918.27339-3.8135,1.8281-5.4473,2.1455.3955.5546.8584.8086,1.1826,1.33389-3.5674.92091-6.77148,2.129-9.8506.83111-.332.8311-.6816,1.92289-.9365,2.75489a10.13516,10.13516,0,0,0-2.1055-1.71879c-.5703.5059-3.5546,3.5-3.1816,2.8369-.2432.50789-.668,1.879-.8701,2.3584a12.38555,12.38555,0,0,1-3.044-2.4853,5.37994,5.37994,0,0,0,.8819,1.8115,12.02247,12.02247,0,0,0-5.66208-3.8574c.06728.3682.34758,3.0684.18648,2.0195-.2637-1.4931-1.2871-2.79-1.711-4.17481-.5468.67781-2.1152,1.39751-2.7343,2.55961-.1319-1.3584-1.543-3.334-1.7657-4.76561-.7988.67771-3.3857,1.12791-4.2656,1.93941-.8261-3.23241-2.625-4.4951-5.4092-3.2715-1.8613-.8867-1.9052-1.0576-3.7226-1.3037-.2442-.74121-.0518-1.6445-.28808-2.40521-.67682-.26179-1.69242.497-2.28712.24311-2.2627-1.6152-.9277-1.4648-3.92288-1.5918-2.706-2.69331-6.59372-1.98831-7.05662-6.5537-3.9766.1895-10-8.3408-11.6221-11.89261-3.456-7.55169-1.1367-14.70309-2.584-22.43549Z"/><path class="cls-10" d="M225.31714,230.8992c2.1934,2.15909,4.7813,4.1914,6.8955,6.6006a17.18236,17.18236,0,0,1-2.2607-.752c1.1982,1.1562,2.9482,3.7539,4.2734,4.998.0254.1143-1.038.0704-1.1308.2022.6523,1.082,1.56052,2.084,2.126,3.1318-.5499-.2119-1.31648-.5703-1.9219-.7549,2.7637,2.7979,3.3916,6.4922,4.31742,10-.24422-.1269-.48252-.2597-.72662-.38961a60.64843,60.64843,0,0,0,3.6299,7.77251,43.68807,43.68807,0,0,0,.9082,5.22649c-.0137.33111-1.0869-1.17089-.9131-1.07029.6445,1.5.9131,3.4209,1.5918,4.8574a8.09609,8.09609,0,0,1-1.8369-1.7754c.0205,1.0684.4521,2.2032.55272,3.2666a19.99689,19.99689,0,0,1-2.00392-.9755c-.3516.69819.6846,1.7841.3037,2.4433-.5205-.0722-1.0703-.7109-1.5791-.665,1.3125,1.8613,1.7627,4.3545,2.584,6.332-.0049.0781-.6455-.1758-.76168.0986a41.92984,41.92984,0,0,1,3.06738,8.3936c-.5078-.5391-1.3457-1.1816-1.8535-1.6797,2.4365,5.8897,3.1982,11.7041,3.53412,17.86039-.56642-.87989-2.20412-2.38869-2.93062-3.61719.5302,2.5918.97562,5.2343,1.3379,7.834-.6807-1.3272-1.8868-2.7051-2.627-4.13481a75.42486,75.42486,0,0,1,1.2891,7.456,22.763,22.763,0,0,1-1.9698-2.62689,79.7274,79.7274,0,0,1,.417,8.7793c-.4541-.5078-1.7207-1.3848-2.2373-1.9082.4053,2.3584-.2539,4.67579-.4638,7.0205-.044.1914-1.1338.3008-1.3487.44529a37.38763,37.38763,0,0,1-.0127,4.625c-.4355-.542-.7773-1.20209-1.20208-1.80469a17.54591,17.54591,0,0,1-.26472,6.2588c-.4521-.8398-.8916-1.6748-1.4111-2.458a14.16143,14.16143,0,0,1-.5781,7.1836,17.08439,17.08439,0,0,0-1.4717-1.63571,68.56657,68.56657,0,0,1,1.0342,8.24511c-.8291-.166-.3887-.4678-1.1709-.8203.2226,2.206-.1172,4.8437-.0342,6.832-.3311-.6524-1.1797-1.7764-1.5059-2.3565.5899,2.5293.2247,4.8575-.0293,7.38769-.8378.06161-.6982-1.208-1.0654-1.61909a23.3097,23.3097,0,0,1-.33688,4.3057c-.51562-.8594-1.51172-2.0928-2.084-3.1172.24318,1.916-.332,4.0654-.27542,5.7812a30.25322,30.25322,0,0,0-1.55758-2.7158c.334,2.1357-.417,4.1631-.43552,6.2129-.3448.40429-.6036-.5742-.56448-.624-.43942,1.3056-1.93552,3.5722-2.47172,5.0547a9.1552,9.1552,0,0,1-.6709-1.7403,36.18591,36.18591,0,0,1-.6552,3.8985c-.1875,0-1.3106-.4239-1.168-.5772a22.66149,22.66149,0,0,0-4.4541,5.89259c-.37308.39061-.3633-.71489-.8652-.56449-.544,1.9444-1.5616,2.9248-2.42088,4.5469a15.2242,15.2242,0,0,0-2.61042,2.2119,1.29767,1.29767,0,0,1-.7109.0342c-.5899-.3018-3.1963-1.4394-3.4405-1.6133-.205.7696.0127,1.2461-.3945,1.9395a3.99316,3.99316,0,0,0-2.59668-1.5059,12.14773,12.14773,0,0,1-2.08792-1.875c-1.1406-.3935-.7207.7363-1.208.9151-.8515-.6612-1.1797-1.5577-2.1533-2.1827-2.67478.9541-2.9434,1.169-3.833-2.1337-.9873-.1084-1.96678.4511-2.9443.4277a32.20093,32.20093,0,0,0-.7129-3.3174,13.56867,13.56867,0,0,0-2.0479,3.03419c-.376-.15529-1.1279-1.68749-1.6201-1.98829-.2598.7041-.0859,1.6729-.6543,2.3047-.6191-1.3418-2.0908-2.6748-2.6699-3.9873-.1709.79689-.5547,1.7324-.7578,2.3681-.3291-1.9853-1.4141-3.6816-1.9434-5.4697-.36518-.0498-.1601,1.0283-.4189.8281-.794-2.1328-2.21-4.1962-3.0987-6.2343.0752.8242.1006,1.914.0879,2.46769-1.0957-3.98919-4.2646-7.44529-6.583-10.50679.0781.7002.2051,1.4824.2227,2.1729-.57518-1.2657-1.69918-2.8682-2.2041-4.0674-.294-.2569-.16308,1.3291-.45508,1.1318a37.68607,37.68607,0,0,0-2.47562-3.8262c-.5615.0801.26762,1.4258-.4062,1.2989-1.0323-1.0557-2.2979-2.2676-3.3555-3.3575-.7246-.3681-.4248,1.0948-.9942.9209-.9238-.7207-1.4326-1.75-2.3964-2.373-.6094.292,0,1.1748-.4463,1.6621a2.08791,2.08791,0,0,1-.792.2285c-.9707-.2988-.8985-1.6504-1.5811-2.0664-.7353.6856-1.1631,1.6543-1.7949,2.2139a8.47981,8.47981,0,0,0-1.2891-2.457c-1.3505,2.955-3.2851,4.1054-5.6279,1.8271-2.8115.7207-4.583,1.4336-6.5781,3.8037-.4375-.1348.0342-1.2041-.6758-1.3437-.7363.7187-2.4238,2.03219-3.3652,2.8525-.1221-.042-.2442-1.0742-.3008-1.0322-3.1318.9648-5.3604,1.2392-8.5234,2.1992.497-.4834.9121-1.36131,1.4921-1.8584-1.5468,2.8164-4.5878,3.9248-7.2627,4.0693-.3642-1.247-1.5976-2.3056-1.9707-3.49221-3.6035,5.51471-18.6191.89361-25.311,6.01181-.189-3.2334-2.1333-4.5547-5.2954-3.6944.894-.9736.894-1.8896,1.4199-2.6357-1.7046-.1738-4.1113-1.1494-5.9521-.88971a8.73015,8.73015,0,0,1,2.1206-.42569c-.7564-.6289-2.2193-1.001-2.96-1.6748.3213-.2842,1.6309-.0098,1.457-.7149a12.63919,12.63919,0,0,0-8.4365-1.2969,13.49014,13.49014,0,0,1,.7007-4.09571,1.80506,1.80506,0,0,1-.4985.44631c1.271-1.0312,2.14112-2.3906,3.5468-3.3037.2461-.7119-1.1855-.3623-1.1645-.8652,1.0659-.7198,2.19682-1.7471,3.2695-2.6123-.021-.0157-.228-1.4268-.2539-1.377-.1972.2695-1.0054,0-1.1113-.1484,1.2539-1.1875,1.8882-2.6709,2.8584-3.7481-.00488-.5595-1.1983-.3945-1.4522-.8974,3.0547-2.4815,1.9859-2.2608,1.7657-4.3135,2.64162-2.2451,2.6494-2.9082,2.4262-5.7295a21.41617,21.41617,0,0,0,2.75642-3.627,31.21374,31.21374,0,0,1,3.70208-1.163c.3164-.1885-.396-1.085-.0825-1.4317,1.44042-.2383,2.9248-.6953,4.3652-.8926-.4301-1.3291-.6064-.5957-1.3471-1.3603,1.1504-.3301,2.6645-1.0371,3.9638-1.457-.16348-.5518-1.0556-1.209-1.0351-1.7295,1.30962-.0469,3.2524-1.2139,4.7812-1.2705-.4057-.6895-.706-1.8145-1.14158-2.4883,1.80228-.1016,3.93558-1.32331,5.98338-1.0947-.207-.6739-.4663-1.4219-.684-2.1153,2.0595-.02831,4.2929-1.2744,6.3408-1.2441.1011-.2959-.82518-1.3838-.9341-1.669,1.3227-.2441,2.6973-.5146,3.977-.8359.2486-.3731-.601-.9717-.5752-.9951,1.2945-.5401,2.8785-1.44921,4.3394-2.0059,1.1201-1.0762,1.6973-2.25,4.0801-3.3711.34862-.6318-.751-.9541-.5488-1.4306,1.1406-.3477,2.4482-.4922,3.5957-.76661.1894-.16119-1.0127-.69629-.7852-.97559.9541-.02641,3.1582-.9541,4.3711-1.2178-.57518-1.0195-.4229-2.9404-.9951-3.9863,3.249-.5098,6.123-1.9776,5.3545-4.8574,1.4062-.1211,2.69242-1.004,4.081-1.2471-.3838-.59081-.4619-2.1651-1.3349-3.13381,3.5752-1.05269,2.2041-1.667,3.3369-3.04689,6.248-.3779,2.2295-23,4.7646-25.792Z"/><path class="cls-2" d="M236.93924,263.1707l-7.3076,13.3847-7.5459-3.7139-28.4531-12.8681-4.76858-7.917s-8.458,5.331-.98732,16.3437c1.1895,1.7637,7.5762,6.627,7.5762,6.627l-28.0752,6.4521c-2.2598.962-3.1299,4.0362-1.9395,6.8594,1.0323,2.4834,3.3155,3.959,5.377,3.6328-1.8438,1.4346-2.2988,4.4346-.95118,7.0948a6.04506,6.04506,0,0,0,5.11128,3.5566c-2.125,1.3301-2.5976,4.7539-1.042,7.8428,1.6221,3.209,4.834,4.8349,7.1788,3.6289l1.2988-.668a5.3341,5.3341,0,0,0,.1982,4.707,5.06755,5.06755,0,0,0,4.2071,2.9727v.0107l20.9316,4.084,18.166-3.9492,4.1113-1.2881c36.7305,2.8428,68.5987-40.6162,67.5411-53.8554C282.88744,228.7908,236.93924,250.2058,236.93924,263.1707Z"/><path class="cls-9" d="M211.65114,190.14529c-2.0879,5.60541,1.00692,11.93551,6.916,14.13771s12.3936-.55471,14.4825-6.1651c2.0888-5.6094,2.3505-12.1123-3.55958-14.3144C223.57694,181.60029,213.74194,184.5349,211.65114,190.14529Z"/><path class="cls-9" d="M227.34554,204.3708a11.96041,11.96041,0,0,1-8.8741.1563h0a11.94794,11.94794,0,0,1-6.5996-5.92381h0a10.7795,10.7795,0,0,1-.4707-8.55569h0c1.0918-2.918,4.1436-5.0762,7.6533-6.2559h0a16.55612,16.55612,0,0,1,10.5274-.23241h0a7.34066,7.34066,0,0,1,4.9463,6.085h0a17.55161,17.55161,0,0,1-1.2315,8.56441h0a10.77293,10.77293,0,0,1-5.9511,6.1621Zm2.0498-20.3203c-.0088,0-.0088-.0039-.0088-.0039h0a16.05587,16.05587,0,0,0-10.168.2442h0c-3.4102,1.14349-6.3242,3.2539-7.3281,5.9433h0a10.27036,10.27036,0,0,0,.458,8.1387h0a11.40173,11.40173,0,0,0,6.3105,5.6621h0a11.43774,11.43774,0,0,0,8.4766-.1484h0a10.27033,10.27033,0,0,0,5.6699-5.8604h0a17.15864,17.15864,0,0,0,1.2041-8.3027h0a6.824,6.824,0,0,0-4.6142-5.6729Z"/><path class="cls-9" d="M194.69514,184.1072c-2.08208,5.6045-8.5723,8.3662-14.4854,6.16309-5.9053-2.20119-9.0049-8.53319-6.9072-14.14159,2.0859-5.6075,6.1474-10.6905,12.0556-8.4883C191.26734,169.8396,196.78494,178.4968,194.69514,184.1072Z"/><path class="cls-9" d="M188.99194,190.3611a11.96542,11.96542,0,0,1-8.8701.15619h0a11.94868,11.94868,0,0,1-6.6025-5.92669h0a10.75724,10.75724,0,0,1-.4649-8.5508h0a17.5418,17.5418,0,0,1,4.6709-7.2861h0a7.35944,7.35944,0,0,1,7.72372-1.36141h0a16.52973,16.52973,0,0,1,7.80268,7.06841h0c1.877,3.18459,2.7754,6.8144,1.6914,9.7363h0a10.79956,10.79956,0,0,1-5.9512,6.1641Zm-.20888-.4844a10.25915,10.25915,0,0,0,5.665-5.8603h0c1.00588-2.6856.19038-6.1885-1.64552-9.2862h0a16.03856,16.03856,0,0,0-7.5322-6.8476h0a6.86228,6.86228,0,0,0-7.212,1.2734h0a17.11118,17.11118,0,0,0-4.5136,7.0664h0a10.28816,10.28816,0,0,0,.4472,8.1445h0a11.44768,11.44768,0,0,0,6.3125,5.6573h0a11.434,11.434,0,0,0,8.47862-.1475Z"/><path class="cls-10" d="M232.61794,205.6082a5.85869,5.85869,0,0,0,1.3496.4658A3.01786,3.01786,0,0,0,232.61794,205.6082Zm-60.8857-22.6856a2.99823,2.99823,0,0,0-1.32518-.5332A5.96729,5.96729,0,0,0,171.73224,182.9226Zm-31.8184,30.502a27.60426,27.60426,0,0,0-2.709,3.0332,25.93725,25.93725,0,0,1,2.458-1.0743,31.85559,31.85559,0,0,1-2.0839,2.6211c.4755-.2402,1.2753-.3828,1.82712-.6797-1.02052,1.9932-2.78912,3.7159-3.20312,5.9405a18.1723,18.1723,0,0,1,3.251-2.9453,10.42235,10.42235,0,0,0-2.3584,7.4863,7.50058,7.50058,0,0,1,1.8066-2.2246,28.08929,28.08929,0,0,0-1.0742,4.374c.1904-.3086.6963-.8232.9267-1.18551a4.13592,4.13592,0,0,0,.1983,3.15041,15.47647,15.47647,0,0,1,1.0635-1.1397,16.13367,16.13367,0,0,0-.2022,4.5547c.17382-.3291.542-.7725.7207-1.1016a24.03934,24.03934,0,0,0,.3662,3.7217c.1826-.4824.6787-1.0537.834-1.4014a14.09233,14.09233,0,0,0,.2813,3.6954c.2138-.4112.8613-.9434,1.1171-1.4151a14.35111,14.35111,0,0,1,.56452,3.2695c.21778-.5791.78028-1.2382.97358-1.67091a13.78271,13.78271,0,0,0,.9112,4.40921c.15622-.5927.5644-1.167.7177-1.7617a11.44613,11.44613,0,0,0,.8721,3.1221c.1553-.60261.5967-1.209.7236-1.8203.084.4941.5176,1.2412.6016,1.6972.1523-.3017.3828-.5908.5381-.914a21.861,21.861,0,0,0-.0576,3.084c.1865-.4424.499-.8174.6933-1.2461a10.935,10.935,0,0,0,1.31842,4.5283,13.71974,13.71974,0,0,0,.56738-1.92971,16.79206,16.79206,0,0,0,.872,4.21291c.0918-.207.4229-.7031.5577-1.0293a21.768,21.768,0,0,0,1.5087,3.6035c.0918-.5635.4454-1.1689.5098-1.752.0381.0313.293.8311.31742.92189.03218-.13279.24218-.64449.335-.88179a3.91138,3.91138,0,0,0,.80758,2.4785c.1357-.38771.3681-.7842.4961-1.1816a6.21152,6.21152,0,0,0,1.1679,3.1904c1.7217-1.2744,2.4082,1.7031,2.8008,3.0976.1787-.625.7617-1.4082.9141-2.121.1113.7714.5722,1.4921.7392,2.2226.3594-1.085.6534-2.2109,1.1055-3.2754.04882-.07031.3037.1553.3936.1201a5.46356,5.46356,0,0,1,.455-1.19141c.0606,1.96191.5528,3.87991.7471,5.82821.168-.6915.57812-1.336.7686-2.0147.3711,1.1826.455,2.7969.8466,4.0518.1836-.6172.58792-1.2207.7461-1.8448a17.23817,17.23817,0,0,0,.5049,2.5059c.1221-.52541.8692-1.417,1.0362-1.9863a6.00551,6.00551,0,0,1,1.4316,2.8222c.2139-.747.9043-1.5586,1.1592-2.32031a13.88,13.88,0,0,1,.29392,3.374,9.9062,9.9062,0,0,1,1.06638-1.92769c.8321,1.4141-.5527,2.8359.4268,4.22169.09082-.11039.206-.06739.206.07521,1.6524-.4024,1.5342-2.3838,3.0899-2.9151a9.34373,9.34373,0,0,1-.4678,2.1592,14.02941,14.02941,0,0,1,2.4375-2.35931c-.3076.74121-.3135,1.80761-.63478,2.51561a5.85278,5.85278,0,0,1,2.92388-1.1973c-.2451.541-.2686,1.6992-.5176,2.17869a17.85911,17.85911,0,0,0,2.0234-1.56539c-.29.5752-.3759,1.2998-.6445,1.8828,1.1201-.6875,2.2334-1.8643,3.2891-2.5078-.3028.6328-.4122,1.3916-.7354,2.0273,1.4238-1.3466,3.0479-2.4834,4.3789-3.91891a5.9382,5.9382,0,0,1-.4316,1.19631c.039.0859.3799.0781.373.1699-.3506,1.0947-.86718,2.1484-1.3076,3.2002.60642-.4463,1.4219-.69041,2.0078-1.1992-.3506.6416-.4209,1.6074-.6933,2.2012,1.208-.8008,3.6777-2.5977,4.1484-.5059a6.30553,6.30553,0,0,0,2.9726-1.64651c-.166.377-.25.833-.3994,1.21191a3.89339,3.89339,0,0,0,2.2344-1.3447c-.0898.2373-.2607.7666-.332.8867a8.41626,8.41626,0,0,1,.8525-.4834c-.3379.4834-.4648,1.1699-.76558,1.6504a21.95186,21.95186,0,0,0,3.49708-1.7344c-.1094.3369-.1866.9268-.2549,1.1397a16.36717,16.36717,0,0,0,3.417-2.6133,15.30974,15.30974,0,0,0-.8301,1.82809,10.81414,10.81414,0,0,0,3.956-2.56439c-.1269.4619-.1308.9433-.291,1.4023a21.84323,21.84323,0,0,0,1.9854-2.3691c-.0977.3467-.1143.7148-.1983,1.0439.3623-.291,1.1817-.5713,1.5586-.88771-.2929.54691-.3574,1.28711-.6347,1.84671a11.70787,11.70787,0,0,0,2.6982-1.7861c-.2724.5478-.3379,1.2461-.61228,1.7929a13.74706,13.74706,0,0,0,3.57808-2.7353c-.1338.459-.1455,1.3242-.3535,1.9062a13.95,13.95,0,0,1,2.56642-2.1035c-.12112.5176.02438,1.3477-.09082,1.7979a14.10879,14.10879,0,0,0,2.6426-2.6084c-.1084.3633-.1172,1.1181-.2871,1.6035a24.36069,24.36069,0,0,0,2.708-2.5684c-.0801.3584-.0918.9336-.1729,1.2959a15.93978,15.93978,0,0,0,2.8213-3.5742,14.47076,14.47076,0,0,1,.0635,1.5625,4.14,4.14,0,0,0,2.207-2.2598c-.0615.4288-.0117,1.1485-.0664,1.5069a29.73271,29.73271,0,0,0,2.04882-4.0029,7.72794,7.72794,0,0,1-.09372,2.8574,10.44466,10.44466,0,0,0,3.1143-7.2002,18.08723,18.08723,0,0,1,.5341,4.3515c1.1436-1.9531.9287-4.413,1.4619-6.5908.2217.5908.7393,1.2246.9385,1.7129a30.46346,30.46346,0,0,1,.1455-3.3418,25.26,25.26,0,0,1,1.14942,2.416,27.00588,27.00588,0,0,0-.06442-4.0634,6.829,6.829,0,0,1,1.19242,3.2734c.94138-1.5342.33788-3.9541.71678-5.7695a7.3019,7.3019,0,0,1,.4951.7265c.3809-1.582-.4492-3.2158-.6055-4.834a14.02756,14.02756,0,0,1,1.5225,2.37109,10.05368,10.05368,0,0,0-.29588-4.83789c.23438.1104.44238.3282.65528.4405-.3887-2.3321-2.0137-4.3653-2.5987-6.7012a18.82974,18.82974,0,0,0,2.1221,1.05659c-.415-2.20989-2.5752-4.38859-2.3438-6.59179a7.38921,7.38921,0,0,1,.8399.2715c-.2647-.5195-.1309-1.375-.2647-1.7978a9.12047,9.12047,0,0,1,1.9913.414,6.16924,6.16924,0,0,1-1.3653-2.9511c.3731.2207.9102.36319,1.2881.5859a8.76855,8.76855,0,0,1-1.4326-2.8281c.5117.3222,1.1885.4482,1.709.7461-1.3057-3.2979-3.668-4.292-6.1563-6.1319,1.6582.2041,3.209.8975,4.8242,1.2618-1.0214-2.1202-3.6904-4.3702-5.7578-5.5323a15.37558,15.37558,0,0,1,1.6846-.4834,13.27361,13.27361,0,0,1-2.1631-.9365,4.56749,4.56749,0,0,1,2.0527-.4951c-1.2255-.7871-2.6064-1.4746-3.0937-2.8672.5215.0566.7725-.1895,1.5195.1094-1.5576-.9502-1.7558-2.4131-.6328-2.3906a3.36068,3.36068,0,0,1-1.37988-1.1788c1.67-.2988,3.72948.96589,5.42288,1.5225-1.29588-2.123-7.7783-5.1709-7.8721-6.4893.36722.0196.8496-.02831,1.2373-.0341-.6728-.4297-1.1865-1.3047-1.8496-1.78621a9.0622,9.0622,0,0,1,2.3447-.37889c-.9814-.8545-2.3281-1.497-3.1377-2.36911.4551-.06059,1.0284-.35739,1.5811-.39449-1.2871-.7842-2.8037-1.3418-4.1904-2.0127,1.4199-.5186,3.7099.23919,5.34082.6201-1.711-1.7295-3.77152-2.6846-5.61622-4.1104.7236-.1982,1.4209-.7519,2.1728-.89551-.6797-.13379-1.3681-.65229-2.0439-.80659.3457-.1826.8721-.8242,1.3076-1.0225a4.528,4.528,0,0,0-3.1699-.4805,7.61713,7.61713,0,0,1,.833-.7119,16.70365,16.70365,0,0,0-2.2539.18749c.4951-.34959.8281-.92669,1.3789-1.289-.5449.03511-1.3975-.20609-1.9619-.14849a7.96977,7.96977,0,0,1,5.6699-2.39351c-2.3086-.92389-4.9531-1.44339-7.3086-.58109a9.39119,9.39119,0,0,1,3.752-1.83791c-1.793-.30469-4.4034-.32319-5.7989.90531.0694-.1084.3955-.8144.4063-.835a3.30421,3.30421,0,0,0-.4893.2549c.4414-.5351.833-1.3154,1.24512-1.8418-.39352.3301-.87992.6211-1.28322.9932.4873-.708.9639-1.625,1.4756-2.3535a3.49918,3.49918,0,0,0-2.5342,2.1113,37.76317,37.76317,0,0,0,1.0586-5.1016c-1.6953.8877-2.4502,3.20219-3.2949,5.0518.041-.43161.0547-.8877.1172-1.30661-.0518-.08789-.3525.20211-.3975-.02639-.1425-.3623-.0478-.8154-.2148-1.1318-.13378.2431-.3975.5634-.5567.8515a8.16526,8.16526,0,0,0-.3505-1.499c-.3633.55569-2.22758-.7852-2.7471-.5166-.2061-.5371-2.5049-.7481-2.4131-1.4043a7.97277,7.97277,0,0,0-1.2432.9033c.0684-.3242.0733-.7363.1377-1.01171-.33388.13281-.5586.53711-.9052.71681-.17868.1465-.22068-.2695-.3116-.2383-.2295.35649-.5214.7119-.7705,1.0664.56742-1.956,1.5137-4.1953.8155-5.9736a36.756,36.756,0,0,0-2.54008,4.5508,3.5001,3.5001,0,0,0-.53222-3.2608c-.0859.88669-.333,1.88869-.42578,2.7442-.06832-.5469-.23632-1.0801-.32322-1.5879-.0274.6699-.25,1.5136-.26078,2.209a2.78772,2.78772,0,0,0-.209-.5118c-.00192.0206-.22072.7647-.23242.8877-.2519-1.8388-2.2363-3.5263-3.7939-4.4716a9.32749,9.32749,0,0,1,1.6338,3.8408,10.396,10.396,0,0,0-5.9024-4.3399,7.96164,7.96164,0,0,1,2.71492,5.5186c-.39462-.416-1.19342-.793-1.58012-1.1719.1748.6309.0566,1.2891.1992,1.8809a16.32775,16.32775,0,0,0-1.583-1.6211,7.88492,7.88492,0,0,1,.16892,1.084,4.54294,4.54294,0,0,0-2.71382-1.7129c.1992.4375.1709,1.26559.3213,1.6347-.6172-.32811-1.4737-.3847-2.0713-.7314.4717.6055.6357,1.4785,1.0537,2.0996-2.3281-.1299-4.5108-.7568-6.9356-.5664,1.4795.7832,3.711,1.70309,4.4405,3.0254-1.4864-.3984-2.999-.9697-4.4824-1.2246.3994.3896.6347.9941.9375,1.3388-1.1836.126-2.6231-.26851-3.919-.2607.7285.4873,1.03612,1.3106,1.5195,1.8154-.81638-.0683-1.7763.2569-2.56338.1397.28218.2637.61808.6172.91008.8379-.9336.9365-7.833-.9981-10.1982-.2451,1.6406.6845,4.0312,1.0791,5.0947,2.3974a3.41059,3.41059,0,0,1-1.8154-.0078c.8603.7168-.24318,1.6934-2.043,1.3926.7627.2617.7969.6113,1.2227.91309-1.2832.72751-2.7754.34181-4.2207.14061.8007.583.8652,1.1699,1.2343,1.7148a13.27252,13.27252,0,0,1-2.2529-.7011,14.41344,14.41344,0,0,1,.958,1.46769c-2.3183-.48039-5.8144-.52629-7.97458.41511a49.0426,49.0426,0,0,1,4.47268,2.2002c-3.086-.23831-5.5206-1.0352-8.6592.6113.582.10939,1.1797.4609,1.76852.5479a8.62207,8.62207,0,0,1-2.92772,1.2021c.43072.0781.9316.3262,1.3643.4063a6.3049,6.3049,0,0,1-2.9717,1.331c.7304.16309,1.2187.7529,1.7754.9932-.3711.2314-.833.96289-1.3692,1.1884.252.1309.5684.1827.8047.335-1.2685,1.8242-4.3203,2.0606-6.0849,3.457a17.89927,17.89927,0,0,0,2.3027.5899c-1.9678,1.3877-4.5361,1.8603-6.3565,3.3672.2383.0508.5372.02439.7852.0927a10.04765,10.04765,0,0,0-3.3877,3.47169,13.24933,13.24933,0,0,1,2.7022-.79979c-1.1827,1.1153-2.8731,1.8086-3.6192,3.2569.2549-.042.5703-.2022.8399-.2295-.8907,1.6279-2.9336,3.0605-3.2256,4.8349A6.88845,6.88845,0,0,1,139.91384,213.4246Z"/><path class="cls-9" d="M228.11506,204.1492a5.06771,5.06771,0,0,0,1.13378.3925A2.49982,2.49982,0,0,0,228.11506,204.1492ZM176.91584,185.073a2.59526,2.59526,0,0,0-1.1055-.4492A5.116,5.116,0,0,0,176.91584,185.073Zm-26.46778,24.8867a22.01489,22.01489,0,0,0-2.25292,2.4805,21.56375,21.56375,0,0,1,2.0547-.8682,26.04223,26.04223,0,0,1-1.7247,2.1416c.3965-.19531,1.0625-.3017,1.5274-.5459-.8418,1.6348-2.31348,3.0371-2.64448,4.8613a14.87887,14.87887,0,0,1,2.70108-2.3974,8.36738,8.36738,0,0,0-1.9258,6.1435,6.12111,6.12111,0,0,1,1.4952-1.8134,23.60693,23.60693,0,0,0-.8682,3.582c.1533-.248.583-.6631.7734-.9648a3.31108,3.31108,0,0,0,.1866,2.5947,11.49478,11.49478,0,0,1,.88472-.9326,12.947,12.947,0,0,0-.14352,3.7441c.14652-.2666.455-.6309.60352-.8984a19.18458,19.18458,0,0,0,.32518,3.0615c.1562-.3906.5674-.8594.6904-1.1455a11.22722,11.22722,0,0,0,.2647,3.0469c.17572-.3438.7168-.7725.9218-1.1602a11.74167,11.74167,0,0,1,.4961,2.6934c.1826-.4688.6446-1.0127.8096-1.3682a11.25778,11.25778,0,0,0,.7978,3.63869c.1221-.48729.461-.96.5782-1.44729a9.84,9.84,0,0,0,.7578,2.5752c.124-.4941.4902-.9883.5967-1.4932.0683.4034.4345,1.0254.5146,1.4024.12312-.25.3135-.4903.4404-.751a17.96253,17.96253,0,0,0-.0224,2.5371c.1484-.3633.4082-.668.5674-1.0215a9.09783,9.09783,0,0,0,1.13772,3.7344,10.6247,10.6247,0,0,0,.46288-1.584,13.6266,13.6266,0,0,0,.7607,3.4736c.0732-.1748.3496-.5751.459-.8408a18.49752,18.49752,0,0,0,1.2881,2.9717c.06832-.457.3652-.957.4091-1.4404a7.83327,7.83327,0,0,1,.28322.7637c.01658-.1094.19538-.5293.26758-.7227a3.21076,3.21076,0,0,0,.6992,2.043c.1153-.3164.3067-.6436.4034-.9688a5.11948,5.11948,0,0,0,1.0029,2.6348c1.4355-1.0371,2.0371,1.4189,2.376,2.5664.1455-.5137.624-1.1494.7451-1.7383.0976.6338.4883,1.2324.63482,1.834.29488-.8887.53318-1.8184.90328-2.6856.0478-.0605.2578.1241.331.0948a4.58022,4.58022,0,0,1,.378-.9737c.0673,1.6153.4853,3.1983.664,4.8028.13772-.5713.4766-1.10061.6289-1.6553.3262.9736.3926,2.3076.7393,3.3379.1484-.502.4863-.9961.6103-1.5108a13.72428,13.72428,0,0,0,.4414,2.0645c.0987-.4277.7159-1.1582.8555-1.625a4.9988,4.9988,0,0,1,1.2149,2.32809c.1738-.61129.7509-1.27339.9619-1.89939a10.8508,10.8508,0,0,1,.2636,2.7793,8.05653,8.05653,0,0,1,.8877-1.583c.70222,1.1699-.4502,2.3369.3809,3.4785.085-.0889.1758-.0508.1719.0693,1.3828-.3242,1.2695-1.9599,2.56742-2.3808a7.69066,7.69066,0,0,1-.36822,1.7744,11.59782,11.59782,0,0,1,2.0185-1.9277c-.2421.6093-.2421,1.48239-.5068,2.06739a4.91589,4.91589,0,0,1,2.4424-.96679c-.2031.4394-.21188,1.3945-.417,1.7929a14.31961,14.31961,0,0,0,1.6797-1.2773c-.2402.4717-.3067,1.0674-.5274,1.539.9414-.5507,1.8604-1.5107,2.7432-2.0361-.25.5156-.335,1.1406-.60738,1.6611,1.17968-1.1005,2.54688-2.0166,3.64738-3.1953a4.9285,4.9285,0,0,1-.3535.98249c.0362.07121.3233.06731.3155.14161-.2871.89839-.712,1.7636-1.0762,2.625.50782-.3614,1.1904-.5538,1.67582-.9747-.28522.5254-.34282,1.3213-.56452,1.8096,1.0039-.6514,3.06352-2.1133,3.4717-.3896a5.19886,5.19886,0,0,0,2.4883-1.33691c-.14648.30851-.211.68451-.333.99311a3.18818,3.18818,0,0,0,1.8642-1.0889c-.0732.1973-.2168.6299-.2744.7305a6.57684,6.57684,0,0,1,.7119-.3935c-.2744.3935-.3857.958-.625,1.3525a18.19277,18.19277,0,0,0,2.9141-1.4023c-.0947.2763-.1455.7539-.2012.93259a13.501,13.501,0,0,0,2.8506-2.12209,9.69859,9.69859,0,0,0-.6904,1.49709,8.89719,8.89719,0,0,0,3.2968-2.08109c-.1035.37309-.1074.7744-.2314,1.1494a18.13375,18.13375,0,0,0,1.6436-1.9404c-.0801.2813-.0909.5898-.15628.8584.29978-.2344.98338-.458,1.30758-.7217-.25.4531-.2998,1.06739-.5263,1.5166a9.43736,9.43736,0,0,0,2.2509-1.45021c-.2236.44831-.2773,1.02541-.5048,1.47761a11.52611,11.52611,0,0,0,2.9863-2.2315c-.1143.376-.1143,1.0908-.2852,1.5635a11.43555,11.43555,0,0,1,2.1416-1.7109c-.0986.4277.0274,1.11029-.0605,1.4824a12.12082,12.12082,0,0,0,2.18942-2.1338c-.08982.2998-.08982.918-.22652,1.3174a19.42784,19.42784,0,0,0,2.248-2.09771c-.0586.29591-.0703.77351-.1318,1.07031a13.27809,13.27809,0,0,0,2.3437-2.9218,12.27477,12.27477,0,0,1,.0537,1.2822,3.32613,3.32613,0,0,0,1.8418-1.8428c-.0507.3526-.00088.9473-.0468,1.2383a23.34542,23.34542,0,0,0,1.6865-3.28221,6.101,6.101,0,0,1-.05758,2.35251,8.31806,8.31806,0,0,0,2.56538-5.9082,14.94857,14.94857,0,0,1,.4727,3.5879c.9482-1.6006.7548-3.625,1.1806-5.41021.1944.48831.627,1.00591.7998,1.41211a25.49765,25.49765,0,0,1,.0996-2.748,20.486,20.486,0,0,1,.9854,1.998,22.2963,22.2963,0,0,0-.083-3.3447,5.59759,5.59759,0,0,1,1.02152,2.7002c.77338-1.2529.25578-3.2471.56248-4.7412.1611.1631.2763.43259.4209.59859.30562-1.30169-.40038-2.64639-.5411-3.98339a11.82217,11.82217,0,0,1,1.2881,1.9659,8.0659,8.0659,0,0,0-.2802-3.9844c.1962.0937.3789.2685.5507.3681-.33588-1.9189-1.7187-3.6093-2.2197-5.53221a14.23134,14.23134,0,0,0,1.7871.88091c-.36228-1.8154-2.1924-3.62791-2.0068-5.4395a7.05091,7.05091,0,0,1,.6982.2305c-.21768-.4307-.1172-1.1318-.2285-1.4805a8.089,8.089,0,0,1,1.67682.3545,5.167,5.167,0,0,1-1.17-2.4414c.30958.1904.76958.31149,1.086.4951a7.233,7.233,0,0,1-1.21972-2.3359c.42572.2676.997.376,1.4404.623-1.1211-2.7246-3.1094-3.5546-5.2051-5.0849,1.3906.1787,2.6895.7607,4.0518,1.07419a12.89669,12.89669,0,0,0-4.8643-4.59469,11.4562,11.4562,0,0,1,1.4072-.3828,12.26949,12.26949,0,0,1-1.81828-.792,3.88559,3.88559,0,0,1,1.72258-.3907c-1.04-.6543-2.1982-1.2304-2.6211-2.37981.4434.04491.64752-.15339,1.2793.09961-1.3134-.792-1.4902-1.9942-.54778-1.9707a2.85758,2.85758,0,0,1-1.16312-.9795c1.3945-.23441,3.1338.8232,4.5537,1.2881-1.09758-1.753-6.5527-4.3028-6.6367-5.3946.3008.0205.708-.0117,1.0283-.0195-.5654-.35841-1.0058-1.0781-1.5586-1.48141a7.85278,7.85278,0,0,1,1.9551-.295c-.8232-.71189-1.9551-1.24509-2.6338-1.96869.37112-.0498.8545-.2891,1.3203-.3164-1.0849-.6553-2.3633-1.1211-3.5244-1.6836,1.1816-.417,3.1084.2275,4.4756.5459-1.44338-1.4326-3.1816-2.2344-4.7363-3.419.6064-.15521,1.1845-.61421,1.8193-.7246-.5732-.1103-1.1475-.5439-1.7256-.6758.2979-.1474.7344-.67181,1.0996-.8349a3.94961,3.94961,0,0,0-2.6631-.4151,6.90011,6.90011,0,0,1,.6914-.581,14.5494,14.5494,0,0,0-1.8886.1435c.4082-.2851.6904-.7587,1.1494-1.0556-.4561.02829-1.1748-.1768-1.64848-.1358a6.60679,6.60679,0,0,1,4.74028-1.9277,8.902,8.902,0,0,0-6.1319-.5293,7.80091,7.80091,0,0,1,3.129-1.4863c-1.5079-.2617-3.6915-.294-4.8458.7051.0547-.084.31942-.669.3272-.68171a2.38111,2.38111,0,0,0-.4033.20311c.3642-.4336.6826-1.0742,1.0303-1.5048-.334.2685-.7325.5048-1.0713.8086.4091-.5782.7949-1.3331,1.2187-1.9268a2.85007,2.85007,0,0,0-2.1094,1.7197,30.98641,30.98641,0,0,0,.8545-4.1885c-1.416.7198-2.0342,2.6172-2.7265,4.1299.0254-.3506.0371-.7285.0888-1.07521-.0468-.07029-.2959.169-.334-.01849-.121-.3008-.0449-.6748-.1943-.93851-.11028.20311-.3242.46681-.4599.69821a5.68713,5.68713,0,0,0-.2979-1.2324c-.3008.45219-1.8779-.6621-2.3066-.4433-.1836-.4434-2.1055-.6348-2.0284-1.1739a6.42231,6.42231,0,0,0-1.0449.73539c.0586-.26269.0635-.60449.11042-.83109-.27842.1084-.46.4385-.74912.586-.1513.11809-.1875-.2276-.2675-.2012-.1875.2939-.4268.584-.6328.873.457-1.6035,1.2363-3.4404.6406-4.9111a29.97866,29.97866,0,0,0-2.1016,3.7256,2.8529,2.8529,0,0,0-.4697-2.6856c-.0713.7315-.2676,1.5538-.33988,2.2598-.05662-.4492-.20312-.8955-.27532-1.3115-.0235.5488-.2012,1.24709-.209,1.8144a2.26159,2.26159,0,0,0-.1709-.4228c0,.02049-.1885.6279-.1914.73049-.2325-1.51179-1.89938-2.919-3.2119-3.70219a7.81665,7.81665,0,0,1,1.3994,3.1719,8.89378,8.89378,0,0,0-4.9883-3.6133,6.61589,6.61589,0,0,1,2.3213,4.55759c-.333-.34179-1.0088-.65719-1.33888-.97359.15428.5234.05758,1.05959.18648,1.5508a14.18059,14.18059,0,0,0-1.3398-1.3467,7.35139,7.35139,0,0,1,.1474.89549,3.9107,3.9107,0,0,0-2.28608-1.43259c.17188.3623.15628,1.0459.28608,1.3467-.5214-.2715-1.24308-.3174-1.749-.6094.4053.4951.541,1.2226.9004,1.7305-1.9521-.12021-3.7822-.6485-5.8203-.5118,1.2451.6563,3.1182,1.4287,3.7441,2.5205-1.2451-.333-2.5244-.8212-3.7695-1.038.335.3252.5449.8222.7998,1.1084-.9931.0976-2.2012-.23931-3.292-.23931.6192.40141.8799,1.082,1.2891,1.50491-.67968-.0615-1.4863.1972-2.1445.0947.2353.2168.5273.5108.7627.6983-.7784.7646-6.5713-.879-8.54788-.2686,1.37788.5742,3.38668.9121,4.28518,2.0039a2.90307,2.90307,0,0,1-1.5254-.0205c.7314.5967-.1875,1.3926-1.7022,1.1309.6436.2216.6758.5126,1.0342.7578-1.0723.59859-2.3242.2705-3.5361.0908.6738.4844.7275.9687,1.0439,1.42579a11.775,11.775,0,0,1-1.8867-.59769,12.3919,12.3919,0,0,1,.8076,1.2119,12.916,12.916,0,0,0-6.6816.2901c1.2295.6523,2.6035,1.0673,3.7666,1.8398-2.5918-.2178-4.6367-.8857-7.2617.4443.4941.0987.9941.39159,1.4931.4649a7.19085,7.19085,0,0,1-2.4531.9678c.36622.0703.7851.2754,1.1484.3388a5.12738,5.12738,0,0,1-2.4834,1.0782c.6153.1425,1.0283.62789,1.4981.832-.3145.1855-.6963.7851-1.1436.9707a6.34975,6.34975,0,0,1,.6778.28219c-1.04108,1.49021-3.6065,1.66111-5.0743,2.80081a17.07224,17.07224,0,0,0,1.9248.5019c-1.6337,1.1241-3.7832,1.4961-5.3037,2.7286.2032.041.459.0254.667.082a8.16557,8.16557,0,0,0-2.8193,2.8281,11.52579,11.52579,0,0,1,2.2627-.6347c-.9824.9091-2.40328,1.4668-3.0127,2.65229.2119-.03319.4717-.165.7002-.17969-.7354,1.334-2.4385,2.4981-2.67778,3.9551A5.72924,5.72924,0,0,1,150.44806,209.9597Z"/><path class="cls-9" d="M177.31424,203.14429c-4.7666.43651-8.03218-5.66209-13.7676-5.13189a43.44675,43.44675,0,0,1,12.4532,8.2022Z"/><path class="cls-9" d="M185.19806,211.5906c1.79588-.6905,3.48628-.7461,5.02048-2.1836-.1553-.2041-.502-.1289-.68548-.3164.18748-.40731.67768-.8262.77528-1.2617-.0175-.1133-.3378-.1192-.3339-.0293,1.4521-2.6211,2.706-4.49031,2.6035-7.4444-.1133.6123-.3037,1.1338-.4668,1.749-.0322.1172-.03708.12109.0058.0088a7.60274,7.60274,0,0,0-.4423-4.4521c-.1524.3408-.0723.624-.1905.9248-.1367-.6201-.4258-1.2842-.5449-1.8721.0313.586-.1055,1.4209-.0781,2.001a25.71094,25.71094,0,0,0-.958-2.4414c.0674.5039.0078,1.1133.042,1.5742-.8164-2.3818-2.5459-5.20311-4.835-6.3945a6.132,6.132,0,0,1,1.9951,3.3916,6.71472,6.71472,0,0,0-2.8867-2.4375,14.99782,14.99782,0,0,1,.8389,1.8535,15.57091,15.57091,0,0,0-4.1739-2.5615c.1914.2158.5254.6699.7168.90329a5.43762,5.43762,0,0,0-3.2558-.669,11.17109,11.17109,0,0,1,1.3398.89361,3.91951,3.91951,0,0,0-3.3574.1299c.6562.2246,1.78712.77049,2.1963.8437a11.3702,11.3702,0,0,0-4.3789.3467c.7998.2832,1.6025.6826,2.4121.8867a5.15443,5.15443,0,0,0-5.3193,1.1963,11.01346,11.01346,0,0,0,2.54592.125,2.75091,2.75091,0,0,0-2.836.6533,19.16528,19.16528,0,0,0,2.82418.7139,12.12785,12.12785,0,0,1-1.1709.4365c.2149.2442.88772.15139,1.0176.4366a10.92835,10.92835,0,0,0-1.42088.6601c.56638.085,1.13868.3936,1.71678.4834-.418.07029-.9863.2598-1.4121.3408a7.56823,7.56823,0,0,1,1.3457.5293,8.88716,8.88716,0,0,0-1.8135.5371,12.02755,12.02755,0,0,0,1.8975.4014,2.39368,2.39368,0,0,1-.8506.207c2.7246.6534,3.2315,2.1895,3.7539,4.5909Z"/><path class="cls-9" d="M202.25954,217.6218c-.9043-1.7011-2.1494-2.8457-2.3662-4.9404.2529-.0469.4609.2314.7266.21.122-.4258.0234-1.0674.2343-1.45611.087-.07809.3379.12891.2696.19041.624-2.9306.8926-5.1621,2.9033-7.331-.3066.5361-.5078,1.0547-.78608,1.624-.043.1172-.05082.1191-.01082.0088a7.619,7.619,0,0,1,3.251-3.0781c-.1113.3593-.3594.5214-.4609.8213.5019-.379,1.1552-.6905,1.6279-1.0577-.3975.42-.8438,1.1446-1.25,1.5664.7412-.5087,1.6016-.8086,2.3281-1.2207-.3818.3418-.7324.837-1.0576,1.1641,2.1719-1.2686,5.3301-2.2666,7.8408-1.6689a6.09157,6.09157,0,0,0-3.73048,1.2578,6.70347,6.70347,0,0,1,3.77738.0459,15.07616,15.07616,0,0,0-1.8496.8515,15.52517,15.52517,0,0,1,4.832.794c-.289.0381-.834.165-1.13078.2158a5.47418,5.47418,0,0,1,2.90328,1.6182,11.62465,11.62465,0,0,0-1.6055-.1924,3.94384,3.94384,0,0,1,2.4629,2.29c-.6436-.2607-1.8535-.5859-2.2129-.7998a11.52342,11.52342,0,0,1,3.07422,3.1289c-.78422-.3066-1.65042-.5342-2.39842-.9111a5.16661,5.16661,0,0,1,3.2363,4.3887,11.21052,11.21052,0,0,1-2.00488-1.5743,2.75741,2.75741,0,0,1,1.71588,2.3536,19.53157,19.53157,0,0,1-2.6006-1.3106c.0478.1797.5185.9434.59572,1.0957-.32032.043-.76662-.4619-1.05472-.3359a10.80822,10.80822,0,0,1,.6416,1.4297c-.4824-.3047-1.1172-.4444-1.6153-.7569.2725.333.5772.8467.8477,1.1797a7.77071,7.77071,0,0,0-1.36428-.4814,8.72846,8.72846,0,0,1,1.02148,1.5976,12.33711,12.33711,0,0,1-1.7011-.9414,2.52143,2.52143,0,0,0,.5048.7119c-2.4804-1.2861-3.8671-.4531-5.8388,1.0176Z"/><path class="cls-11" d="M178.09064,204.6208a2.80282,2.80282,0,1,0,3.6093-1.6474A2.80393,2.80393,0,0,0,178.09064,204.6208Z"/><path class="cls-9" d="M213.24684,216.53c3.3155,3.458,9.7715.9737,13.7666,5.1348a43.36809,43.36809,0,0,0-14.77538-1.9502Z"/><path class="cls-11" d="M209.22054,216.2214a2.80332,2.80332,0,1,1-1.64848-3.6103A2.80293,2.80293,0,0,1,209.22054,216.2214Z"/><path class="cls-12" d="M184.68334,220.198c-.7685,2.0644.8213,5.9717,4.1182,7.2012,3.294,1.2265,7.0508-.6875,7.8233-2.75491.7646-2.06939-1.2803-4.73929-4.5733-5.96879C188.75174,217.447,185.45684,218.1267,184.68334,220.198Z"/><path class="cls-11" d="M191.75564,224.3132a1.96535,1.96535,0,1,0,2.54-1.1875A1.98086,1.98086,0,0,0,191.75564,224.3132Z"/><path class="cls-11" d="M188.58474,223.1326a1.96608,1.96608,0,1,1-1.1474-2.5635A1.98529,1.98529,0,0,1,188.58474,223.1326Z"/><path class="cls-9" d="M229.58184,258.31129c-2.6953-.64849-6.3584-2.92479-9.1504-3.79979-3.5166-1.1045-7.125-2.5606-10.9736-2.8506-7.8252-.5801-10.5743,6.7969-13.1573,12.8193-1.8056,4.2129-11.6806,24.32809-4.5849,26.6914.0967,3.8819,3.541,9.3965,7.0625,6.67869-.0908.66211.2754.82521.6054,1.43951,1.712,3.2451,8.0977,3.9228,11.0606.9111,1.3984,3.2422,6.8877,1.2012,8.3428-1.084,1.5507-2.4257,1.2744-8.8837,1.7158-11.7841,1.0166-6.6729,6.333-15.0596,9.7822-15.0118,2.3565.0245,3.3594-7.5283,3.709-8.7753C234.69994,260.9636,229.58184,258.31129,229.58184,258.31129Z"/><path class="cls-9" d="M163.52514,264.1785c-.4912-5.4815-4.0546-14.3077-9.1699-17.0225-7.3691-3.9102-14.36418.1729-18.3301,6.4668a88.60023,88.60023,0,0,0-9.3056,19.1113c-.77248,2.4336-1.5264,16.4219,3.4668,14.0049a6.13143,6.13143,0,0,0,3.6386,5.32029c3.5479,1.25,3.9668-.35059,5.4073-2.11329.457,2.712,3.9306,2.1182,6.3672.8819,2.122-1.0762,2.3935-2.916,2.5781-5.251,7.0889.9023,6.8867-4.6943,8.2861-10.1465.81842-3.167,2.626-12.3447,6.333-12.206Z"/><path class="cls-4" d="M210.50374,300.3308c-.5323-1.3008-.0811-3.6797.6171-5.0068.0459-.0401.0459-.0362,0,.0049-1.2783,1.2812-2.2002,3.85439-1.5859,5.6181Z"/><path class="cls-4" d="M198.77814,297.8718a14.50881,14.50881,0,0,1,1.6025-5.2304c-1.7031,1.5644-4.7109,4.54589-2.7568,5.8232C197.89434,298.6394,198.77814,297.8718,198.77814,297.8718Z"/><path class="cls-4" d="M191.71564,291.1716a5.23033,5.23033,0,0,1,1.9765-3.9209c-1.2754.5528-3.5605,2.1114-2.999,3.3662C190.81324,290.8826,191.71564,291.1716,191.71564,291.1716Z"/><path class="cls-4" d="M148.07406,285.5574a8.5751,8.5751,0,0,1-.51472-6.335c-1.6152,2.252-1.7549,5.8027.3135,7.8467Z"/><path class="cls-4" d="M139.40314,289.2849a6.82987,6.82987,0,0,1-.8575-4.3223c-.80558,1.5889-1.4072,4.6739-.3652,6.084Z"/><path class="cls-4" d="M130.44706,286.4314c.211-1.6074-.04-2.8633,1.03708-4.0879a5.98053,5.98053,0,0,0-2.3222,4.5772Z"/></svg>