<svg id="Ebene_1" data-name="Ebene 1" xmlns="http://www.w3.org/2000/svg" width="231.36174" height="458.01792" viewBox="0 0 231.36174 458.01792"><defs><style>.cls-1{fill:#7a2222;}.cls-2{fill:#fcf9eb;}.cls-3{fill:#fdbb45;}.cls-4{fill:#fc8b59;}.cls-5{fill:#f6693b;}.cls-6{fill:#fff;}.cls-7{fill:#7a5d7b;}.cls-8{fill:#8e6c8f;}.cls-9{fill:#703e13;}.cls-10{fill:#f8f0e2;}.cls-11{fill:#43200c;}.cls-12{fill:#423b41;}.cls-13{fill:#ff6d00;}.cls-14{fill:#b1dddc;}.cls-15{fill:#ff8a5f;}.cls-16{fill:#fe764a;}.cls-17{fill:#ffaa90;}</style></defs><path class="cls-1" d="M148.81505,59.44373c0,30.2539-16.478,54.78319-36.8091,54.78319-20.3301,0-36.8105-24.52929-36.8105-54.78319,0-30.25981,16.4804-54.78909,36.8105-54.78909C132.33705,4.65464,148.81505,29.18392,148.81505,59.44373Z"/><path class="cls-2" d="M190.69394,458.01792c7.1934-67.51169,5.5-135.04789-19.4805-174.73439-27.16789-32.4258-99.07469-35.89061-128.38329-6.582-29.4404,29.43939-34.1777,107.7842-31.1416,181.31639Z"/><path class="cls-3" d="M216.82674,148.11263c-29.5293-63.8291-73.19729-61.5244-73.19729-61.5244s-.0761.09469-.2187.2695l-6.1328-2.1211-3.2788-20.6933L92.01765,51.513l-3.2851,33.2236-7.0215,2.4297c-.0127-.0156-.0332-.039-.0332-.039s-43.7686-9.1875-72.1778,55.1494c8.1319,19.2734,20.9932,108.083,26.6924,136.32419,13.3067,8.80661,50.1319,13.416,83.2871,12.71391,33.8492-.71291,99.32569,112.57709,61.14209-19.9336C185.82284,243.04333,209.02594,167.52773,216.82674,148.11263Z"/><path class="cls-4" d="M231.21154,272.26892l-37.0938-1.05469s-9.1972-55.2246-5.5078-73.4317c2.2305-11.0361,17.9258-32.1289,24.03711-38.2421C220.85805,174.47792,231.21154,272.26892,231.21154,272.26892Z"/><path class="cls-4" d="M12.77935,152.63413l25.7696,69.3193-.2207,50.1807,55.4453,56.2715a36.0321,36.0321,0,0,1,5.8467.0185l12.4824,2.8887,23.2944,6.2627,6.9766-2.6865s2.0429,7.8018-8.1411,11.1172c-1.627.5224-7.9043.4033-7.9043.4033L139.11,365.012c.7988,1.7911-.3379,4.2286-2.5371,5.4532-1.9175,1.0654-4.0142.8564-5.0356-.4092.2978,1.87689-1.0391,4.0596-3.2364,5.0908a4.44529,4.44529,0,0,1-4.8427-.3193c.5185,1.955-1.0333,4.4258-3.5752,5.6308-2.6553,1.2422-5.377.6465-6.0879-1.3369l-.3868-1.1084a4.85815,4.85815,0,0,1-2.6308,2.958,3.76014,3.76014,0,0,1-4.0205-.2363v.0049l-14.2705-8.1055-8.3858-11.8818-4.0634-7.0625c-9.1768-6.4297-70.3467-49.9483-78.503-73.8301C-5.27335,259.91543,12.77935,152.63413,12.77935,152.63413Z"/><path class="cls-4" d="M194.11774,271.21423l-39.89839,51.3076a35.84774,35.84774,0,0,0-5.8418.0205l-12.4844,2.8867-23.2925,6.2657-6.9795-2.6924s-2.0439,7.8017,8.1436,11.1191c1.6269.52249,7.9004.4014,7.9004.4014l-12.7803,18.6064c-.7939,1.7891.3408,4.2246,2.54,5.4483,1.9131,1.0693,4.0127.85739,5.0362-.4043-.2998,1.872,1.0371,4.0586,3.2363,5.0898a4.46123,4.46123,0,0,0,4.8399-.3183c-.5176,1.94819,1.0341,4.4228,3.58,5.6308,2.6504,1.2383,5.3731.6445,6.0869-1.3359l.3877-1.1104a4.841,4.841,0,0,0,2.6275,2.9571,3.75424,3.75424,0,0,0,4.0215-.23541v.00291l14.2695-8.1025,8.3887-11.8848,4.06049-7.0644c9.1778-6.4278,66.7168-50.5391,63.252-75.53321C229.08654,256.93983,194.11774,271.21423,194.11774,271.21423Z"/><path class="cls-1" d="M138.60605,21.68984c5.5703,12.44529,16.7949,17.15819,13.1016,32.03508-1.7481,7.04791-1.4532,10.37411,2.3359,16.56251,2.582,4.2207,5.6426,8.8037,2.875,14.7823-3.4512,7.44819-20.5449,10.0068-23.4058,6.48919C122.91315,78.53553,138.60605,21.68984,138.60605,21.68984Z"/><path class="cls-5" d="M135.42835,42.19173c8.1875-7.1191,5.5449,7.3008,3.6152,11.0567-.7109,1.3828-2.2715,4.0976-4.0601,4.4257Z"/><path class="cls-5" d="M88.70125,42.19173c-8.1875-7.1191-5.541,7.3008-3.6123,11.0567.707,1.3828,2.541,4.3701,4.3272,4.6972Z"/><path class="cls-4" d="M137.04555,45.98083c0-9.4317.5214-24.40919-3.5435-30.64449-4.7236-7.2618-13.71-7.9239-21.4385-7.9239s-16.7148.6621-21.4365,7.9239c-4.0625,6.2353-4.1807,21.23339-3.543,30.64449.8116,12.0137,4.8506,20.2627,14.0205,27.707a20.0421,20.0421,0,0,0,10.959,3.8848,20.07169,20.07169,0,0,0,10.9658-3.8848C132.19445,66.24353,137.04555,57.99453,137.04555,45.98083Z"/><path class="cls-1" d="M133.62215,6.00424c-6.2256-6.2246-13.9971-4.6211-21.792-5.6152-25.6689-3.2695-33.5517,14.9873-35.9873,20.4355-6.0918,6.74419-14.1123,12.96879-12.0517,21.97069,1.2822,5.6016,5.205,9.4082,4.1367,15.5782-.9932,5.72649-5.6865,9.4648-8.1621,14.43749-2.1436,4.30271-3.4571,10.25-1.5088,14.90231,2.1377,5.0996,6.8222,5.5723,10.6699,8.8486,3.5537,3.0264,4,8.9307,7.5039,11.4366,3.874,2.76749,11.8418.4609,14.8643-2.8467.8623-.9463,2.2089-2.8799,1.8447-3.26081.7637-2.88759-.4258-5.78319-.0918-9.331.417-4.42089,3.2871-7.959,3.9482-12.27829.1045-.67971-9.6591-16.2266-12.1474-20.6846a106.60717,106.60717,0,0,1,3.6162-17.0625c2.124-7.1377,7.0449-3.374,12.3076-8.8955,4.1797-4.3848,6.6563-13.085,12.3926-15.08989,7.5176-2.6328,6.6767-2.248,14.9131,2.625,6.456,3.82039,10.1059,12.18169,7.4985,21.36529,1.8184-.9307,3-2.2403,4.8711-1.4424C145.38535,21.307,137.75055,10.12924,133.62215,6.00424Z"/><path class="cls-6" d="M127.71985,55.20543c0,3.5967-6.6436,10.8203-14.8389,10.8203-8.1973,0-14.8379-7.2236-14.8379-10.8203,0-1.5967,5.6602,1.5801,13.8526,1.5801C120.09285,56.78553,127.71985,53.36563,127.71985,55.20543Z"/><path class="cls-7" d="M168.71934,265.17613c-1.4414,3.0371-9.50689,6.6904-12.45559,5.0742-7.0029-3.832-12.041-29.5713-12.041-29.5713l15.4678-4.9619S172.02254,258.21713,168.71934,265.17613Z"/><path class="cls-8" d="M125.17925,183.65363c6.0411,7.0127,7.6954,15.48829,3.6968,18.9307-3.998,3.4434-12.1343.5508-18.1748-6.4619-6.039-7.0108-7.6948-15.4873-3.6958-18.9316C111.00355,173.74643,119.14075,176.64092,125.17925,183.65363Z"/><path class="cls-9" d="M161.86384,249.78943c-6.44139,0-6.44139,1.0976-12.88279,1.0976-6.4399,0-6.4399,3.4014-12.8813,3.4014-6.4405,0-6.4405-1.8232-12.8819-1.8232-6.4404,0-6.4404,1.1386-12.8808,1.1386s-6.4405-.62891-12.8809-.62891c-6.4424,0-6.4424-.72159-12.8818-.72159-5.8819,0-6.3951.1123-11.3438.1318q1.2378,1.84425,2.6128,3.5869c2.7871.0361,4.0801.0996,8.7334.0996,6.4404,0,6.4404.7852,12.8818.7852,6.441,0,6.441,1.0742,12.8814,1.0742,6.4419,0,6.4419,1.5058,12.8823,1.5058,6.44,0,6.44-2.8916,12.8804-2.8916,6.4414,0,6.4414.4766,12.8828.4766,6.4399,0,6.4399.4248,12.88039.4248.935,0,1.7319.0391,2.435.1055a57.55809,57.55809,0,0,0,4.2544-5.6885A11.2363,11.2363,0,0,0,161.86384,249.78943Z"/><path class="cls-10" d="M142.08065,218.79913c9.1514,6.1036,13.6973,15.3594,10.1528,20.6739-3.5444,5.3125-13.8354,4.66789-22.9863-1.4356-9.1523-6.1064-13.6977-15.3613-10.1533-20.6758C122.63735,212.05013,132.92925,212.69373,142.08065,218.79913Z"/><path class="cls-11" d="M134.68905,239.74353c.9629,3.8965-.1343,7.5185-2.4492,8.0918-2.3154.5703-4.9732-2.1231-5.936-6.0186a23.10282,23.10282,0,0,1-.0645-6.0351C132.40875,238.43883,133.30775,239.74353,134.68905,239.74353Z"/><path class="cls-12" d="M153.74615,235.63123c.9634,3.8965-.1342,7.5185-2.4492,8.0888-2.3159.5743-4.9726-2.121-5.935-6.0166-.9629-3.8964.1333-7.51851,2.4487-8.0918C150.12605,229.04043,152.78375,231.73473,153.74615,235.63123Z"/><path class="cls-10" d="M134.82335,210.49933a13.29465,13.29465,0,0,1-13.27,13.3194c-7.3286,0-18.4156-18.6221-18.4156-25.9785,6.5166-12.1827,12.5328.7841,18.4156-.6592A13.29377,13.29377,0,0,1,134.82335,210.49933Z"/><path class="cls-13" d="M119.19145,185.09113a17.60992,17.60992,0,0,0-5.6425-5.7617c-1.5869-.9404-6.1236-2.9297-7.7715.3936-.707,1.4258-1.3652,5.4883-1.5059,7.91989Z"/><path class="cls-14" d="M112.01575,183.29723a2.36085,2.36085,0,1,1-2.3614-2.36231A2.3601,2.3601,0,0,1,112.01575,183.29723Z"/><path class="cls-11" d="M110.64215,183.18883a1.4536,1.4536,0,1,1-1.4521-1.4551A1.45148,1.45148,0,0,1,110.64215,183.18883Z"/><path class="cls-8" d="M151.35845,213.82843c8.4434,11.5264,12.33739,23.0274,8.6988,25.6944-3.6377,2.665-13.4307-4.5166-21.8731-16.041-8.4428-11.5244-12.3384-23.0274-8.6992-25.6924C133.12265,195.12433,142.91705,202.305,151.35845,213.82843Z"/><polygon class="cls-11" points="127.993 249.903 125.059 249.477 130.062 244.87 131.651 246.698 127.993 249.903"/><path class="cls-11" d="M128.67245,251.00813a2.51955,2.51955,0,1,1-2.4824-2.0859A2.31187,2.31187,0,0,1,128.67245,251.00813Z"/><polygon class="cls-11" points="133.319 252.575 126.19 251.008 118.785 252.575 117.037 253.289 135.145 253.289 133.319 252.575"/><polygon class="cls-11" points="151.999 248.299 149.497 249.33 149.589 241.364 152.571 238.906 151.999 248.299"/><path class="cls-11" d="M153.61875,250.04913a2.52015,2.52015,0,1,1-2.4814-2.083A2.309,2.309,0,0,1,153.61875,250.04913Z"/><polygon class="cls-11" points="156.73 252.537 149.602 250.969 142.195 252.537 140.449 253.25 158.558 253.25 156.73 252.537"/><path class="cls-15" d="M103.13775,197.84023s-22.7612,2.1728-44.2011,14.4521c.8637-.9326,7.0835-16.5293,49.8676-23.7998a5.66641,5.66641,0,0,0-.5664,5.0996Z"/><path class="cls-16" d="M105.87805,177.53553s-32.586,0-46.9414,26.2549c-1.0201,1.8662,0,8.5019,0,8.5019s11.2397-16.623,49.8676-23.7998C104.838,181.88023,105.87805,177.53553,105.87805,177.53553Z"/><path class="cls-11" d="M60.36,201.36563q-.7368,1.1718-1.4233,2.4248c-1.0201,1.8662,0,8.5019,0,8.5019s3.4741-5.1377,13.1972-10.9355C79.89905,196.72792,70.30725,190.27083,60.36,201.36563Z"/><path class="cls-11" d="M101.86775,177.79723l5.1172,11.042c.6006-.1182,1.2061-.2354,1.8193-.3467-3.9663-6.6123-2.9262-10.957-2.9262-10.957S104.37215,177.53553,101.86775,177.79723Z"/><path class="cls-11" d="M108.80425,188.49253c-1.0073.1709-.8505.167-1.8193.3467l-4.9883,9.1348c.7393-.0957,1.1411-.1338,1.1411-.1338l5.1001-4.2481A5.66641,5.66641,0,0,1,108.80425,188.49253Z"/><rect class="cls-17" x="36.02745" y="323.18003" width="157.6494" height="29.083"/><path class="cls-10" d="M34.74965,324.68l-.2027-1.2588a297.76093,297.76093,0,0,1-3.7622-47.6221h0c.0044-43.7851,9.1558-83.4335,24.044-112.2646h0c14.8696-28.7852,35.603-46.9912,58.9736-47.0273h0c23.3691.0361,44.102,18.2421,58.9717,47.0273h0c14.88859,28.8311,24.04,68.48139,24.04389,112.2646h0a297.98543,297.98543,0,0,1-3.7602,47.6221h0l-.2066,1.2588Zm156.82709-1.5v0Zm-1.2798-1.5019a295.42868,295.42868,0,0,0,3.5205-45.879h0c.0044-43.36321-9.0942-82.6083-23.7085-110.8867h0c-14.63279-28.3261-34.65719-45.4404-56.30659-45.4043h0c-21.6509-.0361-41.6753,17.0782-56.3086,45.4043h0c-14.6143,28.2784-23.7124,67.52349-23.7085,110.8867h0a295.36609,295.36609,0,0,0,3.521,45.879H190.29694Z"/><path class="cls-10" d="M64.92735,324.68l-.1309-1.3545c-1.479-15.0068-2.2788-30.9687-2.2788-47.5264h0c.0401-65.5781,12.3882-121.73921,30.5073-146.2851h0c6.0494-8.168,12.9302-12.9912,20.459-13.0068h0c7.5288.0156,14.4097,4.8388,20.459,13.0068h0c6.0684,8.1953,11.4365,19.87889,15.9478,34.2607h0c9.0117,28.7578,14.55509,68.3213,14.55709,112.0244h0c0,16.5577-.7974,32.5196-2.2769,47.5264h0l-.1328,1.3545Zm95.7519-1.5v0Zm-1.3628-1.5019c1.3848-14.5127,2.13289-29.9161,2.13089-45.879h0c.04-65.1416-12.52539-121.1357-29.916-144.498h0c-5.7861-7.8027-11.918-11.8076-18.0474-11.793h0c-6.1318-.0146-12.2636,3.9903-18.0493,11.793h0c-5.7666,7.7734-11.0566,19.1973-15.4961,33.3701h0c-8.8921,28.3526-14.4223,67.6846-14.4204,111.1279h0c0,15.9629.7461,31.3663,2.1328,45.879h91.6655Z"/><path class="cls-10" d="M92.58065,325.23863l-.0488-1.4502c-.5083-14.9756-.7827-30.9062-.7827-47.4307h0c.0044-61.3515,3.7602-114.4736,9.3056-140.83781h0c1.9141-8.82909,3.7647-14.58109,6.4488-17.23149h0a4.0629,4.0629,0,0,1,2.7685-1.2226h0a4.05745,4.05745,0,0,1,2.7686,1.2226h0a10.57106,10.57106,0,0,1,1.9902,2.7832h0a45.45366,45.45366,0,0,1,3.3213,9.5234h0c2.0679,8.1065,3.9038,19.7071,5.4487,34.0264h0c3.0894,28.6328,4.9947,68.1172,4.9947,111.7363h0c0,16.5245-.2725,32.4551-.7808,47.4307h0l-.0508,1.4502Zm33.9336-1.501v0Zm-1.4497-1.5c.4756-14.5176.7324-29.9189.7305-45.8799h0c.0063-61.1972-3.7754-114.3086-9.2408-140.2197h0c-1.7558-8.5967-3.9609-14.2773-5.5688-15.666h0c-.4053-.373-.6162-.4053-.7134-.4053h0c-.0967,0-.3081.0323-.7109.4053h0a7.73821,7.73821,0,0,0-1.3926,2h0a42.73824,42.73824,0,0,0-3.0684,8.8652h0c-2.0068,7.8623-3.8383,19.3721-5.3725,33.6075h0c-3.0747,28.4746-4.978,67.8837-4.978,111.413h0c0,15.959.2568,31.3623.7324,45.8799h29.5825Z"/><polygon class="cls-10" points="32.652 262.309 32.652 259.308 195.129 259.308 195.129 262.309 32.652 262.309 32.652 262.309"/></svg>