<svg id="Ebene_1" data-name="Ebene 1" xmlns="http://www.w3.org/2000/svg" width="265.49417" height="469.88612" viewBox="0 0 265.49417 469.88612"><defs><style>.cls-1{fill:#7a2222;}.cls-2{fill:#ffaa90;}.cls-3{fill:#ff8a5f;}.cls-4{fill:#fe764a;}.cls-5{fill:#43200c;}.cls-6{fill:#8d2e2a;}.cls-7{fill:#fff;}.cls-8{fill:#fdbb45;}.cls-9{fill:#ffac27;}.cls-10{fill:#fcf9eb;}</style></defs><path class="cls-1" d="M78.99537,73.74253c2.4365-2.9775,5.6709-8.1738,11.5527-8.5185,5.8897.0683,18.4434,14.5332,21.0186,17.3887-7.0771,19.8125,2.7129,30.7392,2.7129,30.7392s.498,15.0205-12.0918,15.3164c-12.5869.2949-39.7393-15.7207-39.7393-15.7207S84.12917,93.87633,78.99537,73.74253Z"/><path class="cls-2" d="M166.53347,469.88612c30.3662-4.9785,54.459-12.1025,57.3574-22.251,9.4385-33.0293-16.2285-134.14649-63.4433-181.36129-26.4297-15.6631-110.1563,4.1797-114.8028,8.8281-58.8193,58.8203-34.4834,159.85939-22.3027,194.78419Z"/><path class="cls-3" d="M1.33617,162.68793c21.8643-56.1807,59.3428-56.5352,59.3428-56.5352s32.3184,19.1201,42.6162,18.5713c10.3047-.5537,10.4131-21.4082,10.4131-21.4082s45.0366-11.1719,64.0703,51.0547c-3.3652,9.6064-10.3105,76.6289-14.9541,110.332-22.0596,16.6563-127.209,23.7715-123.9473,1.51559C32.91727,242.25233-7.82593,184.14,1.33617,162.68793Z"/><path class="cls-4" d="M14.01977,198.11663c21.0279,16.6963,47.127,34.2959,74.3091,36.7832,7.5791.69329,15.8276-1.2578,22.7783,1.1894-22.0176,7.7158-50.8691-.25-71.748,10.5498-5.0113-12.1318-10.9561-21.415-18.9927-32.0205Z"/><path class="cls-5" d="M79.95627,68.19083c-2.1757,1.5351-7.9707-1.3262-10.3115-.0625-2.4892,1.3379-1.6582,6.8535-4.1299,7.789-2.6962,1.0274-8.4843-2.6425-11.2802-2.07421-3.1602.63971-3.753,5.54891-6.7891,5.52051-3.5889-.0234-8.6719-5.10351-12.1123-6.2802-4.0215-1.3907-8.3506.1552-11.7764-2.959-3.4541-3.1406-3.2636-8.6455-5.1494-13.0156-1.6181-3.753-6.9531-8.5332-7.3554-12.8555-.3292-3.6934,4.3974-5.36721,5.1289-9.0195.6425-3.254-2.7305-9.4883-1.1944-12.6368,1.416-2.8964,7.3867-2.04291,9.5352-4.5136,2.0058-2.3311.5586-8.5274,3.2959-10.4561,2.7451-1.9287,9.0332.8643,12.0263-.3271,3.1739-1.2754,3.7247-6.7168,7.1778-7.25,3.751-.5713,9.6074,3.914,13.2539,4.1484,4.0996.2578,7.0556-3.4766,10.9306-2.2793,4.5342,1.4121,8.3516,7.2617,11.9756,9.6035,4.2227,2.7207,10.17,3.9102,12.6856,7.708,2.5019,3.7725-.2188,7.1807.2842,11.0469.4209,3.3076,4.6181,9.0088,3.7607,12.1621-.7148,2.666-6.123,1.9795-7.5811,4.5928-1.2968,2.3144,1.2198,8.2812-.5429,10.3984-1.6123,1.9356-7.3213-.1455-9.3672,1.70509C80.49247,60.87833,82.13987,66.66153,79.95627,68.19083Z"/><path class="cls-6" d="M82.42707,72.99063c-3.1661-9.4053-8.6739-24.1729-7.0303-31.6494,1.8965-8.6983,9.9375-12.1348,17.0371-14.5254,7.1064-2.3906,15.5859-4.51371,22.3633,1.2627,5.8232,4.9599,9.4179,18.3428,11.9892,27.9248,3.2891,12.2246,5.3633,20.2695-2.0381,33.4961-1.7011,3.0508-2.749,10.1728-19.789,4.2422C93.77467,89.84023,86.45927,84.96812,82.42707,72.99063Z"/><path class="cls-6" d="M82.54127,68.75133c-10.5537-4.3554-3.082,9.13679.1035,12.2305,1.1748,1.1406,4.2539,3.1211,6.1485,2.8477Z"/><path class="cls-5" d="M81.92017,68.95743c-2.0879-.3154,11.3047,13.8486-.6289,23.0908-13.3281-6.6182-17.1269-12.2324-19.6601-16.6689-9.5704-16.7549-4.7657-38.5713-4.7657-38.5713s3.2725-11.6035,20.2246-17.3125c7.7061-2.5967,24.042-3.6983,32.2012.3525,6.8604,3.4053,13.2432,11.5537,10.582,15.4619-2.3916-2.0722-13.4336-5.0801-15.3896-1.1406C82.18777,33.28753,98.02857,59.16833,81.92017,68.95743Z"/><path class="cls-7" d="M103.86357,74.38812c1.082,3.17231,8.8525,7.63961,15.7519,5.288,9.7217-3.31289,3.0664-6.145,6.3467-12.82079.6572-1.3374-1.457,1.854-8.3564,4.2056C110.70147,73.41393,103.31177,72.767,103.86357,74.38812Z"/><path class="cls-1" d="M208.47687,86.39683l-.6866,9.669-.6982-8.1543s-4.9443-3.8135-6.5772,6.7617c-1.0058,6.50389-2.3535,28.2334-2.3535,28.2334s-3.2187-4.6387-4.4189-5.52051c-7.5459-5.48929-11.6348.52731-11.6348.52731l5.4473,3.51469,8.1006,20.59471,4.8164,3.0059c-5.6006,10.7119-25.2598,52.4092-31.9375,60.8916,18.3427,55.6113,51.583-19.0674,57.0937-59.0635l6.1739-24.998c.1367-.3536.75-24.1719-1.3096-24.5196a3.61394,3.61394,0,0,0-4.1201,3.4356s-.8936-16.126-3.5987-16.72371c-2.5947-.57709-4.749,2.83111-5.1299,5.94631-.5107-2.3388-2.413-8.2168-4.2783-8.6299C210.89677,80.82163,208.71027,83.06583,208.47687,86.39683Z"/><path class="cls-8" d="M178.24737,101.81293c-7.231-.3247-10.6167-2.2725-19.8628,2.51219a108.09935,108.09935,0,0,0-13.899,9.15571c-2.2363,1.67529-.7285,5.9424,3.5923,6.8311,7.1778,1.4756,9.3174-6.75781,15.3672-8.4492,3.1475-.8794,13.5591,4.4716,16.7446,4.9985Z"/><path class="cls-9" d="M188.00857,134.15273c-1.7236,6.73339,15.7637,50.9248,3.0937,66.5449-10.0356,12.3721-2.1879,32.0977-7.0395,32.6358-11.3335,1.8291-6.2774,8.8711,2.8643,12.7666,4.0288,1.8369,14.2661-5.5821,21.081-16.46291,7.1616-10.58109,10.9009-24.62309,9.9136-29.10939-1.1489-7.1895,9.4033-41.4951,9.6103-48.9863C219.61207,143.74063,197.08667,139.055,188.00857,134.15273Z"/><path class="cls-8" d="M174.68577,88.81733c2.6651,19.0463,3.8399,33.6196,11.6358,43.8159,3.3672,4.3427,35.9116,20.0781,34.9126,25.04589-21.1763,6.01751-17.9424,33.64251-5.6865,50.05471-14.7388,1.52529-14.125,28.3857-20.3355,31.9892-9.8306,6.1152-10.7212,16.6406,5.669,12.12109,7.2968-2.03509,25.1279-16.08009,38.6484-34.15529,13.9477-17.6064,23.5859-39.2441,24.4058-45.6406,1.7392-9.46,3.5131-33.3828-3.5713-55.78811-6.5098-22.38079-39.962-59.86229-72.1412-60.26219C191.30207,67.27573,173.44217,77.60783,174.68577,88.81733Z"/><path class="cls-8" d="M188.59307,109.04043c-5.4746,1.6421-7.5274,8.5425-14.8565,12.8691-8.3652,4.9385-20.2251,5.501-22.6367,8.0039-5.2627,5.461-19.895,15.4024-13.4248,19.3663,4.6597,2.85439,18.9155-5.3702,19.377-9.68461,7.7133-2.31449,13.9345-4.71289,20.9057-4.62109,8.3189.1113,16.7139-1.7363,20.0859-4.71C204.616,123.56093,188.59307,109.04043,188.59307,109.04043Z"/><path class="cls-10" d="M161.76787,126.42523c-5.0039,1.29289-9.3174,2.08689-10.668,3.4882-5.2627,5.461-19.895,15.4024-13.4248,19.3663,4.6597,2.85439,18.9155-5.3702,19.377-9.68461,4.4506-1.334,8.4052-2.69829,12.2944-3.59469C172.19557,135.34223,165.698,125.40863,161.76787,126.42523Z"/><path class="cls-8" d="M242.05937,208.11753c-6.3365,24.9541-24.6885,60.8184,3.3208,70.8428,9.5937,3.4336,19.956-1.457,17.6147-12.4043-30.9512-2.58791,10.6035-68.6816-1.5312-86.46091C261.46367,180.09512,243.64527,201.87243,242.05937,208.11753Z"/><polygon class="cls-9" points="141.432 53.774 162.519 53.458 157.716 62.461 141.432 53.774"/><polygon class="cls-4" points="141.432 53.774 157.716 62.461 152.184 64.523 141.432 53.774"/><path class="cls-9" d="M145.90017,93.60583s9.8061,2.2534,24.397-3.86671c7.0151-2.94139-24.8716-17.48189-24.8716-17.48189s.0547,3.7983-6.9009,11.5908C138.69367,86.90073,145.90017,93.60583,145.90017,93.60583Z"/><path class="cls-8" d="M146.06867,75.18253c3.4082,11.2744,16.2231,17.3799,28.6171,13.6348,12.398-3.7457,19.688-15.9253,16.2808-27.2017-3.4087-11.2754-16.2236-17.3804-28.6177-13.6367C149.951,51.724,142.66387,63.90563,146.06867,75.18253Z"/><polygon class="cls-9" points="157.455 37.078 175.566 54.72 163.855 58.257 157.455 37.078"/><polygon class="cls-4" points="157.455 37.078 163.855 58.257 157.425 55.298 157.455 37.078"/><path class="cls-5" d="M149.85477,71.73573a1.8203,1.8203,0,1,0,1.2153-2.2695A1.81424,1.81424,0,0,0,149.85477,71.73573Z"/><path class="cls-10" d="M140.27467,86.682c1.0596,3.5039,5.6387,5.2197,10.2188,3.835,4.5893-1.3863,7.4492-5.3487,6.3901-8.8516-1.0566-3.5064-5.6343-5.2207-10.2188-3.8359C142.07787,79.21812,139.21607,83.17912,140.27467,86.682Z"/><path class="cls-4" d="M139.85917,86.82853a3.65456,3.65456,0,0,1-1.3345-2.9805l1.2271-1.4238Z"/><path class="cls-6" d="M228.99537,108.97012l-6.5693,7.12691,4.542-6.8076s-1.4844-6.0654-9.3594,1.18069c-4.8438,4.45511-19.4541,20.59471-19.4541,20.59471s.3779-5.6328-.0088-7.0713c-2.4727-8.998-9.4219-6.8467-9.4219-6.8467l2.0645,6.1455-6.5196,21.1485,1.8887,5.3535c-11.0605,4.877-72.644,45.8525-83.1548,48.3154-9.3286,25.15239,14.0869,38.5518,35.2627,30.0078,25.0479-10.10641,50.5542-46.124,66.4107-61.1982l20.4209-15.6836c.3281-.1914,15.6679-18.4219,14.2754-19.9785a3.61336,3.61336,0,0,0-5.3633.1143s9.3633-13.1602,7.6221-15.3145c-1.667-2.0703-5.4776-.751-7.7188,1.4463,1.0605-2.1465,3.2412-7.9268,2.041-9.4141C234.36457,106.12243,231.25617,106.51212,228.99537,108.97012Z"/></svg>