<svg xmlns="http://www.w3.org/2000/svg" xmlns:xlink="http://www.w3.org/1999/xlink" width="342" height="342" viewBox="0 0 342 342">
  <defs>
    <style>
      .cls-1, .cls-2 {
        fill: #fff;
      }

      .cls-2 {
        stroke: #707070;
      }

      .cls-3 {
        fill: #f77161;
      }

      .cls-4 {
        opacity: 0.197;
        clip-path: url(#clip-path);
      }

      .cls-5 {
        clip-path: url(#clip-path-2);
      }

      .cls-6 {
        fill: #7a5d7b;
      }

      .cls-7 {
        fill: #8e6c8f;
      }

      .cls-8 {
        fill: #7a2222;
      }

      .cls-9 {
        fill: #8d2e2a;
      }

      .cls-10 {
        fill: #43200c;
      }

      .cls-11 {
        fill: #fe764a;
      }

      .cls-12 {
        fill: #20ab62;
      }

      .cls-13 {
        fill: #1b9a57;
      }

      .cls-14 {
        fill: #ffac27;
      }

      .cls-15 {
        fill: #fdbb45;
      }

      .cls-16 {
        fill: #5a392b;
      }

      .cls-17 {
        fill: #ec1c24;
      }

      .cls-18 {
        fill: #fd5e59;
      }

      .cls-19 {
        fill: #2d2d2d;
      }
    </style>
    <clipPath id="clip-path">
      <circle id="Ellipse_38" data-name="Ellipse 38" class="cls-1" cx="171" cy="171" r="171" transform="translate(11368 -611)"/>
    </clipPath>
    <clipPath id="clip-path-2">
      <circle id="Ellipse_37" data-name="Ellipse 37" class="cls-2" cx="171" cy="171" r="171" transform="translate(10704 -534)"/>
    </clipPath>
  </defs>
  <g id="Gruppe_464" data-name="Gruppe 464" transform="translate(-36 -150)">
    <path id="Pfad_390" data-name="Pfad 390" class="cls-3" d="M171,0A171,171,0,1,1,0,171,171,171,0,0,1,171,0Z" transform="translate(36 150)"/>
    <g id="Gruppe_maskieren_4" data-name="Gruppe maskieren 4" class="cls-4" transform="translate(-11332 761)">
      <g id="Gruppe_120" data-name="Gruppe 120" transform="translate(11333.47 -352.41) rotate(-60)">
        <ellipse id="Ellipse_1" data-name="Ellipse 1" class="cls-1" cx="67.862" cy="47.472" rx="67.862" ry="47.472" transform="matrix(0.128, -0.992, 0.992, 0.128, 132.515, 134.611)"/>
        <ellipse id="Ellipse_2" data-name="Ellipse 2" class="cls-1" cx="47.472" cy="67.862" rx="47.472" ry="67.862" transform="translate(0 46.163) rotate(-22.658)"/>
        <ellipse id="Ellipse_3" data-name="Ellipse 3" class="cls-1" cx="67.862" cy="47.472" rx="67.862" ry="47.472" transform="translate(215.952 141.197) rotate(-42.658)"/>
        <ellipse id="Ellipse_4" data-name="Ellipse 4" class="cls-1" cx="67.862" cy="47.472" rx="67.862" ry="47.472" transform="matrix(0.976, -0.219, 0.219, 0.976, 280.395, 207.485)"/>
        <path id="Pfad_94" data-name="Pfad 94" class="cls-1" d="M-44.721,196.714c-6.493-9.724-18.259-28.767-22.663-45.031-2.365-22.2-13.949-41.7-33.181-51.648-17.543-9.071-37.9-8.348-56.128.124v-.011c-.118.061-.247.116-.368.176-.139.066-.281.132-.421.2-16.9,8.1-45.7,9.445-57.388,9.645-1.676-.055-3.354-.05-5.036.029l-.126,0,0,.011c-25.636,1.247-51.516,18.056-65.76,45.6C-305.8,194.5-295.27,239.7-262.273,256.757a59.97,59.97,0,0,0,37.88,5.612v0s29.48,3.641,62.948,32.547h0a59.979,59.979,0,0,0,26.478,27.664c33,17.064,75.965-.471,95.971-39.161C-23.211,252.895-26.45,218.327-44.721,196.714Z" transform="translate(312.955 71.827)"/>
      </g>
    </g>
    <g id="Gruppe_3" data-name="Gruppe 3" class="cls-5" transform="translate(-10668 684)">
      <g id="Gruppe_126" data-name="Gruppe 126" transform="translate(8989.244 -680.509)">
        <g id="Gruppe_127" data-name="Gruppe 127" transform="translate(1847.865 392.24)">
          <path id="Pfad_346" data-name="Pfad 346" class="cls-6" d="M1889.3,648.5c-5.372-35.145-7.443-67.829-2.137-88.694,16.047-4.594,52.822,33.728,52.822,33.728s3.52,26.368,5.356,54.966Z" transform="translate(-1884.08 -531.716)"/>
          <path id="Pfad_347" data-name="Pfad 347" class="cls-7" d="M1983.408,632.483H1928.08c.734-18.456,2.3-39.336,5.494-58.82-14.621-9.62-24.17-25.236-23.864-25.544,1.793-1.793,82.683-35.639,84.951-32.174,11.379,17.384,11.529,52.637,7.185,60.892Z" transform="translate(-1893.466 -515.696)"/>
        </g>
        <g id="Gruppe_133" data-name="Gruppe 133" transform="translate(1902.319 205.12)">
          <g id="Gruppe_128" data-name="Gruppe 128" transform="translate(0.309 50.12)">
            <path id="Pfad_348" data-name="Pfad 348" class="cls-8" d="M2002.461,319.483l-14.642,8.4-17.316-6.9,1.313-18.848,31.243-2.637Z" transform="translate(-1970.503 -299.493)"/>
          </g>
          <g id="Gruppe_132" data-name="Gruppe 132">
            <g id="Gruppe_129" data-name="Gruppe 129" transform="translate(0 12.113)">
              <path id="Pfad_349" data-name="Pfad 349" class="cls-9" d="M2002.357,271.45c1.614-6.281,6.292-15.6,5.124-20.522-1.355-5.731-6.833-8.065-11.665-9.7s-10.6-3.1-15.162.626c-3.912,3.2-5.857,13.446-8.393,19.414a26.46,26.46,0,0,0-.373,20.446,9.122,9.122,0,0,0,5.177,3.859c2.074,1.156,11.549.893,13.729.037C1998.172,282.7,2000.3,279.482,2002.357,271.45Z" transform="translate(-1970.016 -239.514)"/>
            </g>
            <g id="Gruppe_131" data-name="Gruppe 131" transform="translate(3.198)">
              <g id="Gruppe_130" data-name="Gruppe 130">
                <path id="Pfad_350" data-name="Pfad 350" class="cls-10" d="M2021.526,247.462c2.9-6.029-4.436-11.138-5.832-13.555-5.069-8.772-14.488-6.505-16.923-8.73-10.209-9.341-15.356-2.455-15.294-.461a19.469,19.469,0,0,0,.475,2.926c-5.335.07-8.224,2.013-6.9,3.412.653.69-5.4,7.852.912,12,0,0,5.922-8.136,8-8.145,2.655-1.313,5.408,2.332,5.408,2.332s6.768,2.339,7.2,2.732c.79.719,3.51-.153,3.51-.153,7.365,6.4,3.258,20.416,3.258,20.416s-.55,10.168-1.286,19.933c1.643-2.669,8.171-8.648,11.23-12.679C2020.726,260.314,2018.406,253.946,2021.526,247.462Z" transform="translate(-1975.062 -220.398)"/>
              </g>
            </g>
            <path id="Pfad_351" data-name="Pfad 351" class="cls-9" d="M2020.822,282.883c7.676-3.415,3.169,7.263,1.056,9.41a7.278,7.278,0,0,1-4.568,1.279Z" transform="translate(-1987.341 -243.044)"/>
          </g>
        </g>
        <g id="Gruppe_135" data-name="Gruppe 135" transform="translate(1844.524 270.246)">
          <path id="Pfad_352" data-name="Pfad 352" class="cls-11" d="M1878.808,408.861c5.526-15.17,17.488-33.272,19.012-38.5,7.639,6.874,4.3,31.332.582,40.131C1896.647,421.239,1878.808,408.861,1878.808,408.861Z" transform="translate(-1878.808 -340.462)"/>
          <path id="Pfad_353" data-name="Pfad 353" class="cls-12" d="M1999.49,395.357s19.457-36.716,20.078-42.969c-3.558-11.742-34.054-29.177-34.054-29.177l-30.034.182s-22.371-.988-29.331,1.246c-10.683,3.428-21.321,19.407-24.611,28.44-2.15,5.906-3.073,32.482-3.073,32.482s-7.658,78.536-9.511,87.7c7.091,5.164,24.959,11.687,43.592,13.572,18.649,1.73,56.133-2.693,64.082-6.4C1996.568,471.083,1999.49,395.357,1999.49,395.357Z" transform="translate(-1882.524 -323.175)"/>
          <g id="Gruppe_134" data-name="Gruppe 134" transform="translate(89.668 29.213)">
            <path id="Pfad_354" data-name="Pfad 354" class="cls-9" d="M2063.816,453.618c-.434,13.426-7.984,29.313-18.341,43.535-3.986,5.8-9.493,7.268-15.248,6.475-13.378-1.843-9.338-26.533-9.338-26.533l10.156-22.392S2060.325,453.7,2063.816,453.618Z" transform="translate(-2020.316 -400.173)"/>
            <path id="Pfad_355" data-name="Pfad 355" class="cls-13" d="M2043.859,405.983l-6.612,17.823s28.674,12.773,35.307,5.821c10.378-10.881,1.34-60.351,1.34-60.351Z" transform="translate(-2026.518 -369.276)"/>
          </g>
        </g>
        <path id="Pfad_356" data-name="Pfad 356" class="cls-1" d="M1989.337,286.962c-.787,2.139-6.141,5.05-10.793,3.338-6.555-2.41-1.984-4.225-4.105-8.817-.425-.919.914,1.4,5.567,3.114S1989.738,285.868,1989.337,286.962Z" transform="translate(-69.289 -37.579)"/>
        <g id="Gruppe_148" data-name="Gruppe 148" transform="translate(1785.222 178.694)">
          <path id="Pfad_357" data-name="Pfad 357" class="cls-14" d="M1872.136,520.179c4.937,7.766,7.187,17.01,12.56,24.43,11.277-.022,22.273,2.655,27.261,5.9,4.493,5.517,11.8,10.145,8.38,19.817-4.447.766-14.762-3.137-18.426-11.053-7.107-1.844-21.11.988-28.945,4.748-3.891-10.464-11.3-16.411-17-21.612Z" transform="translate(-1811.137 -303.792)"/>
          <path id="Pfad_358" data-name="Pfad 358" class="cls-15" d="M1867.862,500.785c5.93,7.037,9.394,15.9,15.709,22.535,11.174-1.526,22.43-.342,27.806,2.2,5.189,4.868,13.053,8.477,10.949,18.521-4.305,1.353-15.048-1.137-19.735-8.5-7.29-.878-20.789,3.8-28.052,8.57-5.252-9.851-13.391-14.754-19.735-19.151Z" transform="translate(-1810.711 -296.688)"/>
          <path id="Pfad_359" data-name="Pfad 359" class="cls-14" d="M1828.177,535.412c.592,20.349-18.122,27.93-25.179,44.517,1.45-.731,4.125-1.025,5.691-1.754a128.268,128.268,0,0,0-3.088,45.112c17.741-1.042,30.651-3.554,39-20.312,6.847-13.732,10.271-31.394,11.284-46.581.534-8.018.35-17.128-5.072-23.569Z" transform="translate(-1791.734 -308.425)"/>
          <path id="Pfad_360" data-name="Pfad 360" class="cls-15" d="M1840.485,265.655c-25.789,18.578-51.242,69.22-54.6,85.729-3.533,17.372,7.319,55.254,25,59.44,8.019,1.9,4.2,12.273,5.291,20.185.809-1.1,2.52-1.776,3.209-2.534,1.831,4.337,2.709,8.181.029,12.427,3-1.2,6.28-2.251,9.182-3.389-.7,1.111-.693,2.855-1.411,4.076,13.246,1.167,25.555,1.672,34.932-8.181,9.728-10.223,9.255-21.063,8.081-34.334a53.584,53.584,0,0,1,1.947-20.446c.684,1.054,26.086-78.472,26.552-80.669Z" transform="translate(-1785.221 -210.551)"/>
          <g id="Gruppe_136" data-name="Gruppe 136" transform="translate(50.477 40.65)">
            <path id="Pfad_361" data-name="Pfad 361" class="cls-14" d="M1864.882,261.429c1.543,21.832,51.067,58.489,66.643,71.747,2.992-12.036,6.157-18.443,3.388-31.062,1.063,1.543,3.052,3.131,4.283,5.008.516-11.335-7.427-26.954-13.371-36.535,1.6,1.114,3.947,1.973,5.714,3.46-2.947-7.626-11.033-20.349-18.945-29.885C1907.375,237.872,1864.49,255.85,1864.882,261.429Z" transform="translate(-1864.88 -242.844)"/>
          </g>
          <g id="Gruppe_143" data-name="Gruppe 143" transform="translate(51.619)">
            <g id="Gruppe_137" data-name="Gruppe 137" transform="translate(21.189)">
              <path id="Pfad_362" data-name="Pfad 362" class="cls-14" d="M1954.259,203.122l-5.73-14.257a51.916,51.916,0,0,0-9.554,6.119c2.729,2.145,6.968,9.532,9.226,12.227Z" transform="translate(-1914.355 -182.42)"/>
              <path id="Pfad_363" data-name="Pfad 363" class="cls-15" d="M1953.308,188.865c-1.836,4.731-.722,9.954-1.288,14.935,3.678.015,6.392-.793,10.333-1.186-.464-5.9-2.357-10.022-6.72-12.675C1955.086,189.606,1953.308,188.865,1953.308,188.865Z" transform="translate(-1919.133 -182.42)"/>
              <path id="Pfad_364" data-name="Pfad 364" class="cls-14" d="M1903.943,187.846l12.878-8.383a51.989,51.989,0,0,1,4.31,10.494c-3.469.189-11.177,3.8-14.572,4.714Z" transform="translate(-1901.521 -178.976)"/>
              <path id="Pfad_365" data-name="Pfad 365" class="cls-15" d="M1915.421,179.181c-1.215,4.926-5.123,8.564-7.521,12.969-3.018-2.1-4.779-4.321-7.779-6.9,3.765-4.561,7.683-6.852,12.781-6.52C1913.54,178.767,1915.421,179.181,1915.421,179.181Z" transform="translate(-1900.121 -178.694)"/>
            </g>
            <g id="Gruppe_138" data-name="Gruppe 138" transform="translate(0 10.867)">
              <path id="Pfad_366" data-name="Pfad 366" class="cls-15" d="M1881.444,210.174c-1.2.446-2.644.5-3.872.938,2.686-5.8,17.76-13.723,24.242-13.422l-8.525,53.47,23.718-48.674c5.479,3.475,13.271,18.616,12.143,24.907-.756-1.066-1.9-1.935-2.632-2.992,5.183,10.182,2.248,19.3-2.326,29.033,1.04-2.49.976-5.488-.88-7.471-1.151,5.795-6.862,8.208-10.261,12.472a17.169,17.169,0,0,0,1.715-5.619c-3.529,2.651-7.915,6.022-11.991,7.179a27.813,27.813,0,0,0,1.37-2.781c-3.9,1.829-9.377,2.61-13.744,3.7-.01.086-.026.167-.03.253-.058-.067-.117-.136-.177-.2l-.258.065a4.008,4.008,0,0,1-.079-.456c-2.933-3.337-6.836-7.034-8.932-10.686a27.543,27.543,0,0,0-.475,3.062c-2.673-3.287-4.329-8.565-5.7-12.761a17.187,17.187,0,0,0-1.821,5.584c-.333-5.442-3.624-10.7-1.241-16.1-2.658.559-4.433,2.976-5.007,5.613C1868.524,224.684,1871.354,215.535,1881.444,210.174Z" transform="translate(-1866.682 -196.517)"/>
              <path id="Pfad_367" data-name="Pfad 367" class="cls-14" d="M1894.309,214.13c-4.049,12.828-2.319,35,7.507,38.1s24.026-14.038,28.075-26.866-.632-25.741-10.46-28.844S1898.359,201.3,1894.309,214.13Z" transform="translate(-1876.056 -195.843)"/>
              <path id="Pfad_368" data-name="Pfad 368" class="cls-14" d="M1894.309,215.611c-4.049,12.828-2.319,35,7.507,38.1s24.026-14.038,28.075-26.866-3.223-28.019-12.193-23.354C1916.091,194.887,1898.359,202.784,1894.309,215.611Z" transform="translate(-1876.056 -197.324)"/>
              <path id="Pfad_369" data-name="Pfad 369" class="cls-14" d="M1946.913,223.566c11.153,3.724,14.831,16.459,9.88,26.293,1.557-9.948-2.128-16.8-9.465-22.882Z" transform="translate(-1896.073 -205.999)"/>
              <path id="Pfad_370" data-name="Pfad 370" class="cls-14" d="M1896.786,211.537c-11.271-3.353-21.6,4.962-23.185,15.857,4.436-9.039,11.388-12.536,20.885-13.3Z" transform="translate(-1869.217 -201.317)"/>
            </g>
            <g id="Gruppe_142" data-name="Gruppe 142" transform="translate(24.627 24.625)">
              <g id="Gruppe_139" data-name="Gruppe 139" transform="translate(17.594 3.215)">
                <path id="Pfad_371" data-name="Pfad 371" class="cls-16" d="M1933.4,222.957a1.868,1.868,0,0,0,1.217,2.345c.986.311,3.83-.752,3.83-.752s-2.372-.435-3.357-.747S1933.71,221.974,1933.4,222.957Z" transform="translate(-1933.313 -222.63)"/>
              </g>
              <g id="Gruppe_140" data-name="Gruppe 140" transform="translate(6.462)">
                <path id="Pfad_372" data-name="Pfad 372" class="cls-16" d="M1920.794,219.15a1.87,1.87,0,0,1-2.345,1.22c-.985-.311-2.7-2.814-2.7-2.814s2.192,1.006,3.178,1.316S1921.1,218.167,1920.794,219.15Z" transform="translate(-1915.745 -217.556)"/>
              </g>
              <g id="Gruppe_141" data-name="Gruppe 141" transform="translate(0 17.307)">
                <path id="Pfad_373" data-name="Pfad 373" class="cls-14" d="M1908.469,244.868a7.442,7.442,0,0,0,8.6,6.065c-3.792,1.736-9.48,0-11.521-5.561Z" transform="translate(-1905.547 -244.868)"/>
              </g>
            </g>
          </g>
          <path id="Pfad_374" data-name="Pfad 374" class="cls-15" d="M1926.774,335.641c-4.475,4.932-20.645,21.36-20.645,21.36,11.4.971,25.065,8.66,33.614,15.658-.573-3.846-1.071-7.883.094-11.593.113-.241.1-.245-.024-.011.137,1.86,1.02,3.727,1.334,5.47,6.647-12.9,20.578-20.567,31.98-28.731a184.281,184.281,0,0,1,18.543-11.862c9.089-5.022,9.207-5.318,18.1-1.867,6.9,2.678,23.189.28,20.521-7.3-11.381-32.329-83.765-4.643-91.6-3.5C1938.689,313.262,1940.129,320.908,1926.774,335.641Z" transform="translate(-1829.514 -223.55)"/>
          <g id="Gruppe_147" data-name="Gruppe 147" transform="translate(68.344 29.43)">
            <g id="Gruppe_144" data-name="Gruppe 144" transform="translate(0 6.285)">
              <path id="Pfad_375" data-name="Pfad 375" class="cls-9" d="M1895.257,235.285c-1.158-.68-2.233.26-2.179,1.5.045,1.044,3.713,3.628,4.268,4.464a12.534,12.534,0,0,1,2.346,4.924c.434,1.873.032,3.656,1.537,5.156,1.431,1.426,2.512,2.663,4.493,3.258l3.412-10.384Z" transform="translate(-1893.077 -235.057)"/>
              <path id="Pfad_376" data-name="Pfad 376" class="cls-9" d="M1932.911,250.545a1.454,1.454,0,0,1,.861,2.5c-.655.813-5.142.719-6.084,1.062a12.529,12.529,0,0,0-4.81,2.574c-1.459,1.25-2.194,2.924-4.3,3.239-2,.3-3.6.655-5.549-.041l3.412-10.384Z" transform="translate(-1900.388 -240.348)"/>
              <path id="Pfad_377" data-name="Pfad 377" class="cls-17" d="M1906.1,239.462c1.241,1.865-1.136,10.357.369,11.856,1.431,1.426,2.512,2.663,4.493,3.258l3.412-10.384S1905.548,238.626,1906.1,239.462Z" transform="translate(-1897.794 -236.64)"/>
              <path id="Pfad_378" data-name="Pfad 378" class="cls-17" d="M1926.74,248.076c-2.106.765-5.228,9.012-7.33,9.327-2,.3-3.6.655-5.549-.041l3.412-10.384S1927.684,247.731,1926.74,248.076Z" transform="translate(-1900.691 -239.424)"/>
              <path id="Pfad_379" data-name="Pfad 379" class="cls-18" d="M1907.458,251.224c1.893-.438,4.677-.839,4.676,2.44,6.948-6.074,5.229,13.579-1.605,16.908-2.411,1.173-7.156-.146-7.807-3.557-.979-5.119,2.526-13.432,4.737-15.792Z" transform="translate(-1896.548 -240.873)"/>
            </g>
            <g id="Gruppe_146" data-name="Gruppe 146" transform="translate(0.577)">
              <path id="Pfad_380" data-name="Pfad 380" class="cls-15" d="M1909.373,240.866s-14.058-3.717-15.385-9.136c1.357-2.923,11.192-3.438,16.539-6.14a16.611,16.611,0,0,1,4.014-.452Z" transform="translate(-1893.988 -225.138)"/>
              <path id="Pfad_381" data-name="Pfad 381" class="cls-15" d="M1918.267,240.866s13.521,5.344,17.8,1.768c.642-3.158-6.972-9.405-9.674-14.753a16.65,16.65,0,0,0-2.963-2.743Z" transform="translate(-1902.882 -225.138)"/>
              <g id="Gruppe_145" data-name="Gruppe 145" transform="translate(12.268 6.815)">
                <path id="Pfad_382" data-name="Pfad 382" class="cls-9" d="M1923.152,240.915c-.551,1.679-3.494,3.326-6.169,2.448s-4.067-3.951-3.516-5.629,3.167-2.327,5.841-1.448S1923.7,239.237,1923.152,240.915Z" transform="translate(-1913.348 -235.893)"/>
                <path id="Pfad_383" data-name="Pfad 383" class="cls-19" d="M1916.824,241.1a1.573,1.573,0,1,1-.995-2.011A1.587,1.587,0,0,1,1916.824,241.1Z" transform="translate(-1913.497 -237.035)"/>
                <path id="Pfad_384" data-name="Pfad 384" class="cls-19" d="M1922.616,243a1.573,1.573,0,1,0,1.994-1.029A1.587,1.587,0,0,0,1922.616,243Z" transform="translate(-1916.714 -238.092)"/>
              </g>
              <path id="Pfad_385" data-name="Pfad 385" class="cls-15" d="M1915.776,227.077c-2.137,2.276-2.532,5.183-3.737,7.815-1.86-.514-1.5-3.185-.771-4.443a8.076,8.076,0,0,1,4.007-3.173Z" transform="translate(-1900.101 -225.848)"/>
              <path id="Pfad_386" data-name="Pfad 386" class="cls-15" d="M1930.528,231.264c.371,3.1-1.035,5.674-1.626,8.508,1.8.689,3.1-1.675,3.256-3.12a8.083,8.083,0,0,0-1.345-4.932Z" transform="translate(-1906.778 -227.382)"/>
            </g>
          </g>
        </g>
        <g id="Gruppe_151" data-name="Gruppe 151" transform="translate(1810.854 308.071)">
          <g id="Gruppe_150" data-name="Gruppe 150" transform="translate(33.201 0)">
            <path id="Pfad_387" data-name="Pfad 387" class="cls-9" d="M1933,426.466l-12.18,12.472s44.022,48.328,69.753,53.724c17.66-5.835,10.077-34.717,10.077-34.717Z" transform="translate(-1893.731 -398.839)"/>
            <g id="Gruppe_149" data-name="Gruppe 149">
              <path id="Pfad_388" data-name="Pfad 388" class="cls-9" d="M1912.457,390.781l.819-4.254s-4.791-.8-5.629,5.37a28.267,28.267,0,0,0,.623,4.683s-11.106-9.385-14.711-11.907c-5.858-4.094-6.3.052-6.3.052l3.611,4.105-4.981-4.137c-1.716-1.424-3.807-1.407-4.685.039-.662,1.087,1.3,4.721,2.188,6.048-1.679-1.257-4.318-1.789-5.238-.269-.963,1.58,6.408,9.457,6.408,9.457a2.415,2.415,0,0,0-3.56.4c-.786,1.156,10.544,11.559,10.544,11.559a2.956,2.956,0,0,0,.683.4l4.362,5.553,8.569,5.084,12.18-12.472,1.313-6.294Z" transform="translate(-1878.068 -382.868)"/>
            </g>
          </g>
          <path id="Pfad_389" data-name="Pfad 389" class="cls-9" d="M1854,499.231l4.39-2.16,16.551-7.486,2.774-4.605s4.92,3.1.575,9.508a35.35,35.35,0,0,1-4.407,3.855l16.331,3.753c1.315.56,1.821,2.348,1.129,3.991a3.112,3.112,0,0,1-3.128,2.113,3.334,3.334,0,0,1,.553,4.128,3.515,3.515,0,0,1-2.973,2.068c1.236.774,1.512,2.767.606,4.563-.943,1.867-2.812,2.812-4.176,2.111l-.756-.388a3.105,3.105,0,0,1-.115,2.739,2.949,2.949,0,0,1-2.447,1.729v.006l-12.176,2.376-10.568-2.3-2.391-.749c-21.367,1.654-28.68-25.61-28.064-33.311C1832.753,491.17,1854,499.231,1854,499.231Z" transform="translate(-1825.672 -420.275)"/>
        </g>
      </g>
    </g>
  </g>
</svg>
