<svg xmlns="http://www.w3.org/2000/svg" width="341.563" height="345.69" viewBox="0 0 341.563 345.69">
  <defs>
    <style>
      .cls-1 {
        fill: #fcf9eb;
      }

      .cls-2 {
        fill: #ab1638;
      }

      .cls-3 {
        fill: #931330;
      }

      .cls-4 {
        fill: #ff9a83;
      }

      .cls-5 {
        fill: #ffaa90;
      }

      .cls-6 {
        fill: #fe764a;
      }

      .cls-7 {
        fill: #fff;
      }

      .cls-8 {
        fill: #f8f0e2;
      }

      .cls-9 {
        fill: #8e6c8f;
      }

      .cls-10 {
        fill: #85c0c5;
      }

      .cls-11 {
        fill: #61adaf;
      }

      .cls-12 {
        fill: #b3d8db;
      }

      .cls-13 {
        fill: #ffac27;
      }

      .cls-14 {
        fill: #7a5d7b;
      }

      .cls-15 {
        fill: #fcc543;
      }

      .cls-16 {
        fill: #7a2222;
      }

      .cls-17 {
        fill: #ff8a5f;
      }

      .cls-18 {
        fill: #43200c;
      }

      .cls-19 {
        fill: #8d2e2a;
      }

      .cls-20 {
        fill: #fdbb45;
      }
    </style>
  </defs>
  <g id="Gruppe_216" data-name="Gruppe 216" transform="translate(-36.219 -26.921)">
    <g id="Gruppe_197" data-name="Gruppe 197" transform="translate(36.219 26.921)">
      <path id="Pfad_428" data-name="Pfad 428" class="cls-1" d="M535.309,303.108c0,11.572,42.56,31.575,53.012,31.575s31.47-15.153,31.47-26.727-21.017-15.181-31.47-15.181S535.309,291.535,535.309,303.108Z" transform="translate(-449.266 -229.059)"/>
      <g id="Gruppe_176" data-name="Gruppe 176" transform="translate(49.944 242.385)">
        <path id="Pfad_429" data-name="Pfad 429" class="cls-2" d="M587.908,654.119l5.148-15.537,2,15.537h56.536c1.113-49.389,2.19-97.99,2.19-97.99l-66.925,12.016c-19.207-12.247-43.47-24.7-46.793-12.016-7.877,30.086-10.7,67.765-11.624,97.99Z" transform="translate(-528.434 -550.813)"/>
        <path id="Pfad_430" data-name="Pfad 430" class="cls-3" d="M646.267,656.466l-13.615-29.712-17.307-12.161,24.754-.333Z" transform="translate(-581.106 -570.326)"/>
      </g>
      <g id="Gruppe_182" data-name="Gruppe 182" transform="translate(104.334)">
        <g id="Gruppe_177" data-name="Gruppe 177" transform="translate(0.345 51.689)">
          <path id="Pfad_431" data-name="Pfad 431" class="cls-4" d="M614.507,302.241l-16.4,9.4-19.39-7.727,1.471-21.106,34.129-7.387Z" transform="translate(-578.721 -275.423)"/>
        </g>
        <g id="Gruppe_181" data-name="Gruppe 181" transform="translate(0)">
          <g id="Gruppe_178" data-name="Gruppe 178" transform="translate(0 13.564)">
            <path id="Pfad_432" data-name="Pfad 432" class="cls-5" d="M606.23,256.127c1.807-7.033,7.046-17.465,5.737-22.98-1.517-6.417-7.651-9.031-13.062-10.866s-11.875-3.476-16.978.7c-4.382,3.588-6.558,15.057-9.4,21.739a29.631,29.631,0,0,0-.417,22.9,10.225,10.225,0,0,0,5.8,4.322c2.323,1.294,12.932,1,15.374.041C601.543,268.721,603.929,265.121,606.23,256.127Z" transform="translate(-570.015 -220.366)"/>
          </g>
          <g id="Gruppe_180" data-name="Gruppe 180" transform="translate(3.581)">
            <g id="Gruppe_179" data-name="Gruppe 179">
              <path id="Pfad_433" data-name="Pfad 433" class="cls-6" d="M601.536,231.083c3.241-6.752-4.968-12.472-6.531-15.179-5.675-9.822-16.223-7.284-18.948-9.775-11.434-10.46-17.2-2.749-17.128-.516.073,2.113.458,2.16.532,3.276-5.974.08-9.209,2.254-7.728,3.82.731.773-6.046,8.793,1.021,13.439,0,0,6.632-9.111,8.963-9.12,2.973-1.471,6.056,2.611,6.056,2.611s7.579,2.62,8.066,3.061c.884.805,3.93-.172,3.93-.172,8.247,7.169,3.648,22.861,3.648,22.861a152.231,152.231,0,0,0-3.7,22.321c1.839-2.989,11.411-9.683,14.836-14.2C600.641,245.474,598.041,238.344,601.536,231.083Z" transform="translate(-549.506 -200.778)"/>
            </g>
          </g>
          <path id="Pfad_434" data-name="Pfad 434" class="cls-5" d="M573.729,264.869c8.595-3.823,3.549,8.134,1.182,10.539-.866.885-3.725,1.629-5.115,1.431Z" transform="translate(-536.237 -220.258)"/>
        </g>
        <path id="Pfad_435" data-name="Pfad 435" class="cls-7" d="M618.151,270.372c-1.06,2.883-8.278,6.806-14.548,4.5-8.834-3.248-2.674-5.695-5.533-11.884-.574-1.239,1.231,1.89,7.5,4.2S618.692,268.9,618.151,270.372Z" transform="translate(-595.379 -219.824)"/>
      </g>
      <path id="Pfad_436" data-name="Pfad 436" class="cls-8" d="M658.284,397.92c6.04-16.577,18.4-57.133,20.067-62.84,8.348,7.512,19.469,43.69,24.294,53.307-1.918,11.739-8.408,31.951-16.243,32.091C671.772,437.092,658.284,397.92,658.284,397.92Z" transform="translate(-617.274 -242.081)"/>
      <path id="Pfad_437" data-name="Pfad 437" class="cls-4" d="M731.631,404.042l-4.171-2.662s-2.873,4.831,3.333,8.318a31.4,31.4,0,0,0,5.234,1.289s-14.651,8.062-18.844,10.9c-6.818,4.607-2.6,6.825-2.6,6.825l5.878-2.183-6.488,3.645c-2.237,1.254-3.1,3.517-1.936,5.07.88,1.175,5.559.582,7.341.172-2.034,1.286-3.714,3.912-2.489,5.541,1.272,1.7,12.743-2.962,12.743-2.962A2.831,2.831,0,0,0,728.553,442c.9,1.33,16.714-6.548,16.714-6.548a3.193,3.193,0,0,0,.715-.566l7.735-2.386,6.31-4.99-.977-17.568-10.559-6.977Z" transform="translate(-711.517 -262.472)"/>
      <g id="Gruppe_186" data-name="Gruppe 186" transform="translate(55.802 74.049)">
        <g id="Gruppe_184" data-name="Gruppe 184">
          <g id="Gruppe_183" data-name="Gruppe 183">
            <path id="Pfad_438" data-name="Pfad 438" class="cls-1" d="M622.593,386.193s17.623-52.528,17.639-59.529c-5.205-12.635-40.889-18.95-40.889-18.95l-33.277,3.43-32.383-3.43s-19.76,9.592-24.967,18.95c.016,7,.823,59.529.823,59.529s-12.948,74.985-1.111,98.251c8.414,4.963,28.925,10.273,49.782,10.361,20.857-.087,56.3-8.475,64.715-13.439C641.954,475.723,622.593,386.193,622.593,386.193Z" transform="translate(-503.442 -307.714)"/>
          </g>
          <path id="Pfad_439" data-name="Pfad 439" class="cls-8" d="M630.411,342.255C616.322,351.3,574.695,393.646,571.2,414.9c-1.435,8.71-50.3,20.434-49.6,29.317,12.484,12.483,50.155,20.677,70.2,21.108,25.081.539,44.894-13.057,46.625-30.425Z" transform="translate(-514.192 -318.337)"/>
        </g>
        <g id="Gruppe_185" data-name="Gruppe 185" transform="translate(44.326 9.888)">
          <rect id="Rechteck_39" data-name="Rechteck 39" class="cls-9" width="3.37" height="34.264" transform="translate(0)"/>
          <rect id="Rechteck_40" data-name="Rechteck 40" class="cls-9" width="3.37" height="34.264" transform="translate(27.522 1.966)"/>
        </g>
      </g>
      <g id="Gruppe_195" data-name="Gruppe 195" transform="translate(8.689 77.401)">
        <g id="Gruppe_188" data-name="Gruppe 188" transform="translate(0)">
          <path id="Pfad_440" data-name="Pfad 440" class="cls-8" d="M592.148,312.555h90.546a69.694,69.694,0,1,1-90.546,0Z" transform="translate(-567.726 -312.555)"/>
          <g id="Gruppe_187" data-name="Gruppe 187" transform="translate(2.77 34.719)">
            <path id="Pfad_441" data-name="Pfad 441" class="cls-10" d="M709.053,472.278q1.315.667,2.662,1.272Q710.367,472.942,709.053,472.278Z" transform="translate(-672.959 -396.396)"/>
            <path id="Pfad_442" data-name="Pfad 442" class="cls-10" d="M606.719,364.294a9.613,9.613,0,0,0-.035,1.872,5.044,5.044,0,0,0,.358,1.524c-.022.039-.044.081-.068.124a8.178,8.178,0,0,0-.566,1.326,9.369,9.369,0,0,0-.422,1.942,6.854,6.854,0,0,0,.033,1.872,4.219,4.219,0,0,0,.548,1.524c-.029.039-.06.08-.093.125a6.568,6.568,0,0,0-.725,1.325,7.182,7.182,0,0,0-.5,1.943,5.489,5.489,0,0,0,.1,1.871,3.9,3.9,0,0,0,.742,1.525c-.039.039-.078.081-.118.123a6.111,6.111,0,0,0-.888,1.327,6.009,6.009,0,0,0-.466,1.435c-.015-1.061-.025-2.305-.025-3.91,0-7.406,1.459-7.406,1.459-14.814,0-1.05-.035-1.939-.091-2.735h1.029A14.684,14.684,0,0,0,606.719,364.294Z" transform="translate(-495.955 -362.694)"/>
            <path id="Pfad_443" data-name="Pfad 443" class="cls-10" d="M607.6,398.6c-.045.039-.091.082-.137.124a6.247,6.247,0,0,0-.74.877c-.023-.91-.049-1.726-.071-2.624.009.031.01.068.019.1A3.842,3.842,0,0,0,607.6,398.6Z" transform="translate(-497.943 -373.237)"/>
            <path id="Pfad_444" data-name="Pfad 444" class="cls-10" d="M607.681,408.979c-.053.041-.106.08-.16.125s-.118.112-.174.161c0-.024,0-.044,0-.069,0-.193,0-.359,0-.54C607.456,408.774,607.57,408.882,607.681,408.979Z" transform="translate(-498.495 -376.829)"/>
            <path id="Pfad_445" data-name="Pfad 445" class="cls-10" d="M609.75,460.36c-.19.159-.379.319-.571.477.077-.064.15-.133.227-.2C609.521,460.545,609.637,460.454,609.75,460.36Z" transform="translate(-501.836 -392.731)"/>
            <path id="Pfad_446" data-name="Pfad 446" class="cls-10" d="M579.6,418.2a4.493,4.493,0,0,0,1.087-1.051,2.785,2.785,0,0,0,.525-1.944,3.586,3.586,0,0,0-.841-1.872,6.738,6.738,0,0,0-1.892-1.523c.066-.039.132-.082.2-.124a4.55,4.55,0,0,0,1.352-1.326,3,3,0,0,0,.449-1.942,3.866,3.866,0,0,0-.774-1.872,6.336,6.336,0,0,0-1.7-1.523c.058-.04.118-.082.177-.127a4.178,4.178,0,0,0,1.19-1.324,3.259,3.259,0,0,0,.375-1.942,4.207,4.207,0,0,0-.7-1.873,6.072,6.072,0,0,0-1.514-1.523c.051-.04.1-.081.154-.124a3.975,3.975,0,0,0,1.03-1.325,3.652,3.652,0,0,0,.3-1.944,4.722,4.722,0,0,0-.637-1.872,5.848,5.848,0,0,0-1.322-1.522l.13-.125a3.846,3.846,0,0,0,.868-1.324,4.164,4.164,0,0,0,.227-1.944,5.388,5.388,0,0,0-.567-1.871,5.925,5.925,0,0,0-1.134-1.523c.036-.041.072-.082.108-.126a3.817,3.817,0,0,0,.706-1.325,4.951,4.951,0,0,0,.155-1.942,6.411,6.411,0,0,0-.5-1.87,6.159,6.159,0,0,0-.943-1.526c.028-.039.057-.081.086-.124a3.981,3.981,0,0,0,.543-1.324,6.053,6.053,0,0,0,.083-1.944,8.3,8.3,0,0,0-.434-1.871,7.012,7.012,0,0,0-.755-1.523c.022-.043.042-.082.064-.127a4.615,4.615,0,0,0,.382-1.324,7.978,7.978,0,0,0,.007-1.944,11.6,11.6,0,0,0-.365-1.87,9.878,9.878,0,0,0-.563-1.525c.014-.04.026-.082.039-.126a5.73,5.73,0,0,0,.22-1.325c0-.044,0-.1,0-.147h15.528a65.758,65.758,0,0,1-10.824,56.613c-.084-.062-.17-.122-.255-.179A7.582,7.582,0,0,0,579.6,418.2Z" transform="translate(-461.749 -362.694)"/>
            <path id="Pfad_447" data-name="Pfad 447" class="cls-10" d="M650.38,480.726c.522-.1,1.047-.191,1.565-.3C651.427,480.534,650.9,480.629,650.38,480.726Z" transform="translate(-572.56 -398.901)"/>
            <path id="Pfad_448" data-name="Pfad 448" class="cls-10" d="M759.048,418.01c.214.631.427,1.264.66,1.886C759.475,419.274,759.262,418.641,759.048,418.01Z" transform="translate(-755.57 -379.706)"/>
            <path id="Pfad_449" data-name="Pfad 449" class="cls-10" d="M755.461,426.523c.27.6.539,1.2.824,1.787C756,427.721,755.731,427.121,755.461,426.523Z" transform="translate(-749.664 -382.324)"/>
            <path id="Pfad_450" data-name="Pfad 450" class="cls-10" d="M757.353,422.319c.241.613.481,1.229.741,1.833C757.833,423.548,757.594,422.932,757.353,422.319Z" transform="translate(-752.783 -381.031)"/>
            <path id="Pfad_451" data-name="Pfad 451" class="cls-10" d="M602.176,454.642c.259-.256.51-.52.763-.781C602.686,454.122,602.435,454.386,602.176,454.642Z" transform="translate(-490.175 -390.732)"/>
            <path id="Pfad_452" data-name="Pfad 452" class="cls-10" d="M606.019,458.313c.269-.237.541-.471.8-.711C606.56,457.842,606.288,458.076,606.019,458.313Z" transform="translate(-496.72 -391.882)"/>
            <path id="Pfad_453" data-name="Pfad 453" class="cls-10" d="M599.277,451.6q.381-.413.757-.833Q599.659,451.186,599.277,451.6Z" transform="translate(-485.262 -389.78)"/>
            <path id="Pfad_454" data-name="Pfad 454" class="cls-10" d="M596.581,448.36c.206-.247.416-.489.618-.736C597,447.872,596.787,448.114,596.581,448.36Z" transform="translate(-480.56 -388.814)"/>
            <path id="Pfad_455" data-name="Pfad 455" class="cls-10" d="M694.152,374.833c-.865,7.358-2.769,7.134-3.633,14.491s-.172,7.441-1.03,14.765a11.723,11.723,0,0,0-.646-2.74,10.166,10.166,0,0,0-1.514-2.733c.053-.071.1-.145.154-.223a8.053,8.053,0,0,0,1.029-2.376,11.286,11.286,0,0,0,.3-3.482,13.338,13.338,0,0,0-.636-3.355,10.956,10.956,0,0,0-1.322-2.73c.044-.071.087-.146.13-.223a8.594,8.594,0,0,0,.868-2.376,13.036,13.036,0,0,0,.228-3.482,15.885,15.885,0,0,0-.568-3.355,12.194,12.194,0,0,0-1.134-2.732c.036-.072.073-.146.109-.224a9.485,9.485,0,0,0,.706-2.376,15.627,15.627,0,0,0,.155-3.482,19.353,19.353,0,0,0-.5-3.355,15.6,15.6,0,0,0-.691-2.153h8.586C694.357,367.532,694.9,368.5,694.152,374.833Z" transform="translate(-640.13 -362.694)"/>
            <path id="Pfad_456" data-name="Pfad 456" class="cls-10" d="M646.082,479.754c.469-.111.942-.214,1.406-.334C647.024,479.54,646.551,479.644,646.082,479.754Z" transform="translate(-565.127 -398.592)"/>
            <path id="Pfad_457" data-name="Pfad 457" class="cls-10" d="M612.4,463.739c.359-.265.715-.535,1.069-.806C613.116,463.2,612.76,463.474,612.4,463.739Z" transform="translate(-507.786 -393.522)"/>
            <path id="Pfad_458" data-name="Pfad 458" class="cls-10" d="M610.576,461.387c-.047.037-.1.074-.143.114.019-.017.037-.033.057-.048S610.547,461.409,610.576,461.387Z" transform="translate(-503.529 -393.046)"/>
            <path id="Pfad_459" data-name="Pfad 459" class="cls-10" d="M632.669,475.149c.267-.11.533-.219.8-.334C633.2,474.93,632.936,475.039,632.669,475.149Z" transform="translate(-541.817 -397.176)"/>
            <path id="Pfad_460" data-name="Pfad 460" class="cls-10" d="M694.528,431.275c.058-.072.119-.147.179-.225a7.622,7.622,0,0,0,.962-1.737c-.125,1.14-.226,2.071-.328,3.025A9.519,9.519,0,0,0,694.528,431.275Z" transform="translate(-646.854 -383.182)"/>
            <path id="Pfad_461" data-name="Pfad 461" class="cls-10" d="M699.218,478.225c-.621-.186-1.235-.385-1.848-.588.244.082.5.147.746.226C698.485,477.98,698.847,478.115,699.218,478.225Z" transform="translate(-652.372 -398.044)"/>
            <path id="Pfad_462" data-name="Pfad 462" class="cls-10" d="M693.638,479.761c-.605-.144-1.212-.282-1.811-.442.331.087.672.15,1,.233C693.1,479.619,693.367,479.7,693.638,479.761Z" transform="translate(-642.953 -398.561)"/>
            <path id="Pfad_463" data-name="Pfad 463" class="cls-10" d="M695.849,478.994l-.469-.134c.069.02.139.035.209.055C695.676,478.94,695.76,478.969,695.849,478.994Z" transform="translate(-647.624 -398.42)"/>
            <path id="Pfad_464" data-name="Pfad 464" class="cls-10" d="M690.257,480.5c-.548-.109-1.089-.234-1.633-.356a.184.184,0,0,1,.006-.021C689.173,480.244,689.708,480.389,690.257,480.5Z" transform="translate(-637.354 -398.808)"/>
            <path id="Pfad_465" data-name="Pfad 465" class="cls-10" d="M654.16,434.234c.868-7.357,2.612-7.152,3.477-14.51s-.193-7.482.675-14.84.26-7.428,1.125-14.786.66-7.382,1.526-14.74c.784-6.661,2.044-7.17,2.918-12.665H679.3l-.1,7.439-.467,14.817-1.152,14.816.411,14.816,1.359,14.818v14.818l-.067.487a65.508,65.508,0,0,1-23.733-.3C655.387,441.473,653.581,439.174,654.16,434.234Zm14.369,3.9a3.023,3.023,0,1,0-3.025-3.023A3.022,3.022,0,0,0,668.529,438.134Z" transform="translate(-602.497 -362.694)"/>
            <path id="Pfad_466" data-name="Pfad 466" class="cls-10" d="M705.671,476.541c-1.653-.564-3.279-1.186-4.868-1.877,1.589.69,3.22,1.3,4.873,1.865Z" transform="translate(-661.206 -397.13)"/>
            <path id="Pfad_467" data-name="Pfad 467" class="cls-10" d="M760.544,413.637c.184.641.367,1.283.568,1.915C760.911,414.919,760.728,414.278,760.544,413.637Z" transform="translate(-758.011 -378.361)"/>
            <path id="Pfad_468" data-name="Pfad 468" class="cls-10" d="M708.261,405.463c0-.069,0-.184-.008-.332a6.315,6.315,0,0,0-.461-2.133,4.789,4.789,0,0,0-1.322-1.8c-.541-.471-1.082-.817-1.467-1.129.262-.239.611-.53.975-.822a5.343,5.343,0,0,0,1.131-1.3,5.964,5.964,0,0,0,.769-3.057c0-.094,0-.228-.011-.4a6.16,6.16,0,0,0-.976-3.169,12.373,12.373,0,0,0-1.669-1.775.745.745,0,0,1-.07-.071c.2-.249.553-.616.966-1.082a5.339,5.339,0,0,0,.872-1.394,6.859,6.859,0,0,0,.508-2.674c0-.1,0-.242-.01-.4a7.354,7.354,0,0,0-.719-2.958,11.891,11.891,0,0,0-1.256-1.816,1.773,1.773,0,0,1-.119-.191.554.554,0,0,1,.051-.2,14.438,14.438,0,0,1,.749-1.244,6.379,6.379,0,0,0,.62-1.445,8.115,8.115,0,0,0,.306-2.272c0-.134,0-.3-.012-.479a9.618,9.618,0,0,0-.444-2.551,13.889,13.889,0,0,0-.805-1.82c-.118-.316-.073-.124-.093-.382,0-.023,0-.073,0-.147a3.7,3.7,0,0,1,.311-1.384,9.831,9.831,0,0,0,.661-3.653c0-.211,0-.443-.017-.689h34.489a16.884,16.884,0,0,0,.122,2.779,10,10,0,0,0,.74,2.731c-.037.07-.076.147-.116.224a13.408,13.408,0,0,0-.888,2.376,17.244,17.244,0,0,0-.57,3.482,14.265,14.265,0,0,0,.169,3.351,8.858,8.858,0,0,0,.928,2.733c-.045.072-.091.148-.136.224a11.475,11.475,0,0,0-1.051,2.376,14.435,14.435,0,0,0-.643,3.483,12.221,12.221,0,0,0,.236,3.354,8.211,8.211,0,0,0,1.12,2.73c-.055.072-.106.147-.163.223a10.679,10.679,0,0,0-1.21,2.378,12.457,12.457,0,0,0-.715,3.48,10.586,10.586,0,0,0,.3,3.355,7.8,7.8,0,0,0,1.309,2.732c-.06.072-.121.146-.184.226a9.937,9.937,0,0,0-1.372,2.375,11.1,11.1,0,0,0-.791,3.482,9.561,9.561,0,0,0,.373,3.354,7.588,7.588,0,0,0,1.5,2.732c-.069.071-.138.146-.206.224a9.622,9.622,0,0,0-1.534,2.375,9.884,9.884,0,0,0-.864,3.482,8.574,8.574,0,0,0,.44,3.356,7.665,7.665,0,0,0,1.019,1.936c-1.705,2.27-2.843,5.914-2.944,10.061A66,66,0,0,1,707.2,408.814a4.581,4.581,0,0,0,.4-.588A5.683,5.683,0,0,0,708.261,405.463Z" transform="translate(-700.513 -362.694)"/>
            <path id="Pfad_469" data-name="Pfad 469" class="cls-10" d="M762.134,363.134c0,.1.007.173.007.249a2.082,2.082,0,0,1-.22.974,11.371,11.371,0,0,0-.744,3.659v.033c0,.156-.011.325-.011.519a8.681,8.681,0,0,0,.368,2.592,12.618,12.618,0,0,0,.8,1.841,1.648,1.648,0,0,1,.18.739l0,.039v.032c-.026.111-.3.5-.715,1.175a7.768,7.768,0,0,0-1.009,3.636v.033h0c0,.116-.008.248-.008.4a7.032,7.032,0,0,0,.643,3.057,11.24,11.24,0,0,0,1.254,1.83,2.233,2.233,0,0,1,.16.251c-.186.254-.6.645-1.072,1.21a5.644,5.644,0,0,0-.83,1.372,7.2,7.2,0,0,0-.527,2.449v.018l0,.038c0,.068-.005.174-.005.319a6.054,6.054,0,0,0,.9,3.34,11.66,11.66,0,0,0,1.667,1.777c.013.015.028.029.042.045-.253.236-.617.544-1,.849a5.617,5.617,0,0,0-1.142,1.3c-.033.051-.067.109-.1.167a65.79,65.79,0,0,1,.012-34.38H762.1C762.113,362.827,762.125,362.958,762.134,363.134Z" transform="translate(-758.494 -362.694)"/>
            <path id="Pfad_470" data-name="Pfad 470" class="cls-10" d="M614.864,414.586l.208-14.818-.483-14.815,1.339-14.816-.065-7.443h20.582v2.729c0,7.409.881,7.409.881,14.818s-1.915,7.408-1.915,14.817.7,7.408.7,14.815.075,7.409.075,14.819a35,35,0,0,0,1.019,8.622,65.7,65.7,0,0,1-12.186,6.924c-.094-.042-.187-.083-.269-.125l-.036-.017c.217-.12.508-.249.8-.423a1.956,1.956,0,0,0,.729-.708,1.744,1.744,0,0,0,.22-.858c0-.046,0-.083,0-.113v-.018a1.832,1.832,0,0,0-.47-1.121,2.7,2.7,0,0,0-.637-.5c-.213-.116-.416-.235-.558-.325a.1.1,0,0,0,.024-.018,5.759,5.759,0,0,0,.929-.681,1.817,1.817,0,0,0,.5-1.28c0-.056,0-.1,0-.122v-.022a2.057,2.057,0,0,0-.294-.938,2.249,2.249,0,0,0-.463-.526c-.264-.217-.494-.367-.6-.464a1.094,1.094,0,0,1,.089-.1,4.687,4.687,0,0,0,.7-.7,2.022,2.022,0,0,0,.358-1.172c0-.06,0-.11,0-.154v-.012a2.352,2.352,0,0,0-.562-1.395,5.411,5.411,0,0,1-.4-.451v0c0-.009,0-.008,0-.008v-.018a.508.508,0,0,1,.1-.283,4.256,4.256,0,0,0,.45-.706,2.364,2.364,0,0,0,.2-.992c0-.074,0-.14,0-.2v-.013a3.236,3.236,0,0,0-.416-1.4c-.127-.258-.108-.181-.122-.373,0-.029,0-.057,0-.1a2.339,2.339,0,0,1,.138-.674,3.524,3.524,0,0,0,.195-1.167c0-.116,0-.229-.012-.354-.028-.42-.067-.7-.091-.9a3.427,3.427,0,0,1-.035-.485c0-.117,0-.271.019-.484a.884.884,0,0,0-.652-1c-.022,0-.043,0-.064,0a.817.817,0,0,0-.717.836c-.019.255-.026.463-.026.65a5.621,5.621,0,0,0,.053.773c.027.215.054.414.078.769.006.082.008.148.008.2a1.179,1.179,0,0,1-.087.47,4.538,4.538,0,0,0-.24,1.2c-.006.093-.01.181-.01.263a2.777,2.777,0,0,0,.37,1.4,1.076,1.076,0,0,1,.173.53c0,.029,0,.047,0,.056-.011.1.014.026-.053.147a5.008,5.008,0,0,0-.449.7,2.667,2.667,0,0,0-.247.978c-.005.07-.007.133-.007.185a2.212,2.212,0,0,0,.17.87,2.149,2.149,0,0,0,.345.554,5.864,5.864,0,0,1,.419.477.17.17,0,0,1,.029.076.822.822,0,0,1-.068.073,5.009,5.009,0,0,0-.7.7,2.164,2.164,0,0,0-.4,1.134c0,.061,0,.114,0,.154a1.933,1.933,0,0,0,.282,1.026,2.131,2.131,0,0,0,.486.533c.23.181.431.32.539.415a.463.463,0,0,1-.039.028,6.193,6.193,0,0,0-.931.679,1.92,1.92,0,0,0-.546,1.215c-.005.065-.005.117-.005.152a1.764,1.764,0,0,0,.429,1.172,2.557,2.557,0,0,0,.63.5c.2.114.4.226.544.316-.215.12-.517.253-.818.433a2.107,2.107,0,0,0-.737.692,1.774,1.774,0,0,0-.257.818,1.132,1.132,0,0,0-.006.128,1.711,1.711,0,0,0,.224.845A65.042,65.042,0,0,1,615.6,443.5l-.854-14.1Z" transform="translate(-533.157 -362.694)"/>
            <path id="Pfad_471" data-name="Pfad 471" class="cls-11" d="M610,461.283c.1-.08.2-.154.3-.234C610.2,461.129,610.1,461.2,610,461.283Z" transform="translate(-502.957 -392.942)"/>
            <path id="Pfad_472" data-name="Pfad 472" class="cls-11" d="M614.661,464.454c-.076.055-.147.114-.223.169a.1.1,0,0,1,0-.016l.224-.161Z" transform="translate(-510.386 -393.987)"/>
            <path id="Pfad_473" data-name="Pfad 473" class="cls-11" d="M605.745,457.254c-.033.033-.069.06-.1.089l.1-.1Z" transform="translate(-495.382 -391.773)"/>
            <path id="Pfad_474" data-name="Pfad 474" class="cls-11" d="M610.285,460.764c-.078.064-.15.134-.227.2-.1.08-.2.154-.3.234-.028.022-.059.043-.085.065C609.88,461.1,610.083,460.93,610.285,460.764Z" transform="translate(-502.714 -392.855)"/>
            <path id="Pfad_475" data-name="Pfad 475" class="cls-11" d="M606.723,409.872c0-7.407-.7-7.407-.7-14.815s1.915-7.409,1.915-14.817-.881-7.409-.881-14.818v-2.729h6.722c.056.8.091,1.684.091,2.735,0,7.409-1.459,7.409-1.459,14.814,0,1.605.01,2.849.025,3.91-.035.17-.085.339-.1.508a4.541,4.541,0,0,0,.149,1.772c.021.9.048,1.714.071,2.624a4.686,4.686,0,0,0-.309.449,4.972,4.972,0,0,0-.643,1.944,3.864,3.864,0,0,0,.236,1.87,3.787,3.787,0,0,0,.78,1.2c0,.181,0,.348,0,.54,0,.024,0,.044,0,.069a5.567,5.567,0,0,0-1.038,1.164,4.456,4.456,0,0,0-.715,1.941,3.452,3.452,0,0,0,.3,1.874,4.153,4.153,0,0,0,1.31,1.524c-.061.039-.123.081-.186.125a6.01,6.01,0,0,0-1.372,1.325,4.034,4.034,0,0,0-.789,1.942,3.12,3.12,0,0,0,.372,1.871,4.475,4.475,0,0,0,1.5,1.526c-.067.037-.136.08-.2.123a6.376,6.376,0,0,0-1.536,1.326,3.741,3.741,0,0,0-.863,1.942,2.871,2.871,0,0,0,.439,1.87,4.3,4.3,0,0,0,1.019,1.082,7.389,7.389,0,0,0-2.955,5.95V431.7a7.524,7.524,0,0,0,.139,1.451l-.224.161a35,35,0,0,1-1.019-8.622C606.8,417.281,606.723,417.281,606.723,409.872Z" transform="translate(-503.768 -362.694)"/>
            <path id="Pfad_476" data-name="Pfad 476" class="cls-11" d="M694.442,479.054c.217.06.431.127.649.184C694.873,479.181,694.659,479.114,694.442,479.054Z" transform="translate(-646.217 -398.48)"/>
            <path id="Pfad_477" data-name="Pfad 477" class="cls-11" d="M700.039,477.392l.008-.017q.266.092.534.181C700.4,477.5,700.216,477.451,700.039,477.392Z" transform="translate(-655.582 -397.963)"/>
            <path id="Pfad_478" data-name="Pfad 478" class="cls-11" d="M688.559,480.7c-.05-.009-.1-.023-.146-.032l.144.024Z" transform="translate(-635.511 -398.975)"/>
            <path id="Pfad_479" data-name="Pfad 479" class="cls-11" d="M694.905,479.435c-.332-.083-.673-.145-1-.233-.219-.057-.432-.123-.65-.184-.089-.025-.173-.055-.26-.08C693.624,479.116,694.265,479.276,694.905,479.435Z" transform="translate(-645.027 -398.444)"/>
            <path id="Pfad_480" data-name="Pfad 480" class="cls-11" d="M679.844,441.207a8.685,8.685,0,0,0-.908-3.354,9.531,9.531,0,0,0-1.177-1.783q-.1-.854-.259-1.664a7.414,7.414,0,0,0,1.088-1.884,8.156,8.156,0,0,0,.523-3.482,9.454,9.454,0,0,0-2.734-6.085c.066-.073.133-.147.2-.224a7.544,7.544,0,0,0,1.352-2.377,8.939,8.939,0,0,0,.45-3.482,10.5,10.5,0,0,0-.773-3.354,10.224,10.224,0,0,0-.893-1.668c.1-.954.2-1.885.328-3.025.081-.2.159-.412.227-.638a9.972,9.972,0,0,0,.377-3.484c-.011-.2-.037-.408-.06-.613.859-7.324.166-7.418,1.03-14.765s2.768-7.133,3.633-14.491c.747-6.334.2-7.3.589-12.139h6.772c-.874,5.5-2.134,6-2.918,12.665-.866,7.358-.66,7.382-1.526,14.74s-.26,7.429-1.125,14.786.191,7.483-.675,14.84-2.609,7.153-3.477,14.51c-.58,4.939,1.226,7.238,1.384,10.174l-.144-.024c-.549-.109-1.084-.255-1.627-.377A7.651,7.651,0,0,0,679.844,441.207Z" transform="translate(-628.226 -362.694)"/>
            <path id="Pfad_481" data-name="Pfad 481" class="cls-11" d="M700.242,477.777c-.247-.079-.5-.144-.746-.226q-.268-.089-.534-.181l0-.012Q699.6,477.574,700.242,477.777Z" transform="translate(-654.497 -397.958)"/>
            <path id="Pfad_482" data-name="Pfad 482" class="cls-11" d="M648.113,480.264c.527-.11,1.048-.239,1.57-.361C649.161,480.026,648.64,480.154,648.113,480.264Z" transform="translate(-568.728 -398.741)"/>
            <path id="Pfad_483" data-name="Pfad 483" class="cls-11" d="M646.046,479.389l-.081.02.081-.024Z" transform="translate(-563.603 -398.582)"/>
            <path id="Pfad_484" data-name="Pfad 484" class="cls-11" d="M652.64,481.059l0-.014c.348-.059.695-.122,1.041-.186C653.334,480.923,652.991,481,652.64,481.059Z" transform="translate(-575.863 -399.035)"/>
            <path id="Pfad_485" data-name="Pfad 485" class="cls-11" d="M647.26,429.4,645.9,414.582l-.411-14.816,1.152-14.816.467-14.817.1-7.439h5.908l.065,7.443-1.339,14.816.483,14.815-.208,14.818L652,429.4l.854,14.1-.081.024c-.465.12-.937.224-1.406.334-.522.123-1.043.251-1.57.361s-1.043.2-1.565.3c-.346.064-.692.127-1.041.186l.067-.487Z" transform="translate(-570.414 -362.694)"/>
            <path id="Pfad_486" data-name="Pfad 486" class="cls-12" d="M691.563,480.107c-.2-.045-.384-.1-.581-.15l.585.135Z" transform="translate(-640.297 -398.757)"/>
            <path id="Pfad_487" data-name="Pfad 487" class="cls-12" d="M712.9,471.907a.067.067,0,0,1,0-.017q.263.135.526.269C713.252,472.071,713.071,472,712.9,471.907Z" transform="translate(-677.331 -396.276)"/>
            <path id="Pfad_488" data-name="Pfad 488" class="cls-12" d="M707.84,474.115c.28.127.557.258.84.38C708.4,474.373,708.12,474.242,707.84,474.115Z" transform="translate(-669.083 -396.961)"/>
            <path id="Pfad_489" data-name="Pfad 489" class="cls-12" d="M696.057,478.486c.3.091.607.173.91.259C696.664,478.659,696.358,478.577,696.057,478.486Z" transform="translate(-649.211 -398.305)"/>
            <path id="Pfad_490" data-name="Pfad 490" class="cls-12" d="M697.976,478.639c-.07-.02-.14-.035-.209-.055-.3-.086-.609-.168-.91-.259-.371-.11-.733-.244-1.1-.362C696.49,478.2,697.229,478.43,697.976,478.639Z" transform="translate(-650.01 -398.144)"/>
            <path id="Pfad_491" data-name="Pfad 491" class="cls-12" d="M695.668,426.311a8.575,8.575,0,0,1-.44-3.356,9.887,9.887,0,0,1,.864-3.482,9.622,9.622,0,0,1,1.534-2.375c.068-.078.136-.152.206-.224a7.591,7.591,0,0,1-1.5-2.732,9.566,9.566,0,0,1-.373-3.354,11.1,11.1,0,0,1,.791-3.482,9.941,9.941,0,0,1,1.372-2.375c.063-.08.125-.154.184-.226A7.8,7.8,0,0,1,697,401.974a10.586,10.586,0,0,1-.3-3.355,12.457,12.457,0,0,1,.715-3.48,10.679,10.679,0,0,1,1.21-2.378c.057-.076.108-.151.163-.223a8.209,8.209,0,0,1-1.12-2.73,12.224,12.224,0,0,1-.236-3.354,14.438,14.438,0,0,1,.643-3.483,11.475,11.475,0,0,1,1.051-2.376c.046-.076.091-.152.136-.224a8.858,8.858,0,0,1-.928-2.733,14.262,14.262,0,0,1-.169-3.351,17.253,17.253,0,0,1,.57-3.482,13.418,13.418,0,0,1,.888-2.376c.039-.078.079-.154.116-.224a10,10,0,0,1-.74-2.731,16.891,16.891,0,0,1-.122-2.779H704.2a15.6,15.6,0,0,1,.691,2.153,19.347,19.347,0,0,1,.5,3.355,15.624,15.624,0,0,1-.155,3.482,9.485,9.485,0,0,1-.706,2.376c-.036.078-.073.152-.109.224a12.2,12.2,0,0,1,1.134,2.732,15.893,15.893,0,0,1,.569,3.355,13.046,13.046,0,0,1-.228,3.482,8.6,8.6,0,0,1-.868,2.376c-.044.077-.087.152-.13.223a10.95,10.95,0,0,1,1.322,2.73,13.343,13.343,0,0,1,.636,3.355,11.286,11.286,0,0,1-.3,3.482,8.052,8.052,0,0,1-1.029,2.376c-.051.078-.1.152-.154.223a10.164,10.164,0,0,1,1.514,2.733,11.723,11.723,0,0,1,.646,2.74c0,.011,0,.019,0,.033-.239,2.025-.4,3.484-.541,4.7a7.628,7.628,0,0,1-.962,1.737c-.06.078-.121.153-.179.225a9.512,9.512,0,0,1,.812,1.063c-.185,1.727-.384,3.56-.789,7-.865,7.357.672,7.538-.2,14.9-.507,4.307-2.154,6.139-3.033,8.349-1.653-.565-3.284-1.176-4.873-1.865-.282-.122-.559-.253-.84-.38q-1.348-.608-2.663-1.272c-.176-.089-.351-.179-.526-.269.1-4.147,1.239-7.791,2.944-10.061A7.661,7.661,0,0,1,695.668,426.311Z" transform="translate(-658.174 -362.694)"/>
            <path id="Pfad_492" data-name="Pfad 492" class="cls-12" d="M692.371,479.978a.2.2,0,0,0-.006.021l-.585-.135c-.271-.064-.536-.142-.807-.209C691.437,479.769,691.9,479.872,692.371,479.978Z" transform="translate(-641.095 -398.665)"/>
            <path id="Pfad_493" data-name="Pfad 493" class="cls-12" d="M693.852,426.572c-.068.226-.146.437-.227.638.136-1.218.3-2.677.541-4.7,0-.013,0-.021,0-.033.023.2.048.41.06.613A9.971,9.971,0,0,1,693.852,426.572Z" transform="translate(-644.81 -381.079)"/>
            <path id="Pfad_494" data-name="Pfad 494" class="cls-12" d="M696.138,438.7a8.94,8.94,0,0,1-.45,3.482,7.543,7.543,0,0,1-1.352,2.377c-.065.078-.132.152-.2.224a9.455,9.455,0,0,1,2.734,6.085,8.155,8.155,0,0,1-.523,3.482,7.413,7.413,0,0,1-1.088,1.884q.158.809.259,1.664a9.528,9.528,0,0,1,1.177,1.783,8.685,8.685,0,0,1,.908,3.354,7.649,7.649,0,0,1-.341,2.8c-.467-.105-.934-.208-1.4-.323-.641-.159-1.281-.319-1.913-.5-.747-.208-1.485-.44-2.221-.676q-.642-.2-1.275-.419c.879-2.21,2.526-4.042,3.033-8.349.868-7.359-.67-7.54.2-14.9.4-3.438.6-5.271.789-7a10.221,10.221,0,0,1,.893,1.668A10.5,10.5,0,0,1,696.138,438.7Z" transform="translate(-645.986 -384.526)"/>
            <path id="Pfad_495" data-name="Pfad 495" class="cls-12" d="M758.423,420.734c.136.369.289.732.433,1.1C758.712,421.465,758.559,421.1,758.423,420.734Z" transform="translate(-754.285 -380.544)"/>
            <path id="Pfad_496" data-name="Pfad 496" class="cls-12" d="M760,416.4c.119.375.251.743.376,1.113C760.252,417.146,760.12,416.778,760,416.4Z" transform="translate(-756.899 -379.212)"/>
            <path id="Pfad_497" data-name="Pfad 497" class="cls-12" d="M756.651,424.966c.156.362.326.718.486,1.078C756.976,425.684,756.807,425.328,756.651,424.966Z" transform="translate(-751.34 -381.845)"/>
            <path id="Pfad_498" data-name="Pfad 498" class="cls-12" d="M755.426,429.243c-.024-.046-.043-.094-.066-.14.023.046.048.089.07.135Z" transform="translate(-748.739 -383.118)"/>
            <path id="Pfad_499" data-name="Pfad 499" class="cls-12" d="M761.365,412.355l.007-.012c.081.3.169.6.253.9C761.541,412.943,761.444,412.654,761.365,412.355Z" transform="translate(-759.092 -377.963)"/>
            <path id="Pfad_500" data-name="Pfad 500" class="cls-12" d="M755.446,395.611c.383-.3.747-.613,1-.849-.013-.016-.028-.03-.042-.045a11.66,11.66,0,0,1-1.667-1.777,6.054,6.054,0,0,1-.9-3.34c0-.144,0-.251.006-.319l0-.038v-.018a7.2,7.2,0,0,1,.527-2.449,5.638,5.638,0,0,1,.83-1.372c.472-.566.886-.956,1.072-1.21a2.224,2.224,0,0,0-.16-.251,11.236,11.236,0,0,1-1.254-1.83,7.032,7.032,0,0,1-.643-3.057c0-.152,0-.284.008-.4h0v-.033a7.768,7.768,0,0,1,1.009-3.636c.415-.677.689-1.064.715-1.175v-.032l0-.039a1.649,1.649,0,0,0-.18-.739,12.611,12.611,0,0,1-.8-1.841,8.679,8.679,0,0,1-.368-2.592c0-.194.006-.364.011-.519v-.033a11.369,11.369,0,0,1,.744-3.659,2.084,2.084,0,0,0,.22-.974c0-.075,0-.15-.007-.249-.01-.177-.021-.307-.032-.44h2.6c.012.246.017.478.017.689a9.828,9.828,0,0,1-.661,3.653,3.7,3.7,0,0,0-.311,1.384c0,.074,0,.124,0,.147.02.258-.025.066.093.382a13.9,13.9,0,0,1,.805,1.82,9.618,9.618,0,0,1,.444,2.551c.01.182.012.345.012.479a8.115,8.115,0,0,1-.306,2.272,6.377,6.377,0,0,1-.62,1.445,14.455,14.455,0,0,0-.749,1.244.552.552,0,0,0-.051.2,1.771,1.771,0,0,0,.119.191,11.886,11.886,0,0,1,1.256,1.816,7.354,7.354,0,0,1,.72,2.958c.01.159.01.3.01.4A6.857,6.857,0,0,1,758.4,387a5.338,5.338,0,0,1-.872,1.394c-.413.466-.77.833-.966,1.082a.752.752,0,0,0,.07.071,12.363,12.363,0,0,1,1.669,1.775,6.159,6.159,0,0,1,.976,3.169c.01.169.011.3.011.4a5.965,5.965,0,0,1-.769,3.057,5.344,5.344,0,0,1-1.131,1.3c-.364.292-.713.583-.975.822.385.312.926.658,1.467,1.129A4.79,4.79,0,0,1,759.2,403a6.319,6.319,0,0,1,.461,2.133c.008.148.008.263.008.332a5.684,5.684,0,0,1-.659,2.764,4.606,4.606,0,0,1-.4.588c-.022-.046-.047-.089-.07-.135-.285-.589-.554-1.188-.824-1.787-.161-.36-.33-.716-.486-1.078-.26-.6-.5-1.219-.741-1.833-.144-.366-.3-.728-.433-1.1-.233-.623-.446-1.255-.66-1.886-.125-.37-.257-.738-.376-1.113-.2-.632-.385-1.274-.568-1.915-.084-.3-.172-.6-.253-.9.033-.057.067-.116.1-.167A5.617,5.617,0,0,1,755.446,395.611Z" transform="translate(-751.925 -362.694)"/>
            <path id="Pfad_501" data-name="Pfad 501" class="cls-12" d="M633.827,475.626l-.007-.017c.265-.1.532-.2.794-.312C634.352,475.406,634.092,475.52,633.827,475.626Z" transform="translate(-543.761 -397.324)"/>
            <path id="Pfad_502" data-name="Pfad 502" class="cls-12" d="M632.57,474.681c-.073.033-.148.061-.222.091.072-.03.143-.064.215-.1Z" transform="translate(-540.698 -397.134)"/>
            <path id="Pfad_503" data-name="Pfad 503" class="cls-12" d="M630.283,464.942a1.774,1.774,0,0,1,.257-.818,2.108,2.108,0,0,1,.737-.692c.3-.179.6-.313.818-.433-.145-.089-.34-.2-.544-.316a2.557,2.557,0,0,1-.63-.5,1.764,1.764,0,0,1-.429-1.172c0-.035,0-.087.005-.152a1.921,1.921,0,0,1,.546-1.215,6.188,6.188,0,0,1,.931-.679.475.475,0,0,0,.039-.028c-.108-.1-.31-.235-.539-.415a2.13,2.13,0,0,1-.486-.533,1.932,1.932,0,0,1-.282-1.026c0-.039,0-.093,0-.154a2.164,2.164,0,0,1,.4-1.134,5.009,5.009,0,0,1,.7-.7.822.822,0,0,0,.068-.073.17.17,0,0,0-.029-.076,5.873,5.873,0,0,0-.419-.477,2.149,2.149,0,0,1-.345-.554,2.211,2.211,0,0,1-.17-.87c0-.052,0-.115.007-.185a2.665,2.665,0,0,1,.247-.978,5.006,5.006,0,0,1,.449-.7c.067-.121.042-.049.053-.147,0-.009,0-.027,0-.056a1.076,1.076,0,0,0-.173-.53,2.776,2.776,0,0,1-.37-1.4c0-.082,0-.17.01-.263a4.536,4.536,0,0,1,.24-1.2,1.179,1.179,0,0,0,.087-.47c0-.051,0-.117-.008-.2-.024-.355-.051-.553-.078-.769a5.651,5.651,0,0,1-.053-.773c0-.187.008-.395.026-.65a.817.817,0,0,1,.717-.836c.021,0,.042,0,.064,0a.884.884,0,0,1,.652,1c-.015.213-.019.367-.019.484a3.418,3.418,0,0,0,.035.485c.025.2.063.482.091.9.008.125.013.238.013.354a3.528,3.528,0,0,1-.195,1.167,2.336,2.336,0,0,0-.139.674c0,.039,0,.068,0,.1.014.191,0,.114.122.373a3.235,3.235,0,0,1,.416,1.4v.013c0,.059,0,.125,0,.2a2.366,2.366,0,0,1-.2.992,4.267,4.267,0,0,1-.45.706.507.507,0,0,0-.1.283v.018s0,0,0,.008v0a5.411,5.411,0,0,0,.4.451,2.352,2.352,0,0,1,.562,1.395v.012c0,.044,0,.094,0,.154a2.022,2.022,0,0,1-.358,1.172,4.687,4.687,0,0,1-.7.7,1.094,1.094,0,0,0-.089.1c.1.1.334.247.6.464a2.246,2.246,0,0,1,.463.526,2.056,2.056,0,0,1,.294.938v.022c0,.026,0,.066,0,.122a1.816,1.816,0,0,1-.5,1.28,5.76,5.76,0,0,1-.929.681.1.1,0,0,1-.023.018c.142.09.345.208.558.325a2.7,2.7,0,0,1,.637.5,1.832,1.832,0,0,1,.47,1.121v.018c0,.03,0,.066,0,.113a1.743,1.743,0,0,1-.22.858,1.957,1.957,0,0,1-.729.708c-.289.174-.58.3-.8.423l.036.017c.082.042.175.083.269.125-.072.031-.143.066-.215.1-.264.115-.53.224-.8.334s-.529.208-.794.312a1.711,1.711,0,0,1-.224-.845A1.132,1.132,0,0,1,630.283,464.942Z" transform="translate(-540.442 -387.63)"/>
            <path id="Pfad_504" data-name="Pfad 504" class="cls-12" d="M607.181,459.828c.468-.391.927-.794,1.384-1.2C608.108,459.033,607.649,459.436,607.181,459.828Z" transform="translate(-499.266 -392.198)"/>
            <path id="Pfad_505" data-name="Pfad 505" class="cls-12" d="M604.916,454.989q-.8.8-1.638,1.563v0Q604.11,455.783,604.916,454.989Z" transform="translate(-492.914 -391.079)"/>
            <path id="Pfad_506" data-name="Pfad 506" class="cls-12" d="M610.639,462.508c.409-.314.816-.634,1.22-.957C611.455,461.874,611.048,462.194,610.639,462.508Z" transform="translate(-504.955 -393.097)"/>
            <path id="Pfad_507" data-name="Pfad 507" class="cls-12" d="M614.285,464.1c-.114.082-.225.172-.339.256v-.006c.042-.031.082-.065.124-.1C614.141,464.2,614.214,464.149,614.285,464.1Z" transform="translate(-509.67 -393.88)"/>
            <path id="Pfad_508" data-name="Pfad 508" class="cls-12" d="M605.949,457.386l-.157.15c.048-.045.1-.093.145-.14A.04.04,0,0,0,605.949,457.386Z" transform="translate(-495.689 -391.816)"/>
            <path id="Pfad_509" data-name="Pfad 509" class="cls-12" d="M600.37,453.279q.634-.646,1.251-1.31Q601,452.634,600.37,453.279Z" transform="translate(-487.606 -390.15)"/>
            <path id="Pfad_510" data-name="Pfad 510" class="cls-12" d="M595.814,444.452c-.56.746-1.137,1.476-1.728,2.2q.886-1.081,1.726-2.2Z" transform="translate(-477.447 -387.838)"/>
            <path id="Pfad_511" data-name="Pfad 511" class="cls-12" d="M597.474,450.127c.423-.474.839-.956,1.248-1.44C598.313,449.171,597.9,449.653,597.474,450.127Z" transform="translate(-482.702 -389.141)"/>
            <path id="Pfad_512" data-name="Pfad 512" class="cls-12" d="M608.487,457.4c-.048.046-.1.095-.145.14-.264.24-.536.474-.8.711-.457.4-.916.807-1.384,1.2-.114.094-.23.185-.344.28Q607.179,458.6,608.487,457.4Z" transform="translate(-498.239 -391.82)"/>
            <path id="Pfad_513" data-name="Pfad 513" class="cls-12" d="M613.119,461.481c-.02.016-.039.031-.057.048-.4.323-.811.643-1.22.957-.354.271-.71.541-1.069.806-.071.052-.144.1-.216.152Q611.863,462.495,613.119,461.481Z" transform="translate(-506.157 -393.075)"/>
            <path id="Pfad_514" data-name="Pfad 514" class="cls-12" d="M594.334,424.695c0-7.409-1.064-7.409-1.064-14.816,0-7.384-.605-7.413-.609-14.749.057-.048.118-.116.175-.161s.107-.085.16-.125c-.111-.1-.225-.2-.337-.323,0-2.464-.031-4.088-.064-5.464a6.243,6.243,0,0,1,.74-.877c.046-.042.092-.085.137-.124a3.842,3.842,0,0,1-.929-1.525c-.01-.03-.01-.066-.019-.1-.017-.681-.034-1.421-.046-2.28a6.006,6.006,0,0,1,.466-1.435,6.111,6.111,0,0,1,.888-1.327c.04-.042.079-.084.118-.123a3.9,3.9,0,0,1-.742-1.525,5.484,5.484,0,0,1-.1-1.871,7.182,7.182,0,0,1,.5-1.943,6.565,6.565,0,0,1,.725-1.325c.033-.045.064-.085.093-.125a4.221,4.221,0,0,1-.548-1.524,6.854,6.854,0,0,1-.033-1.872,9.377,9.377,0,0,1,.422-1.942,8.177,8.177,0,0,1,.566-1.326c.024-.043.046-.085.068-.124a5.042,5.042,0,0,1-.358-1.524,9.623,9.623,0,0,1,.035-1.872,14.683,14.683,0,0,1,.275-1.6h2.621c0,.048,0,.1,0,.147a5.732,5.732,0,0,1-.22,1.325c-.013.044-.026.086-.039.126a9.877,9.877,0,0,1,.563,1.525,11.6,11.6,0,0,1,.365,1.87,7.975,7.975,0,0,1-.007,1.944,4.615,4.615,0,0,1-.382,1.324c-.022.045-.042.085-.064.127a7.017,7.017,0,0,1,.755,1.523,8.309,8.309,0,0,1,.433,1.871,6.051,6.051,0,0,1-.083,1.944,3.98,3.98,0,0,1-.543,1.324c-.028.043-.057.084-.086.124a6.159,6.159,0,0,1,.943,1.526,6.413,6.413,0,0,1,.5,1.87,4.951,4.951,0,0,1-.155,1.942,3.818,3.818,0,0,1-.706,1.325c-.036.044-.072.085-.108.126a5.927,5.927,0,0,1,1.134,1.523,5.386,5.386,0,0,1,.567,1.871A4.163,4.163,0,0,1,600.11,390a3.845,3.845,0,0,1-.868,1.324l-.13.125a5.851,5.851,0,0,1,1.322,1.522,4.724,4.724,0,0,1,.637,1.872,3.651,3.651,0,0,1-.3,1.944,3.975,3.975,0,0,1-1.03,1.325c-.05.043-.1.084-.154.124a6.074,6.074,0,0,1,1.514,1.523,4.207,4.207,0,0,1,.7,1.873,3.259,3.259,0,0,1-.375,1.942,4.179,4.179,0,0,1-1.19,1.324c-.058.044-.118.087-.177.127a6.337,6.337,0,0,1,1.7,1.523,3.865,3.865,0,0,1,.773,1.872,3,3,0,0,1-.449,1.942,4.55,4.55,0,0,1-1.352,1.326c-.067.042-.133.085-.2.124a6.739,6.739,0,0,1,1.892,1.523,3.586,3.586,0,0,1,.841,1.872,2.785,2.785,0,0,1-.525,1.944,4.494,4.494,0,0,1-1.087,1.051,7.594,7.594,0,0,1,.26.927c.085.057.17.117.255.179q-.838,1.119-1.726,2.2c-.2.247-.412.49-.618.736-.41.484-.825.966-1.248,1.44q-.375.42-.757.833-.616.665-1.251,1.31c-.253.261-.5.525-.763.781q-.8.795-1.638,1.56A33.532,33.532,0,0,0,594.334,424.695Z" transform="translate(-483.81 -362.694)"/>
            <path id="Pfad_515" data-name="Pfad 515" class="cls-12" d="M614.382,464.316c-.042.033-.082.066-.124.1v-.008C614.3,464.376,614.341,464.347,614.382,464.316Z" transform="translate(-509.983 -393.947)"/>
            <path id="Pfad_516" data-name="Pfad 516" class="cls-12" d="M605.759,457.242v0l-.1.1a.04.04,0,0,1-.012.01C605.682,457.317,605.72,457.279,605.759,457.242Z" transform="translate(-495.395 -391.772)"/>
            <path id="Pfad_517" data-name="Pfad 517" class="cls-12" d="M608.094,405.028a3.863,3.863,0,0,1-.236-1.87,4.974,4.974,0,0,1,.643-1.944,4.665,4.665,0,0,1,.309-.449c.033,1.377.062,3,.064,5.464A3.787,3.787,0,0,1,608.094,405.028Z" transform="translate(-500.026 -374.402)"/>
            <path id="Pfad_518" data-name="Pfad 518" class="cls-12" d="M611.8,439.1a33.551,33.551,0,0,1-.16,3.47c-.039.037-.076.075-.116.109q-1.3,1.2-2.677,2.329c-.2.166-.406.332-.609.5q-1.257,1.013-2.563,1.963c-.041.031-.083.06-.125.09a7.529,7.529,0,0,1-.139-1.451V435.119a7.389,7.389,0,0,1,2.955-5.95,4.3,4.3,0,0,1-1.019-1.082,2.871,2.871,0,0,1-.439-1.87,3.742,3.742,0,0,1,.863-1.942,6.376,6.376,0,0,1,1.536-1.326c.069-.043.138-.086.205-.123a4.475,4.475,0,0,1-1.5-1.526,3.12,3.12,0,0,1-.372-1.871,4.035,4.035,0,0,1,.789-1.942,6.012,6.012,0,0,1,1.372-1.325c.062-.044.125-.087.186-.125a4.153,4.153,0,0,1-1.309-1.524,3.451,3.451,0,0,1-.3-1.874,4.456,4.456,0,0,1,.715-1.941,5.569,5.569,0,0,1,1.038-1.164c0,7.335.609,7.365.609,14.749C610.738,431.691,611.8,431.691,611.8,439.1Z" transform="translate(-501.277 -377.1)"/>
            <path id="Pfad_519" data-name="Pfad 519" class="cls-12" d="M608.055,394.192c.017-.169.068-.338.1-.508.013.859.029,1.6.046,2.28A4.539,4.539,0,0,1,608.055,394.192Z" transform="translate(-499.49 -372.225)"/>
            <path id="Pfad_520" data-name="Pfad 520" class="cls-12" d="M668.325,462.908a3.023,3.023,0,1,1-3.025,3.023A3.023,3.023,0,0,1,668.325,462.908Z" transform="translate(-602.293 -393.514)"/>
          </g>
        </g>
        <g id="Gruppe_194" data-name="Gruppe 194" transform="translate(55.716 51.854)">
          <g id="Gruppe_189" data-name="Gruppe 189" transform="translate(3.444 14.672)">
            <path id="Pfad_521" data-name="Pfad 521" class="cls-9" d="M666.826,410.767l.411-.8.785-.034.58-.663.764.134.653-.564.73.253.706-.467.682.373.3-.134a8.67,8.67,0,0,0,2.054,3.012,8.238,8.238,0,0,0,3.517,2.137l-.086.57.3.816-.6.393-.332.7-.658-.127-.543.519-.593-.319-.607.408-.542-.413-.638.331-.5-.477-.656.264-.454-.53-.795.141-.509-.65-.8.035-.447-.71-.792-.046-.384-.759-.776-.139-.294-.816-.731-.294-.069-.889-.372-.759Z" transform="translate(-666.133 -408.627)"/>
            <path id="Pfad_522" data-name="Pfad 522" class="cls-13" d="M669.39,409.677l.1-.119.322.056-.04.046Zm-1.672,1.376.411-.8.586-.026-.136.262-.692.491.371.758.07.891.732.294.293.815.776.139.384.76.79.045.447.71.8-.036.508.651.8-.14.453.53.657-.264.5.479.638-.331.542.413.607-.409.591.319.543-.519.114.024-.317.665-.658-.127-.543.519-.593-.319-.607.408-.542-.413-.638.331-.5-.477-.656.264-.454-.53-.795.141-.509-.65-.8.035-.447-.71-.792-.046-.384-.759-.776-.139-.294-.816-.731-.294-.069-.889-.372-.759Z" transform="translate(-667.025 -408.913)"/>
          </g>
          <path id="Pfad_523" data-name="Pfad 523" class="cls-13" d="M658.771,419.415c-1.816,1.19-4.556,4.515-7.018,4.747,2.543.757,3.642-2.476,6.213-1.992,2.009.377,3.428.468,4.457-.1.519-.287,2.044-1.242,2.044-1.242l-3.49-2.165A13.142,13.142,0,0,0,658.771,419.415Z" transform="translate(-638.978 -397.042)"/>
          <g id="Gruppe_190" data-name="Gruppe 190" transform="translate(0 3.131)">
            <path id="Pfad_524" data-name="Pfad 524" class="cls-9" d="M677.857,395.94l-.066,1.34-.557,1.228.237,1.282-.337,1.313.45,1.184-.092,1.34.743.941.6,1.074,1.073-.413,1.1-.02.837-.906,1.083-.358.659-1.077,1.465-6.212-.109-1.244-.8-.789-.3-1.185-.944-.554-.688-.924-.754.3-.737-.212-.5.738-.76.275-.219.881-.685.5-.068.9Z" transform="translate(-677.134 -391.96)"/>
            <path id="Pfad_525" data-name="Pfad 525" class="cls-13" d="M681.515,395.94l.626-.6.068-.9.685-.5.219-.881.76-.275.5-.738.737.212.754-.3.308.414-.288.113-.737-.211-.5.738-.76.275-.219.882-.685.5-.068.9-.626.6-.067,1.34-.557,1.227.237,1.284-.337,1.311.45,1.184-.091,1.34.743.942.357.638-.531.206-.6-1.074-.743-.941.092-1.34-.45-1.184.337-1.313-.237-1.282.557-1.228Z" transform="translate(-680.792 -391.96)"/>
          </g>
          <path id="Pfad_526" data-name="Pfad 526" class="cls-9" d="M636.388,397.549a2.323,2.323,0,0,0,2.7.239c2.586-3.126,7.969-4.35,13.851-2.6,7.237,2.155,12.7,8.579,13.655,14.727-1.445,4.852-11.651,5-18.888,2.843a15.472,15.472,0,0,1-8.924-6.264c-.655-.945-2.426-3.1-4.523-2.325C631.957,403.27,633.21,396.6,636.388,397.549Z" transform="translate(-628.168 -389.576)"/>
          <g id="Gruppe_191" data-name="Gruppe 191" transform="translate(7.294)">
            <path id="Pfad_527" data-name="Pfad 527" class="cls-9" d="M643.8,389.38l.947-.45.745-.809.978.071.891-.579.935.27.94-.445.9.386.963-.351.86.47.978-.271.825.539.985-.2.787.6.989-.127.749.661.987-.053.522.638.8-.082.5.663.8-.043.467.692.8,0,.429.726.789.062.382.762.778.132.321.8.758.213.246.843.726.307.157.878.7.49-.837.46c-1.834-1.527-5.355-2.644-9.435-2.8-4.814-.186-8.956,1.019-10.507,2.859l-.1-.248-.713-.176-.184-.808-.672-.3-.071-.842-.615-.421.045-.854-.538-.536.174-.846-.421-.661.359-.779Z" transform="translate(-643.558 -387.439)"/>
            <path id="Pfad_528" data-name="Pfad 528" class="cls-13" d="M645.073,395.207l-.089-.039-.049-.566.161.161ZM643.8,389.38l.947-.45.745-.809.978.071.891-.579.935.27.94-.445.9.386.963-.351.86.47.978-.271.825.539.985-.2.787.6.989-.127.749.661.987-.053.522.638.8-.082.5.663.8-.043.467.692.8,0,.429.726.789.062.382.762.778.132.321.8.758.213.246.843.726.307.157.878.7.49-.4.221-.431-.185-.246-.842-.758-.213-.321-.8-.778-.13-.382-.763-.789-.062-.429-.726-.8,0-.467-.693-.8.044-.5-.664-.8.083-.521-.638-.988.053-.749-.661-.989.125-.788-.6-.985.2-.825-.537-.978.271-.859-.469-.964.35-.9-.386-.94.446-.935-.271-.891.579-.977-.071-.745.808-.947.451.114.848-.359.78.421.661-.149.722-.287-.2.045-.854-.538-.536.174-.846-.421-.661.359-.779Z" transform="translate(-643.558 -387.439)"/>
          </g>
          <path id="Pfad_529" data-name="Pfad 529" class="cls-14" d="M635.81,415.534l-2.781,2.146.031.189,2.89-.915.237-.465-.1-.453-.015-.425Z" transform="translate(-597.731 -396.079)"/>
          <path id="Pfad_530" data-name="Pfad 530" class="cls-14" d="M652.711,400.238c-7.035-2.1-13.941-1.919-19.114.057.4-1.715,1.521-3.23,3.151-2.745a2.323,2.323,0,0,0,2.7.239c2.586-3.126,7.97-4.35,13.851-2.6a20.077,20.077,0,0,1,13.294,13.085A32.4,32.4,0,0,0,652.711,400.238Z" transform="translate(-628.528 -389.576)"/>
          <g id="Gruppe_192" data-name="Gruppe 192" transform="translate(33.682 16.768)">
            <path id="Pfad_531" data-name="Pfad 531" class="cls-13" d="M638.69,413.157a1.671,1.671,0,0,1-1.433,1.668,1.338,1.338,0,0,1-1.334-1.5,1.672,1.672,0,0,1,1.433-1.669A1.339,1.339,0,0,1,638.69,413.157Z" transform="translate(-635.922 -411.655)"/>
            <path id="Pfad_532" data-name="Pfad 532" class="cls-15" d="M638.289,413.167a1.363,1.363,0,0,1-1.169,1.362,1.092,1.092,0,0,1-1.089-1.224,1.365,1.365,0,0,1,1.17-1.362A1.093,1.093,0,0,1,638.289,413.167Z" transform="translate(-635.596 -411.743)"/>
            <path id="Pfad_533" data-name="Pfad 533" class="cls-8" d="M637.938,412.951a1.035,1.035,0,0,1-.888,1.034.828.828,0,0,1-.826-.929,1.034,1.034,0,0,1,.888-1.034A.829.829,0,0,1,637.938,412.951Z" transform="translate(-635.378 -411.767)"/>
            <path id="Pfad_534" data-name="Pfad 534" class="cls-7" d="M637.809,412.235a.354.354,0,0,1-.3.354.284.284,0,0,1-.282-.318.354.354,0,0,1,.3-.353A.283.283,0,0,1,637.809,412.235Z" transform="translate(-635.942 -411.735)"/>
            <path id="Pfad_535" data-name="Pfad 535" class="cls-7" d="M638.317,414.135l-.026-.491.946.018.015.053Z" transform="translate(-638.123 -412.266)"/>
          </g>
          <g id="Gruppe_193" data-name="Gruppe 193" transform="translate(6.727 4.813)">
            <path id="Pfad_536" data-name="Pfad 536" class="cls-14" d="M668.05,402.2q.054-.606.129-1.265.352-.867.692-1.686c.054-.449.115-.914.181-1.4.084-.438.17-.887.261-1.343a10.307,10.307,0,0,1,2.6-1.225c-.073.267-.148.535-.222.8q-.243.539-.506,1.124c-.011.359-.016.7-.011,1.03q-.258.575-.536,1.2-.1.536-.195,1.056c-.176.412-.357.841-.543,1.279l-.3,1.129a3.764,3.764,0,0,0,.286.624q-.378.731-.778,1.53c-.1.373-.2.745-.3,1.12q-.3.643-.619,1.325c-.076.092-.152.185-.229.28a10.584,10.584,0,0,1-.7-1.006,8.83,8.83,0,0,0-.735-.921q.326-.879.645-1.726Q667.62,403.121,668.05,402.2Z" transform="translate(-663.381 -394.663)"/>
            <path id="Pfad_537" data-name="Pfad 537" class="cls-14" d="M674.146,401.23l.331-2.023a2.386,2.386,0,0,0,2.485.064.168.168,0,0,1,.017-.021l-.015.089-1.069,2.415-.426,2.606-.74,1.673a3.041,3.041,0,0,0-1.956-.529l.3-1.858Z" transform="translate(-672.773 -395.871)"/>
            <path id="Pfad_538" data-name="Pfad 538" class="cls-14" d="M642.325,410.3q.13-.723.3-1.417c.233-.413.474-.836.724-1.262q.159-.7.362-1.364.264-.653.564-1.284.318-.629.67-1.242.46-.619.947-1.243.275-.378.561-.756c.222.2.44.4.652.606-.185.413-.357.836-.517,1.273q-.459.712-.9,1.421-.321.714-.61,1.446-.227.742-.413,1.521-.277.752-.521,1.514-.139.8-.236,1.649c-.184.5-.358.991-.524,1.476q-.059.857-.074,1.753-.1.831-.156,1.676c-.014.091-.026.184-.04.276-.709.01-1.433-.009-2.163-.053-.024-.269-.044-.537-.06-.8q.04-.705.119-1.4c.065-.449.142-.9.231-1.348.151-.4.312-.805.481-1.218Q642.011,410.932,642.325,410.3Z" transform="translate(-620.822 -396.648)"/>
            <path id="Pfad_539" data-name="Pfad 539" class="cls-14" d="M657.293,396.014l.177-1.071q.819.169,1.656.418c.128.037.256.078.383.118l-.466,1.057-.426,2.607-1.07,2.414-.426,2.606-1.068,2.414-.427,2.606-1.069,2.414-.24,1.457c-.143-.04-.283-.08-.424-.123-.57-.17-1.12-.361-1.65-.571l.564-1.278.428-2.613,1.07-2.415.426-2.605,1.068-2.415.427-2.605Z" transform="translate(-641.085 -394.559)"/>
            <path id="Pfad_540" data-name="Pfad 540" class="cls-14" d="M665.077,394.984q-.1.748-.186,1.466-.423.449-.84.942-.235.62-.463,1.245c-.089.456-.176.9-.26,1.35q-.257.6-.505,1.219c-.069.449-.136.892-.2,1.33q-.333.587-.656,1.2-.088.664-.168,1.314c-.12.424-.236.85-.351,1.277q-.245.637-.48,1.289-.092.646-.179,1.282-.1.639-.206,1.272-.218.468-.429.951a16.452,16.452,0,0,1-1.6-1.021q.106-.468.215-.934.013-.71.035-1.443.114-.737.237-1.483.145-.744.3-1.49.265-.735.541-1.452.319-.709.649-1.393.089-.756.188-1.531.345-.677.7-1.327.045-.8.1-1.637.145-.78.3-1.575c.1-.443.212-.891.321-1.337a15.957,15.957,0,0,1,3.158-.06C665.226,394.622,665.151,394.8,665.077,394.984Z" transform="translate(-651.25 -394.389)"/>
            <path id="Pfad_541" data-name="Pfad 541" class="cls-14" d="M647.183,412.13q.345-.625.663-1.262.342-.629.655-1.268.384-.619.735-1.247.132-.692.263-1.385c.2-.429.385-.863.567-1.3q.121-.7.233-1.4.137-.691.261-1.386.192-.675.369-1.352t.368-1.35q.239-.654.471-1.312.123-.69.231-1.382c.015-.138.029-.278.044-.418q.81.386,1.576.839c0,.024,0,.047,0,.072q-.219.664-.435,1.327c-.152.439-.3.88-.454,1.32q-.132.692-.269,1.379-.183.674-.366,1.347-.246.656-.493,1.311-.1.7-.2,1.4-.248.655-.5,1.309-.16.681-.318,1.363-.249.656-.509,1.309-.189.672-.38,1.345-.041.714-.051,1.437c-.211.424-.429.846-.659,1.265l-.147.51c-.771-.107-1.536-.238-2.286-.4.095-.245.189-.492.283-.737Q647,412.8,647.183,412.13Z" transform="translate(-631.251 -395.215)"/>
          </g>
        </g>
      </g>
      <g id="Gruppe_196" data-name="Gruppe 196" transform="translate(37.621 92.288)">
        <path id="Pfad_542" data-name="Pfad 542" class="cls-1" d="M506.621,449.692,491.1,420.907c-6.6-23.4,10.619-59.94,10.619-59.94s18.213-32.041,35.624-26.2C559.34,347.169,541.142,412.819,506.621,449.692Z" transform="translate(-382.372 -334.053)"/>
        <path id="Pfad_543" data-name="Pfad 543" class="cls-1" d="M547.583,493.075,561.11,465.5c20.169-.17,26.882-2.573,26.882-2.573S632.525,443.231,629.4,488C627.115,492.973,561.2,500.824,547.583,493.075Z" transform="translate(-505.152 -372.361)"/>
        <path id="Pfad_544" data-name="Pfad 544" class="cls-5" d="M686.082,443.466l-1.589-5.078s-5.706,1.985-3.016,9.149c.431,1.145,3.412,4.684,3.412,4.684s-17.632-3.511-23.041-4.083c-8.8-.931-6.864,3.813-6.864,3.813l6.346,2.273-7.86-1.494c-2.709-.517-4.985.747-5.1,2.831-.089,1.577,4.169,4.326,5.92,5.222-2.566-.35-5.765.647-5.886,2.833-.128,2.279,12.534,6.387,12.534,6.387a3.043,3.043,0,0,0-3.664,2.556c-.183,1.714,18.279,6.184,18.279,6.184a3.471,3.471,0,0,0,.979.031l8.014,3.392,8.644.264,9.8-20.416-2.292-7.759Z" transform="translate(-648.367 -366.141)"/>
      </g>
    </g>
    <g id="Gruppe_214" data-name="Gruppe 214" transform="translate(193.938 47.235)">
      <path id="Pfad_545" data-name="Pfad 545" class="cls-16" d="M252.269,301.236c1.687-2.061,3.927-5.659,8-5.9,4.078.047,12.771,10.063,14.554,12.041-4.9,13.719,1.879,21.285,1.879,21.285s.345,10.4-8.373,10.606-27.517-10.885-27.517-10.885S255.824,315.178,252.269,301.236Z" transform="translate(-197.568 -250.173)"/>
      <g id="Gruppe_199" data-name="Gruppe 199" transform="translate(0 71.002)">
        <path id="Pfad_546" data-name="Pfad 546" class="cls-5" d="M296.1,635.56c21.027-3.447,37.71-8.38,39.717-15.408,6.536-22.871-11.237-92.89-43.931-125.585-18.3-10.846-76.278,2.894-79.5,6.113-40.73,40.73-23.878,110.7-15.443,134.88Z" transform="translate(-180.781 -381.186)"/>
        <g id="Gruppe_198" data-name="Gruppe 198">
          <path id="Pfad_547" data-name="Pfad 547" class="cls-17" d="M179.288,374.3c15.14-38.9,41.092-39.148,41.092-39.148s22.379,13.24,29.51,12.86S257.1,333.19,257.1,333.19s31.185-7.736,44.366,35.353c-2.33,6.652-7.139,53.062-10.355,76.4-15.276,11.534-88.087,16.461-85.828,1.05C201.157,429.4,172.944,389.157,179.288,374.3Z" transform="translate(-178.363 -332.65)"/>
        </g>
        <path id="Pfad_548" data-name="Pfad 548" class="cls-6" d="M192.382,428.231c14.561,11.561,32.633,23.748,51.456,25.471,5.248.48,10.96-.871,15.773.823-15.246,5.343-35.225-.173-49.682,7.305-3.471-8.4-7.587-14.829-13.152-22.173Z" transform="translate(-182.674 -362.045)"/>
      </g>
      <g id="Gruppe_205" data-name="Gruppe 205" transform="translate(7.642 0)">
        <g id="Gruppe_200" data-name="Gruppe 200">
          <path id="Pfad_549" data-name="Pfad 549" class="cls-18" d="M237.123,277.333c-1.507,1.063-5.52-.918-7.141-.044-1.724.926-1.148,4.746-2.86,5.394-1.867.712-5.875-1.829-7.811-1.436-2.188.443-2.6,3.842-4.7,3.823-2.485-.017-6-3.534-8.387-4.349-2.785-.962-5.783.108-8.155-2.049-2.392-2.174-2.259-5.986-3.565-9.012-1.12-2.6-4.815-5.909-5.093-8.9-.229-2.557,3.045-3.716,3.551-6.245.445-2.253-1.89-6.571-.827-8.751.981-2.005,5.115-1.415,6.6-3.126,1.389-1.614.387-5.9,2.282-7.24s6.255.6,8.328-.226c2.2-.883,2.579-4.651,4.97-5.02,2.6-.4,6.653,2.71,9.178,2.873,2.839.178,4.886-2.408,7.569-1.579,3.14.978,5.783,5.029,8.292,6.65,2.924,1.884,7.042,2.708,8.785,5.337,1.733,2.612-.152,4.972.2,7.65.292,2.29,3.2,6.238,2.6,8.422-.5,1.846-4.24,1.37-5.249,3.18-.9,1.6.845,5.734-.376,7.2-1.116,1.341-5.069-.1-6.486,1.181C237.494,272.269,238.635,276.274,237.123,277.333Z" transform="translate(-189.399 -230.114)"/>
        </g>
        <g id="Gruppe_204" data-name="Gruppe 204" transform="translate(30.9 11.89)">
          <g id="Gruppe_203" data-name="Gruppe 203">
            <g id="Gruppe_201" data-name="Gruppe 201" transform="translate(13.46 4.989)">
              <path id="Pfad_550" data-name="Pfad 550" class="cls-19" d="M258.536,288.154c-2.193-6.513-6.006-16.739-4.869-21.916,1.314-6.023,6.882-8.4,11.8-10.058s10.793-3.126,15.486.874c4.032,3.435,6.522,12.7,8.3,19.337,2.277,8.465,3.714,14.036-1.411,23.195-1.178,2.113-1.9,7.044-13.7,2.938C266.393,299.821,261.328,296.447,258.536,288.154Z" transform="translate(-253.459 -254.49)"/>
              <path id="Pfad_551" data-name="Pfad 551" class="cls-19" d="M259.229,298.6c-7.308-3.016-2.134,6.327.071,8.469.814.789,2.946,2.161,4.258,1.971Z" transform="translate(-254.074 -267.873)"/>
            </g>
            <g id="Gruppe_202" data-name="Gruppe 202">
              <path id="Pfad_552" data-name="Pfad 552" class="cls-18" d="M252.207,283.145c-1.446-.218,7.828,9.59-.436,15.99-9.229-4.583-11.86-8.47-13.614-11.543-6.627-11.6-3.3-26.709-3.3-26.709s2.266-8.035,14-11.989c5.336-1.8,16.648-2.561,22.3.244,4.75,2.358,9.17,8,7.328,10.707-1.656-1.435-9.3-3.518-10.657-.79C252.391,258.445,263.361,276.366,252.207,283.145Z" transform="translate(-234.022 -247.285)"/>
            </g>
          </g>
        </g>
        <path id="Pfad_553" data-name="Pfad 553" class="cls-7" d="M282.217,302.088c.749,2.2,6.13,5.29,10.908,3.662,6.732-2.294,2.123-4.255,4.4-8.878.455-.926-1.009,1.284-5.787,2.912S281.835,300.966,282.217,302.088Z" transform="translate(-217.938 -250.577)"/>
      </g>
      <g id="Gruppe_213" data-name="Gruppe 213" transform="translate(69.865 25.675)">
        <path id="Pfad_554" data-name="Pfad 554" class="cls-16" d="M374.555,314.939l-.475,6.7-.483-5.647s-3.424-2.64-4.555,4.682c-.7,4.5-1.629,19.551-1.629,19.551a29.281,29.281,0,0,0-3.06-3.823c-5.225-3.8-8.057.365-8.057.365l3.772,2.434,5.61,14.261,3.335,2.082c-3.878,7.418-17.491,36.291-22.115,42.164,12.7,38.509,35.719-13.2,39.535-40.9l4.275-17.31c.094-.245.519-16.738-.907-16.979a2.5,2.5,0,0,0-2.853,2.379s-.619-11.167-2.492-11.581c-1.8-.4-3.288,1.96-3.552,4.117-.353-1.619-1.671-5.689-2.962-5.976C376.231,311.079,374.717,312.632,374.555,314.939Z" transform="translate(-300.059 -280.787)"/>
        <g id="Gruppe_212" data-name="Gruppe 212" transform="translate(24.346)">
          <g id="Gruppe_206" data-name="Gruppe 206" transform="translate(5.127 44.365)">
            <path id="Pfad_555" data-name="Pfad 555" class="cls-20" d="M345.911,331.722c-5.007-.225-7.352-1.574-13.754,1.739a74.867,74.867,0,0,0-9.624,6.34c-1.548,1.16-.5,4.115,2.487,4.73,4.97,1.021,6.452-4.68,10.642-5.851,2.179-.609,9.389,3.1,11.594,3.461Z" transform="translate(-321.82 -331.261)"/>
          </g>
          <g id="Gruppe_207" data-name="Gruppe 207" transform="translate(28.727 67.221)">
            <path id="Pfad_556" data-name="Pfad 556" class="cls-13" d="M363.151,364.267c-1.193,4.662,10.916,35.263,2.142,46.08-6.949,8.567-1.515,22.226-4.875,22.6-7.848,1.266-4.347,6.143,1.984,8.841,2.789,1.272,9.879-3.865,14.6-11.4,4.959-7.327,7.548-17.05,6.864-20.157-.8-4.979,6.512-28.734,6.655-33.921C385.036,370.906,369.438,367.661,363.151,364.267Z" transform="translate(-355.902 -364.267)"/>
          </g>
          <g id="Gruppe_208" data-name="Gruppe 208" transform="translate(26.708 13.102)">
            <path id="Pfad_557" data-name="Pfad 557" class="cls-20" d="M353.029,308.838c1.845,13.189,2.659,23.28,8.057,30.341,2.331,3.007,24.867,13.9,24.176,17.343-14.664,4.167-12.425,23.3-3.938,34.661-10.206,1.056-9.781,19.655-14.081,22.151-6.808,4.234-7.424,11.523,3.926,8.393,5.053-1.409,17.4-11.135,26.762-23.651,9.658-12.192,16.332-27.175,16.9-31.6,1.2-6.551,2.433-23.116-2.473-38.631-4.508-15.5-27.672-41.452-49.955-41.729C364.535,293.922,352.168,301.076,353.029,308.838Z" transform="translate(-352.986 -286.112)"/>
          </g>
          <path id="Pfad_558" data-name="Pfad 558" class="cls-20" d="M350.8,339.154c-3.791,1.137-5.213,5.916-10.288,8.911-5.792,3.42-14,3.809-15.675,5.542-3.644,3.782-13.776,10.666-9.3,13.411,3.226,1.976,13.1-3.719,13.418-6.706,5.341-1.6,9.649-3.264,14.476-3.2,5.761.077,11.574-1.2,13.909-3.262C361.893,349.209,350.8,339.154,350.8,339.154Z" transform="translate(-314.416 -289.323)"/>
          <path id="Pfad_559" data-name="Pfad 559" class="cls-1" d="M332.222,356.517c-3.464.9-6.452,1.445-7.387,2.415-3.644,3.781-13.776,10.666-9.3,13.411,3.226,1.976,13.1-3.719,13.418-6.706,3.081-.924,5.82-1.868,8.513-2.489C339.443,362.691,334.943,355.813,332.222,356.517Z" transform="translate(-314.416 -294.647)"/>
          <path id="Pfad_560" data-name="Pfad 560" class="cls-20" d="M416.8,429.613c-4.388,17.28-17.1,42.115,2.3,49.056,6.643,2.378,13.819-1.009,12.2-8.589-21.432-1.792,7.343-47.559-1.06-59.871C430.237,410.209,417.9,425.289,416.8,429.613Z" transform="translate(-343.396 -311.175)"/>
          <g id="Gruppe_211" data-name="Gruppe 211" transform="translate(1.708)">
            <g id="Gruppe_209" data-name="Gruppe 209" transform="translate(2.016 11.343)">
              <path id="Pfad_561" data-name="Pfad 561" class="cls-13" d="M319.794,283.791l14.6-.219-3.326,6.234Z" transform="translate(-319.794 -283.572)"/>
              <path id="Pfad_562" data-name="Pfad 562" class="cls-6" d="M319.794,283.888,331.07,289.9l-3.83,1.427Z" transform="translate(-319.794 -283.669)"/>
            </g>
            <path id="Pfad_563" data-name="Pfad 563" class="cls-13" d="M321.995,317.154s6.79,1.56,16.894-2.678c4.858-2.036-17.223-12.106-17.223-12.106s.038,2.63-4.779,8.026C317,312.511,321.995,317.154,321.995,317.154Z" transform="translate(-316.884 -278.011)"/>
            <path id="Pfad_564" data-name="Pfad 564" class="cls-20" d="M324.173,296.591c2.36,7.807,11.234,12.035,19.816,9.442s13.633-11.027,11.274-18.836-11.234-12.036-19.817-9.443S321.816,288.783,324.173,296.591Z" transform="translate(-318.947 -270.205)"/>
            <g id="Gruppe_210" data-name="Gruppe 210" transform="translate(13.09)">
              <path id="Pfad_565" data-name="Pfad 565" class="cls-13" d="M335.817,267.191l12.541,12.217-8.109,2.449Z" transform="translate(-335.796 -267.191)"/>
              <path id="Pfad_566" data-name="Pfad 566" class="cls-6" d="M335.808,267.191l4.432,14.666-4.453-2.049Z" transform="translate(-335.787 -267.191)"/>
            </g>
            <path id="Pfad_567" data-name="Pfad 567" class="cls-18" d="M328.193,301.128a1.261,1.261,0,1,0,.842-1.572A1.256,1.256,0,0,0,328.193,301.128Z" transform="translate(-320.345 -277.128)"/>
            <path id="Pfad_568" data-name="Pfad 568" class="cls-1" d="M318.569,313.926c.734,2.426,3.9,3.615,7.076,2.656s5.158-3.7,4.425-6.13-3.9-3.615-7.076-2.656S317.837,311.5,318.569,313.926Z" transform="translate(-317.355 -279.577)"/>
            <path id="Pfad_569" data-name="Pfad 569" class="cls-6" d="M317.81,315.588a2.53,2.53,0,0,1-.924-2.064l.85-.986Z" transform="translate(-316.883 -281.137)"/>
          </g>
        </g>
        <path id="Pfad_570" data-name="Pfad 570" class="cls-19" d="M367.961,338.428l-4.549,4.935,3.145-4.714s-1.028-4.2-6.481.818c-3.354,3.085-13.471,14.261-13.471,14.261a29.323,29.323,0,0,0-.006-4.9c-1.712-6.231-6.524-4.741-6.524-4.741l1.43,4.255L336.99,362.99,338.3,366.7c-7.659,3.377-50.3,31.751-57.581,33.457-6.459,17.417,9.755,26.695,24.418,20.779,17.345-7,35.006-31.939,45.987-42.377l14.14-10.86c.228-.133,10.849-12.756,9.885-13.835a2.5,2.5,0,0,0-3.714.079s6.483-9.113,5.278-10.6c-1.154-1.433-3.793-.52-5.345,1,.734-1.486,2.244-5.489,1.413-6.519C371.679,336.456,369.527,336.726,367.961,338.428Z" transform="translate(-279.257 -288.645)"/>
      </g>
    </g>
  </g>
</svg>
