<svg xmlns="http://www.w3.org/2000/svg" width="278.531" height="292.006" viewBox="0 0 278.531 292.006">
  <defs>
    <style>
      .cls-1 {
        fill: #f6693b;
      }

      .cls-2 {
        fill: #fc8b59;
      }

      .cls-3 {
        fill: #43200c;
      }

      .cls-4 {
        fill: #fff;
      }

      .cls-5 {
        fill: #85c0c5;
      }

      .cls-6 {
        fill: #61adaf;
      }

      .cls-7 {
        fill: #8e6c8f;
      }

      .cls-8 {
        fill: #7a5d7b;
      }

      .cls-9 {
        fill: #fcf9eb;
      }

      .cls-10 {
        fill: #f8f0e2;
      }

      .cls-11 {
        fill: #2d2d2d;
      }

      .cls-12 {
        fill: #3f3b3c;
      }

      .cls-13 {
        fill: #ab1638;
      }

      .cls-14 {
        fill: #931330;
      }

      .cls-15 {
        fill: #ff9a83;
      }

      .cls-16 {
        fill: #ffaa90;
      }

      .cls-17 {
        fill: #fe764a;
      }

      .cls-18 {
        fill: #b3d8db;
      }

      .cls-19 {
        fill: #ffac27;
      }

      .cls-20 {
        fill: #fcc543;
      }
    </style>
  </defs>
  <g id="Gruppe_641" data-name="Gruppe 641" transform="translate(-72.43 -79.3)">
    <g id="Gruppe_611" data-name="Gruppe 611" transform="translate(176.321 85.244)">
      <g id="Gruppe_373" data-name="Gruppe 373" transform="translate(63.075)">
        <path id="Pfad_891" data-name="Pfad 891" class="cls-1" d="M1264.337,304.6h-30.929l.121-23.273h30.685Z" transform="translate(-1228.302 -240.157)"/>
        <g id="Gruppe_372" data-name="Gruppe 372">
          <g id="Gruppe_371" data-name="Gruppe 371" transform="translate(1.488 10.16)">
            <path id="Pfad_892" data-name="Pfad 892" class="cls-1" d="M1287.228,264.593c5.374-4.909,3.685,5.085,2.427,7.683-.462.956-1.48,2.833-2.659,3.054Z" transform="translate(-1252.034 -242.815)"/>
            <path id="Pfad_893" data-name="Pfad 893" class="cls-1" d="M1230.933,264.593c-5.373-4.909-3.69,5.085-2.43,7.683.464.956,1.479,2.833,2.66,3.054Z" transform="translate(-1227.223 -242.815)"/>
            <path id="Pfad_894" data-name="Pfad 894" class="cls-2" d="M1265.007,253.728c-.487-6.2.955-16.089-1.723-20.2-3.112-4.785-9.036-5.222-14.126-5.222s-11.018.438-14.135,5.222c-2.674,4.108-1.231,14-1.722,20.2-.623,7.918,1.568,13.357,7.608,18.261,1.785,1.445,5.912,2.32,8.249,2.356,2.327-.036,6.458-.911,8.241-2.356C1263.44,267.085,1265.631,261.646,1265.007,253.728Z" transform="translate(-1229.704 -228.309)"/>
          </g>
          <path id="Pfad_895" data-name="Pfad 895" class="cls-3" d="M1267.159,224.9c-.288-1.029-4.144-3.372-5.6-4.595-1.383-1.154-.113-5.141-3.7-7.024-4.452-2.339-4.1,1.439-12.867-1.9-5.033-1.923-8.841,3.005-8.841,3.005s-5.674,1.541-6.416,2.119c-2.446,1.916-3.6,4.7-4.893,10.57-.775,3.539,1.452,11.906,2.5,14.477,0,0,1.864,1.418,2.535,1.322-.123-2.7,1.081-6.453,1.081-8.423.531-1.689,4.578-8.291,6.467-8.941,2.005-2.006,5.74.407,7.657.455,1.052.025,7.132-.6,9.407-.017,4.934,1.267,5.73,9.478,5.73,9.478a33.572,33.572,0,0,1,1.142,7.448c2.1-1.917,3.048-1.081,3.048-1.081C1264.68,238.705,1268.6,230.054,1267.159,224.9Z" transform="translate(-1224.679 -210.94)"/>
        </g>
        <path id="Pfad_896" data-name="Pfad 896" class="cls-4" d="M1264.119,272.91c0,3.318-5.448,7.831-9.885,7.831s-9.614-3.992-9.614-7.309,5.008,1.442,9.443,1.442S1264.119,269.593,1264.119,272.91Z" transform="translate(-1232.956 -236.208)"/>
      </g>
      <g id="Gruppe_374" data-name="Gruppe 374" transform="translate(29.792 221.783)">
        <path id="Pfad_897" data-name="Pfad 897" class="cls-5" d="M1171.9,654.386h107.486c-2.01-33.841-3.9-64.279-3.9-64.279H1167.777l1.007,43.965Z" transform="translate(-1167.777 -590.107)"/>
        <path id="Pfad_898" data-name="Pfad 898" class="cls-6" d="M1239.424,679.741l-7.661-16.716-16.393-11.516,19.44-.316Z" transform="translate(-1187.532 -615.463)"/>
      </g>
      <g id="Gruppe_376" data-name="Gruppe 376" transform="translate(0 57.309)">
        <path id="Pfad_899" data-name="Pfad 899" class="cls-7" d="M1260.675,326.865c-4.93-8.864-29.513-17.948-29.513-17.948l-30.672,3.25-30.673-3.25S1145.233,318,1140.3,326.865c0,0-28.292,45.06-22.736,60.143,2.838,7.705,28.131,15.833,29.519,16.273.136,24.476.234,63.463-.45,70.109,7.97,4.7,34.1,10.13,53.854,10.213,19.756-.083,45.884-5.512,53.854-10.213-.686-6.646-.586-45.633-.452-70.109,1.389-.44,34.168,11.684,37.005,3.979C1296.454,392.177,1260.675,326.865,1260.675,326.865Z" transform="translate(-1116.844 -308.917)"/>
        <g id="Gruppe_375" data-name="Gruppe 375" transform="translate(48.107 35.835)">
          <path id="Pfad_900" data-name="Pfad 900" class="cls-8" d="M1268.208,379.929c-5.631,3.417-6.6-1.106-13.186-1.106s-6.587-.748-13.174-.748-6.584,1.45-13.172,1.45-6.587-.677-13.175-.677-8.475,6.011-14.107,2.6c-3.417-2.074-2.864-8.084.552-10.157,5.631-3.417,6.967,2.174,13.553,2.174s6.587.344,13.173.344,6.587-.224,13.173-.224,6.587-1.557,13.175-1.557,7.038-2.513,13.24-.293C1272.412,373.217,1271.624,377.857,1268.208,379.929Z" transform="translate(-1199.09 -370.181)"/>
          <path id="Pfad_901" data-name="Pfad 901" class="cls-8" d="M1268.037,410.527c-5.63,3.417-5.866.253-12.452.253s-6.587-.942-13.174-.942-6.584,2.084-13.172,2.084-6.587-1.744-13.175-1.744-7.1,4.217-12.728.8c-3.416-2.074-4.03-5.458-.614-7.533,5.631-3.416,6.754-1.61,13.34-1.61s6.587,1.968,13.173,1.968,6.587-1.542,13.173-1.542,6.587,2.028,13.175,2.028,7.126-3.329,13.438-1.447C1272.662,403.926,1271.454,408.454,1268.037,410.527Z" transform="translate(-1199.652 -383.122)"/>
          <path id="Pfad_902" data-name="Pfad 902" class="cls-8" d="M1269.675,445.635c-5.631,3.416-7.41-2.283-14-2.283s-6.587,2.426-13.174,2.426-6.584-.862-13.172-.862-6.587.241-13.175.241-7.441,2.368-13.074-1.049c-3.416-2.072-3.1-5.07.312-7.144,5.631-3.415,6.173.54,12.759.54s6.587-.859,13.173-.859,6.587-.9,13.173-.9,6.587-1.392,13.175-1.392,6.6.572,12.681,3.112C1273.071,439.436,1273.091,443.56,1269.675,445.635Z" transform="translate(-1199.746 -396.818)"/>
        </g>
      </g>
      <path id="Pfad_903" data-name="Pfad 903" class="cls-2" d="M1122.167,448.591c-5.228,17.82,6.574,47.21,19.365,56.843,16.657,13.286,46.844,21.848,64.145,18.791,7.715-1.364,27.424-10.932,27.424-10.932l-21.667-3.373-49.95-24.072-12.714-24.607S1125.226,447.737,1122.167,448.591Z" transform="translate(-1118.527 -309.568)"/>
      <g id="Gruppe_377" data-name="Gruppe 377" transform="translate(43.149 135.058)">
        <path id="Pfad_904" data-name="Pfad 904" class="cls-9" d="M1319.809,520.72c3.115-1.348,7.357-1.487,10.723-1.165-.673.331-1.808,1.28-2.705,1.641a11.89,11.89,0,0,1,4-.018c-.18.248-.591.649-.777.94,1.095-.04,2.4.564,3.428.57-.163.288-.494.522-.674.819,2.911.271,4.68,1.458,7.514,1.652-.156.2-.566.323-.721.531a25.2,25.2,0,0,1,3.8.71c0,.074-.525.5-.633.695a22.566,22.566,0,0,1,2.87,1.1c-.224.244-.744.3-1.056.486.615.185,1.565.921,2.364,1.167-.142.392-.7.446-.994.777.52.23,1.539.966,2.138,1.248a8.758,8.758,0,0,1-1.295.463c.731.256,1.723,1.177,2.391,1.458-.139.185-1.007.312-1.261.467.276.573,1,.571,1.281,1.169-.02.006-1.293.59-1.318.623.685.309,1.618,1.277,2.237,1.544.071.28-.66.267-.663.737.38.5,1.137.93,1.538,1.422-.38.256-.921.143-1.257.4a12.154,12.154,0,0,1,2.117.839c-.3.164-1.062.807-1.48,1.129.78.3,1.768,1.589,2.453,1.934a12.935,12.935,0,0,1-1.643,1.313c.415.151,1.086.536,1.488.72-.812.381-2.029,1.724-2.754,2.086.532.094,1.05.27,1.58.363a.734.734,0,0,1,.118.408c-.823.326-1.39,1.251-1.934,1.576.436.148.986.356,1.444.5a19.789,19.789,0,0,1-2.333,1.217c.516.322,1.054,1.26,1.568,1.607-1.027.321-2.426,1.613-3.253,1.941.357.2.919.573,1.242.757-.97.16-2.23,1.069-3.186,1.255.231.325.5.473.691.78-2.086.539-3.961,1.245-5.761.486-.194.486-.4,1.125-.548,1.611a5.939,5.939,0,0,0-1.231-1.005c-.333.3-2.079,2.047-1.861,1.659-.142.3-.391,1.1-.509,1.38a7.244,7.244,0,0,1-1.781-1.454,3.147,3.147,0,0,0,.516,1.06,7.033,7.033,0,0,0-3.312-2.257c.039.216.2,1.8.109,1.182a20.911,20.911,0,0,0-1-2.442c-.319.4-1.237.818-1.6,1.5-.077-.795-.9-1.95-1.033-2.788-.467.4-1.98.66-2.495,1.134-.483-1.891-1.536-2.629-3.164-1.913a5.2,5.2,0,0,0-2.178-.763c-.143-.433-.03-.962-.168-1.407-.4-.153-.99.291-1.338.142-1.324-.945-.543-.857-2.295-.931-1.583-1.575-3.857-1.163-4.128-3.833-2.326.111-5.849-4.879-6.8-6.956-2.021-4.417-.664-8.6-1.511-13.123Z" transform="translate(-1237.999 -474.037)"/>
        <path id="Pfad_905" data-name="Pfad 905" class="cls-10" d="M1279.256,441.839c1.283,1.263,2.8,2.451,4.034,3.861a10.12,10.12,0,0,1-1.322-.44c.7.676,1.724,2.2,2.5,2.923.015.067-.607.041-.661.118.382.633.913,1.219,1.244,1.832-.321-.124-.77-.334-1.124-.442,1.616,1.637,1.984,3.8,2.525,5.849-.143-.074-.282-.152-.425-.228a35.589,35.589,0,0,0,2.123,4.547,25.581,25.581,0,0,0,.531,3.057c-.008.194-.635-.685-.534-.626.377.877.534,2,.931,2.841a4.735,4.735,0,0,1-1.074-1.038c.012.625.264,1.289.323,1.91a11.765,11.765,0,0,1-1.172-.57c-.206.408.4,1.043.178,1.429-.3-.042-.626-.416-.924-.389a18.382,18.382,0,0,1,1.511,3.7c0,.046-.378-.1-.446.058a24.488,24.488,0,0,1,1.794,4.909c-.3-.315-.787-.691-1.084-.982a30.837,30.837,0,0,1,2.067,10.447c-.331-.515-1.289-1.4-1.714-2.116.311,1.516.571,3.062.783,4.582-.4-.776-1.1-1.582-1.536-2.419a44.122,44.122,0,0,1,.754,4.361,13.387,13.387,0,0,1-1.152-1.537,46.8,46.8,0,0,1,.244,5.135c-.266-.3-1.007-.81-1.309-1.116a15.742,15.742,0,0,1-.271,4.107c-.026.112-.663.176-.788.26a21.941,21.941,0,0,1-.008,2.705c-.255-.317-.454-.7-.7-1.056a10.259,10.259,0,0,1-.155,3.661c-.264-.491-.521-.98-.825-1.438a8.282,8.282,0,0,1-.338,4.2,9.971,9.971,0,0,0-.861-.957,40.061,40.061,0,0,1,.605,4.823c-.485-.1-.227-.274-.685-.48.13,1.29-.069,2.833-.021,4-.194-.382-.69-1.039-.88-1.379a12.718,12.718,0,0,1-.018,4.321c-.49.036-.408-.707-.623-.947a13.679,13.679,0,0,1-.2,2.519c-.3-.5-.884-1.224-1.219-1.824a33.426,33.426,0,0,1-.161,3.382,17.837,17.837,0,0,0-.911-1.589c.2,1.249-.244,2.435-.255,3.634-.2.236-.353-.336-.33-.365-.257.763-1.132,2.089-1.446,2.956a5.35,5.35,0,0,1-.392-1.018,21.033,21.033,0,0,1-.383,2.281c-.109,0-.766-.248-.683-.338a13.27,13.27,0,0,0-2.605,3.447c-.218.229-.212-.418-.506-.33a12.09,12.09,0,0,1-1.416,2.659,8.925,8.925,0,0,0-1.527,1.294.759.759,0,0,1-.416.02c-.345-.177-1.87-.842-2.013-.944-.12.45.008.729-.231,1.135a2.334,2.334,0,0,0-1.519-.881,7.1,7.1,0,0,1-1.221-1.1c-.667-.23-.422.43-.707.535-.5-.387-.69-.911-1.259-1.277-1.565.558-1.722.684-2.242-1.248-.578-.064-1.151.264-1.723.25a18.851,18.851,0,0,0-.417-1.94,7.944,7.944,0,0,0-1.2,1.775c-.22-.091-.66-.987-.948-1.163-.152.412-.05.979-.383,1.348-.362-.784-1.223-1.564-1.562-2.332-.1.466-.324,1.014-.443,1.385a25.926,25.926,0,0,0-1.137-3.2c-.213-.029-.094.6-.245.484-.464-1.248-1.293-2.455-1.812-3.647.044.483.058,1.12.051,1.444-.641-2.333-2.494-4.355-3.85-6.146.046.409.12.867.13,1.271-.336-.74-.994-1.678-1.289-2.379-.172-.15-.1.777-.266.662a22,22,0,0,0-1.448-2.239c-.328.047.157.834-.237.76-.6-.617-1.344-1.326-1.962-1.964-.424-.215-.249.641-.582.539-.54-.422-.838-1.024-1.4-1.388-.356.171,0,.687-.261.972a1.217,1.217,0,0,1-.463.133c-.568-.175-.526-.965-.925-1.208-.431.4-.68.967-1.05,1.3a4.969,4.969,0,0,0-.754-1.437c-.79,1.728-1.921,2.4-3.292,1.069a6.328,6.328,0,0,0-3.848,2.225c-.256-.079.02-.7-.4-.786-.431.421-1.418,1.189-1.968,1.668-.071-.025-.143-.628-.176-.6-1.832.564-3.136.725-4.986,1.286.291-.283.534-.8.873-1.087a5,5,0,0,1-4.248,2.38c-.213-.729-.935-1.348-1.153-2.043-2.108,3.226-10.891.523-14.8,3.517-.111-1.892-1.248-2.664-3.1-2.161.523-.569.523-1.1.831-1.541-1-.1-2.405-.673-3.481-.521a5.132,5.132,0,0,1,1.24-.249c-.442-.368-1.3-.586-1.731-.979.188-.167.954-.006.852-.418a7.39,7.39,0,0,0-4.934-.759,7.889,7.889,0,0,1,.409-2.4,1.052,1.052,0,0,1-.291.261,25.684,25.684,0,0,1,2.075-1.932c.144-.417-.694-.212-.682-.507.624-.421,1.285-1.022,1.913-1.528-.012-.009-.133-.835-.149-.805-.115.158-.588,0-.65-.087a27.276,27.276,0,0,0,1.672-2.192c0-.328-.7-.231-.849-.525,1.786-1.451,1.162-1.323,1.032-2.523,1.545-1.313,1.55-1.7,1.42-3.352a12.514,12.514,0,0,0,1.612-2.121,18.31,18.31,0,0,1,2.165-.68c.185-.11-.232-.635-.048-.837.842-.14,1.71-.407,2.553-.522-.251-.777-.355-.349-.788-.8.673-.193,1.558-.607,2.318-.852-.1-.323-.617-.707-.605-1.012.766-.028,1.9-.71,2.8-.743-.237-.4-.413-1.062-.668-1.456,1.054-.059,2.3-.774,3.5-.64-.121-.394-.273-.832-.4-1.238,1.205-.016,2.511-.745,3.709-.728.059-.173-.483-.81-.546-.976.774-.143,1.578-.3,2.326-.489.146-.218-.352-.568-.336-.582.757-.316,1.683-.848,2.538-1.173a7.044,7.044,0,0,1,2.386-1.972c.2-.37-.439-.558-.321-.836.667-.2,1.432-.288,2.1-.449.111-.094-.592-.407-.459-.571a25.2,25.2,0,0,0,2.557-.712c-.336-.6-.247-1.72-.582-2.332,1.9-.3,3.581-1.156,3.132-2.841.822-.071,1.574-.587,2.387-.729-.225-.346-.27-1.266-.781-1.833,2.091-.616,1.289-.975,1.952-1.782,3.655-.221,1.3-13.453,2.787-15.086Z" transform="translate(-1190.612 -441.839)"/>
      </g>
      <path id="Pfad_906" data-name="Pfad 906" class="cls-2" d="M1323.883,466.647l-4.274,7.829L1315.2,472.3l-16.643-7.527-2.79-4.631s-4.947,3.118-.577,9.56a35.47,35.47,0,0,0,4.431,3.876l-16.422,3.774c-1.322.563-1.831,2.361-1.135,4.012a3.13,3.13,0,0,0,3.145,2.125,3.352,3.352,0,0,0-.556,4.15,3.536,3.536,0,0,0,2.99,2.081c-1.243.778-1.519,2.78-.609,4.587.949,1.877,2.828,2.828,4.2,2.123l.76-.391a3.119,3.119,0,0,0,.116,2.753,2.964,2.964,0,0,0,2.461,1.739v.006l12.244,2.389,10.626-2.31,2.4-.753c21.485,1.663,40.125-23.757,39.506-31.5C1350.759,446.538,1323.883,459.065,1323.883,466.647Z" transform="translate(-1185.292 -312.714)"/>
      <g id="Gruppe_390" data-name="Gruppe 390" transform="translate(73.793 97.594)">
        <g id="Gruppe_387" data-name="Gruppe 387" transform="translate(5.875)">
          <g id="Gruppe_381" data-name="Gruppe 381">
            <g id="Gruppe_380" data-name="Gruppe 380" transform="translate(21.162)">
              <g id="Gruppe_378" data-name="Gruppe 378" transform="translate(22.432 9.333)">
                <path id="Pfad_907" data-name="Pfad 907" class="cls-9" d="M1328.224,398.148a6.688,6.688,0,0,0,12.517,4.664c1.221-3.281,1.375-7.085-2.082-8.373S1329.448,394.866,1328.224,398.148Z" transform="translate(-1327.687 -393.855)"/>
                <path id="Pfad_908" data-name="Pfad 908" class="cls-9" d="M1337.293,406.36a7,7,0,0,1-5.191.091h0a6.989,6.989,0,0,1-3.86-3.465h0a6.307,6.307,0,0,1-.275-5h0c.639-1.707,2.424-2.969,4.476-3.659h0a9.688,9.688,0,0,1,6.158-.136h0a4.293,4.293,0,0,1,2.893,3.559h0a10.265,10.265,0,0,1-.72,5.009h0a6.3,6.3,0,0,1-3.481,3.6Zm1.2-11.886c-.005,0-.005,0-.005,0h0a9.391,9.391,0,0,0-5.948.143h0c-1.995.669-3.7,1.9-4.286,3.476h0a6.01,6.01,0,0,0,.268,4.761h0a6.67,6.67,0,0,0,3.691,3.312h0a6.689,6.689,0,0,0,4.958-.087h0a6.006,6.006,0,0,0,3.317-3.428h0a10.027,10.027,0,0,0,.7-4.857h0a3.991,3.991,0,0,0-2.7-3.318Z" transform="translate(-1327.576 -393.746)"/>
              </g>
              <g id="Gruppe_379" data-name="Gruppe 379">
                <path id="Pfad_909" data-name="Pfad 909" class="cls-9" d="M1302.387,387.994a6.687,6.687,0,0,1-12.513-4.667c1.22-3.28,3.6-6.253,7.052-4.965S1303.609,384.712,1302.387,387.994Z" transform="translate(-1289.335 -377.9)"/>
                <path id="Pfad_910" data-name="Pfad 910" class="cls-9" d="M1298.941,391.542a7,7,0,0,1-5.188.091h0a6.988,6.988,0,0,1-3.862-3.467h0a6.291,6.291,0,0,1-.272-5h0a10.269,10.269,0,0,1,2.732-4.262h0a4.3,4.3,0,0,1,4.518-.8h0a9.672,9.672,0,0,1,4.564,4.134h0c1.1,1.863,1.623,3.986.989,5.7h0a6.316,6.316,0,0,1-3.481,3.605Zm-.122-.284a6,6,0,0,0,3.313-3.428h0c.588-1.57.111-3.619-.963-5.432h0a9.383,9.383,0,0,0-4.406-4.006h0a4.014,4.014,0,0,0-4.219.745h0a10.005,10.005,0,0,0-2.64,4.133h0a6.016,6.016,0,0,0,.261,4.764h0a6.7,6.7,0,0,0,3.692,3.309h0a6.689,6.689,0,0,0,4.96-.087Z" transform="translate(-1289.225 -377.79)"/>
              </g>
            </g>
            <path id="Pfad_911" data-name="Pfad 911" class="cls-10" d="M1309.442,401.2a3.439,3.439,0,0,0,.789.273A1.76,1.76,0,0,0,1309.442,401.2Zm-35.614-13.27a1.759,1.759,0,0,0-.775-.312A3.47,3.47,0,0,0,1273.829,387.93Zm-18.611,17.841a16.1,16.1,0,0,0-1.585,1.775,15.163,15.163,0,0,1,1.438-.629,18.7,18.7,0,0,1-1.219,1.533c.278-.14.746-.223,1.069-.4-.6,1.166-1.631,2.174-1.873,3.474a10.611,10.611,0,0,1,1.9-1.723,6.1,6.1,0,0,0-1.38,4.379,4.383,4.383,0,0,1,1.057-1.3,16.441,16.441,0,0,0-.628,2.558c.111-.181.407-.482.542-.694a2.419,2.419,0,0,0,.116,1.843,9.032,9.032,0,0,1,.622-.666,9.428,9.428,0,0,0-.118,2.664c.1-.192.317-.452.422-.644a14.091,14.091,0,0,0,.214,2.177c.107-.283.4-.617.488-.82a8.256,8.256,0,0,0,.164,2.162c.125-.241.5-.552.653-.828a8.353,8.353,0,0,1,.33,1.913c.128-.339.456-.724.57-.977a8.048,8.048,0,0,0,.533,2.579c.091-.346.33-.683.419-1.03a6.692,6.692,0,0,0,.511,1.826c.091-.353.349-.707.423-1.065.049.289.3.727.352.993.089-.177.224-.346.315-.535a12.77,12.77,0,0,0-.034,1.8c.109-.259.292-.478.406-.729a6.389,6.389,0,0,0,.771,2.649,8.016,8.016,0,0,0,.332-1.129,9.84,9.84,0,0,0,.51,2.464c.054-.121.248-.411.327-.6a12.706,12.706,0,0,0,.883,2.107c.054-.329.26-.684.3-1.025.022.018.171.486.185.539.019-.078.142-.377.2-.516a2.286,2.286,0,0,0,.473,1.45c.079-.227.215-.459.29-.691a3.63,3.63,0,0,0,.683,1.866c1.007-.746,1.408,1,1.638,1.812.1-.366.446-.824.535-1.241.066.452.335.873.433,1.3.21-.635.382-1.293.646-1.916.029-.041.178.091.23.07a3.186,3.186,0,0,1,.266-.7c.035,1.148.324,2.269.437,3.409.1-.4.338-.781.449-1.178.218.691.266,1.635.5,2.37.107-.361.344-.714.436-1.079a10.054,10.054,0,0,0,.3,1.465c.071-.307.508-.829.606-1.162a3.513,3.513,0,0,1,.838,1.651c.125-.437.529-.911.678-1.357a8.092,8.092,0,0,1,.172,1.974,5.785,5.785,0,0,1,.624-1.128c.487.827-.323,1.659.25,2.47.053-.064.12-.039.12.044.967-.235.9-1.394,1.807-1.705a5.443,5.443,0,0,1-.274,1.263,8.175,8.175,0,0,1,1.426-1.38c-.18.433-.184,1.057-.371,1.472a3.42,3.42,0,0,1,1.71-.7c-.143.316-.157.994-.3,1.275a10.527,10.527,0,0,0,1.184-.915c-.17.336-.22.76-.377,1.1.655-.4,1.307-1.09,1.924-1.466-.177.37-.241.814-.43,1.186.833-.788,1.783-1.452,2.562-2.292a3.487,3.487,0,0,1-.253.7c.023.05.222.046.218.1-.2.641-.507,1.257-.764,1.872.354-.261.831-.4,1.174-.7-.2.375-.246.941-.405,1.287.707-.468,2.151-1.519,2.426-.3a3.692,3.692,0,0,0,1.739-.963c-.1.221-.146.487-.233.709a2.277,2.277,0,0,0,1.307-.787c-.053.139-.153.449-.194.519a4.847,4.847,0,0,1,.5-.283c-.2.283-.272.684-.448.965a12.845,12.845,0,0,0,2.045-1.014c-.064.2-.109.542-.149.666a9.564,9.564,0,0,0,2-1.528,8.945,8.945,0,0,0-.485,1.069,6.332,6.332,0,0,0,2.314-1.5c-.074.27-.077.552-.17.82a12.669,12.669,0,0,0,1.161-1.386c-.057.2-.067.418-.116.611.212-.17.691-.335.912-.519-.171.32-.209.753-.372,1.08a6.833,6.833,0,0,0,1.578-1.045c-.159.32-.2.729-.358,1.049a8.045,8.045,0,0,0,2.093-1.6c-.078.268-.085.774-.206,1.115a8.148,8.148,0,0,1,1.5-1.23c-.071.3.014.788-.053,1.052a8.251,8.251,0,0,0,1.546-1.526c-.064.213-.069.654-.168.938a14.276,14.276,0,0,0,1.584-1.5c-.047.209-.054.546-.1.758a9.316,9.316,0,0,0,1.65-2.091,8.442,8.442,0,0,1,.037.914,2.423,2.423,0,0,0,1.291-1.322c-.036.251-.007.672-.039.881a17.351,17.351,0,0,0,1.2-2.341,4.516,4.516,0,0,1-.055,1.671,6.108,6.108,0,0,0,1.822-4.211,10.6,10.6,0,0,1,.312,2.546c.669-1.142.543-2.581.855-3.855.129.346.432.716.549,1a17.655,17.655,0,0,1,.085-1.955,14.8,14.8,0,0,1,.672,1.413,15.819,15.819,0,0,0-.037-2.377,4,4,0,0,1,.7,1.914c.55-.9.2-2.313.419-3.375a4.342,4.342,0,0,1,.29.425c.223-.925-.263-1.881-.354-2.828a8.211,8.211,0,0,1,.891,1.387,5.882,5.882,0,0,0-.173-2.83c.137.065.259.192.383.258-.227-1.364-1.177-2.554-1.52-3.92a10.959,10.959,0,0,0,1.241.618c-.243-1.293-1.507-2.567-1.371-3.856a4.32,4.32,0,0,1,.491.159c-.155-.3-.077-.8-.155-1.052a5.326,5.326,0,0,1,1.165.242,3.61,3.61,0,0,1-.8-1.726c.218.129.532.212.753.343a5.128,5.128,0,0,1-.838-1.654c.3.188.695.262,1,.436-.764-1.929-2.146-2.51-3.6-3.587a29.083,29.083,0,0,1,2.822.738,8.932,8.932,0,0,0-3.367-3.236,9.06,9.06,0,0,1,.985-.283,7.766,7.766,0,0,1-1.265-.548,2.68,2.68,0,0,1,1.2-.29c-.717-.46-1.525-.862-1.81-1.677.305.033.452-.111.889.064-.911-.556-1.027-1.412-.37-1.4a1.965,1.965,0,0,1-.807-.69c.977-.175,2.181.565,3.172.891-.758-1.242-4.55-3.025-4.6-3.8.215.012.5-.016.724-.02-.394-.251-.694-.763-1.082-1.045a5.321,5.321,0,0,1,1.372-.222c-.574-.5-1.362-.876-1.835-1.386.267-.036.6-.209.925-.23-.753-.459-1.64-.785-2.451-1.177.831-.3,2.17.14,3.124.363a29.11,29.11,0,0,0-3.285-2.4c.423-.116.831-.44,1.271-.524-.4-.078-.8-.381-1.2-.472.2-.106.51-.482.764-.6a2.649,2.649,0,0,0-1.854-.281,4.528,4.528,0,0,1,.487-.416,9.71,9.71,0,0,0-1.318.109c.29-.2.485-.542.807-.754-.319.021-.817-.12-1.148-.087a4.663,4.663,0,0,1,3.317-1.4,6.068,6.068,0,0,0-4.275-.34,5.5,5.5,0,0,1,2.195-1.075,4.433,4.433,0,0,0-3.392.529c.04-.063.231-.476.238-.488a2,2,0,0,0-.286.149c.258-.313.487-.769.728-1.077-.23.194-.515.364-.75.581.285-.414.564-.951.863-1.377a2.049,2.049,0,0,0-1.482,1.235,22.018,22.018,0,0,0,.619-2.984c-.992.519-1.433,1.873-1.927,2.955.024-.253.032-.519.068-.765-.03-.051-.206.118-.232-.015-.083-.212-.028-.477-.126-.662-.078.142-.233.329-.326.5a4.775,4.775,0,0,0-.2-.877c-.213.325-1.3-.459-1.607-.3-.12-.314-1.465-.438-1.411-.822a4.722,4.722,0,0,0-.727.529c.04-.19.043-.431.081-.592-.2.078-.327.314-.529.419-.1.085-.129-.158-.182-.139-.134.208-.3.416-.45.624.332-1.144.885-2.454.477-3.494a21.514,21.514,0,0,0-1.486,2.662,2.049,2.049,0,0,0-.311-1.907c-.05.519-.195,1.1-.249,1.606-.04-.32-.138-.632-.189-.929-.016.392-.146.885-.153,1.292a1.629,1.629,0,0,0-.122-.3c0,.012-.129.447-.136.519a4.432,4.432,0,0,0-2.219-2.616,5.456,5.456,0,0,1,.955,2.247,6.076,6.076,0,0,0-3.452-2.539,4.656,4.656,0,0,1,1.588,3.228c-.231-.243-.7-.464-.924-.685.1.368.033.754.116,1.1a9.633,9.633,0,0,0-.926-.948,4.692,4.692,0,0,1,.1.634,2.66,2.66,0,0,0-1.587-1c.116.256.1.741.188.956-.361-.192-.862-.225-1.211-.428.276.354.372.865.616,1.228a28.923,28.923,0,0,0-4.057-.331c.866.458,2.171,1,2.6,1.769-.87-.233-1.754-.567-2.622-.716.234.228.371.581.549.783-.693.074-1.534-.157-2.292-.153.426.285.606.766.888,1.062-.477-.04-1.039.15-1.5.082.165.154.361.361.532.49-.546.547-4.582-.584-5.965-.143.959.4,2.358.631,2.98,1.4a1.991,1.991,0,0,1-1.062,0c.5.419-.142.991-1.2.815.446.153.466.357.715.534a3.825,3.825,0,0,1-2.469.082c.469.341.506.684.722,1a7.718,7.718,0,0,1-1.317-.41,8.609,8.609,0,0,1,.56.859,8.868,8.868,0,0,0-4.665.243,28.749,28.749,0,0,1,2.616,1.287c-1.805-.139-3.229-.605-5.065.358.34.064.69.27,1.035.321a5.051,5.051,0,0,1-1.713.7c.252.046.545.191.8.237a3.692,3.692,0,0,1-1.738.779c.427.1.713.44,1.038.581-.217.136-.487.563-.8.7.147.076.332.106.471.2-.742,1.067-2.527,1.2-3.559,2.022a10.425,10.425,0,0,0,1.347.344c-1.151.812-2.654,1.089-3.718,1.97.139.029.314.014.459.054a5.882,5.882,0,0,0-1.981,2.031,7.766,7.766,0,0,1,1.58-.468c-.692.653-1.681,1.058-2.117,1.905.149-.025.333-.118.491-.134-.521.952-1.716,1.79-1.886,2.828A4.027,4.027,0,0,1,1255.218,405.771Z" transform="translate(-1253.047 -378.529)"/>
            <path id="Pfad_912" data-name="Pfad 912" class="cls-9" d="M1311.459,402.368a2.926,2.926,0,0,0,.663.229A1.467,1.467,0,0,0,1311.459,402.368Zm-29.947-11.158a1.517,1.517,0,0,0-.647-.263A3.02,3.02,0,0,0,1281.512,391.21Zm-15.482,14.556a12.9,12.9,0,0,0-1.318,1.451,12.47,12.47,0,0,1,1.2-.508,15.191,15.191,0,0,1-1.009,1.252c.232-.114.622-.176.893-.319-.492.956-1.353,1.777-1.547,2.844a8.691,8.691,0,0,1,1.58-1.4,4.9,4.9,0,0,0-1.126,3.594,3.587,3.587,0,0,1,.874-1.061,13.886,13.886,0,0,0-.508,2.1c.09-.145.341-.388.453-.564a1.936,1.936,0,0,0,.109,1.517,6.88,6.88,0,0,1,.518-.545,7.585,7.585,0,0,0-.084,2.19c.086-.156.266-.369.353-.526a11.2,11.2,0,0,0,.19,1.791c.091-.229.332-.5.4-.67a6.554,6.554,0,0,0,.154,1.782c.1-.2.419-.452.539-.679a6.862,6.862,0,0,1,.29,1.576c.107-.274.377-.593.474-.8a6.566,6.566,0,0,0,.467,2.129c.071-.285.27-.562.338-.846a5.73,5.73,0,0,0,.443,1.506c.073-.289.287-.578.349-.873.04.236.254.6.3.82.072-.146.183-.287.257-.439a10.5,10.5,0,0,0-.013,1.484c.087-.212.239-.391.332-.6a5.324,5.324,0,0,0,.666,2.184,6.224,6.224,0,0,0,.271-.927,7.956,7.956,0,0,0,.445,2.032c.043-.1.2-.336.268-.492a10.765,10.765,0,0,0,.753,1.738c.04-.267.214-.56.239-.843a4.612,4.612,0,0,1,.166.447c.01-.064.114-.309.157-.423a1.873,1.873,0,0,0,.409,1.195c.067-.185.179-.376.236-.567a3,3,0,0,0,.587,1.541c.84-.607,1.192.83,1.39,1.5.085-.3.365-.673.436-1.017.057.371.286.721.371,1.073.173-.519.312-1.063.528-1.57.028-.036.151.073.194.056a2.685,2.685,0,0,1,.221-.57c.04.945.284,1.871.388,2.809.081-.335.279-.644.368-.969.191.57.23,1.35.432,1.952.087-.294.285-.583.357-.884a8.079,8.079,0,0,0,.258,1.208c.058-.25.419-.677.5-.951a2.928,2.928,0,0,1,.711,1.362c.1-.357.439-.745.562-1.111a6.351,6.351,0,0,1,.155,1.625,4.712,4.712,0,0,1,.519-.926c.411.684-.263,1.367.223,2.034.05-.051.1-.029.1.041.808-.19.742-1.146,1.5-1.393a4.506,4.506,0,0,1-.215,1.038,6.769,6.769,0,0,1,1.18-1.127c-.141.356-.141.867-.3,1.209a2.881,2.881,0,0,1,1.429-.566c-.119.257-.124.816-.244,1.049a8.4,8.4,0,0,0,.983-.747c-.141.276-.18.624-.309.9.551-.322,1.089-.884,1.6-1.191-.146.3-.2.667-.355.972.69-.644,1.49-1.18,2.133-1.869a2.853,2.853,0,0,1-.206.574c.021.042.189.039.184.083-.168.525-.417,1.031-.63,1.535.3-.212.7-.324.98-.57-.167.307-.2.773-.33,1.059.587-.381,1.792-1.237,2.031-.228a3.037,3.037,0,0,0,1.455-.782c-.085.181-.124.4-.195.581a1.866,1.866,0,0,0,1.091-.637c-.043.116-.127.369-.161.428a3.815,3.815,0,0,1,.417-.23c-.16.23-.226.56-.365.791a10.639,10.639,0,0,0,1.7-.821c-.055.162-.085.441-.117.546a7.911,7.911,0,0,0,1.667-1.241,5.664,5.664,0,0,0-.4.876,5.2,5.2,0,0,0,1.928-1.217c-.06.218-.063.453-.135.672a10.651,10.651,0,0,0,.961-1.135c-.047.164-.053.345-.091.5.176-.137.575-.268.765-.422-.146.265-.176.624-.308.887a5.509,5.509,0,0,0,1.317-.848c-.13.262-.162.6-.3.865a6.75,6.75,0,0,0,1.747-1.306c-.067.22-.067.638-.167.915a6.7,6.7,0,0,1,1.253-1c-.058.25.016.649-.035.867a7.09,7.09,0,0,0,1.281-1.248c-.053.176-.053.537-.133.771a11.38,11.38,0,0,0,1.315-1.227c-.034.173-.041.453-.077.626a7.778,7.778,0,0,0,1.37-1.709,7.013,7.013,0,0,1,.032.75,1.946,1.946,0,0,0,1.077-1.078c-.03.206,0,.554-.028.724a13.622,13.622,0,0,0,.987-1.92,3.576,3.576,0,0,1-.034,1.376,4.864,4.864,0,0,0,1.5-3.456,8.747,8.747,0,0,1,.277,2.1c.554-.936.442-2.12.691-3.164.114.285.367.588.468.826a15,15,0,0,1,.058-1.607,11.972,11.972,0,0,1,.576,1.169,12.954,12.954,0,0,0-.049-1.957,3.272,3.272,0,0,1,.6,1.58c.452-.733.15-1.9.329-2.774.095.1.162.253.246.35a7.237,7.237,0,0,0-.316-2.33,6.892,6.892,0,0,1,.753,1.15,4.717,4.717,0,0,0-.164-2.331c.115.055.222.157.322.215-.2-1.122-1.006-2.111-1.3-3.236a8.351,8.351,0,0,0,1.045.515c-.212-1.062-1.282-2.122-1.174-3.182a4.181,4.181,0,0,1,.409.135c-.128-.252-.069-.662-.134-.866a4.765,4.765,0,0,1,.981.208,3.027,3.027,0,0,1-.684-1.428c.181.111.45.182.635.29a4.227,4.227,0,0,1-.714-1.366c.249.156.583.22.843.364-.656-1.594-1.819-2.079-3.044-2.974.813.1,1.573.445,2.369.628a7.542,7.542,0,0,0-2.845-2.688,6.714,6.714,0,0,1,.823-.223,7.259,7.259,0,0,1-1.063-.463,2.275,2.275,0,0,1,1.008-.229c-.608-.383-1.286-.72-1.534-1.392.26.026.379-.089.749.059-.769-.463-.872-1.167-.321-1.153a1.666,1.666,0,0,1-.68-.573c.815-.137,1.833.482,2.664.754-.642-1.025-3.833-2.517-3.882-3.156.176.012.414-.007.6-.012-.33-.209-.588-.631-.911-.866a4.572,4.572,0,0,1,1.143-.173c-.482-.416-1.143-.728-1.541-1.152.217-.029.5-.169.772-.185-.635-.383-1.382-.656-2.061-.985a5.671,5.671,0,0,1,2.618.319,25.055,25.055,0,0,0-2.77-2c.354-.091.693-.359,1.064-.423-.335-.065-.671-.318-1.009-.4.174-.087.429-.393.643-.488a2.309,2.309,0,0,0-1.558-.243,4.01,4.01,0,0,1,.4-.34,8.608,8.608,0,0,0-1.1.084c.239-.167.4-.443.672-.617-.267.016-.687-.1-.964-.08a3.865,3.865,0,0,1,2.772-1.128,5.209,5.209,0,0,0-3.587-.309,4.558,4.558,0,0,1,1.83-.869,3.738,3.738,0,0,0-2.834.412c.032-.049.187-.391.191-.4a1.429,1.429,0,0,0-.236.119c.214-.253.4-.628.6-.88-.2.157-.429.3-.627.473.24-.338.465-.78.713-1.127a1.666,1.666,0,0,0-1.234,1.006,18.088,18.088,0,0,0,.5-2.45c-.828.421-1.19,1.531-1.594,2.416.015-.2.022-.426.052-.629-.028-.041-.173.1-.2-.01-.071-.176-.026-.395-.114-.549-.064.119-.189.273-.269.408a3.269,3.269,0,0,0-.174-.721c-.175.264-1.1-.387-1.349-.259-.108-.26-1.232-.371-1.187-.687a3.75,3.75,0,0,0-.611.43c.034-.154.037-.353.064-.486-.163.063-.269.256-.438.343-.088.069-.11-.133-.157-.118-.109.172-.249.342-.37.511.267-.938.723-2.013.374-2.873a17.493,17.493,0,0,0-1.229,2.179,1.669,1.669,0,0,0-.275-1.57c-.042.428-.157.908-.2,1.321-.033-.263-.119-.523-.161-.767-.014.321-.118.729-.122,1.061a1.33,1.33,0,0,0-.1-.247c0,.012-.111.367-.112.427a3.759,3.759,0,0,0-1.879-2.165,4.57,4.57,0,0,1,.819,1.855,5.2,5.2,0,0,0-2.917-2.114,3.872,3.872,0,0,1,1.358,2.666c-.195-.2-.59-.384-.783-.57.09.307.034.62.109.907a8.223,8.223,0,0,0-.783-.787,4.393,4.393,0,0,1,.086.523,2.287,2.287,0,0,0-1.337-.838c.1.212.091.612.167.788-.3-.159-.727-.185-1.023-.356.237.29.316.715.526,1.012a25.375,25.375,0,0,0-3.4-.3c.728.384,1.824.836,2.19,1.475-.728-.195-1.476-.48-2.2-.607.2.19.319.481.468.648-.581.057-1.288-.14-1.926-.14.362.235.514.633.754.88-.4-.036-.87.115-1.255.056.137.126.308.3.446.408-.456.447-3.844-.514-5-.157.806.336,1.981.533,2.506,1.172a1.694,1.694,0,0,1-.892-.012c.428.349-.11.814-1,.662.376.129.395.3.6.443a3.2,3.2,0,0,1-2.068.053c.394.284.425.567.611.834a6.865,6.865,0,0,1-1.1-.35,7.237,7.237,0,0,1,.472.709,7.559,7.559,0,0,0-3.908.17c.719.382,1.523.625,2.2,1.076-1.515-.128-2.712-.518-4.247.26.289.058.582.229.873.272a4.2,4.2,0,0,1-1.435.566c.214.041.459.161.672.2a3,3,0,0,1-1.452.631c.36.084.6.367.876.487-.184.109-.407.459-.669.568a3.626,3.626,0,0,1,.4.165c-.609.872-2.109.972-2.968,1.638a10,10,0,0,0,1.126.294c-.956.657-2.213.875-3.1,1.6.119.024.269.015.39.048a4.779,4.779,0,0,0-1.649,1.654,6.761,6.761,0,0,1,1.323-.371c-.574.532-1.406.858-1.762,1.551.124-.019.276-.1.41-.105-.431.78-1.427,1.461-1.566,2.313A3.355,3.355,0,0,1,1266.03,405.766Z" transform="translate(-1257.698 -380.551)"/>
          </g>
          <g id="Gruppe_386" data-name="Gruppe 386" transform="translate(15.994 14.391)">
            <path id="Pfad_913" data-name="Pfad 913" class="cls-9" d="M1288.444,411.94c-2.788.256-4.7-3.312-8.053-3a25.421,25.421,0,0,1,7.284,4.8Z" transform="translate(-1280.391 -405.102)"/>
            <path id="Pfad_914" data-name="Pfad 914" class="cls-9" d="M1296.127,414.172c1.051-.4,2.039-.436,2.936-1.277-.091-.119-.293-.075-.4-.185.109-.238.4-.483.453-.738-.01-.067-.2-.07-.2-.018.849-1.533,1.583-2.626,1.523-4.354-.066.358-.178.663-.273,1.023-.019.068-.022.071,0,.005a4.451,4.451,0,0,0-.259-2.6c-.089.2-.043.365-.112.54-.08-.363-.249-.751-.319-1.095.018.343-.061.831-.046,1.17a15.094,15.094,0,0,0-.56-1.428c.039.295,0,.651.025.921a6.825,6.825,0,0,0-2.828-3.74,3.585,3.585,0,0,1,1.167,1.983,3.929,3.929,0,0,0-1.689-1.425,8.747,8.747,0,0,1,.491,1.084,9.109,9.109,0,0,0-2.441-1.5c.112.126.308.392.419.528a3.178,3.178,0,0,0-1.9-.391,6.447,6.447,0,0,1,.784.523,2.29,2.29,0,0,0-1.964.076c.384.131,1.045.45,1.284.493a6.654,6.654,0,0,0-2.561.2c.468.166.938.4,1.411.519a3.014,3.014,0,0,0-3.111.7,6.449,6.449,0,0,0,1.489.073,1.61,1.61,0,0,0-1.659.382,11.178,11.178,0,0,0,1.652.418,7.1,7.1,0,0,1-.685.256c.126.143.52.088.6.255a6.39,6.39,0,0,0-.831.386c.331.05.666.23,1,.283-.245.041-.577.152-.826.2a4.379,4.379,0,0,1,.787.309,5.182,5.182,0,0,0-1.06.314,7,7,0,0,0,1.109.235,1.391,1.391,0,0,1-.5.121c1.593.383,1.89,1.281,2.2,2.685Z" transform="translate(-1283.463 -402.393)"/>
            <path id="Pfad_915" data-name="Pfad 915" class="cls-9" d="M1318.121,422.192c-.529-1-1.257-1.665-1.384-2.89.148-.027.27.136.425.123.071-.249.014-.624.137-.852.051-.046.2.075.158.111.365-1.714.522-3.019,1.7-4.288-.18.314-.3.617-.46.95-.025.069-.03.07-.006.005a4.458,4.458,0,0,1,1.9-1.8c-.065.21-.21.305-.27.48.294-.222.676-.4.952-.618-.232.246-.494.669-.731.916.433-.3.937-.473,1.362-.714-.223.2-.428.49-.618.681a6.813,6.813,0,0,1,4.586-.976,3.563,3.563,0,0,0-2.182.735,3.924,3.924,0,0,1,2.209.027,8.771,8.771,0,0,0-1.082.5,9.079,9.079,0,0,1,2.826.464c-.169.022-.488.1-.662.126a3.2,3.2,0,0,1,1.7.946,6.805,6.805,0,0,0-.939-.113,2.308,2.308,0,0,1,1.441,1.339c-.377-.152-1.084-.342-1.294-.467a6.741,6.741,0,0,1,1.8,1.83c-.459-.18-.965-.313-1.4-.533a3.023,3.023,0,0,1,1.893,2.567,6.557,6.557,0,0,1-1.173-.921,1.613,1.613,0,0,1,1,1.376,11.433,11.433,0,0,1-1.521-.766c.028.105.3.552.349.641-.187.025-.449-.27-.617-.2a6.308,6.308,0,0,1,.375.836c-.283-.178-.653-.26-.945-.443.159.195.338.5.5.69a4.548,4.548,0,0,0-.8-.281,5.086,5.086,0,0,1,.6.934,7.241,7.241,0,0,1-.995-.55,1.475,1.475,0,0,0,.3.416c-1.451-.752-2.262-.265-3.415.595Z" transform="translate(-1295.477 -406.885)"/>
            <g id="Gruppe_382" data-name="Gruppe 382" transform="translate(8.403 6.634)">
              <path id="Pfad_916" data-name="Pfad 916" class="cls-11" d="M1294.861,414.8a1.639,1.639,0,1,0,2.111-.964A1.639,1.639,0,0,0,1294.861,414.8Z" transform="translate(-1294.758 -413.735)"/>
            </g>
            <path id="Pfad_917" data-name="Pfad 917" class="cls-9" d="M1329.672,427.47c1.939,2.023,5.715.569,8.052,3a25.362,25.362,0,0,0-8.642-1.141Z" transform="translate(-1300.602 -412.802)"/>
            <g id="Gruppe_383" data-name="Gruppe 383" transform="translate(23.538 12.273)">
              <path id="Pfad_918" data-name="Pfad 918" class="cls-11" d="M1323.81,425.589a1.64,1.64,0,1,1-.964-2.112A1.64,1.64,0,0,1,1323.81,425.589Z" transform="translate(-1320.632 -423.375)"/>
            </g>
            <g id="Gruppe_385" data-name="Gruppe 385" transform="translate(12.251 15.565)">
              <g id="Gruppe_384" data-name="Gruppe 384">
                <path id="Pfad_919" data-name="Pfad 919" class="cls-12" d="M1301.448,430.252c-.449,1.207.481,3.493,2.409,4.212s4.124-.4,4.576-1.611-.749-2.772-2.676-3.491S1301.9,429.04,1301.448,430.252Z" transform="translate(-1301.336 -429.004)"/>
                <path id="Pfad_920" data-name="Pfad 920" class="cls-11" d="M1308.547,434.709a1.149,1.149,0,1,0,1.486-.695A1.159,1.159,0,0,0,1308.547,434.709Z" transform="translate(-1304.298 -431.054)"/>
                <path id="Pfad_921" data-name="Pfad 921" class="cls-11" d="M1303.846,432.958a1.15,1.15,0,1,1-.671-1.5A1.161,1.161,0,0,1,1303.846,432.958Z" transform="translate(-1301.452 -429.993)"/>
              </g>
            </g>
          </g>
        </g>
        <path id="Pfad_922" data-name="Pfad 922" class="cls-9" d="M1329.657,466.477c-1.577-.379-3.72-1.711-5.353-2.223a28.854,28.854,0,0,0-6.418-1.667c-4.577-.339-6.186,3.976-7.7,7.5-1.056,2.464-6.832,14.23-2.681,15.612.056,2.271,2.071,5.5,4.131,3.907-.053.387.161.483.354.842,1,1.9,4.737,2.294,6.47.533.818,1.9,4.029.7,4.88-.634.907-1.419.745-5.2,1-6.893.594-3.9,3.7-8.809,5.722-8.781,1.378.014,1.965-4.4,2.169-5.133C1332.651,468.029,1329.657,466.477,1329.657,466.477Z" transform="translate(-1269.163 -412.98)"/>
        <g id="Gruppe_388" data-name="Gruppe 388" transform="translate(0 46.076)">
          <path id="Pfad_923" data-name="Pfad 923" class="cls-9" d="M1264.859,467.416c-.287-3.206-2.372-8.368-5.364-9.957-4.31-2.287-8.4.1-10.722,3.783a51.823,51.823,0,0,0-5.443,11.178c-.452,1.423-.893,9.606,2.028,8.192a3.587,3.587,0,0,0,2.128,3.112c2.075.731,2.321-.205,3.163-1.236.267,1.586,2.3,1.239,3.724.516,1.241-.63,1.4-1.706,1.508-3.071,4.146.528,4.028-2.746,4.847-5.935.478-1.852,1.536-7.221,3.7-7.14Z" transform="translate(-1243.003 -456.563)"/>
        </g>
        <g id="Gruppe_389" data-name="Gruppe 389" transform="translate(1.756 65.729)">
          <path id="Pfad_924" data-name="Pfad 924" class="cls-4" d="M1326.865,509.181a4.2,4.2,0,0,1,.361-2.929c.027-.023.027-.021,0,0a3.616,3.616,0,0,0-.928,3.286Z" transform="translate(-1279.286 -496.834)"/>
          <path id="Pfad_925" data-name="Pfad 925" class="cls-4" d="M1314.878,506.641a8.492,8.492,0,0,1,.938-3.06c-1,.915-2.756,2.659-1.613,3.406C1314.361,507.089,1314.878,506.641,1314.878,506.641Z" transform="translate(-1274.159 -495.732)"/>
          <path id="Pfad_926" data-name="Pfad 926" class="cls-4" d="M1308.1,500.483a3.058,3.058,0,0,1,1.156-2.293c-.746.323-2.082,1.235-1.754,1.969C1307.571,500.314,1308.1,500.483,1308.1,500.483Z" transform="translate(-1271.51 -493.494)"/>
          <path id="Pfad_927" data-name="Pfad 927" class="cls-4" d="M1264.2,493.867a5.016,5.016,0,0,1-.3-3.706,3.664,3.664,0,0,0,.184,4.59Z" transform="translate(-1253.134 -490.162)"/>
          <path id="Pfad_928" data-name="Pfad 928" class="cls-4" d="M1255.509,498.431a4,4,0,0,1-.5-2.529c-.471.929-.823,2.734-.214,3.559Z" transform="translate(-1249.519 -492.545)"/>
          <path id="Pfad_929" data-name="Pfad 929" class="cls-4" d="M1246.758,495.674c.124-.94-.023-1.675.607-2.391a3.5,3.5,0,0,0-1.358,2.677Z" transform="translate(-1246.006 -491.457)"/>
        </g>
      </g>
    </g>
    <g id="Gruppe_612" data-name="Gruppe 612" transform="translate(72.43 79.3)">
      <path id="Pfad_968" data-name="Pfad 968" class="cls-9" d="M606.672,301.5c0,9.775-35.951,26.671-44.78,26.671s-26.583-12.8-26.583-22.576,17.754-12.823,26.583-12.823S606.672,291.721,606.672,301.5Z" transform="translate(-508.57 -238.948)"/>
      <g id="Gruppe_412" data-name="Gruppe 412" transform="translate(22.718 204.744)">
        <path id="Pfad_969" data-name="Pfad 969" class="cls-13" d="M584.074,638.076l-4.348-13.124-1.686,13.124H530.284c-.94-41.719-1.85-82.772-1.85-82.772l56.532,10.15c16.225-10.345,36.72-20.868,39.526-10.15,6.654,25.414,9.035,57.241,9.819,82.772Z" transform="translate(-528.434 -550.813)"/>
        <path id="Pfad_970" data-name="Pfad 970" class="cls-14" d="M615.344,649.911l11.5-25.1,14.62-10.272-20.91-.282Z" transform="translate(-564.509 -577.149)"/>
      </g>
      <g id="Gruppe_418" data-name="Gruppe 418" transform="translate(35.043 0)">
        <g id="Gruppe_413" data-name="Gruppe 413" transform="translate(17.089 43.662)">
          <path id="Pfad_971" data-name="Pfad 971" class="cls-15" d="M578.721,298.076l13.85,7.942,16.379-6.527-1.243-17.829-28.829-6.24Z" transform="translate(-578.721 -275.423)"/>
        </g>
        <g id="Gruppe_417" data-name="Gruppe 417">
          <g id="Gruppe_414" data-name="Gruppe 414" transform="translate(11.996 11.458)">
            <path id="Pfad_972" data-name="Pfad 972" class="cls-16" d="M575.037,250.574c-1.526-5.941-5.952-14.753-4.846-19.411,1.282-5.42,6.463-7.629,11.033-9.179s10.031-2.936,14.341.593c3.7,3.03,5.54,12.719,7.94,18.363a25.03,25.03,0,0,1,.352,19.34,8.638,8.638,0,0,1-4.9,3.651c-1.962,1.093-10.924.844-12.986.035C579,261.212,576.98,258.171,575.037,250.574Z" transform="translate(-570.015 -220.366)"/>
          </g>
          <g id="Gruppe_416" data-name="Gruppe 416">
            <g id="Gruppe_415" data-name="Gruppe 415">
              <path id="Pfad_973" data-name="Pfad 973" class="cls-17" d="M550.14,226.377c-2.738-5.7,4.2-10.535,5.517-12.822,4.793-8.3,13.7-6.153,16.005-8.257,9.658-8.836,14.526-2.322,14.468-.436a18.493,18.493,0,0,1-.449,2.767c5.046.067,7.779,1.9,6.528,3.227-.618.653,5.107,7.427-.862,11.352,0,0-5.6-7.7-7.571-7.7-2.511-1.242-5.116,2.205-5.116,2.205s-6.4,2.213-6.813,2.585c-.746.68-3.32-.145-3.32-.145-6.966,6.056-3.081,19.311-3.081,19.311a128.593,128.593,0,0,1,3.127,18.854c-1.554-2.525-9.639-8.179-12.532-11.993C550.9,238.533,553.092,232.51,550.14,226.377Z" transform="translate(-549.506 -200.778)"/>
            </g>
          </g>
          <path id="Pfad_974" data-name="Pfad 974" class="cls-16" d="M573.867,264.753c-7.26-3.229-3,6.871-1,8.9a6.889,6.889,0,0,0,4.321,1.209Z" transform="translate(-557.928 -227.07)"/>
        </g>
        <path id="Pfad_975" data-name="Pfad 975" class="cls-4" d="M597.995,269.182c.9,2.435,6.992,5.749,12.289,3.8,7.462-2.744,2.258-4.81,4.674-10.038.485-1.046-1.04,1.6-6.338,3.545S597.538,267.936,597.995,269.182Z" transform="translate(-569.622 -226.483)"/>
      </g>
      <path id="Pfad_976" data-name="Pfad 976" class="cls-10" d="M695.756,388.162c-5.1-14-15.545-48.26-16.95-53.082-7.052,6.345-16.446,36.905-20.521,45.028,1.62,9.916,7.1,26.989,13.72,27.107C684.363,421.25,695.756,388.162,695.756,388.162Z" transform="translate(-559.614 -256.524)"/>
      <path id="Pfad_977" data-name="Pfad 977" class="cls-15" d="M735.5,403.628l3.524-2.248s2.427,4.08-2.815,7.027a26.522,26.522,0,0,1-4.421,1.089s12.376,6.81,15.917,9.2c5.759,3.891,2.2,5.765,2.2,5.765l-4.965-1.844,5.481,3.079c1.89,1.059,2.619,2.971,1.635,4.283-.743.993-4.7.492-6.2.145,1.719,1.086,3.137,3.3,2.1,4.681-1.074,1.435-10.764-2.5-10.764-2.5a2.392,2.392,0,0,1,.91,3.39c-.757,1.123-14.118-5.531-14.118-5.531a2.7,2.7,0,0,1-.6-.478l-6.534-2.016-5.33-4.215.825-14.84,8.919-5.894Z" transform="translate(-581.71 -284.043)"/>
      <g id="Gruppe_422" data-name="Gruppe 422" transform="translate(8.099 62.549)">
        <g id="Gruppe_420" data-name="Gruppe 420">
          <g id="Gruppe_419" data-name="Gruppe 419">
            <path id="Pfad_978" data-name="Pfad 978" class="cls-9" d="M518.342,374.006s-14.886-44.371-14.9-50.285c4.4-10.672,34.539-16.007,34.539-16.007l28.109,2.9,27.354-2.9s16.691,8.1,21.089,16.007c-.013,5.914-.7,50.285-.7,50.285s10.937,63.341.938,82.993c-7.107,4.192-24.433,8.678-42.051,8.752-17.618-.074-47.557-7.159-54.665-11.352C501.988,449.632,518.342,374.006,518.342,374.006Z" transform="translate(-503.442 -307.714)"/>
          </g>
          <path id="Pfad_979" data-name="Pfad 979" class="cls-10" d="M528.35,342.255c11.9,7.64,47.064,43.41,50.02,61.362,1.212,7.358,42.491,17.261,41.9,24.764-10.545,10.544-42.366,17.466-59.3,17.83-21.187.456-37.922-11.029-39.385-25.7Z" transform="translate(-510.974 -322.051)"/>
        </g>
        <g id="Gruppe_421" data-name="Gruppe 421" transform="translate(52.01 8.353)">
          <rect id="Rechteck_51" data-name="Rechteck 51" class="cls-7" width="2.847" height="28.943" transform="translate(23.248)"/>
          <rect id="Rechteck_52" data-name="Rechteck 52" class="cls-7" width="2.847" height="28.943" transform="translate(0 1.66)"/>
        </g>
      </g>
      <g id="Gruppe_431" data-name="Gruppe 431" transform="translate(45.701 65.381)">
        <g id="Gruppe_424" data-name="Gruppe 424">
          <path id="Pfad_980" data-name="Pfad 980" class="cls-10" d="M664.84,312.555H588.356a58.871,58.871,0,1,0,76.484,0Z" transform="translate(-567.726 -312.555)"/>
          <g id="Gruppe_423" data-name="Gruppe 423" transform="translate(4.341 29.327)">
            <path id="Pfad_981" data-name="Pfad 981" class="cls-5" d="M711.3,472.278q-1.111.563-2.249,1.075Q710.192,472.839,711.3,472.278Z" transform="translate(-630.729 -408.18)"/>
            <path id="Pfad_982" data-name="Pfad 982" class="cls-5" d="M604.87,364.045a8.131,8.131,0,0,1,.029,1.582,4.261,4.261,0,0,1-.3,1.287l.057.1a6.907,6.907,0,0,1,.478,1.12,7.919,7.919,0,0,1,.357,1.641,5.79,5.79,0,0,1-.028,1.582,3.566,3.566,0,0,1-.463,1.287c.025.033.051.067.078.105a5.545,5.545,0,0,1,.612,1.12,6.066,6.066,0,0,1,.421,1.641,4.633,4.633,0,0,1-.085,1.58,3.292,3.292,0,0,1-.626,1.288c.033.033.066.068.1.1a5.162,5.162,0,0,1,.75,1.121,5.073,5.073,0,0,1,.394,1.213c.012-.9.021-1.947.021-3.3,0-6.256-1.232-6.256-1.232-12.514,0-.887.029-1.638.077-2.31h-.869A12.4,12.4,0,0,1,604.87,364.045Z" transform="translate(-587.372 -362.694)"/>
            <path id="Pfad_983" data-name="Pfad 983" class="cls-5" d="M606.657,398.347c.038.033.077.069.116.1a5.273,5.273,0,0,1,.625.741c.019-.769.042-1.458.06-2.216-.008.026-.008.057-.016.082A3.245,3.245,0,0,1,606.657,398.347Z" transform="translate(-588.227 -376.924)"/>
            <path id="Pfad_984" data-name="Pfad 984" class="cls-5" d="M607.344,408.929c.044.034.09.068.135.106s.1.095.147.136c0-.021,0-.037,0-.058,0-.163,0-.3,0-.456C607.534,408.756,607.438,408.847,607.344,408.929Z" transform="translate(-588.512 -381.772)"/>
            <path id="Pfad_985" data-name="Pfad 985" class="cls-5" d="M609.18,460.36c.161.135.321.27.482.4-.065-.054-.126-.112-.192-.167C609.374,460.516,609.276,460.44,609.18,460.36Z" transform="translate(-589.274 -403.233)"/>
            <path id="Pfad_986" data-name="Pfad 986" class="cls-5" d="M586.661,409.581a3.8,3.8,0,0,1-.918-.888,2.353,2.353,0,0,1-.443-1.642,3.029,3.029,0,0,1,.711-1.581,5.692,5.692,0,0,1,1.6-1.287c-.056-.033-.111-.069-.168-.1a3.845,3.845,0,0,1-1.142-1.12,2.533,2.533,0,0,1-.38-1.64,3.265,3.265,0,0,1,.653-1.582,5.353,5.353,0,0,1,1.439-1.287c-.049-.034-.1-.07-.149-.107a3.53,3.53,0,0,1-1.005-1.118,2.753,2.753,0,0,1-.317-1.641,3.553,3.553,0,0,1,.595-1.582,5.13,5.13,0,0,1,1.279-1.287c-.043-.034-.087-.068-.13-.1a3.358,3.358,0,0,1-.87-1.119,3.085,3.085,0,0,1-.254-1.642,3.99,3.99,0,0,1,.538-1.582,4.943,4.943,0,0,1,1.117-1.286l-.11-.106a3.247,3.247,0,0,1-.733-1.118,3.517,3.517,0,0,1-.192-1.642,4.551,4.551,0,0,1,.479-1.58,5.007,5.007,0,0,1,.958-1.287c-.03-.035-.061-.069-.091-.106a3.225,3.225,0,0,1-.6-1.12,4.182,4.182,0,0,1-.131-1.641,5.417,5.417,0,0,1,.424-1.58,5.2,5.2,0,0,1,.8-1.289c-.024-.033-.049-.068-.073-.1a3.361,3.361,0,0,1-.459-1.118,5.111,5.111,0,0,1-.07-1.642,7.017,7.017,0,0,1,.366-1.58,5.926,5.926,0,0,1,.638-1.287l-.054-.108a3.9,3.9,0,0,1-.323-1.118,6.738,6.738,0,0,1-.006-1.642,9.8,9.8,0,0,1,.308-1.58,8.342,8.342,0,0,1,.476-1.288c-.012-.034-.022-.069-.033-.106a4.841,4.841,0,0,1-.186-1.12c0-.037,0-.084,0-.124H577.083a55.545,55.545,0,0,0,9.143,47.821q.107-.079.215-.151A6.411,6.411,0,0,1,586.661,409.581Z" transform="translate(-575.148 -362.694)"/>
            <path id="Pfad_987" data-name="Pfad 987" class="cls-5" d="M651.7,480.679c-.441-.081-.884-.161-1.322-.254C650.818,480.517,651.261,480.6,651.7,480.679Z" transform="translate(-606.375 -411.562)"/>
            <path id="Pfad_988" data-name="Pfad 988" class="cls-5" d="M759.605,418.01c-.181.533-.361,1.067-.557,1.593C759.245,419.077,759.425,418.543,759.605,418.01Z" transform="translate(-651.481 -385.654)"/>
            <path id="Pfad_989" data-name="Pfad 989" class="cls-5" d="M756.157,426.523c-.228.505-.455,1.012-.7,1.509C755.7,427.535,755.929,427.028,756.157,426.523Z" transform="translate(-649.992 -389.188)"/>
            <path id="Pfad_990" data-name="Pfad 990" class="cls-5" d="M757.979,422.319c-.2.518-.406,1.038-.626,1.548C757.573,423.357,757.775,422.837,757.979,422.319Z" transform="translate(-650.777 -387.443)"/>
            <path id="Pfad_991" data-name="Pfad 991" class="cls-5" d="M602.821,454.521c-.219-.216-.431-.439-.645-.66C602.39,454.082,602.6,454.3,602.821,454.521Z" transform="translate(-586.367 -400.535)"/>
            <path id="Pfad_992" data-name="Pfad 992" class="cls-5" d="M606.7,458.2c-.227-.2-.457-.4-.68-.6C606.242,457.8,606.472,458,606.7,458.2Z" transform="translate(-587.962 -402.088)"/>
            <path id="Pfad_993" data-name="Pfad 993" class="cls-5" d="M599.916,451.47q-.322-.349-.639-.7Q599.594,451.12,599.916,451.47Z" transform="translate(-585.163 -399.251)"/>
            <path id="Pfad_994" data-name="Pfad 994" class="cls-5" d="M597.1,448.246c-.174-.208-.352-.413-.522-.622C596.752,447.833,596.929,448.038,597.1,448.246Z" transform="translate(-584.044 -397.947)"/>
            <path id="Pfad_995" data-name="Pfad 995" class="cls-5" d="M686.654,372.948c.731,6.215,2.339,6.026,3.069,12.241s.145,6.286.87,12.472a9.9,9.9,0,0,1,.546-2.315,8.584,8.584,0,0,1,1.279-2.309c-.044-.06-.088-.123-.13-.188a6.8,6.8,0,0,1-.869-2.007,9.533,9.533,0,0,1-.254-2.942,11.265,11.265,0,0,1,.538-2.834,9.249,9.249,0,0,1,1.117-2.306c-.037-.06-.073-.123-.11-.188a7.264,7.264,0,0,1-.733-2.007,11.019,11.019,0,0,1-.192-2.942,13.425,13.425,0,0,1,.48-2.834,10.3,10.3,0,0,1,.958-2.308c-.03-.061-.061-.123-.092-.189a8.013,8.013,0,0,1-.6-2.007,13.2,13.2,0,0,1-.131-2.941,16.348,16.348,0,0,1,.423-2.834,13.188,13.188,0,0,1,.584-1.819h-7.252C686.481,366.781,686.023,367.6,686.654,372.948Z" transform="translate(-621.225 -362.694)"/>
            <path id="Pfad_996" data-name="Pfad 996" class="cls-5" d="M647.27,479.7c-.4-.094-.8-.181-1.188-.283C646.474,479.522,646.873,479.609,647.27,479.7Z" transform="translate(-604.591 -411.144)"/>
            <path id="Pfad_997" data-name="Pfad 997" class="cls-5" d="M613.3,463.614c-.3-.224-.6-.452-.9-.681C612.7,463.162,613,463.39,613.3,463.614Z" transform="translate(-590.611 -404.301)"/>
            <path id="Pfad_998" data-name="Pfad 998" class="cls-5" d="M610.433,461.387c.04.032.081.063.12.1-.016-.015-.032-.027-.049-.041S610.457,461.406,610.433,461.387Z" transform="translate(-589.794 -403.659)"/>
            <path id="Pfad_999" data-name="Pfad 999" class="cls-5" d="M633.342,475.1c-.225-.093-.45-.185-.673-.282C632.892,474.912,633.117,475,633.342,475.1Z" transform="translate(-599.024 -409.233)"/>
            <path id="Pfad_1000" data-name="Pfad 1000" class="cls-5" d="M695.491,430.97c-.049-.061-.1-.124-.151-.19a6.443,6.443,0,0,1-.812-1.467c.106.963.191,1.75.277,2.555A8.03,8.03,0,0,1,695.491,430.97Z" transform="translate(-624.7 -390.346)"/>
            <path id="Pfad_1001" data-name="Pfad 1001" class="cls-5" d="M697.371,478.134c.525-.157,1.043-.325,1.561-.5-.206.069-.421.124-.63.191C697.99,477.927,697.684,478.041,697.371,478.134Z" transform="translate(-625.88 -410.404)"/>
            <path id="Pfad_1002" data-name="Pfad 1002" class="cls-5" d="M691.827,479.692c.511-.122,1.024-.238,1.53-.373-.28.074-.568.126-.848.2C692.28,479.572,692.056,479.638,691.827,479.692Z" transform="translate(-623.579 -411.102)"/>
            <path id="Pfad_1003" data-name="Pfad 1003" class="cls-5" d="M695.38,478.973l.4-.113c-.058.017-.118.029-.177.046S695.455,478.952,695.38,478.973Z" transform="translate(-625.054 -410.912)"/>
            <path id="Pfad_1004" data-name="Pfad 1004" class="cls-5" d="M688.624,480.44c.463-.092.92-.2,1.379-.3a.172.172,0,0,0-.005-.018C689.539,480.225,689.088,480.347,688.624,480.44Z" transform="translate(-622.249 -411.435)"/>
            <path id="Pfad_1005" data-name="Pfad 1005" class="cls-5" d="M675.319,423.125c-.733-6.214-2.206-6.042-2.937-12.256s.163-6.32-.57-12.535-.219-6.274-.95-12.49-.557-6.235-1.289-12.451c-.662-5.627-1.727-6.056-2.465-10.7H654.087l.087,6.284.395,12.516.973,12.515-.347,12.515-1.148,12.517v12.517l.057.411a55.333,55.333,0,0,0,20.047-.25C674.283,429.239,675.809,427.3,675.319,423.125Zm-12.138,3.294a2.553,2.553,0,1,1,2.555-2.553A2.553,2.553,0,0,1,663.181,426.418Z" transform="translate(-607.897 -362.694)"/>
            <path id="Pfad_1006" data-name="Pfad 1006" class="cls-5" d="M700.807,476.25c1.4-.477,2.77-1,4.112-1.586-1.342.583-2.72,1.1-4.116,1.576Z" transform="translate(-627.305 -409.17)"/>
            <path id="Pfad_1007" data-name="Pfad 1007" class="cls-5" d="M761.024,413.637c-.155.542-.31,1.084-.48,1.618C760.714,414.72,760.869,414.179,761.024,413.637Z" transform="translate(-652.102 -383.839)"/>
            <path id="Pfad_1008" data-name="Pfad 1008" class="cls-5" d="M733.566,398.821c0-.058,0-.155.006-.28a5.34,5.34,0,0,1,.39-1.8,4.046,4.046,0,0,1,1.117-1.524c.457-.4.914-.69,1.239-.953-.221-.2-.516-.447-.824-.694a4.516,4.516,0,0,1-.955-1.1,5.039,5.039,0,0,1-.65-2.582c0-.08,0-.192.009-.335a5.2,5.2,0,0,1,.825-2.677,10.443,10.443,0,0,1,1.41-1.5.629.629,0,0,0,.059-.06c-.166-.21-.467-.52-.816-.914a4.509,4.509,0,0,1-.736-1.177,5.8,5.8,0,0,1-.429-2.259c0-.088,0-.2.009-.338a6.213,6.213,0,0,1,.608-2.5,10.043,10.043,0,0,1,1.061-1.534,1.513,1.513,0,0,0,.1-.161.466.466,0,0,0-.043-.167,12.188,12.188,0,0,0-.633-1.051,5.387,5.387,0,0,1-.523-1.221,6.856,6.856,0,0,1-.259-1.919c0-.113,0-.251.01-.4a8.127,8.127,0,0,1,.375-2.155,11.734,11.734,0,0,1,.68-1.537c.1-.267.061-.1.078-.323,0-.019,0-.061,0-.124a3.128,3.128,0,0,0-.263-1.169,8.3,8.3,0,0,1-.559-3.086c0-.178,0-.374.014-.582H705.732a14.264,14.264,0,0,1-.1,2.347,8.447,8.447,0,0,1-.625,2.307c.031.059.064.124.1.19a11.32,11.32,0,0,1,.75,2.007,14.574,14.574,0,0,1,.481,2.942,12.053,12.053,0,0,1-.143,2.831,7.483,7.483,0,0,1-.784,2.309c.038.061.077.125.115.19a9.7,9.7,0,0,1,.887,2.007,12.191,12.191,0,0,1,.543,2.942,10.321,10.321,0,0,1-.2,2.833,6.938,6.938,0,0,1-.946,2.306c.046.061.089.124.137.188a9.021,9.021,0,0,1,1.022,2.009,10.526,10.526,0,0,1,.6,2.94,8.943,8.943,0,0,1-.256,2.834,6.594,6.594,0,0,1-1.106,2.307c.05.061.1.123.156.191a8.394,8.394,0,0,1,1.159,2.006,9.378,9.378,0,0,1,.668,2.941,8.08,8.08,0,0,1-.315,2.833,6.412,6.412,0,0,1-1.267,2.307c.059.06.116.123.174.189a8.128,8.128,0,0,1,1.3,2.006,8.351,8.351,0,0,1,.73,2.941,7.242,7.242,0,0,1-.371,2.835,6.468,6.468,0,0,1-.86,1.635,15.166,15.166,0,0,1,2.487,8.5,55.75,55.75,0,0,0,24.392-24.913,3.889,3.889,0,0,1-.336-.5A4.8,4.8,0,0,1,733.566,398.821Z" transform="translate(-629.048 -362.694)"/>
            <path id="Pfad_1009" data-name="Pfad 1009" class="cls-5" d="M759.238,363.066c0,.084-.006.146-.006.21a1.759,1.759,0,0,0,.186.822,9.607,9.607,0,0,1,.629,3.091v.027c0,.132.009.275.009.439a7.334,7.334,0,0,1-.311,2.189,10.658,10.658,0,0,1-.679,1.555,1.393,1.393,0,0,0-.152.624l0,.033v.027c.022.094.253.421.6.993a6.561,6.561,0,0,1,.852,3.071v.027h0c0,.1.007.209.007.338a5.941,5.941,0,0,1-.543,2.582,9.494,9.494,0,0,1-1.059,1.546,1.889,1.889,0,0,0-.135.212c.157.215.507.545.905,1.022a4.766,4.766,0,0,1,.7,1.159,6.083,6.083,0,0,1,.445,2.068v.015l0,.032c0,.057,0,.147,0,.269a5.114,5.114,0,0,1-.763,2.822,9.853,9.853,0,0,1-1.408,1.5c-.011.013-.024.025-.035.038.214.2.521.46.845.717a4.744,4.744,0,0,1,.965,1.094c.028.043.057.092.084.141a55.572,55.572,0,0,0-.01-29.041h-1.112C759.256,362.806,759.246,362.917,759.238,363.066Z" transform="translate(-651.251 -362.694)"/>
            <path id="Pfad_1010" data-name="Pfad 1010" class="cls-5" d="M633.563,406.527l-.176-12.517.408-12.514-1.131-12.516.055-6.287H615.333V365c0,6.258-.744,6.258-.744,12.517s1.617,6.258,1.617,12.516-.592,6.258-.592,12.514-.064,6.258-.064,12.518a29.562,29.562,0,0,1-.861,7.283,55.494,55.494,0,0,0,10.294,5.849c.08-.036.158-.07.227-.106l.03-.015c-.184-.1-.429-.211-.674-.357a1.653,1.653,0,0,1-.616-.6,1.473,1.473,0,0,1-.186-.725c0-.039,0-.07,0-.1v-.015a1.547,1.547,0,0,1,.4-.947,2.279,2.279,0,0,1,.538-.42c.18-.1.352-.2.471-.274a.082.082,0,0,1-.02-.015,4.859,4.859,0,0,1-.785-.576,1.535,1.535,0,0,1-.425-1.081c0-.047,0-.081,0-.1v-.019a1.738,1.738,0,0,1,.249-.793,1.9,1.9,0,0,1,.391-.444c.223-.184.418-.31.505-.392a.916.916,0,0,0-.075-.083,3.961,3.961,0,0,1-.591-.591,1.709,1.709,0,0,1-.3-.99c0-.05,0-.093,0-.13v-.011a1.987,1.987,0,0,1,.475-1.178,4.567,4.567,0,0,0,.337-.381v0c0-.008,0-.006,0-.006v-.015a.429.429,0,0,0-.085-.239,3.6,3.6,0,0,1-.38-.6,2,2,0,0,1-.172-.838c0-.063,0-.118,0-.168v-.011a2.732,2.732,0,0,1,.352-1.185c.107-.218.091-.153.1-.315,0-.025,0-.049,0-.082a1.974,1.974,0,0,0-.117-.569,2.981,2.981,0,0,1-.164-.986c0-.1,0-.193.011-.3.024-.354.056-.594.077-.762a2.888,2.888,0,0,0,.029-.409c0-.1,0-.229-.016-.409a.747.747,0,0,1,.551-.843l.054,0a.69.69,0,0,1,.605.706c.016.215.022.391.022.549a4.754,4.754,0,0,1-.045.653c-.023.182-.046.35-.066.649-.005.069-.006.125-.006.168a1,1,0,0,0,.074.4,3.829,3.829,0,0,1,.2,1.018c.005.079.009.153.009.222a2.346,2.346,0,0,1-.313,1.183.908.908,0,0,0-.146.448c0,.025,0,.04,0,.047.009.082-.012.022.045.124a4.244,4.244,0,0,1,.379.588,2.253,2.253,0,0,1,.208.827c0,.059.006.112.006.156a1.867,1.867,0,0,1-.144.735,1.816,1.816,0,0,1-.291.468,4.934,4.934,0,0,0-.354.4.144.144,0,0,0-.025.064.722.722,0,0,0,.057.062,4.231,4.231,0,0,1,.59.588,1.828,1.828,0,0,1,.342.958c0,.051,0,.1,0,.13a1.632,1.632,0,0,1-.238.866,1.8,1.8,0,0,1-.411.45c-.194.153-.364.27-.456.351l.033.023a5.228,5.228,0,0,1,.786.574,1.622,1.622,0,0,1,.461,1.027c0,.055,0,.1,0,.129a1.49,1.49,0,0,1-.363.99,2.16,2.16,0,0,1-.532.42c-.173.1-.337.191-.46.267.182.1.436.214.691.366a1.78,1.78,0,0,1,.622.584,1.5,1.5,0,0,1,.217.691.949.949,0,0,1,.005.108,1.445,1.445,0,0,1-.19.714,54.939,54.939,0,0,0,6.434,2.128l.721-11.907Z" transform="translate(-591.519 -362.694)"/>
            <path id="Pfad_1011" data-name="Pfad 1011" class="cls-6" d="M610.255,461.247c-.083-.067-.168-.13-.251-.2C610.087,461.116,610.172,461.179,610.255,461.247Z" transform="translate(-589.616 -403.519)"/>
            <path id="Pfad_1012" data-name="Pfad 1012" class="cls-6" d="M614.436,464.452c.064.046.124.1.188.143a.09.09,0,0,0,0-.013l-.189-.136Z" transform="translate(-591.456 -404.929)"/>
            <path id="Pfad_1013" data-name="Pfad 1013" class="cls-6" d="M605.644,457.252c.028.027.058.05.086.075l-.087-.082Z" transform="translate(-587.806 -401.94)"/>
            <path id="Pfad_1014" data-name="Pfad 1014" class="cls-6" d="M609.676,460.764c.066.054.127.113.192.167.083.067.168.13.251.2.024.019.05.036.072.055C610.019,461.045,609.847,460.9,609.676,460.764Z" transform="translate(-589.48 -403.401)"/>
            <path id="Pfad_1015" data-name="Pfad 1015" class="cls-6" d="M612.058,402.546c0-6.257.592-6.257.592-12.514s-1.617-6.258-1.617-12.516.744-6.259.744-12.517v-2.305H606.1c-.047.672-.077,1.423-.077,2.31,0,6.258,1.232,6.258,1.232,12.514,0,1.356-.009,2.407-.021,3.3.029.143.072.286.087.429a3.837,3.837,0,0,1-.126,1.5c-.018.758-.04,1.448-.06,2.216a3.955,3.955,0,0,1,.261.38,4.2,4.2,0,0,1,.543,1.642,3.263,3.263,0,0,1-.2,1.579,3.2,3.2,0,0,1-.659,1.015c0,.153,0,.294,0,.456,0,.02,0,.037,0,.058a4.7,4.7,0,0,1,.877.983,3.764,3.764,0,0,1,.6,1.64,2.915,2.915,0,0,1-.257,1.583,3.508,3.508,0,0,1-1.106,1.287c.052.033.1.068.157.106a5.078,5.078,0,0,1,1.159,1.119,3.407,3.407,0,0,1,.667,1.64,2.635,2.635,0,0,1-.314,1.58,3.78,3.78,0,0,1-1.266,1.289c.057.032.115.068.173.1a5.384,5.384,0,0,1,1.3,1.12,3.16,3.16,0,0,1,.729,1.641,2.425,2.425,0,0,1-.371,1.579,3.628,3.628,0,0,1-.86.914,6.241,6.241,0,0,1,2.5,5.026v9.282a6.36,6.36,0,0,1-.118,1.226l.189.136a29.562,29.562,0,0,0,.861-7.283C611.995,408.8,612.058,408.8,612.058,402.546Z" transform="translate(-587.963 -362.694)"/>
            <path id="Pfad_1016" data-name="Pfad 1016" class="cls-6" d="M694.991,479.054c-.184.051-.364.107-.549.155C694.627,479.161,694.807,479.1,694.991,479.054Z" transform="translate(-624.664 -410.992)"/>
            <path id="Pfad_1017" data-name="Pfad 1017" class="cls-6" d="M700.5,477.389l-.006-.014q-.225.078-.451.153C700.19,477.478,700.347,477.439,700.5,477.389Z" transform="translate(-626.988 -410.296)"/>
            <path id="Pfad_1018" data-name="Pfad 1018" class="cls-6" d="M688.414,480.693c.042-.008.082-.02.123-.027l-.122.02Z" transform="translate(-622.162 -411.662)"/>
            <path id="Pfad_1019" data-name="Pfad 1019" class="cls-6" d="M692.992,479.358c.28-.07.569-.123.848-.2.185-.048.365-.1.549-.155.075-.021.146-.046.219-.067C694.074,479.088,693.533,479.223,692.992,479.358Z" transform="translate(-624.063 -410.945)"/>
            <path id="Pfad_1020" data-name="Pfad 1020" class="cls-6" d="M684.626,429.014a7.337,7.337,0,0,1,.767-2.833,8.049,8.049,0,0,1,.994-1.506q.084-.721.219-1.406a6.261,6.261,0,0,1-.919-1.592,6.89,6.89,0,0,1-.442-2.941,7.987,7.987,0,0,1,2.309-5.14c-.056-.061-.112-.124-.167-.19a6.373,6.373,0,0,1-1.142-2.008,7.552,7.552,0,0,1-.38-2.941,8.869,8.869,0,0,1,.653-2.833,8.636,8.636,0,0,1,.754-1.409c-.086-.805-.171-1.592-.277-2.555-.068-.17-.135-.348-.192-.539a8.421,8.421,0,0,1-.318-2.943c.009-.171.031-.345.05-.518-.725-6.187-.14-6.266-.87-12.472s-2.339-6.025-3.069-12.241c-.63-5.35-.173-6.167-.5-10.254h-5.72c.738,4.642,1.8,5.071,2.465,10.7.732,6.215.557,6.235,1.289,12.451s.219,6.275.95,12.49-.161,6.321.57,12.535,2.2,6.042,2.937,12.256c.49,4.172-1.036,6.114-1.169,8.594l.122-.02c.464-.092.915-.215,1.374-.319A6.461,6.461,0,0,1,684.626,429.014Z" transform="translate(-617.166 -362.694)"/>
            <path id="Pfad_1021" data-name="Pfad 1021" class="cls-6" d="M698.962,477.712c.209-.067.424-.122.63-.191q.226-.075.451-.153l0-.01Q699.5,477.541,698.962,477.712Z" transform="translate(-626.54 -410.288)"/>
            <path id="Pfad_1022" data-name="Pfad 1022" class="cls-6" d="M649.439,480.208c-.445-.093-.885-.2-1.326-.305C648.554,480.007,648.994,480.115,649.439,480.208Z" transform="translate(-605.434 -411.345)"/>
            <path id="Pfad_1023" data-name="Pfad 1023" class="cls-6" d="M645.965,479.389l.068.017-.068-.02Z" transform="translate(-604.543 -411.13)"/>
            <path id="Pfad_1024" data-name="Pfad 1024" class="cls-6" d="M653.521,481.028l0-.012c-.294-.05-.587-.1-.879-.157C652.935,480.913,653.225,480.978,653.521,481.028Z" transform="translate(-607.313 -411.742)"/>
            <path id="Pfad_1025" data-name="Pfad 1025" class="cls-6" d="M650.495,419.041l1.148-12.517.347-12.515-.973-12.515-.395-12.516-.087-6.284h-4.991l-.055,6.287,1.131,12.516-.408,12.514.176,12.517.1,12.516-.721,11.907.068.02c.392.1.791.189,1.188.283.441.1.881.212,1.326.305s.881.173,1.322.254c.292.054.585.108.879.157l-.057-.411Z" transform="translate(-604.345 -362.694)"/>
            <path id="Pfad_1026" data-name="Pfad 1026" class="cls-18" d="M690.985,480.083c.166-.038.325-.088.491-.126l-.494.114Z" transform="translate(-623.228 -411.367)"/>
            <path id="Pfad_1027" data-name="Pfad 1027" class="cls-18" d="M713.344,471.9a.055.055,0,0,0,0-.015l-.445.227C713.045,472.043,713.2,471.98,713.344,471.9Z" transform="translate(-632.325 -408.019)"/>
            <path id="Pfad_1028" data-name="Pfad 1028" class="cls-18" d="M708.549,474.115c-.237.107-.471.218-.709.321C708.079,474.333,708.313,474.222,708.549,474.115Z" transform="translate(-630.226 -408.942)"/>
            <path id="Pfad_1029" data-name="Pfad 1029" class="cls-18" d="M696.826,478.486c-.254.077-.512.146-.769.219C696.313,478.632,696.571,478.563,696.826,478.486Z" transform="translate(-625.335 -410.757)"/>
            <path id="Pfad_1030" data-name="Pfad 1030" class="cls-18" d="M695.755,478.534c.059-.017.118-.029.177-.046.256-.073.514-.142.769-.219.314-.093.62-.206.931-.306C697.01,478.162,696.386,478.358,695.755,478.534Z" transform="translate(-625.209 -410.54)"/>
            <path id="Pfad_1031" data-name="Pfad 1031" class="cls-18" d="M703.765,416.431a7.242,7.242,0,0,0,.371-2.835,8.351,8.351,0,0,0-.73-2.941,8.127,8.127,0,0,0-1.3-2.006c-.057-.065-.115-.129-.174-.189a6.411,6.411,0,0,0,1.267-2.307,8.08,8.08,0,0,0,.315-2.833,9.379,9.379,0,0,0-.668-2.941,8.4,8.4,0,0,0-1.159-2.006c-.053-.067-.105-.13-.156-.191a6.594,6.594,0,0,0,1.106-2.307,8.943,8.943,0,0,0,.256-2.834,10.523,10.523,0,0,0-.6-2.94,9.019,9.019,0,0,0-1.022-2.009c-.048-.064-.091-.128-.137-.188a6.936,6.936,0,0,0,.946-2.306,10.331,10.331,0,0,0,.2-2.833,12.194,12.194,0,0,0-.543-2.942,9.689,9.689,0,0,0-.887-2.007c-.039-.064-.077-.129-.115-.19a7.478,7.478,0,0,0,.784-2.309,12.05,12.05,0,0,0,.143-2.831,14.569,14.569,0,0,0-.481-2.942,11.335,11.335,0,0,0-.75-2.007c-.033-.066-.067-.13-.1-.19a8.449,8.449,0,0,0,.625-2.307,14.271,14.271,0,0,0,.1-2.347h-4.5a13.172,13.172,0,0,0-.584,1.819,16.342,16.342,0,0,0-.423,2.834,13.2,13.2,0,0,0,.131,2.941,8.013,8.013,0,0,0,.6,2.007c.03.066.061.128.092.189a10.3,10.3,0,0,0-.958,2.308,13.417,13.417,0,0,0-.48,2.834,11.017,11.017,0,0,0,.192,2.942,7.262,7.262,0,0,0,.733,2.007c.037.065.073.128.11.188a9.252,9.252,0,0,0-1.117,2.306,11.268,11.268,0,0,0-.538,2.834,9.533,9.533,0,0,0,.254,2.942,6.8,6.8,0,0,0,.869,2.007c.043.066.086.128.13.188a8.584,8.584,0,0,0-1.279,2.309,9.9,9.9,0,0,0-.546,2.315c0,.009,0,.016,0,.027.2,1.711.342,2.943.457,3.972a6.44,6.44,0,0,0,.812,1.467c.05.066.1.129.151.19a8.03,8.03,0,0,0-.686.9c.156,1.459.325,3.007.666,5.911.731,6.215-.568,6.367.165,12.584.428,3.638,1.819,5.186,2.562,7.052,1.4-.477,2.774-.993,4.116-1.576.239-.1.473-.214.709-.321q1.139-.513,2.249-1.074l.445-.227a15.167,15.167,0,0,0-2.487-8.5A6.47,6.47,0,0,0,703.765,416.431Z" transform="translate(-624.374 -362.694)"/>
            <path id="Pfad_1032" data-name="Pfad 1032" class="cls-18" d="M690.973,479.928a.161.161,0,0,1,.005.018l.494-.114c.229-.054.453-.12.681-.177C691.762,479.752,691.368,479.839,690.973,479.928Z" transform="translate(-623.224 -411.242)"/>
            <path id="Pfad_1033" data-name="Pfad 1033" class="cls-18" d="M693.961,425.935c.057.191.123.369.192.539-.115-1.029-.255-2.261-.457-3.972,0-.011,0-.018,0-.027-.019.173-.041.346-.05.518A8.424,8.424,0,0,0,693.961,425.935Z" transform="translate(-624.325 -387.508)"/>
            <path id="Pfad_1034" data-name="Pfad 1034" class="cls-18" d="M691.708,437.923a7.553,7.553,0,0,0,.38,2.941,6.372,6.372,0,0,0,1.142,2.008c.055.066.112.128.167.19a7.987,7.987,0,0,0-2.309,5.14,6.89,6.89,0,0,0,.442,2.941,6.261,6.261,0,0,0,.919,1.592q-.133.683-.219,1.406a8.055,8.055,0,0,0-.994,1.506,7.337,7.337,0,0,0-.767,2.833,6.461,6.461,0,0,0,.288,2.365c.395-.089.789-.176,1.181-.273.541-.135,1.082-.27,1.616-.419.631-.176,1.255-.372,1.876-.571q.542-.171,1.077-.354c-.743-1.867-2.134-3.414-2.562-7.052-.733-6.217.566-6.369-.165-12.584-.342-2.9-.51-4.452-.666-5.911a8.641,8.641,0,0,0-.754,1.409A8.869,8.869,0,0,0,691.708,437.923Z" transform="translate(-623.01 -392.159)"/>
            <path id="Pfad_1035" data-name="Pfad 1035" class="cls-18" d="M758.789,420.734c-.115.312-.244.618-.366.927C758.545,421.351,758.673,421.046,758.789,420.734Z" transform="translate(-651.221 -386.785)"/>
            <path id="Pfad_1036" data-name="Pfad 1036" class="cls-18" d="M760.319,416.4c-.1.316-.212.628-.318.94C760.107,417.031,760.218,416.719,760.319,416.4Z" transform="translate(-651.876 -384.987)"/>
            <path id="Pfad_1037" data-name="Pfad 1037" class="cls-18" d="M757.062,424.966c-.132.306-.275.607-.411.911C756.787,425.573,756.93,425.272,757.062,424.966Z" transform="translate(-650.486 -388.542)"/>
            <path id="Pfad_1038" data-name="Pfad 1038" class="cls-18" d="M755.363,429.221c.021-.039.036-.08.056-.118-.019.039-.04.075-.059.114Z" transform="translate(-649.95 -390.259)"/>
            <path id="Pfad_1039" data-name="Pfad 1039" class="cls-18" d="M761.585,412.353l-.006-.01c-.068.254-.143.5-.214.757C761.436,412.85,761.518,412.606,761.585,412.353Z" transform="translate(-652.443 -383.302)"/>
            <path id="Pfad_1040" data-name="Pfad 1040" class="cls-18" d="M757.4,390.5c-.323-.257-.631-.518-.845-.717.011-.013.024-.025.035-.038a9.856,9.856,0,0,0,1.408-1.5,5.115,5.115,0,0,0,.763-2.822c0-.122,0-.212,0-.269l0-.032v-.015a6.08,6.08,0,0,0-.445-2.068,4.764,4.764,0,0,0-.7-1.159c-.4-.478-.748-.808-.906-1.022a1.889,1.889,0,0,1,.135-.212A9.493,9.493,0,0,0,757.9,379.1a5.94,5.94,0,0,0,.543-2.582c0-.129,0-.24-.007-.338h0v-.027a6.562,6.562,0,0,0-.852-3.071c-.351-.571-.582-.9-.6-.993v-.027l0-.033a1.393,1.393,0,0,1,.152-.624,10.66,10.66,0,0,0,.679-1.555,7.329,7.329,0,0,0,.311-2.189c0-.164-.005-.307-.009-.439v-.027a9.6,9.6,0,0,0-.629-3.091,1.76,1.76,0,0,1-.186-.822c0-.064,0-.126.006-.21.008-.149.018-.26.027-.372h-2.2c-.01.208-.014.4-.014.582a8.3,8.3,0,0,0,.559,3.086,3.129,3.129,0,0,1,.263,1.169c0,.063,0,.1,0,.124-.017.218.021.056-.078.323a11.749,11.749,0,0,0-.68,1.537,8.125,8.125,0,0,0-.375,2.155c-.008.154-.01.291-.011.4a6.856,6.856,0,0,0,.259,1.919,5.387,5.387,0,0,0,.523,1.221,12.2,12.2,0,0,1,.633,1.051.468.468,0,0,1,.043.167,1.5,1.5,0,0,1-.1.161,10.049,10.049,0,0,0-1.061,1.534,6.211,6.211,0,0,0-.608,2.5c-.009.134-.009.25-.009.338a5.793,5.793,0,0,0,.429,2.259,4.509,4.509,0,0,0,.736,1.177c.349.394.65.7.816.914a.636.636,0,0,1-.059.06,10.443,10.443,0,0,0-1.41,1.5,5.2,5.2,0,0,0-.825,2.677c-.009.143-.009.256-.009.335a5.039,5.039,0,0,0,.65,2.582,4.514,4.514,0,0,0,.955,1.1c.307.247.6.492.824.694-.325.263-.782.556-1.239.953a4.046,4.046,0,0,0-1.117,1.524,5.338,5.338,0,0,0-.39,1.8c-.006.125-.006.222-.006.28a4.8,4.8,0,0,0,.557,2.334,3.889,3.889,0,0,0,.336.5c.019-.039.04-.075.059-.114.241-.5.468-1,.7-1.509.136-.3.279-.6.411-.911.22-.51.422-1.03.626-1.548.122-.309.25-.615.366-.927.2-.526.377-1.06.557-1.593.106-.312.217-.624.318-.94.17-.534.325-1.076.48-1.618.071-.253.146-.5.214-.757-.027-.049-.056-.1-.084-.141A4.746,4.746,0,0,0,757.4,390.5Z" transform="translate(-649.317 -362.694)"/>
            <path id="Pfad_1041" data-name="Pfad 1041" class="cls-18" d="M634.484,475.575l.006-.014c-.224-.088-.449-.172-.67-.264C634.041,475.389,634.26,475.485,634.484,475.575Z" transform="translate(-599.501 -409.433)"/>
            <path id="Pfad_1042" data-name="Pfad 1042" class="cls-18" d="M632.348,474.681c.062.027.125.051.188.077-.061-.025-.12-.054-.181-.081Z" transform="translate(-598.891 -409.176)"/>
            <path id="Pfad_1043" data-name="Pfad 1043" class="cls-18" d="M633.2,461.654a1.5,1.5,0,0,0-.217-.691,1.779,1.779,0,0,0-.622-.584c-.255-.151-.509-.264-.691-.366.123-.075.287-.17.46-.267a2.158,2.158,0,0,0,.532-.42,1.49,1.49,0,0,0,.363-.99c0-.03,0-.074,0-.129a1.622,1.622,0,0,0-.461-1.027,5.232,5.232,0,0,0-.786-.574l-.033-.023c.091-.081.261-.2.456-.351a1.8,1.8,0,0,0,.411-.45,1.632,1.632,0,0,0,.238-.866c0-.033,0-.078,0-.13a1.828,1.828,0,0,0-.342-.958,4.232,4.232,0,0,0-.59-.588.693.693,0,0,1-.057-.062.143.143,0,0,1,.025-.064,4.932,4.932,0,0,1,.354-.4,1.817,1.817,0,0,0,.291-.468,1.867,1.867,0,0,0,.144-.735c0-.044,0-.1-.006-.156a2.253,2.253,0,0,0-.208-.827,4.241,4.241,0,0,0-.379-.588c-.057-.1-.036-.042-.045-.124,0-.008,0-.023,0-.047a.909.909,0,0,1,.146-.448,2.345,2.345,0,0,0,.313-1.183c0-.069,0-.143-.009-.222a3.829,3.829,0,0,0-.2-1.018,1,1,0,0,1-.074-.4c0-.043,0-.1.006-.168.021-.3.043-.467.066-.649a4.773,4.773,0,0,0,.045-.653c0-.158-.006-.333-.022-.549a.69.69,0,0,0-.605-.706l-.054,0a.747.747,0,0,0-.551.843c.012.18.016.31.016.409a2.887,2.887,0,0,1-.029.409c-.021.168-.053.407-.077.762-.007.106-.011.2-.011.3a2.979,2.979,0,0,0,.164.986,1.972,1.972,0,0,1,.117.569c0,.033,0,.057,0,.082-.012.161,0,.1-.1.315a2.731,2.731,0,0,0-.352,1.185v.011c0,.05,0,.105,0,.168a2,2,0,0,0,.172.838,3.6,3.6,0,0,0,.38.6.429.429,0,0,1,.085.239v.015s0,0,0,.006v0a4.564,4.564,0,0,1-.337.381,1.986,1.986,0,0,0-.475,1.178v.011c0,.037,0,.08,0,.13a1.709,1.709,0,0,0,.3.99,3.961,3.961,0,0,0,.591.591.916.916,0,0,1,.075.083c-.088.082-.283.208-.505.392a1.9,1.9,0,0,0-.391.444,1.737,1.737,0,0,0-.249.793v.019c0,.022,0,.056,0,.1a1.535,1.535,0,0,0,.425,1.081,4.863,4.863,0,0,0,.785.576.08.08,0,0,0,.02.015c-.12.076-.291.176-.471.274a2.279,2.279,0,0,0-.538.42,1.547,1.547,0,0,0-.4.947v.015c0,.025,0,.056,0,.1a1.473,1.473,0,0,0,.186.725,1.654,1.654,0,0,0,.616.6c.245.147.49.256.674.357l-.03.015c-.07.036-.148.07-.228.106.061.026.12.056.181.081.223.1.448.189.673.282s.447.176.67.264a1.445,1.445,0,0,0,.19-.714A.948.948,0,0,0,633.2,461.654Z" transform="translate(-598.031 -396.349)"/>
            <path id="Pfad_1044" data-name="Pfad 1044" class="cls-18" d="M608.35,459.641c-.4-.33-.783-.671-1.169-1.012C607.567,458.971,607.955,459.311,608.35,459.641Z" transform="translate(-588.444 -402.515)"/>
            <path id="Pfad_1045" data-name="Pfad 1045" class="cls-18" d="M603.278,454.989q.68.672,1.383,1.32v0Q603.959,455.659,603.278,454.989Z" transform="translate(-586.824 -401.004)"/>
            <path id="Pfad_1046" data-name="Pfad 1046" class="cls-18" d="M611.67,462.359c-.346-.265-.69-.536-1.031-.808C610.98,461.824,611.324,462.094,611.67,462.359Z" transform="translate(-589.88 -403.727)"/>
            <path id="Pfad_1047" data-name="Pfad 1047" class="cls-18" d="M613.945,464.1c.1.07.19.145.287.216v-.005c-.035-.026-.069-.055-.1-.082C614.067,464.182,614,464.141,613.945,464.1Z" transform="translate(-591.252 -404.784)"/>
            <path id="Pfad_1048" data-name="Pfad 1048" class="cls-18" d="M605.792,457.386l.133.126c-.041-.038-.082-.079-.122-.118A.033.033,0,0,1,605.792,457.386Z" transform="translate(-587.868 -401.999)"/>
            <path id="Pfad_1049" data-name="Pfad 1049" class="cls-18" d="M601.426,453.076q-.535-.546-1.056-1.107Q600.89,452.53,601.426,453.076Z" transform="translate(-585.617 -399.75)"/>
            <path id="Pfad_1050" data-name="Pfad 1050" class="cls-18" d="M594.086,444.452c.473.631.96,1.246,1.459,1.855q-.748-.913-1.458-1.856Z" transform="translate(-583.009 -396.63)"/>
            <path id="Pfad_1051" data-name="Pfad 1051" class="cls-18" d="M598.529,449.9c-.357-.4-.708-.807-1.055-1.216C597.82,449.1,598.171,449.5,598.529,449.9Z" transform="translate(-584.415 -398.388)"/>
            <path id="Pfad_1052" data-name="Pfad 1052" class="cls-18" d="M605.81,457.4c.04.039.081.08.122.118.223.2.453.4.68.6.386.342.774.682,1.169,1.012.1.08.194.156.29.236Q606.915,458.414,605.81,457.4Z" transform="translate(-587.875 -402.004)"/>
            <path id="Pfad_1053" data-name="Pfad 1053" class="cls-18" d="M610.556,461.481c.017.013.033.026.049.041.341.273.685.543,1.031.808.3.229.6.457.9.681.06.044.122.085.182.128Q611.617,462.337,610.556,461.481Z" transform="translate(-589.845 -403.698)"/>
            <path id="Pfad_1054" data-name="Pfad 1054" class="cls-18" d="M600.043,415.066c0-6.259.9-6.259.9-12.516,0-6.237.511-6.262.514-12.458-.048-.041-.1-.1-.147-.136s-.091-.071-.135-.106c.094-.082.19-.173.285-.273,0-2.082.026-3.453.054-4.616a5.279,5.279,0,0,0-.625-.741c-.039-.036-.078-.071-.116-.1a3.246,3.246,0,0,0,.784-1.289c.008-.025.009-.056.016-.082.015-.575.029-1.2.039-1.926a5.067,5.067,0,0,0-.394-1.213,5.162,5.162,0,0,0-.75-1.121c-.034-.036-.067-.071-.1-.1a3.292,3.292,0,0,0,.626-1.288,4.635,4.635,0,0,0,.085-1.58,6.066,6.066,0,0,0-.421-1.641,5.545,5.545,0,0,0-.612-1.12c-.027-.038-.054-.072-.078-.105a3.566,3.566,0,0,0,.463-1.287,5.79,5.79,0,0,0,.028-1.582,7.923,7.923,0,0,0-.357-1.641,6.913,6.913,0,0,0-.478-1.12l-.057-.1a4.261,4.261,0,0,0,.3-1.287,8.126,8.126,0,0,0-.029-1.582,12.4,12.4,0,0,0-.232-1.351h-2.214c0,.04,0,.087,0,.124a4.837,4.837,0,0,0,.186,1.12c.011.037.022.073.033.106a8.342,8.342,0,0,0-.476,1.288,9.8,9.8,0,0,0-.308,1.58,6.735,6.735,0,0,0,.006,1.642,3.9,3.9,0,0,0,.323,1.118c.019.038.036.071.054.108a5.923,5.923,0,0,0-.638,1.287,7.011,7.011,0,0,0-.366,1.58,5.111,5.111,0,0,0,.07,1.642,3.362,3.362,0,0,0,.459,1.118c.024.036.048.071.073.1a5.2,5.2,0,0,0-.8,1.289,5.417,5.417,0,0,0-.424,1.58,4.182,4.182,0,0,0,.131,1.641,3.225,3.225,0,0,0,.6,1.12c.03.037.061.072.091.106a5.006,5.006,0,0,0-.958,1.287,4.55,4.55,0,0,0-.479,1.58,3.517,3.517,0,0,0,.192,1.642,3.248,3.248,0,0,0,.733,1.118l.11.106a4.943,4.943,0,0,0-1.117,1.286,3.99,3.99,0,0,0-.538,1.582,3.084,3.084,0,0,0,.254,1.642,3.357,3.357,0,0,0,.87,1.119c.043.036.087.071.13.1A5.131,5.131,0,0,0,594.327,394a3.554,3.554,0,0,0-.595,1.582,2.753,2.753,0,0,0,.317,1.641,3.529,3.529,0,0,0,1.005,1.118c.049.037.1.073.149.107a5.353,5.353,0,0,0-1.439,1.287,3.265,3.265,0,0,0-.653,1.582,2.534,2.534,0,0,0,.38,1.64,3.844,3.844,0,0,0,1.142,1.12c.057.036.112.071.168.1a5.692,5.692,0,0,0-1.6,1.287,3.028,3.028,0,0,0-.711,1.581,2.353,2.353,0,0,0,.443,1.642,3.8,3.8,0,0,0,.918.888,6.4,6.4,0,0,0-.219.783c-.072.049-.144.1-.215.151q.708.945,1.458,1.856c.171.209.348.414.522.622.346.409.7.816,1.055,1.216q.317.354.639.7.52.561,1.056,1.107c.214.221.426.443.645.66q.679.671,1.383,1.318A28.347,28.347,0,0,1,600.043,415.066Z" transform="translate(-582.341 -362.694)"/>
            <path id="Pfad_1055" data-name="Pfad 1055" class="cls-18" d="M614.257,464.316c.036.027.07.056.1.082v-.006C614.327,464.367,614.292,464.342,614.257,464.316Z" transform="translate(-591.381 -404.875)"/>
            <path id="Pfad_1056" data-name="Pfad 1056" class="cls-18" d="M605.643,457.242v0l.087.082a.033.033,0,0,0,.011.008C605.707,457.305,605.676,457.273,605.643,457.242Z" transform="translate(-587.806 -401.939)"/>
            <path id="Pfad_1057" data-name="Pfad 1057" class="cls-18" d="M608.49,404.366a3.264,3.264,0,0,0,.2-1.579,4.2,4.2,0,0,0-.543-1.642,3.949,3.949,0,0,0-.261-.38c-.028,1.163-.053,2.534-.054,4.616A3.2,3.2,0,0,0,608.49,404.366Z" transform="translate(-588.714 -378.496)"/>
            <path id="Pfad_1058" data-name="Pfad 1058" class="cls-18" d="M605.412,434.509a28.331,28.331,0,0,0,.135,2.931c.033.031.064.063.1.092q1.1,1.016,2.261,1.968c.171.14.343.281.515.419q1.062.855,2.165,1.658c.034.026.07.051.106.076a6.354,6.354,0,0,0,.118-1.226v-9.282a6.241,6.241,0,0,0-2.5-5.026,3.63,3.63,0,0,0,.86-.914,2.425,2.425,0,0,0,.371-1.579,3.16,3.16,0,0,0-.729-1.641,5.386,5.386,0,0,0-1.3-1.12c-.058-.036-.116-.073-.173-.1a3.779,3.779,0,0,0,1.266-1.289,2.635,2.635,0,0,0,.314-1.58,3.408,3.408,0,0,0-.667-1.64,5.08,5.08,0,0,0-1.159-1.119c-.053-.037-.105-.073-.157-.106a3.508,3.508,0,0,0,1.106-1.287,2.915,2.915,0,0,0,.257-1.583,3.764,3.764,0,0,0-.6-1.64,4.7,4.7,0,0,0-.877-.983c0,6.2-.514,6.221-.514,12.458C606.31,428.25,605.412,428.25,605.412,434.509Z" transform="translate(-587.71 -382.137)"/>
            <path id="Pfad_1059" data-name="Pfad 1059" class="cls-18" d="M608.152,394.113c-.015-.143-.057-.285-.087-.429-.01.725-.025,1.351-.039,1.926A3.836,3.836,0,0,0,608.152,394.113Z" transform="translate(-588.795 -375.557)"/>
            <path id="Pfad_1060" data-name="Pfad 1060" class="cls-18" d="M667.853,462.908a2.553,2.553,0,1,0,2.555,2.554A2.553,2.553,0,0,0,667.853,462.908Z" transform="translate(-612.568 -404.291)"/>
          </g>
        </g>
        <g id="Gruppe_430" data-name="Gruppe 430" transform="translate(38.197 43.801)">
          <g id="Gruppe_425" data-name="Gruppe 425" transform="translate(19.363 12.393)">
            <path id="Pfad_1061" data-name="Pfad 1061" class="cls-7" d="M675.757,410.434l-.347-.674-.663-.029-.49-.56-.645.113-.552-.477-.617.214-.6-.394-.576.315-.254-.113a7.323,7.323,0,0,1-1.735,2.544,6.959,6.959,0,0,1-2.971,1.805l.073.481-.25.689.509.332.281.589.556-.108.459.438.5-.27.512.345.457-.349.539.28.421-.4.554.223.384-.448.672.119.43-.549.673.03.378-.6.669-.039.324-.641.655-.118.248-.689.618-.248.058-.751.314-.641Z" transform="translate(-666.133 -408.627)"/>
            <path id="Pfad_1062" data-name="Pfad 1062" class="cls-19" d="M674.715,409.659l-.087-.1-.272.047.033.039Zm1.413,1.162-.347-.674-.495-.022.115.222.585.415-.314.641-.059.752-.618.248-.247.688-.655.118-.325.642-.667.038-.378.6-.674-.03-.429.55-.673-.118-.383.447-.555-.223-.42.4-.539-.28-.457.349-.513-.345-.5.27-.459-.438-.1.02.268.562.556-.108.459.438.5-.27.512.344.457-.349.539.28.421-.4.554.223.384-.448.672.119.43-.549.673.03.378-.6.669-.039.324-.641.655-.118.248-.689.618-.248.059-.751.314-.641Z" transform="translate(-666.503 -409.013)"/>
          </g>
          <path id="Pfad_1063" data-name="Pfad 1063" class="cls-19" d="M656.564,419.3c1.534,1,3.849,3.814,5.928,4.01-2.148.639-3.077-2.091-5.248-1.682-1.7.319-2.9.4-3.765-.084-.439-.242-1.727-1.049-1.727-1.049l2.948-1.829A11.107,11.107,0,0,1,656.564,419.3Z" transform="translate(-640.801 -400.4)"/>
          <g id="Gruppe_426" data-name="Gruppe 426" transform="translate(25.798 2.644)">
            <path id="Pfad_1064" data-name="Pfad 1064" class="cls-7" d="M683.208,395.322l.056,1.132.47,1.037-.2,1.083.284,1.109-.38,1,.078,1.132-.628.8-.507.907-.906-.349-.925-.017-.707-.765-.915-.3-.556-.909-1.237-5.248.092-1.051.676-.667.253-1,.8-.468.581-.781.637.25.623-.179.422.624.642.233.185.744.579.423.057.759Z" transform="translate(-677.134 -391.96)"/>
            <path id="Pfad_1065" data-name="Pfad 1065" class="cls-19" d="M684.726,395.322l-.529-.508-.057-.759-.579-.423-.185-.744-.642-.233-.422-.624-.623.179-.637-.25-.26.35.243.1.623-.178.422.623.642.232.185.745.579.422.057.76.529.508.057,1.132.47,1.037-.2,1.084.284,1.108-.38,1,.077,1.132-.627.8-.3.539.449.174.507-.907.628-.8-.078-1.132.38-1-.284-1.109.2-1.083-.47-1.037Z" transform="translate(-678.652 -391.96)"/>
          </g>
          <path id="Pfad_1066" data-name="Pfad 1066" class="cls-7" d="M658.588,397.058a1.962,1.962,0,0,1-2.277.2c-2.184-2.64-6.732-3.674-11.7-2.195-6.113,1.82-10.726,7.247-11.534,12.44,1.221,4.1,9.841,4.222,15.954,2.4a13.069,13.069,0,0,0,7.538-5.291c.553-.8,2.05-2.62,3.821-1.964C662.331,401.89,661.273,396.259,658.588,397.058Z" transform="translate(-633.049 -390.323)"/>
          <g id="Gruppe_427" data-name="Gruppe 427" transform="translate(6.159)">
            <path id="Pfad_1067" data-name="Pfad 1067" class="cls-7" d="M663.514,389.079l-.8-.38-.629-.683-.826.06-.752-.489-.79.228-.794-.376-.757.326-.814-.3-.727.4-.826-.229-.7.456-.832-.168-.665.508-.835-.108-.632.559-.834-.044-.441.539-.676-.069-.419.56-.675-.036-.394.584-.673,0-.362.613-.666.052-.323.643-.657.111-.271.678-.64.18-.208.712-.614.26-.133.742-.594.414.707.388c1.549-1.29,4.523-2.233,7.97-2.366,4.066-.157,7.565.861,8.875,2.415l.081-.209.6-.149.156-.683.567-.255.06-.711.519-.356-.038-.722.454-.453-.147-.715.356-.558-.3-.658Z" transform="translate(-643.558 -387.439)"/>
            <path id="Pfad_1068" data-name="Pfad 1068" class="cls-19" d="M662.441,394l.075-.033.041-.478-.136.136Zm1.073-4.922-.8-.38-.629-.683-.826.06-.752-.489-.79.228-.794-.376-.757.326-.814-.3-.727.4-.826-.229-.7.456-.832-.168-.665.508-.835-.108-.632.559-.834-.044-.441.539-.676-.069-.419.56-.675-.036-.394.584-.673,0-.362.613-.666.052-.323.643-.657.111-.271.678-.64.18-.208.712-.614.26-.133.742-.594.414.339.187.364-.156.208-.711.64-.18.271-.678.657-.11.322-.645.667-.052.362-.613.673,0,.395-.586.674.037.42-.561.676.07.44-.539.835.044.632-.559.835.106.666-.507.832.167.7-.454.826.229.726-.4.814.3.757-.326.794.377.79-.229.753.489.825-.06.629.683.8.381-.1.716.3.659-.356.558.126.609.242-.167-.038-.722.454-.453-.147-.715.356-.558-.3-.658Z" transform="translate(-643.558 -387.439)"/>
          </g>
          <path id="Pfad_1069" data-name="Pfad 1069" class="cls-8" d="M633.346,415.534l2.349,1.813-.026.159-2.441-.773-.2-.392.084-.383.013-.359Z" transform="translate(-633.029 -399.101)"/>
          <path id="Pfad_1070" data-name="Pfad 1070" class="cls-8" d="M645.32,399.329c5.943-1.77,11.776-1.621,16.146.048-.336-1.448-1.285-2.729-2.662-2.319a1.962,1.962,0,0,1-2.277.2c-2.184-2.64-6.732-3.674-11.7-2.195A16.959,16.959,0,0,0,633.6,406.118,27.366,27.366,0,0,1,645.32,399.329Z" transform="translate(-633.265 -390.323)"/>
          <g id="Gruppe_428" data-name="Gruppe 428" transform="translate(1.692 14.164)">
            <path id="Pfad_1071" data-name="Pfad 1071" class="cls-19" d="M635.922,412.924a1.411,1.411,0,0,0,1.211,1.409,1.13,1.13,0,0,0,1.127-1.266,1.412,1.412,0,0,0-1.21-1.41A1.131,1.131,0,0,0,635.922,412.924Z" transform="translate(-635.922 -411.655)"/>
            <path id="Pfad_1072" data-name="Pfad 1072" class="cls-20" d="M636.031,412.977a1.152,1.152,0,0,0,.988,1.151.922.922,0,0,0,.92-1.034,1.153,1.153,0,0,0-.988-1.151A.924.924,0,0,0,636.031,412.977Z" transform="translate(-635.967 -411.774)"/>
            <path id="Pfad_1073" data-name="Pfad 1073" class="cls-10" d="M636.224,412.807a.874.874,0,0,0,.75.873.7.7,0,0,0,.7-.784.874.874,0,0,0-.75-.873A.7.7,0,0,0,636.224,412.807Z" transform="translate(-636.047 -411.807)"/>
            <path id="Pfad_1074" data-name="Pfad 1074" class="cls-4" d="M637.224,412.186a.3.3,0,0,0,.256.3.24.24,0,0,0,.238-.268.3.3,0,0,0-.256-.3A.239.239,0,0,0,637.224,412.186Z" transform="translate(-636.462 -411.764)"/>
            <path id="Pfad_1075" data-name="Pfad 1075" class="cls-4" d="M639.081,414.058l.022-.415-.8.015-.013.045Z" transform="translate(-636.905 -412.48)"/>
          </g>
          <g id="Gruppe_429" data-name="Gruppe 429" transform="translate(4.599 4.065)">
            <path id="Pfad_1076" data-name="Pfad 1076" class="cls-8" d="M669.791,401.125q-.046-.512-.109-1.069-.3-.733-.585-1.424c-.046-.379-.1-.772-.153-1.182-.071-.37-.144-.749-.221-1.135a8.7,8.7,0,0,0-2.193-1.035c.062.226.125.452.187.679q.205.455.428.949c.009.3.013.593.009.87l.453,1.01q.085.453.164.892c.149.348.3.71.459,1.08l.251.953a3.181,3.181,0,0,1-.242.527q.319.618.657,1.293l.254.946q.256.543.523,1.12c.064.078.129.156.193.236a8.927,8.927,0,0,0,.59-.85,7.456,7.456,0,0,1,.621-.778q-.275-.742-.545-1.458Q670.154,401.9,669.791,401.125Z" transform="translate(-651.533 -394.759)"/>
            <path id="Pfad_1077" data-name="Pfad 1077" class="cls-8" d="M675.167,400.916l-.28-1.709a2.016,2.016,0,0,1-2.1.054.147.147,0,0,0-.015-.018l.013.075.9,2.04.36,2.2.625,1.413a2.568,2.568,0,0,1,1.652-.447l-.257-1.569Z" transform="translate(-654.125 -396.389)"/>
            <path id="Pfad_1078" data-name="Pfad 1078" class="cls-8" d="M644.93,408.973q-.11-.611-.254-1.2c-.2-.349-.4-.706-.611-1.066q-.134-.593-.306-1.152-.223-.552-.476-1.084-.269-.532-.566-1.049-.389-.523-.8-1.05c-.155-.213-.314-.425-.474-.639-.187.168-.371.339-.55.512.156.349.3.706.437,1.076q.388.6.757,1.2.271.6.515,1.221.191.626.349,1.285.234.635.44,1.279.118.679.2,1.393c.155.42.3.837.443,1.247q.05.724.063,1.481.082.7.132,1.415c.012.077.022.155.034.233.6.008,1.211-.008,1.827-.044.02-.228.037-.453.051-.676q-.034-.6-.1-1.184c-.055-.38-.12-.76-.2-1.138-.128-.336-.263-.68-.406-1.029Q645.194,409.5,644.93,408.973Z" transform="translate(-640.892 -397.438)"/>
            <path id="Pfad_1079" data-name="Pfad 1079" class="cls-8" d="M654.113,395.848l-.149-.9q-.692.143-1.4.353c-.108.032-.216.066-.323.1l.394.893.36,2.2.9,2.039.36,2.2.9,2.039.36,2.2.9,2.039.2,1.231c.12-.034.239-.068.359-.1.481-.143.946-.305,1.394-.482l-.476-1.08-.361-2.207-.9-2.04-.36-2.2-.9-2.04-.36-2.2Z" transform="translate(-645.603 -394.619)"/>
            <path id="Pfad_1080" data-name="Pfad 1080" class="cls-8" d="M658.746,394.891q.082.632.157,1.238.357.379.71.8.2.524.391,1.052c.075.385.149.764.219,1.141q.217.508.427,1.029c.058.38.115.753.169,1.124q.282.5.554,1.015.075.561.142,1.11.152.537.3,1.079.207.538.405,1.089.078.546.151,1.083.089.54.174,1.074.184.4.363.8a13.9,13.9,0,0,0,1.348-.862q-.089-.4-.182-.789-.011-.6-.03-1.219-.1-.623-.2-1.252-.123-.628-.253-1.259-.224-.621-.457-1.227-.269-.6-.548-1.176-.076-.639-.159-1.293-.291-.572-.591-1.121-.038-.676-.083-1.383-.123-.659-.254-1.331c-.088-.374-.179-.752-.271-1.129a13.474,13.474,0,0,0-2.668-.051C658.621,394.586,658.684,394.737,658.746,394.891Z" transform="translate(-648.225 -394.389)"/>
            <path id="Pfad_1081" data-name="Pfad 1081" class="cls-8" d="M651.982,409.792q-.291-.528-.56-1.066-.289-.532-.553-1.071-.325-.523-.621-1.053-.112-.584-.222-1.17c-.166-.363-.325-.729-.479-1.095q-.1-.588-.2-1.179-.116-.583-.221-1.171-.162-.57-.312-1.142t-.311-1.14q-.2-.553-.4-1.108-.1-.583-.2-1.168c-.013-.117-.025-.235-.037-.353q-.684.326-1.331.709c0,.02,0,.04,0,.061q.185.561.367,1.121c.128.371.256.743.384,1.115q.111.584.227,1.165.154.569.309,1.138.208.554.417,1.107.086.591.17,1.182.21.554.425,1.105.135.576.268,1.152.211.554.43,1.105.16.568.321,1.137.034.6.043,1.214c.178.359.362.715.556,1.069l.124.43c.651-.09,1.3-.2,1.931-.334-.08-.207-.16-.415-.239-.623Q652.136,410.36,651.982,409.792Z" transform="translate(-643.238 -395.504)"/>
          </g>
        </g>
      </g>
      <g id="Gruppe_432" data-name="Gruppe 432" transform="translate(0 77.956)">
        <path id="Pfad_1082" data-name="Pfad 1082" class="cls-9" d="M523.646,431.734l13.11-24.315c5.574-19.766-8.97-50.632-8.97-50.632s-15.385-27.065-30.092-22.133C479.114,345.132,494.486,400.587,523.646,431.734Z" transform="translate(-489.595 -334.053)"/>
        <path id="Pfad_1083" data-name="Pfad 1083" class="cls-9" d="M616.828,487.723,605.4,464.43c-17.036-.144-22.707-2.173-22.707-2.173s-37.618-16.638-34.978,21.178C549.647,487.637,605.324,494.269,616.828,487.723Z" transform="translate(-513.665 -385.755)"/>
        <path id="Pfad_1084" data-name="Pfad 1084" class="cls-16" d="M662.644,442.677l1.342-4.29s4.82,1.677,2.548,7.729a28.37,28.37,0,0,1-2.883,3.957s14.894-2.966,19.463-3.449c7.432-.786,5.8,3.221,5.8,3.221l-5.361,1.92,6.639-1.262c2.288-.436,4.211.631,4.31,2.391.075,1.332-3.522,3.655-5,4.411,2.168-.3,4.87.547,4.972,2.393.108,1.925-10.588,5.395-10.588,5.395a2.57,2.57,0,0,1,3.1,2.159c.154,1.448-15.441,5.223-15.441,5.223a2.93,2.93,0,0,1-.827.026l-6.769,2.865-7.3.223-8.274-17.246,1.936-6.554Z" transform="translate(-555.498 -377.36)"/>
      </g>
    </g>
  </g>
</svg>
